<?xml version="1.0" encoding="UTF-8"?>
<svg id="Layer_2" data-name="Layer 2" xmlns="http://www.w3.org/2000/svg" viewBox="0 0 52.01 49.65">
  <style>
    path { fill: #342609; }
    @media (prefers-color-scheme: dark) { path { fill: #ffffff; } }
  </style>
  <g id="Layer_1-2" data-name="Layer 1">
    <g>
      <path d="M0,18.61c0-3.79,9.42-11.09,14.22-11.09,5.7,0,9,3.73,9,10.51,0,2.03-3.84,4.59-6.9,4.59-1.14,0-1.8-.48-1.8-1.28,0-1.07.96-1.49.96-3.04,0-2.93-1.86-4.64-5.28-4.64-2.1,0-3,1.39-3,3.63v9.65c0,4.75,2.76,7.25,8.58,7.25,2.76,0,3.18-2.77,5.64-2.77.96,0,1.68.59,1.68,1.44,0,2.4-7.5,7.73-10.38,7.73-7.44,0-12.72-4.11-12.72-9.81v-12.16Z"/>
      <path d="M22.13,39.62c0-2.08,3.78-2.61,3.78-5.76V15.57c0-5.87-3.48-8.32-3.48-10.99,0-.85.6-1.49,1.5-1.55,1.56,0,2.28,1.44,3.66,1.44,2.28,0,3.54-4.48,6.84-4.48,1.5,0,2.4.91,2.4,2.35,0,3.57-3.66,7.52-3.66,12.64,0,.96.42,1.33,1.02,1.33,2.28,0,5.7-5.07,9.96-5.07,3.12,0,7.86,2.83,7.86,4.85s-2.46,2.99-2.46,5.92c0,9.07,2.04,12.59,2.04,18.83,0,3.25-5.28,8.8-8.46,8.8-1.32,0-2.16-.75-2.16-1.97,0-3.95,1.8-6.83,1.8-13.23v-12.21c0-2.61-2.34-4.48-5.34-4.48-2.58,0-4.38,3.79-4.38,7.36v8.69c0,3.25,3.78,3.73,3.78,5.81,0,1.81-4.92,4.69-7.26,4.69s-7.44-2.83-7.44-4.69Z"/>
    </g>
  </g>
</svg>
