<?xml version="1.0" encoding="UTF-8"?>
<svg fill="#342609" id="Layer_2" data-name="Layer 2" xmlns="http://www.w3.org/2000/svg" viewBox="0 0 855.19 451">
  <g id="Layer_1-2" data-name="Layer 1">
    <g>
      <path d="M806.15,18.63c16.79,0,30.41,13.61,30.41,30.41v352.92c0,16.79-13.61,30.41-30.41,30.41H49.04c-16.79,0-30.41-13.61-30.41-30.41V49.04c0-16.79,13.61-30.41,30.41-30.41h757.11M806.15,0H49.04C22,0,0,22,0,49.04v352.92c0,27.04,22,49.04,49.04,49.04h757.11c27.04,0,49.04-22,49.04-49.04V49.04c0-27.04-22-49.04-49.04-49.04h0Z"/>
      <g>
        <g>
          <path d="M255.75,64.72c-.88-2.76-2-5.29-3.38-7.59-1.38-2.3-3.01-4.13-4.9-5.48-1.89-1.35-3.94-1.82-6.15-1.41-.47.09-1.31.19-2.51.29-1.2.11-2.47.28-3.81.53l-6.27,1.18c-15.93,2.99-31.09,10.22-45.49,21.7-14.4,11.47-28,25.18-40.8,41.1-43.03,53.54-78.81,113.93-91.5,186.43-1.48,8.45-2.41,17.03-2.79,25.75-.39,8.73.03,17.36,1.24,25.91,2.08,14.72,6.57,25.82,13.46,33.3,6.89,7.48,14.94,12.31,24.15,14.48l14.19-2.66c11.35-2.13,21.84-6.66,31.47-13.58,9.62-6.92,18.5-15.41,26.63-25.47,8.13-10.05,15.56-21.32,22.29-33.79,6.73-12.47,13.04-25.35,18.93-38.65l-.66-4.63c-.3-2.14-.67-3.83-1.09-5.1-.42-1.26-1.42-1.74-3-1.45-1.89.35-4.14,2.24-6.73,5.65-2.59,3.41-5.56,7.62-8.9,12.64-3.34,5.01-6.99,10.39-10.95,16.13-3.96,5.74-8.28,11.24-12.96,16.51-4.68,5.26-9.65,9.85-14.93,13.77-5.27,3.92-10.75,6.4-16.43,7.47l-2.25.42c-1.03.19-2.14.34-3.34.44-1.2.11-2.31.25-3.34.44l-2.25.42c-4.63-1.81-8.01-4.53-10.14-8.15-19.68-33.4,1.97-88.12,12.73-121.47,7.08-21.93,17.04-42.78,30.21-60.6,6.79-9.19,14.47-18.43,23.03-27.72,8.56-9.28,16.87-17.79,24.92-25.51,8.05-7.72,15.37-14.09,21.94-19.1,6.57-5.01,11.36-7.8,14.36-8.36.63-.12,1.98-.31,4.05-.58,2.07-.26,3.42-.46,4.05-.58.35.18.81.83,1.37,1.94.56,1.12.8,1.92.71,2.43.22,7.27-1.89,15.29-6.31,24.03-4.43,8.75-10.22,17.58-17.38,26.47-9.04,11.24-19.1,19.54-29.21,28.99-7.5,7-14.99,14-22.49,21.01-2.65,2.47-5.37,5.05-6.92,8.54-1.59,3.58-1.77,7.76-1.65,11.78.06,2.15.29,4.52,1.67,5.96,2.61,2.72,6.68.1,9.38-2.5,8.11-7.82,16.07-16.02,24.78-22.79,7.85-6.1,17.08-13.33,23.21-21.88,8.57-9.16,16.17-18.69,22.79-28.59,6.61-9.89,11.75-19.93,15.4-30.12,3.66-10.19,4.81-20.03,3.47-29.53-.4-2.85-1.04-5.65-1.92-8.41Z"/>
          <path d="M86.99,401.12h-.04c-9.21-2.18-17.37-7.07-24.25-14.55-6.88-7.48-11.43-18.72-13.51-33.42-1.21-8.53-1.62-17.26-1.24-25.95.38-8.67,1.32-17.34,2.79-25.77,11.08-63.33,40.17-122.6,91.54-186.52,12.75-15.87,26.49-29.71,40.84-41.14,14.36-11.44,29.7-18.76,45.59-21.74l6.27-1.18c1.32-.25,2.61-.43,3.83-.54,1.43-.12,2.14-.22,2.49-.29,2.25-.42,4.38.06,6.31,1.44,1.9,1.36,3.57,3.22,4.96,5.54,1.38,2.31,2.53,4.88,3.4,7.64h0c.88,2.75,1.52,5.6,1.93,8.45,1.34,9.49.17,19.46-3.48,29.63-3.65,10.17-8.84,20.32-15.43,30.17-6.58,9.85-14.26,19.48-22.81,28.61-6.26,8.73-15.67,16.04-23.24,21.91-6.97,5.41-13.56,11.85-19.94,18.08-1.61,1.57-3.21,3.14-4.83,4.69-1.45,1.39-4.25,3.71-6.86,3.71-.03,0-.06,0-.09,0-1.06-.02-1.98-.43-2.73-1.22-1.41-1.47-1.67-3.8-1.73-6.1-.11-3.76,0-8.11,1.67-11.87,1.59-3.59,4.45-6.26,6.96-8.61l22.49-21.01c2.24-2.09,4.5-4.15,6.7-6.15,7.95-7.24,15.47-14.08,22.5-22.82,7.11-8.84,12.95-17.73,17.35-26.44,4.39-8.67,6.5-16.72,6.29-23.93.08-.5-.15-1.27-.69-2.34-.61-1.21-1-1.66-1.22-1.81-.71.13-2.12.33-3.98.56-2.15.28-3.43.46-4.03.57-2.95.55-7.75,3.35-14.27,8.32-6.57,5.01-13.95,11.44-21.92,19.09-8.03,7.7-16.41,16.28-24.91,25.5-8.49,9.21-16.24,18.53-23.01,27.7-12.54,16.96-22.69,37.33-30.18,60.54-1.06,3.3-2.23,6.78-3.46,10.47-11.38,34.1-26.98,80.8-9.29,110.82,2.09,3.55,5.44,6.26,9.98,8.04l2.19-.41c1-.19,2.1-.33,3.36-.45,1.14-.09,2.26-.24,3.32-.44l2.25-.42c5.62-1.06,11.12-3.55,16.34-7.43,5.23-3.88,10.24-8.5,14.9-13.74,4.65-5.24,9.01-10.78,12.94-16.49,3.91-5.67,7.6-11.09,10.95-16.13,3.32-4.99,6.32-9.25,8.9-12.65,2.61-3.44,4.92-5.36,6.86-5.73,1.69-.32,2.78.22,3.24,1.59.42,1.27.79,3,1.1,5.13l.66,4.69-.02.06c-5.86,13.24-12.24,26.25-18.94,38.66-6.7,12.42-14.21,23.8-22.31,33.82-8.11,10.03-17.08,18.61-26.67,25.51-9.6,6.91-20.22,11.49-31.55,13.62l-14.24,2.67ZM242.83,50.31c-.48,0-.97.05-1.47.14-.51.1-1.39.2-2.53.29-1.21.11-2.48.28-3.79.53l-6.27,1.18c-15.82,2.97-31.09,10.25-45.4,21.65-14.32,11.41-28.04,25.23-40.77,41.07-51.33,63.86-80.39,123.07-91.45,186.33-1.47,8.42-2.41,17.07-2.78,25.72-.38,8.66.03,17.37,1.24,25.87,2.07,14.61,6.58,25.77,13.4,33.19,6.82,7.4,14.89,12.25,24,14.41l14.15-2.65c11.27-2.11,21.83-6.67,31.38-13.54,9.55-6.87,18.5-15.43,26.58-25.43,8.08-10,15.58-21.36,22.27-33.76,6.69-12.39,13.05-25.37,18.9-38.58l-.65-4.57c-.3-2.11-.66-3.81-1.08-5.06-.39-1.16-1.29-1.58-2.76-1.31-1.83.34-4.05,2.22-6.6,5.57-2.58,3.39-5.57,7.64-8.89,12.62-3.35,5.04-7.04,10.46-10.95,16.13-3.95,5.72-8.31,11.28-12.98,16.53-4.67,5.26-9.71,9.9-14.96,13.8-5.27,3.91-10.83,6.44-16.51,7.51l-2.25.42c-1.08.2-2.21.35-3.36.45-1.24.11-2.32.25-3.32.44l-2.31.43-.06-.02c-4.65-1.82-8.1-4.6-10.24-8.24-17.78-30.19-2.16-76.99,9.25-111.17,1.23-3.69,2.39-7.17,3.46-10.47,7.5-23.25,17.68-43.67,30.24-60.66,6.79-9.18,14.54-18.51,23.04-27.73,8.51-9.23,16.89-17.82,24.93-25.52,7.99-7.66,15.37-14.1,21.96-19.12,6.58-5.01,11.44-7.84,14.45-8.4.61-.12,1.9-.3,4.06-.58,1.92-.24,3.36-.45,4.03-.57h.07s.06.02.06.02c.39.2.87.87,1.46,2.03.59,1.17.83,2,.73,2.56.22,7.24-1.91,15.36-6.33,24.09-4.42,8.73-10.27,17.65-17.4,26.51-7.05,8.77-14.58,15.62-22.54,22.87-2.19,1.99-4.46,4.06-6.69,6.15l-22.49,21.01c-2.49,2.33-5.31,4.96-6.87,8.48-1.63,3.69-1.74,7.98-1.64,11.69.06,2.22.3,4.45,1.61,5.82.67.7,1.49,1.07,2.43,1.09.03,0,.05,0,.08,0,2.47,0,5.17-2.25,6.57-3.59,1.61-1.55,3.22-3.12,4.82-4.69,6.39-6.24,12.99-12.68,19.98-18.11,7.54-5.86,16.93-13.14,23.17-21.84,8.55-9.14,16.21-18.75,22.78-28.58,6.57-9.82,11.74-19.94,15.38-30.08,3.63-10.11,4.79-20.01,3.46-29.43-.4-2.83-1.04-5.65-1.91-8.38h0c-.87-2.73-2-5.27-3.36-7.55-1.36-2.27-2.99-4.09-4.85-5.41-1.41-1.01-2.92-1.51-4.52-1.51Z"/>
        </g>
        <g>
          <g>
            <path d="M221.49,222.72c-.5-3.55-.3-7.04.62-10.46.91-3.42,2.15-6.74,3.7-9.97,1.55-3.22,3.34-6.29,5.36-9.21,2.02-2.91,3.85-5.67,5.49-8.29,1.64-2.6,2.99-5.08,4.06-7.42,1.07-2.34,1.47-4.44,1.21-6.29l-12.63,2.37c-.24.04-.63.32-1.16.81-.54.5-.91.92-1.1,1.27-.31.38-.79,1.06-1.44,2.05-.65,1-1.35,2.08-2.1,3.25-.75,1.17-1.45,2.25-2.1,3.25-.65,1-1.06,1.75-1.23,2.25l-5.87,1.1c-.24-1.7-.03-4.47.65-8.33.67-3.85,1.65-8.12,2.94-12.8,1.28-4.68,2.78-9.56,4.5-14.64,3.18-9.43,8.14-17.26,11.7-26.14,4.43-11.07,8.3-22.15,13.69-32.71.71-1.39,1.47-2.81,2.61-3.74s2.79-1.24,3.93-.31c1.63,1.34,1.38,4.17.92,6.41-1.42,6.85-3.17,13.62-5.24,20.25-2.17,6.97-5.93,13.8-7.64,20.86-4.14,17.01,14.27,9.41,21.61,11.03,2.51.56,4.54,1.97,6.07,4.21l.2,1.39c.22,1.55.18,2.98-.12,4.3-.3,1.33-.72,2.68-1.25,4.04-1.91,3.69-3.62,6.9-5.12,9.64-1.5,2.74-2.84,5.29-4.03,7.65-1.19,2.36-2.33,4.8-3.44,7.3-1.11,2.51-2.22,5.38-3.35,8.6-.8,2.05-1.32,3.34-1.55,3.86-.23.52-.21,1.71.05,3.56.02.16.07.5.15,1.04s.19.96.36,1.24c1.98-1.48,4.25-4.13,6.82-7.94,2.56-3.81,5.12-7.7,7.66-11.67,2.54-3.96,4.96-7.51,7.26-10.64,2.3-3.13,4.16-4.82,5.58-5.09.95-.18,1.76.19,2.44,1.09.68.9,1.09,1.9,1.24,2.98.35,2.47-.24,5.63-1.76,9.49-1.52,3.86-3.64,8.06-6.34,12.61-2.71,4.55-5.77,9.13-9.19,13.74-3.43,4.61-6.94,8.83-10.53,12.68-3.6,3.85-7.07,7.07-10.41,9.68-3.35,2.61-6.2,4.14-8.57,4.58-3.8.71-7,0-9.61-2.12-2.62-2.12-4.28-5.74-5-10.83Z"/>
            <path d="M233.37,236.23c-2.69,0-5.06-.82-7.06-2.45-2.66-2.16-4.38-5.87-5.11-11.01h0c-.51-3.58-.3-7.14.63-10.58.91-3.41,2.16-6.78,3.72-10.02,1.55-3.22,3.36-6.34,5.38-9.25,2.02-2.9,3.86-5.69,5.49-8.27,1.62-2.57,2.98-5.06,4.04-7.39.98-2.16,1.39-4.12,1.22-5.84l-12.33,2.31c-.08.02-.35.12-1.02.74-.51.47-.86.88-1.04,1.2-.34.42-.82,1.11-1.46,2.07-.65.99-1.35,2.08-2.09,3.25-.75,1.17-1.45,2.26-2.1,3.25-.63.97-1.04,1.7-1.2,2.19l-.05.16-6.32,1.19-.04-.29c-.24-1.72-.03-4.55.65-8.41.67-3.83,1.66-8.15,2.94-12.83,1.28-4.67,2.8-9.61,4.51-14.66,1.82-5.4,4.26-10.35,6.62-15.13,1.75-3.56,3.57-7.23,5.09-11.03,1.1-2.75,2.18-5.54,3.23-8.23,3.15-8.14,6.41-16.55,10.47-24.5.79-1.55,1.54-2.9,2.68-3.83,1.13-.91,2.95-1.4,4.29-.3,1.38,1.13,1.71,3.31,1.01,6.69-1.41,6.83-3.18,13.65-5.24,20.28-.95,3.04-2.22,6.1-3.44,9.06-1.59,3.84-3.23,7.81-4.2,11.78-1,4.09-.75,6.94.77,8.71,2.45,2.87,8.01,2.41,12.92,2.01,2.93-.24,5.71-.47,7.71-.02,2.57.57,4.67,2.03,6.25,4.33l.04.05.21,1.46c.22,1.57.18,3.05-.13,4.41-.3,1.34-.73,2.71-1.27,4.08-1.94,3.74-3.66,6.98-5.13,9.67-1.47,2.68-2.82,5.25-4.03,7.65-1.15,2.29-2.31,4.74-3.43,7.29-1.1,2.49-2.22,5.38-3.34,8.58-.79,2.01-1.33,3.35-1.56,3.88-.14.32-.25,1.17.07,3.41l.15,1.04c.05.34.11.62.19.84,1.88-1.49,4.05-4.06,6.48-7.66,2.59-3.86,5.17-7.78,7.66-11.66,2.54-3.96,4.99-7.54,7.27-10.65,2.36-3.22,4.24-4.92,5.75-5.2,1.06-.2,1.97.2,2.72,1.2.7.94,1.14,1.98,1.3,3.11.36,2.51-.24,5.75-1.78,9.63-1.52,3.84-3.66,8.1-6.36,12.65-2.71,4.56-5.81,9.19-9.21,13.76-3.42,4.59-6.97,8.87-10.55,12.7-3.57,3.82-7.08,7.09-10.44,9.71-3.37,2.63-6.29,4.19-8.7,4.64-.96.18-1.89.27-2.78.27ZM221.76,222.68c.71,5,2.36,8.59,4.9,10.66,2.53,2.06,5.69,2.76,9.38,2.06,2.31-.43,5.16-1.96,8.45-4.53,3.34-2.61,6.83-5.86,10.38-9.65,3.57-3.82,7.11-8.08,10.51-12.66,3.39-4.56,6.48-9.17,9.18-13.71,2.69-4.52,4.81-8.75,6.32-12.57,1.5-3.79,2.09-6.93,1.74-9.35-.15-1.03-.55-1.99-1.19-2.85-.61-.82-1.32-1.14-2.16-.98-1.34.25-3.16,1.93-5.4,4.98-2.28,3.1-4.72,6.68-7.25,10.62-2.49,3.89-5.07,7.81-7.66,11.67-2.58,3.83-4.9,6.52-6.89,8.01l-.25.19-.16-.28c-.18-.32-.31-.75-.39-1.34l-.15-1.04c-.28-1.95-.29-3.13-.03-3.71.23-.52.77-1.85,1.55-3.85,1.12-3.2,2.25-6.1,3.35-8.61,1.13-2.56,2.29-5.02,3.45-7.32,1.2-2.4,2.56-4.98,4.03-7.66,1.47-2.69,3.19-5.93,5.11-9.64.52-1.32.93-2.67,1.23-3.98.29-1.29.33-2.7.12-4.2l-.19-1.32c-1.48-2.14-3.46-3.5-5.87-4.04-1.92-.43-4.65-.2-7.54.03-5.04.41-10.76.88-13.39-2.21-1.64-1.92-1.92-4.93-.88-9.21.98-4.01,2.63-8,4.23-11.86,1.22-2.95,2.48-6,3.42-9.01,2.06-6.61,3.82-13.41,5.23-20.22.65-3.15.38-5.15-.82-6.13-1.1-.89-2.62-.47-3.57.31-1.06.86-1.78,2.16-2.54,3.65-4.05,7.93-7.3,16.33-10.45,24.45-1.05,2.7-2.13,5.49-3.23,8.24-1.53,3.82-3.35,7.5-5.1,11.07-2.35,4.76-4.78,9.69-6.59,15.06-1.71,5.04-3.22,9.96-4.5,14.63-1.28,4.66-2.27,8.96-2.93,12.77-.63,3.59-.85,6.26-.68,7.95l5.42-1.02c.2-.53.6-1.24,1.21-2.16.65-.99,1.35-2.07,2.1-3.24.75-1.17,1.45-2.26,2.1-3.25.65-.98,1.14-1.68,1.46-2.08.18-.34.56-.78,1.13-1.3.6-.55,1-.83,1.3-.88l12.92-2.42.04.29c.27,1.9-.15,4.07-1.23,6.45-1.07,2.35-2.45,4.86-4.08,7.45-1.63,2.59-3.48,5.39-5.5,8.3-2,2.89-3.8,5.98-5.34,9.18-1.54,3.21-2.78,6.54-3.68,9.92-.9,3.37-1.11,6.85-.61,10.35h0Z"/>
          </g>
          <g>
            <path d="M261.37,218.1c-.77-5.41-.59-11.07.52-16.99,1.11-5.92,2.9-11.76,5.37-17.54,2.47-5.77,5.46-11.33,8.96-16.67,3.51-5.33,7.25-10.08,11.22-14.24,3.98-4.15,8.02-7.61,12.14-10.36,4.11-2.75,8.07-4.49,11.87-5.2.59-.11,1.7-.28,3.31-.5,1.61-.22,2.71-.39,3.31-.5.42.4,1.31,1.06,2.65,1.99,1.35.93,2.22,1.52,2.62,1.76.4.25.92.5,1.57.77.65.27,1.03.4,1.15.38s.45-.28.99-.78c.54-.49,1.11-.96,1.72-1.39.61-.43,1.16-.85,1.65-1.26.49-.41.85-.64,1.09-.68.09-.17.77-.38,2.01-.62s2.16-.41,2.76-.52l2.31-.43c1.18-.22,1.97-.29,2.34-.2.26.11.74.5,1.44,1.15.7.66,1.19,1.12,1.47,1.38l.1.69c.41,2.93.15,5.78-.8,8.56-.95,2.78-2.2,5.5-3.77,8.17-1.57,2.66-3.33,5.32-5.26,7.97-1.94,2.65-3.69,5.35-5.25,8.09-1.56,2.74-2.81,5.5-3.76,8.28-.95,2.78-1.2,5.71-.77,8.78,3.32-.62,6.09-2.6,8.29-5.92,2.21-3.32,4.29-6.9,6.24-10.72,1.95-3.82,3.91-7.37,5.89-10.66,1.97-3.28,4.49-5.2,7.58-5.78,1.3-.24,2.1.04,2.4.86.3.82.54,1.92.74,3.31l.21,1.51c.1.69.11,1.21.04,1.54-2.23,4.86-4.84,10.51-7.83,16.93-2.99,6.43-6.28,12.6-9.89,18.51-3.61,5.91-7.62,11.1-12.04,15.58-4.42,4.47-9.18,7.19-14.28,8.15-1.66.31-3.19,0-4.6-.92s-2.69-1.99-3.83-3.21c-1.15-1.21-2.22-2.32-3.21-3.32-.99-1-1.91-1.43-2.74-1.27-2.02.38-3.86,1.32-5.53,2.82-1.68,1.5-3.36,3.13-5.06,4.87-1.7,1.75-3.48,3.39-5.33,4.92-1.85,1.54-3.9,2.52-6.16,2.94-3.08.58-6,.18-8.75-1.21-2.75-1.39-4.46-4.4-5.11-9.03ZM290.93,185.67c.2,1.39.59,2.23,1.18,2.52.59.29,1.36.34,2.31.16,1.9-.36,3.8-1.34,5.7-2.97,1.9-1.62,3.44-3.42,4.63-5.39l15.52-28.36c-.02-.15-.03-.43-.03-.83,0-.4,0-.67-.03-.83-.15-1.08-.56-1.8-1.22-2.15-.66-.35-1.46-.44-2.41-.26-2.61.49-5.51,2.15-8.7,4.96-3.19,2.82-6.1,6.14-8.72,9.96-2.63,3.82-4.77,7.83-6.42,12.03-1.66,4.2-2.26,7.92-1.8,11.16Z"/>
            <path d="M272.57,228.87c-2.16,0-4.24-.5-6.21-1.5-2.83-1.42-4.6-4.53-5.27-9.24h0c-.77-5.41-.59-11.16.52-17.08,1.11-5.9,2.92-11.83,5.39-17.6,2.47-5.77,5.49-11.4,8.99-16.71,3.5-5.32,7.29-10.13,11.26-14.28,3.97-4.14,8.07-7.65,12.18-10.4,4.13-2.76,8.16-4.53,11.97-5.24.59-.11,1.67-.28,3.32-.5,1.53-.21,2.66-.38,3.29-.5l.14-.03.1.1c.41.39,1.29,1.05,2.62,1.96,1.34.93,2.22,1.51,2.61,1.75.39.24.89.48,1.54.76.8.34.98.36,1.01.36-.01,0,.15-.09.83-.7.54-.5,1.13-.97,1.75-1.41.61-.43,1.15-.85,1.63-1.24.48-.4.84-.63,1.11-.71.18-.17.63-.36,2.12-.64l5.07-.95c1.23-.23,2.03-.3,2.46-.2.23.09.59.3,1.57,1.22l.63.59c.37.35.66.61.84.79l.07.07.11.79c.42,2.95.15,5.88-.81,8.69-.95,2.8-2.23,5.56-3.8,8.22-1.56,2.65-3.34,5.34-5.28,8-1.91,2.62-3.67,5.33-5.23,8.06-1.55,2.71-2.8,5.48-3.74,8.23-.9,2.64-1.16,5.45-.79,8.36,3.1-.67,5.73-2.59,7.82-5.74,2.2-3.31,4.29-6.91,6.23-10.7,1.94-3.81,3.93-7.4,5.9-10.67,2.01-3.33,4.62-5.32,7.77-5.92,1.81-.34,2.48.38,2.72,1.04.3.83.56,1.97.76,3.37l.21,1.51c.1.72.11,1.28.03,1.64l-.02.06c-2.32,5.04-4.95,10.74-7.83,16.93-2.98,6.4-6.31,12.64-9.9,18.54-3.61,5.91-7.67,11.16-12.08,15.63-4.44,4.5-9.3,7.26-14.43,8.23-1.73.33-3.34,0-4.81-.96-1.42-.93-2.73-2.03-3.88-3.25-1.19-1.25-2.23-2.34-3.21-3.32-.92-.93-1.75-1.33-2.48-1.19-1.95.37-3.77,1.29-5.4,2.75-1.65,1.48-3.35,3.11-5.05,4.86-1.69,1.74-3.49,3.4-5.35,4.95-1.88,1.56-4,2.57-6.29,3-.92.17-1.83.26-2.72.26ZM261.65,218.06c.64,4.52,2.31,7.48,4.96,8.82,2.68,1.35,5.57,1.75,8.58,1.19,2.19-.41,4.22-1.38,6.03-2.88,1.84-1.53,3.63-3.18,5.31-4.9,1.71-1.76,3.42-3.4,5.08-4.89,1.7-1.53,3.61-2.5,5.67-2.89.92-.18,1.93.28,2.99,1.35.97.98,2.03,2.07,3.21,3.33,1.12,1.19,2.39,2.25,3.78,3.16,1.36.89,2.8,1.18,4.4.88,5.01-.94,9.77-3.66,14.13-8.07,4.38-4.43,8.41-9.66,12-15.53,3.59-5.88,6.91-12.1,9.88-18.48,2.87-6.18,5.5-11.87,7.82-16.9.04-.21.06-.63-.05-1.41l-.21-1.51c-.19-1.36-.44-2.46-.73-3.25-.09-.25-.37-1-2.09-.68-2.99.56-5.47,2.46-7.39,5.65-1.96,3.26-3.94,6.84-5.88,10.64-1.94,3.81-4.05,7.43-6.26,10.75-2.24,3.37-5.09,5.4-8.48,6.04l-.29.05-.04-.29c-.44-3.1-.18-6.1.78-8.91.95-2.79,2.22-5.59,3.78-8.33,1.57-2.75,3.34-5.48,5.27-8.12,1.93-2.65,3.69-5.32,5.25-7.95,1.55-2.63,2.81-5.35,3.75-8.11.93-2.73,1.19-5.57.78-8.43l-.08-.59c-.19-.17-.44-.41-.77-.72l-.63-.59c-.85-.79-1.21-1.03-1.36-1.1-.19-.04-.77-.05-2.18.22l-5.07.95c-1.55.29-1.8.47-1.84.5l-.06.12h-.11c-.1.02-.37.13-.96.62-.49.41-1.05.83-1.67,1.27-.6.42-1.17.88-1.69,1.36-.8.74-1,.82-1.13.85-.13.03-.34.02-1.31-.39-.67-.28-1.2-.54-1.61-.79-.4-.24-1.29-.83-2.64-1.76-1.27-.87-2.12-1.5-2.58-1.92-.66.12-1.75.28-3.18.48-1.63.23-2.71.39-3.29.5-3.74.7-7.7,2.44-11.76,5.16-4.08,2.74-8.15,6.21-12.09,10.33-3.95,4.12-7.71,8.9-11.19,14.19-3.47,5.29-6.48,10.88-8.94,16.62-2.45,5.74-4.25,11.62-5.35,17.48-1.1,5.86-1.27,11.55-.52,16.9h0ZM293.4,188.73c-.54,0-1.01-.1-1.41-.3-.68-.33-1.12-1.22-1.33-2.73h0c-.46-3.28.15-7.08,1.82-11.3,1.66-4.21,3.84-8.27,6.46-12.08,2.62-3.82,5.57-7.19,8.77-10.01,3.22-2.84,6.19-4.53,8.84-5.03,1.01-.19,1.88-.09,2.59.29.74.4,1.2,1.19,1.36,2.36.02.17.03.46.03.87,0,.49.01.7.02.78v.09s-15.56,28.45-15.56,28.45c-1.2,1.99-2.77,3.83-4.69,5.47-1.93,1.65-3.89,2.67-5.83,3.03-.39.07-.74.11-1.07.11ZM291.21,185.63c.18,1.27.53,2.06,1.02,2.3.53.26,1.25.3,2.13.14,1.84-.35,3.72-1.32,5.57-2.91,1.87-1.6,3.41-3.39,4.57-5.32l15.48-28.27c-.02-.18-.02-.44-.02-.78,0-.47,0-.69-.02-.79-.14-.98-.5-1.63-1.07-1.94-.6-.32-1.35-.4-2.23-.23-2.54.48-5.43,2.13-8.57,4.9-3.17,2.8-6.09,6.13-8.68,9.91-2.6,3.77-4.75,7.8-6.4,11.97-1.63,4.13-2.23,7.84-1.78,11.02h0Z"/>
          </g>
          <g>
            <path d="M330.83,204.35c-.55-3.86-.31-8.22.7-13.09,1.02-4.87,2.49-9.94,4.42-15.22,1.93-5.27,4.26-10.51,7-15.7,2.74-5.19,5.55-10.04,8.44-14.55,2.89-4.51,5.72-8.41,8.48-11.7,2.76-3.29,5.25-5.7,7.47-7.23-.98-3.46-1.25-7.3-.81-11.5.44-4.2,1.4-8.15,2.89-11.84,1.49-3.69,3.41-6.9,5.76-9.64,2.35-2.74,5.01-4.39,7.97-4.94,1.9-.36,3.36-.11,4.39.72,1.03.84,1.73,2.57,2.1,5.19.44,3.09-.15,6.93-1.75,11.51-1.61,4.58-3.73,9.58-6.37,14.99-2.64,5.41-5.55,11.07-8.74,16.98-3.18,5.91-6.08,11.65-8.7,17.21-2.62,5.57-4.71,10.84-6.25,15.8-1.55,4.97-2.07,9.23-1.57,12.78,2.25-.42,4.58-2.01,6.99-4.76,2.41-2.75,4.74-5.88,6.98-9.4,2.24-3.51,4.27-7.02,6.09-10.54,1.82-3.51,3.27-6.16,4.35-7.95.19-.35.71-.8,1.54-1.36.83-.55,1.43-.86,1.79-.93,1.3-.24,2.11.08,2.42.97.31.89.55,1.96.73,3.19.04.31.08.82.12,1.52.04.71.08,1.22.12,1.52-2.33,5.04-4.99,10.77-7.97,17.19-2.99,6.43-6.34,12.61-10.07,18.54-3.73,5.93-7.8,11.1-12.23,15.5-4.43,4.4-9.19,7.08-14.29,8.03-2.96.56-5.57-.23-7.82-2.34-2.25-2.12-3.64-5.1-4.19-8.97ZM342.34,200.53l.89-.17.89-.17.15-.26-1.07.2-.89.17.03.23ZM342.74,196.89c.62.04,1.52-.05,2.7-.27l1.78-.33c.33-.22.92-.41,1.75-.56l.14-.27-1.96.37c-.38-.09-.98-.06-1.81.1-.47.09-.91.21-1.32.37-.4.16-.84.28-1.32.37l-.14.27.18-.03ZM343.85,193.11c.36-.07.72-.09,1.08-.08.37.01.73-.02,1.08-.08l.71-.13.54-.1,1.21-.47.14-.26c-.24.04-.57.07-.99.07-.43,0-.76.02-1,.07l-.71.13c-.36.07-.71.17-1.05.32-.34.15-.69.25-1.05.32l-.15.26.18-.03ZM345.13,189.3c.38.09.98.05,1.81-.1.24-.04.41-.11.52-.22.11-.1.28-.17.52-.22l-.03-.23-.54.1-.35.07c-.12.02-.19-.04-.21-.2-.24.04-.53.14-.87.28s-.63.23-.87.28l-.14.27.18-.03ZM346.42,185.49l1.07-.2.14-.27-1.25.23.03.23Z"/>
            <path d="M341.04,216.11c-2.3,0-4.39-.87-6.22-2.59-2.28-2.15-3.72-5.23-4.28-9.13h0c-.55-3.87-.31-8.31.7-13.19,1.02-4.86,2.51-10,4.43-15.26,1.93-5.28,4.29-10.57,7.01-15.74,2.75-5.21,5.59-10.11,8.45-14.57,2.9-4.51,5.76-8.46,8.5-11.73,2.7-3.21,5.17-5.62,7.36-7.16-.94-3.43-1.2-7.27-.76-11.42.44-4.2,1.42-8.21,2.91-11.92,1.49-3.7,3.44-6.97,5.8-9.72,2.39-2.78,5.12-4.47,8.14-5.04,1.97-.37,3.53-.11,4.62.78,1.1.89,1.82,2.65,2.21,5.37.44,3.12-.15,7.03-1.76,11.64-1.61,4.59-3.76,9.65-6.38,15.02-2.64,5.4-5.58,11.12-8.74,16.99-3.19,5.92-6.11,11.71-8.7,17.2-2.61,5.54-4.7,10.84-6.24,15.77-1.49,4.76-2.02,8.92-1.6,12.36,2.09-.49,4.29-2.04,6.54-4.61,2.39-2.72,4.73-5.87,6.95-9.36,2.24-3.51,4.28-7.05,6.07-10.51,1.81-3.51,3.28-6.19,4.36-7.97.21-.38.74-.86,1.63-1.45.89-.59,1.49-.9,1.89-.97,1.82-.34,2.49.44,2.74,1.16.31.9.56,2,.74,3.25.04.3.08.78.13,1.55.03.65.08,1.18.12,1.5v.08s-.02.08-.02.08c-2.33,5.04-4.99,10.77-7.97,17.19-2.98,6.41-6.37,12.66-10.08,18.57-3.72,5.92-7.85,11.15-12.27,15.55-4.45,4.42-9.31,7.15-14.44,8.11-.63.12-1.24.18-1.85.18ZM384.72,89.05c-.47,0-.98.05-1.52.15-2.88.54-5.51,2.17-7.81,4.85-2.32,2.71-4.24,5.93-5.71,9.56-1.47,3.65-2.44,7.61-2.87,11.76-.43,4.15-.17,7.98.8,11.4l.05.19-.17.11c-2.19,1.5-4.68,3.92-7.41,7.18-2.73,3.26-5.57,7.18-8.46,11.67-2.85,4.44-5.69,9.33-8.43,14.53-2.71,5.14-5.06,10.41-6.98,15.67-1.91,5.24-3.4,10.35-4.41,15.18-1,4.82-1.24,9.19-.7,13,.53,3.78,1.92,6.74,4.1,8.8,2.17,2.04,4.72,2.8,7.57,2.27,5.02-.94,9.78-3.62,14.15-7.96,4.4-4.36,8.5-9.56,12.19-15.45,3.7-5.89,7.08-12.12,10.05-18.51,2.97-6.39,5.62-12.1,7.94-17.12-.04-.34-.08-.85-.11-1.47-.04-.74-.08-1.21-.12-1.5-.17-1.22-.41-2.27-.71-3.14-.16-.48-.57-1.08-2.1-.79-.22.04-.68.23-1.68.89-.99.66-1.34,1.05-1.45,1.26-1.08,1.78-2.54,4.45-4.35,7.95-1.8,3.48-3.85,7.03-6.1,10.56-2.24,3.52-4.6,6.69-7,9.43-2.44,2.79-4.85,4.42-7.16,4.85l-.29.05-.04-.29c-.51-3.58.02-7.92,1.58-12.91,1.54-4.95,3.65-10.28,6.27-15.84,2.59-5.5,5.52-11.3,8.71-17.23,3.16-5.86,6.1-11.57,8.73-16.97,2.62-5.36,4.76-10.39,6.36-14.96,1.58-4.52,2.16-8.35,1.73-11.37-.36-2.54-1.03-4.23-2-5.02-.67-.54-1.56-.82-2.64-.82ZM342.1,200.86l-.11-.79,2.81-.53-.5.9-2.2.41ZM342.03,197.31l.49-.9.13-.02c.48-.09.89-.2,1.27-.35.43-.16.89-.29,1.37-.38.82-.15,1.44-.19,1.87-.11l2.48-.47-.49.9-.13.02c-.79.15-1.34.32-1.64.52l-.1.04-1.78.33c-1.19.22-2.09.31-2.74.28l-.72.13ZM346.65,196.06c-.28,0-.69.04-1.26.14-.43.08-.84.19-1.22.34.36-.05.77-.11,1.22-.19l1.48-.28c-.06,0-.13,0-.22,0ZM343.13,193.53l.5-.9.13-.02c.35-.06.67-.16.99-.3.37-.15.74-.27,1.11-.34l.71-.13c.25-.05.59-.07,1.05-.07.4-.01.71-.02.94-.06l.58-.11-.48.88-1.31.5-1.29.25c-.39.07-.77.1-1.15.09-.36,0-.69.02-1.02.08l-.77.14ZM347.47,192.33c-.34,0-.6.02-.79.06l-.71.13c-.26.05-.53.12-.8.22.26,0,.53-.03.79-.08l1.25-.23.26-.1ZM344.43,189.72l.49-.9.13-.02c.22-.04.5-.13.82-.26.37-.16.68-.25.93-.3l.29-.06.03.23,1.07-.2.11.79-.27.05c-.24.05-.34.11-.38.15-.14.14-.35.23-.65.29-.84.16-1.45.19-1.87.11l-.7.13ZM346.68,188.83c-.17.05-.36.12-.59.21.21-.02.45-.06.72-.1-.02,0-.03-.02-.05-.03-.03-.02-.06-.05-.08-.08ZM346.18,185.82l-.11-.79,2.09-.39-.49.9-1.49.28Z"/>
          </g>
          <g>
            <path d="M362.17,205.13c-.5-3.55-.19-7.97.95-13.26,1.14-5.29,2.81-10.88,5.02-16.76,2.21-5.88,4.81-11.8,7.8-17.76,2.99-5.95,6.09-11.37,9.3-16.26,3.2-4.88,6.43-8.97,9.68-12.28,3.24-3.3,6.17-5.2,8.78-5.69l2.58-.48c1.36-.26,2.29-.35,2.79-.29.28.27.95.93,2.02,2,1.06,1.07,1.8,1.73,2.2,1.97l.53-.1c2.37-.44,4.55-1.41,6.53-2.89,1.98-1.48,4.16-2.44,6.53-2.89,2.96-.56,5.85-.18,8.65,1.11,2.8,1.3,4.54,4.34,5.22,9.13.5,3.56.26,7.01-.72,10.36-.99,3.36-2.26,6.61-3.82,9.76-1.56,3.15-3.16,6.3-4.78,9.46-1.62,3.16-2.83,6.24-3.62,9.25.24-.04.57-.07.99-.07.43,0,.7-.01.82-.03,3.08-.58,5.65-2.45,7.7-5.61,2.05-3.16,3.99-6.62,5.84-10.37,1.84-3.76,3.73-7.36,5.68-10.82,1.94-3.46,4.3-5.76,7.06-6.91,1.38-.57,2.25-.26,2.6.94.35,1.21.6,2.27.73,3.19.04.31.08.82.12,1.52.04.71.08,1.22.12,1.52-2.5,4.75-5.32,10.36-8.49,16.81-3.16,6.46-6.67,12.67-10.51,18.62-3.84,5.95-8.03,11.22-12.56,15.79-4.53,4.57-9.46,7.36-14.79,8.37l-6.05,1.13c-2.67-.77-4.34-2.04-5.01-3.82-.68-1.77-1.2-3.97-1.57-6.6-.72-5.1-.31-9.73,1.23-13.91,1.54-4.17,3.38-8.16,5.52-11.98,2.14-3.81,4.21-7.69,6.21-11.63,2-3.94,3.11-8.15,3.32-12.64-.12.02-.3.02-.55-.02-.25-.03-.43-.03-.55-.01-4.39.82-7.98,2.96-10.78,6.42-2.8,3.46-5.17,7.55-7.12,12.28-1.95,4.73-3.73,9.78-5.34,15.16-1.61,5.38-3.39,10.43-5.34,15.15-1.95,4.73-4.26,8.81-6.94,12.25-2.68,3.43-6.15,5.55-10.42,6.35l-5.34,1c-.99-.13-1.6-1.17-1.81-3.11-.21-1.94-.34-3.06-.39-3.38ZM412.82,187.55l.89-.17.89-.17-.03-.23-.89.17-.89.17-.14.26.18-.03ZM414.28,183.7c.47-.09.92-.13,1.35-.13.42,0,.82-.03,1.17-.1.47-.09.76-.22.86-.4l1.78-.33.14-.26c-.83.16-1.49.2-1.99.13l-.89.17c-.36.07-.74.18-1.14.33-.41.16-.84.28-1.32.37l-.15.26.18-.03ZM416.28,179.76c.24-.04.54-.06.91-.05.37.01.67,0,.91-.05l1.07-.2c.12-.02.23-.08.34-.18.11-.1.28-.17.52-.22l.15-.27-.53.1c-.12.02-.31-.02-.57-.13l-1.07.2c-.24.04-.53.14-.87.28-.34.15-.64.24-.87.28l-.15.27.18-.03ZM418.46,175.79l1.07-.2-.03-.23-1.07.2-.14.27.18-.03ZM425.1,138.86l1.07-.2.89-.17.15-.27c-.12.02-.3.02-.55-.02-.25-.03-.43-.04-.55-.02-.24.04-.41.12-.52.22-.11.1-.28.17-.52.22l.03.23Z"/>
            <path d="M364.37,211.91h-.05c-1.13-.16-1.82-1.29-2.05-3.36-.19-1.76-.34-3.02-.39-3.37-.5-3.56-.18-8.06.96-13.36,1.14-5.29,2.84-10.94,5.04-16.8,2.2-5.86,4.83-11.85,7.82-17.78,2.99-5.95,6.12-11.43,9.31-16.28,3.19-4.87,6.46-9.01,9.71-12.32,3.27-3.33,6.28-5.27,8.93-5.77l2.58-.48c1.4-.26,2.34-.36,2.88-.29h.09s.07.08.07.08c.31.3,1.03,1.01,2.02,2.01.97.97,1.66,1.6,2.05,1.87l.42-.08c2.32-.44,4.48-1.39,6.41-2.84,2.01-1.5,4.25-2.49,6.65-2.94,3-.56,5.97-.18,8.82,1.13,2.88,1.34,4.69,4.48,5.38,9.35.51,3.58.26,7.1-.73,10.48-.98,3.35-2.28,6.65-3.84,9.8-1.56,3.13-3.17,6.32-4.78,9.46-1.54,2.99-2.71,5.95-3.49,8.79.19-.01.43-.02.68-.02.5,0,.66-.02.7-.03,2.99-.56,5.52-2.41,7.52-5.48,2.04-3.14,3.99-6.62,5.82-10.34,1.84-3.75,3.76-7.4,5.69-10.83,1.96-3.49,4.38-5.86,7.19-7.03.83-.34,1.51-.39,2.03-.14.45.21.77.64.95,1.26.36,1.21.6,2.3.74,3.23.04.3.08.78.13,1.55.04.67.08,1.19.12,1.5v.09s-.03.08-.03.08c-2.46,4.68-5.24,10.18-8.48,16.81-3.15,6.44-6.7,12.71-10.53,18.65-3.84,5.95-8.08,11.28-12.59,15.84-4.55,4.6-9.58,7.44-14.94,8.44l-6.11,1.15-.06-.02c-2.75-.79-4.49-2.13-5.2-3.99-.68-1.78-1.21-4.02-1.59-6.66-.72-5.12-.31-9.85,1.24-14.04,1.53-4.16,3.4-8.2,5.54-12.02,2.15-3.83,4.23-7.73,6.2-11.62,1.92-3.79,3.03-7.9,3.28-12.22-.09,0-.19-.02-.3-.03-.28-.03-.41-.02-.46-.01-4.3.81-7.87,2.93-10.61,6.32-2.77,3.42-5.15,7.53-7.08,12.21-1.93,4.69-3.72,9.78-5.33,15.13-1.61,5.37-3.41,10.48-5.35,15.18-1.95,4.73-4.3,8.87-6.98,12.31-2.71,3.47-6.28,5.65-10.59,6.46l-5.38,1.01ZM408.72,122.62c-.42,0-1.14.07-2.39.3l-2.58.48c-2.54.48-5.44,2.36-8.63,5.61-3.22,3.28-6.47,7.4-9.64,12.24-3.18,4.84-6.3,10.3-9.28,16.23-2.97,5.92-5.6,11.89-7.79,17.73-2.19,5.83-3.88,11.46-5.01,16.72-1.12,5.23-1.44,9.66-.95,13.16h0c.05.36.19,1.62.39,3.39.19,1.76.71,2.72,1.52,2.85l5.29-.99c4.18-.78,7.63-2.89,10.25-6.25,2.65-3.4,4.97-7.5,6.9-12.18,1.93-4.69,3.73-9.78,5.33-15.13,1.61-5.37,3.41-10.48,5.35-15.18,1.95-4.73,4.36-8.88,7.16-12.35,2.83-3.5,6.51-5.69,10.95-6.52.15-.03.35-.02.64.01.29.04.42.03.47.02l.35-.07-.02.36c-.22,4.5-1.35,8.79-3.35,12.75-1.97,3.89-4.06,7.81-6.21,11.64-2.13,3.79-3.98,7.8-5.5,11.94-1.52,4.11-1.92,8.74-1.21,13.77.37,2.6.89,4.8,1.56,6.54.63,1.66,2.24,2.88,4.77,3.63l5.98-1.12c5.25-.99,10.18-3.77,14.65-8.29,4.49-4.53,8.7-9.83,12.52-15.75,3.82-5.92,7.35-12.18,10.5-18.59,3.23-6.59,5.99-12.07,8.45-16.74-.04-.33-.08-.83-.12-1.46-.04-.74-.08-1.21-.12-1.5-.13-.91-.37-1.97-.72-3.15-.14-.47-.35-.77-.65-.91-.37-.18-.9-.12-1.57.16-2.69,1.13-5.02,3.41-6.92,6.79-1.93,3.43-3.84,7.06-5.67,10.81-1.84,3.74-3.8,7.24-5.85,10.4-2.08,3.21-4.74,5.14-7.88,5.73-.15.03-.45.04-.87.04-.41,0-.72.02-.94.06l-.44.08.11-.43c.79-3,2.01-6.13,3.64-9.3,1.61-3.14,3.22-6.32,4.78-9.45,1.55-3.12,2.83-6.39,3.81-9.71.97-3.3,1.21-6.75.72-10.25-.66-4.66-2.36-7.66-5.06-8.91-2.74-1.26-5.59-1.63-8.48-1.09-2.31.43-4.47,1.39-6.41,2.84-2,1.5-4.24,2.49-6.65,2.94l-.64.12-.09-.06c-.42-.25-1.16-.91-2.25-2.01-.91-.91-1.61-1.6-1.94-1.93-.06,0-.14,0-.23,0ZM412.11,187.97l.49-.9,2.2-.41.11.79-2.81.53ZM413.57,184.12l.5-.9.13-.02c.47-.09.89-.2,1.27-.35.42-.16.82-.28,1.19-.35l.93-.18h.05c.46.07,1.1.02,1.9-.13l.59-.11-.5.9-1.8.34c-.17.19-.49.33-.97.42-.39.07-.8.11-1.23.11-.42,0-.86.05-1.3.13l-.77.14ZM417.42,182.93l-.66.12c-.27.05-.56.13-.86.23.3-.01.58-.04.85-.09.56-.11.65-.24.66-.26h0ZM415.57,180.18l.5-.91.13-.02c.23-.04.5-.13.82-.26.37-.15.67-.25.93-.3l1.15-.22.08.03c.3.13.4.11.4.11l1.12-.21-.5.91-.13.02c-.25.05-.35.12-.38.15-.14.13-.3.22-.48.25l-1.07.2c-.26.05-.59.07-.97.06-.36,0-.64,0-.84.05h0l-.76.14ZM419.03,179.06l-.98.18c-.17.03-.39.1-.63.19.24,0,.45-.02.62-.05l1.07-.2s.08-.03.13-.05c-.06-.02-.13-.04-.2-.07ZM417.75,176.21l.49-.91,1.49-.28.11.79-2.09.39ZM424.86,139.19l-.11-.79.27-.05c.23-.04.33-.1.38-.14.15-.14.37-.23.66-.29.15-.03.34-.02.64.01.28.04.41.03.46.02l.59-.11-.5.91-2.38.45Z"/>
          </g>
        </g>
        <g>
          <g>
            <path d="M165.33,348.1c-1.02-7.19-.78-14.66.71-22.43,1.49-7.76,3.84-15.48,7.04-23.15,3.21-7.66,7.1-15.04,11.68-22.12,4.58-7.08,9.51-13.43,14.78-19.06,5.27-5.63,10.64-10.27,16.12-13.93,5.47-3.66,10.65-5.95,15.54-6.87,1.89-.35,4.25-.53,7.09-.54,2.83,0,5.56.38,8.18,1.16,2.62.77,4.95,2.13,7.01,4.06,2.05,1.94,3.33,4.65,3.82,8.14.64,4.52.33,9.22-.92,14.09-1.25,4.88-2.92,9.72-4.98,14.54-2.07,4.82-4.26,9.39-6.56,13.72-2.3,4.34-4.27,8.13-5.91,11.39l.13.92.13.93c.46.97,1.11,1.58,1.96,1.85,6.23-5.17,11.34-11.35,15.34-18.54,4-7.18,8.28-14.68,12.84-22.49.29-.26.78-.46,1.49-.6l1.54-.29c1.42-.27,2.58-.33,3.5-.18.91.15,1.53,1.35,1.85,3.61.17,1.23.24,2.28.2,3.13-.04.85-.37,1.97-.98,3.35-1.87,3.94-4.26,8.81-7.16,14.63-2.9,5.82-6.14,11.54-9.71,17.16-3.57,5.63-7.44,10.62-11.6,14.98-4.16,4.37-8.53,6.98-13.1,7.83-3.16.59-5.81.72-7.96.39-2.15-.33-4.77-1.69-7.86-4.06-3.55,2.35-6.59,5.19-9.11,8.51-2.53,3.32-5.02,6.59-7.48,9.79-2.46,3.2-5.17,6.08-8.13,8.64-2.96,2.56-6.64,4.25-11.06,5.08-4.1.77-7.98.23-11.64-1.61-3.66-1.85-5.93-5.85-6.8-12.01ZM204.63,304.99c.41,2.88,1.63,4.12,3.69,3.74,2.05-.38,4.15-2.41,6.3-6.09,2.15-3.67,4.07-7.83,5.76-12.47,1.69-4.63,2.98-9.2,3.89-13.7.9-4.49,1.19-7.86.87-10.13l-.13-.92c-2.6,1.12-5.18,3.14-7.76,6.04-2.59,2.91-4.91,6.25-6.96,10-2.06,3.76-3.64,7.7-4.76,11.81-1.12,4.11-1.42,8.01-.89,11.71Z"/>
            <path d="M180.23,362.27c-2.84,0-5.59-.66-8.19-1.97-3.71-1.87-6.03-5.97-6.91-12.17h0c-1.02-7.17-.78-14.74.71-22.5,1.49-7.73,3.86-15.54,7.06-23.19,3.2-7.64,7.13-15.1,11.7-22.15,4.57-7.06,9.55-13.48,14.81-19.09,5.26-5.61,10.7-10.31,16.15-13.97,5.47-3.66,10.73-5.98,15.62-6.9,1.89-.35,4.28-.54,7.12-.54h.02c2.84,0,5.6.39,8.22,1.16,2.63.78,5.02,2.16,7.1,4.11,2.08,1.96,3.39,4.74,3.89,8.26.64,4.53.33,9.3-.92,14.17-1.25,4.86-2.93,9.76-4.99,14.57-2.07,4.82-4.28,9.44-6.57,13.74-2.35,4.42-4.27,8.13-5.88,11.33l.25,1.75c.42.86.98,1.41,1.71,1.67,6.14-5.12,11.25-11.31,15.21-18.4,4.01-7.2,8.33-14.76,12.84-22.5l.04-.05c.32-.29.86-.51,1.6-.65l1.54-.29c1.44-.27,2.64-.33,3.57-.18,1.02.16,1.68,1.4,2.02,3.79.17,1.23.24,2.29.2,3.16-.05.89-.37,2.01-1,3.42-1.85,3.9-4.19,8.69-7.16,14.63-2.91,5.82-6.18,11.61-9.72,17.18-3.56,5.61-7.48,10.66-11.62,15.02-4.17,4.38-8.61,7.03-13.21,7.9-3.18.6-5.88.73-8.03.39-2.15-.33-4.79-1.68-7.84-4.01-3.47,2.32-6.47,5.14-8.94,8.38-2.53,3.32-5.02,6.59-7.48,9.79-2.45,3.19-5.2,6.11-8.15,8.67-2.98,2.57-6.73,4.3-11.16,5.13-1.21.23-2.41.34-3.58.34ZM238.31,240.21h-.02c-2.81,0-5.19.19-7.05.54-4.84.91-10.04,3.21-15.46,6.84-5.43,3.64-10.84,8.31-16.08,13.9-5.24,5.59-10.21,11.99-14.76,19.03-4.55,7.03-8.48,14.46-11.66,22.08-3.18,7.63-5.55,15.4-7.03,23.11-1.48,7.71-1.72,15.23-.71,22.36.86,6.06,3.11,10.05,6.68,11.85,3.6,1.81,7.47,2.35,11.51,1.59,4.35-.82,8.04-2.51,10.96-5.03,2.94-2.55,5.66-5.44,8.1-8.61,2.46-3.2,4.95-6.46,7.48-9.78,2.52-3.32,5.61-6.2,9.17-8.56l.13-.08.12.09c3.04,2.34,5.66,3.69,7.76,4.02,2.1.33,4.76.2,7.89-.39,4.51-.85,8.88-3.46,12.98-7.77,4.13-4.33,8.02-9.36,11.57-14.95,3.54-5.56,6.8-11.33,9.7-17.14,2.97-5.95,5.31-10.73,7.16-14.62.6-1.34.92-2.45.96-3.27.04-.84-.03-1.88-.2-3.08-.3-2.12-.88-3.3-1.67-3.43-.88-.14-2.04-.08-3.42.18l-1.54.29c-.63.12-1.1.3-1.37.52-4.51,7.72-8.82,15.28-12.82,22.46-4,7.17-9.17,13.43-15.39,18.59l-.09.07-.11-.03c-.9-.28-1.61-.94-2.09-1.96l-.02-.06-.27-1.91.03-.06c1.62-3.21,3.55-6.94,5.92-11.39,2.28-4.29,4.48-8.9,6.55-13.71,2.06-4.79,3.73-9.67,4.97-14.5,1.24-4.82,1.55-9.53.91-14.01-.48-3.42-1.75-6.12-3.76-8.02-2.03-1.91-4.36-3.26-6.93-4.01-2.58-.76-5.3-1.15-8.1-1.15ZM207.63,309c-.6,0-1.13-.16-1.57-.48-.84-.6-1.39-1.78-1.63-3.51h0c-.52-3.71-.22-7.68.9-11.8,1.12-4.11,2.73-8.09,4.78-11.85,2.06-3.76,4.41-7.14,6.99-10.04,2.59-2.92,5.23-4.97,7.84-6.1l.25-.11.17,1.2c.32,2.27.03,5.71-.88,10.2-.9,4.49-2.21,9.11-3.9,13.73-1.69,4.63-3.63,8.84-5.78,12.5-2.17,3.71-4.34,5.79-6.44,6.19-.25.05-.5.07-.73.07ZM204.84,304.96c.23,1.61.72,2.69,1.46,3.22.53.38,1.17.49,1.98.34,1.98-.37,4.05-2.39,6.16-5.98,2.13-3.64,4.07-7.83,5.75-12.43,1.67-4.6,2.98-9.19,3.88-13.67.89-4.45,1.19-7.83.87-10.06l-.09-.65c-2.47,1.12-4.97,3.1-7.44,5.88-2.56,2.88-4.89,6.23-6.94,9.96-2.04,3.73-3.64,7.69-4.74,11.76-1.11,4.06-1.4,7.97-.89,11.63h0Z"/>
          </g>
          <g>
            <path d="M244.5,343.05c-.67-4.72-.57-9.75.29-15.08.87-5.33,2.18-10.63,3.94-15.92,1.76-5.28,3.72-10.35,5.86-15.18,2.15-4.83,4.17-9.11,6.07-12.84.74-1.61,2.14-4.3,4.2-8.06,2.06-3.76,4.24-7.75,6.56-11.98s4.53-8.28,6.66-12.16c2.12-3.88,3.57-6.52,4.34-7.93,2.43-3.41,4.88-6.08,7.36-8.02,2.48-1.94,5.53-3.25,9.16-3.93,2.52-.47,4.8-.63,6.85-.5,2.04.15,4.18,1.8,6.41,4.97,1.75-1.38,3.33-2.47,4.76-3.27,1.43-.79,2.75-1.46,3.97-2.01,1.22-.54,2.53-1,3.93-1.37,1.41-.37,2.97-.72,4.71-1.04,2.21-.41,4.09-.5,5.67-.27,1.57.23,3.05.69,4.44,1.38,1.39.69,2.83,1.74,4.33,3.14,1.49,1.41,3.33,2.96,5.52,4.66,4.17-3.73,8.49-7.44,12.99-11.13,4.49-3.69,9.35-6.02,14.55-7,4.57-.86,8.39-.2,11.45,1.96,3.06,2.17,5.02,6.33,5.9,12.5.7,4.93.14,9.57-1.67,13.91-1.81,4.35-3.85,8.58-6.09,12.69-2.25,4.12-4.3,8.19-6.16,12.23-1.86,4.04-2.49,8.11-1.91,12.22.03.21.12.56.27,1.06.15.5.24.85.27,1.05,3.07-1.21,6.19-3.69,9.39-7.45,3.19-3.76,6.25-7.86,9.18-12.32,2.93-4.45,5.62-8.91,8.06-13.37,2.44-4.46,4.44-8.11,5.98-10.93.26-.47.97-1.13,2.15-1.98,1.17-.85,1.93-1.2,2.28-1.06,1.32.18,2.3.83,2.95,1.98.65,1.14,1.06,2.33,1.23,3.56l.31,2.16c-3.19,6.08-6.84,13.46-10.95,22.14-4.11,8.68-8.74,17.14-13.89,25.38-5.15,8.24-10.79,15.57-16.92,21.99-6.13,6.42-12.75,10.3-19.84,11.63-1.89.35-3.77.55-5.62.58-1.86.03-3.6-.27-5.23-.92-1.63-.64-3.05-1.85-4.28-3.62-1.22-1.77-2.07-4.3-2.53-7.59-.81-5.75-.44-11.67,1.13-17.76,1.57-6.09,3.63-12.07,6.2-17.93,2.57-5.86,5.33-11.49,8.29-16.9,2.96-5.4,5.33-10.38,7.11-14.93-.16.03-.52.05-1.09.05-.57,0-1.01.03-1.32.09-5.36,1.01-9.82,3.79-13.38,8.36-3.56,4.57-6.76,10.02-9.58,16.35-2.83,6.33-5.47,13.1-7.93,20.31-2.46,7.21-5.22,14-8.29,20.37-3.07,6.38-6.62,11.89-10.65,16.55-4.04,4.65-9.05,7.55-15.04,8.67l-5.44,1.02c-1.32-.18-2.07-1.19-2.25-3.06-.18-1.86-.32-3.1-.41-3.72-.79-5.55-.18-11.83,1.82-18.85,2-7.02,4.58-13.98,7.73-20.9,3.15-6.92,6.39-13.43,9.74-19.54,3.34-6.11,5.9-10.91,7.67-14.41l-.22-1.54c-5.99,1.12-10.9,3.94-14.71,8.45-3.82,4.51-7.09,9.93-9.84,16.24-2.75,6.32-5.2,13-7.36,20.04-2.16,7.05-4.53,13.72-7.12,20-2.59,6.29-5.67,11.66-9.25,16.13-3.58,4.47-8.12,7.22-13.64,8.25l-6.39,1.2c-1.32-.18-2.07-1.19-2.25-3.06-.18-1.86-.32-3.1-.41-3.72Z"/>
            <path d="M247.17,350.04h-.03c-1.42-.2-2.24-1.29-2.44-3.25-.18-1.84-.32-3.09-.4-3.71h0c-.67-4.71-.57-9.81.29-15.14.86-5.31,2.19-10.68,3.95-15.95,1.77-5.29,3.74-10.4,5.87-15.19,2.14-4.81,4.19-9.13,6.08-12.85.73-1.59,2.15-4.31,4.2-8.07l17.56-32.08c2.45-3.44,4.94-6.15,7.42-8.09,2.5-1.95,5.61-3.29,9.25-3.97,2.51-.47,4.84-.64,6.9-.5,2.06.15,4.22,1.79,6.44,4.87,1.69-1.32,3.24-2.38,4.61-3.15,1.48-.82,2.79-1.48,3.98-2.02,1.21-.54,2.54-1.01,3.97-1.38,1.45-.38,3.04-.73,4.73-1.04,2.21-.41,4.14-.51,5.74-.27,1.59.24,3.1.71,4.51,1.4,1.4.69,2.87,1.76,4.38,3.18,1.45,1.37,3.25,2.9,5.36,4.54,4.15-3.71,8.48-7.42,12.87-11.02,4.5-3.7,9.43-6.07,14.65-7.04,4.6-.86,8.51-.19,11.61,2,3.09,2.2,5.11,6.45,5.98,12.64.7,4.95.13,9.67-1.69,14.03-1.8,4.32-3.86,8.6-6.1,12.71-2.23,4.07-4.3,8.18-6.15,12.21-1.83,3.98-2.47,8.05-1.9,12.1.03.21.12.57.26,1.02.1.35.18.62.23.83,2.94-1.22,5.99-3.68,9.07-7.3,3.18-3.75,6.27-7.89,9.17-12.3,2.92-4.44,5.63-8.93,8.05-13.36l5.98-10.93c.28-.5,1-1.17,2.21-2.05,1.59-1.16,2.16-1.2,2.45-1.09,1.37.19,2.41.89,3.08,2.08.66,1.16,1.08,2.38,1.26,3.64l.32,2.23-.03.06c-3.17,6.05-6.86,13.5-10.95,22.13-4.1,8.64-8.77,17.19-13.9,25.4-5.14,8.22-10.84,15.63-16.95,22.03-6.14,6.43-12.85,10.36-19.96,11.69-1.9.36-3.8.55-5.66.59-1.88.03-3.67-.28-5.31-.93-1.66-.65-3.13-1.9-4.37-3.7-1.24-1.79-2.1-4.38-2.57-7.68-.81-5.75-.43-11.75,1.13-17.85,1.57-6.09,3.66-12.13,6.22-17.96,2.55-5.82,5.35-11.51,8.3-16.91,2.87-5.25,5.22-10.15,6.98-14.59-.24.01-.52.01-.76.01-.57,0-.99.03-1.28.09-5.29.99-9.75,3.78-13.26,8.28-3.54,4.54-6.75,10.02-9.56,16.3-2.81,6.29-5.48,13.12-7.92,20.29-2.45,7.18-5.24,14.04-8.29,20.4-3.06,6.36-6.65,11.95-10.68,16.6-4.05,4.67-9.16,7.61-15.16,8.74l-5.47,1.03h-.03c-1.43-.2-2.25-1.29-2.44-3.25-.19-1.88-.32-3.1-.4-3.71-.79-5.56-.17-11.93,1.83-18.93,1.99-6.99,4.6-14.03,7.74-20.93,3.14-6.9,6.42-13.48,9.75-19.55,3.27-5.97,5.84-10.79,7.64-14.34l-.18-1.26c-5.82,1.14-10.65,3.94-14.37,8.34-3.78,4.47-7.08,9.91-9.81,16.18-2.73,6.28-5.21,13.01-7.35,20.02-2.15,7.02-4.55,13.75-7.13,20.01-2.58,6.27-5.71,11.72-9.28,16.18-3.59,4.49-8.22,7.29-13.77,8.33l-6.42,1.2ZM244.71,343.02c.09.63.23,1.89.41,3.73.17,1.75.84,2.69,2.04,2.86l6.35-1.19c5.44-1.02,9.99-3.77,13.52-8.18,3.55-4.43,6.65-9.84,9.22-16.08,2.58-6.25,4.97-12.97,7.12-19.98,2.15-7.02,4.63-13.77,7.37-20.07,2.75-6.31,6.07-11.79,9.88-16.29,3.83-4.53,8.82-7.39,14.83-8.52l.22-.04.26,1.83-.03.06c-1.8,3.56-4.39,8.41-7.68,14.41-3.32,6.07-6.59,12.64-9.73,19.52-3.13,6.88-5.73,13.9-7.71,20.87-1.98,6.95-2.6,13.26-1.82,18.76.09.62.22,1.84.41,3.73.17,1.75.84,2.69,2.04,2.86l5.41-1.01c5.91-1.11,10.93-4,14.92-8.6,4-4.62,7.57-10.17,10.62-16.5,3.05-6.34,5.83-13.19,8.28-20.35,2.45-7.18,5.12-14.02,7.94-20.33,2.82-6.31,6.05-11.82,9.61-16.39,3.58-4.59,8.12-7.43,13.51-8.44.32-.06.77-.09,1.36-.09.73,0,.97-.03,1.05-.04l.37-.07-.14.36c-1.78,4.53-4.17,9.57-7.12,14.96-2.95,5.39-5.73,11.07-8.28,16.88-2.55,5.81-4.63,11.83-6.19,17.9-1.55,6.04-1.93,11.99-1.12,17.68.46,3.24,1.3,5.76,2.5,7.5,1.19,1.73,2.6,2.93,4.18,3.55,1.59.63,3.32.94,5.15.9,1.83-.03,3.71-.23,5.59-.58,7.02-1.32,13.65-5.21,19.73-11.57,6.09-6.37,11.77-13.76,16.89-21.96,5.12-8.2,9.79-16.73,13.88-25.36,4.08-8.61,7.75-16.04,10.92-22.09l-.3-2.09c-.17-1.2-.58-2.38-1.21-3.49-.62-1.09-1.53-1.7-2.8-1.87h-.05c-.1-.06-.53-.1-2.07,1.02-1.14.83-1.85,1.47-2.09,1.91l-5.98,10.93c-2.43,4.44-5.14,8.94-8.07,13.39-2.91,4.42-6,8.57-9.2,12.34-3.2,3.77-6.39,6.3-9.47,7.51l-.25.1-.04-.26c-.03-.19-.12-.53-.26-1.02-.15-.48-.24-.86-.28-1.09-.58-4.13.06-8.28,1.93-12.34,1.86-4.05,3.94-8.16,6.17-12.24,2.24-4.09,4.29-8.36,6.09-12.67,1.79-4.29,2.35-8.93,1.66-13.8-.86-6.07-2.81-10.23-5.81-12.35-3-2.12-6.8-2.77-11.29-1.93-5.15.97-10.01,3.31-14.46,6.96-4.43,3.63-8.8,7.38-12.99,11.13l-.13.12-.14-.11c-2.18-1.69-4.04-3.26-5.53-4.67-1.48-1.39-2.92-2.43-4.28-3.11-1.36-.67-2.84-1.13-4.38-1.36-1.55-.23-3.44-.14-5.6.27-1.68.31-3.26.66-4.7,1.04-1.4.37-2.71.83-3.9,1.36-1.19.53-2.48,1.18-3.95,2-1.4.78-2.99,1.87-4.73,3.25l-.18.14-.13-.18c-2.18-3.1-4.29-4.74-6.25-4.88-2.03-.14-4.32.03-6.8.49-3.57.67-6.62,1.98-9.06,3.89-2.44,1.91-4.91,4.6-7.32,7.98l-17.54,32.05c-2.05,3.75-3.46,6.46-4.19,8.05-1.89,3.72-3.94,8.04-6.07,12.84-2.12,4.78-4.1,9.88-5.86,15.16-1.75,5.25-3.07,10.6-3.93,15.89-.85,5.29-.95,10.35-.29,15.02h0Z"/>
          </g>
          <g>
            <path d="M378.12,369.23c-.26-1.85-.38-3.31-.37-4.36.01-1.06.11-2.13.27-3.21.17-1.09.52-2.36,1.04-3.83.52-1.47,1.09-3.42,1.72-5.86.56-1.8,1.5-5.13,2.83-10.02,1.33-4.89,2.92-10.56,4.75-17.02,1.84-6.46,3.85-13.42,6.02-20.9,2.18-7.47,4.24-14.66,6.18-21.56,1.94-6.9,3.75-13.25,5.44-19.05,1.69-5.8,3.02-10.37,4.01-13.72,1.11-3.58,2.23-7.69,3.35-12.33,1.12-4.64,2.47-9.11,4.05-13.41,1.58-4.3,3.56-7.99,5.96-11.08,2.4-3.08,5.33-4.95,8.8-5.6,2.52-.47,4.91-.5,7.15-.08,2.25.42,4.55.41,6.92-.03,3.78-.71,7.26-2.47,10.42-5.27,3.16-2.81,6.72-4.58,10.66-5.32,2.99-.56,6.02-.34,9.08.67,3.06,1.01,5.88,2.69,8.48,5.05,2.6,2.36,4.83,5.21,6.67,8.55,1.85,3.35,3.07,7.07,3.65,11.18l.13.93c.06.41.11,1.35.16,2.82.04,1.47.06,2.99.04,4.58-.02,1.59,0,3.11.04,4.58.04,1.47.1,2.41.16,2.82l.26,1.85c1.89-.35,3.38-1.27,4.47-2.74,1.09-1.47,2.15-3.09,3.2-4.87,1.04-1.78,2.1-3.45,3.17-5.02,1.07-1.57,2.55-2.53,4.45-2.89.94-.18,2.06-.28,3.35-.31,1.29-.03,2.07.88,2.33,2.73.35,2.46-.22,5.58-1.71,9.34-1.49,3.76-3.27,7.52-5.32,11.28-2.06,3.76-3.98,7.07-5.76,9.94-1.78,2.86-2.88,4.55-3.29,5.04-5.2,8.99-10.52,16.63-15.94,22.92-5.42,6.29-11.15,11.58-17.18,15.88-6.03,4.29-12.59,7.68-19.69,10.18-7.1,2.49-15.01,4.34-23.74,5.56-1.82,2.03-3.26,5.25-4.34,9.67-1.07,4.42-1.94,9.43-2.61,15.04-.66,5.61-1.3,11.42-1.9,17.44-.61,6.01-1.39,11.59-2.37,16.73-.97,5.13-2.22,9.43-3.76,12.88-1.53,3.45-3.64,5.43-6.33,5.93-2.21.41-4.68-.18-7.41-1.77-2.73-1.6-5.34-3.7-7.81-6.29-2.47-2.6-4.61-5.41-6.42-8.44-1.8-3.04-2.9-5.89-3.27-8.56ZM430.46,268.95c.38,2.67.89,4.32,1.55,4.93.65.62,2,.73,4.06.34,3.94-.74,7.95-2.76,12.01-6.05,4.06-3.29,7.72-7.24,10.95-11.86,3.23-4.61,5.75-9.67,7.56-15.18,1.81-5.5,2.34-10.93,1.58-16.27-.49-3.49-1.4-5.85-2.7-7.08-1.31-1.23-3.3-1.6-5.98-1.09-4.1.77-8.05,2.93-11.83,6.49-3.79,3.56-7.07,7.81-9.85,12.76-2.78,4.95-4.89,10.36-6.32,16.21-1.44,5.86-1.78,11.46-1.02,16.8Z"/>
            <path d="M401.65,394.62c-1.88,0-3.93-.64-6.14-1.92-2.74-1.6-5.38-3.73-7.86-6.32-2.47-2.59-4.64-5.45-6.45-8.48-1.81-3.05-2.92-5.96-3.3-8.64h0c-.26-1.83-.39-3.31-.38-4.39.01-1.05.11-2.14.27-3.24.18-1.11.53-2.41,1.05-3.87.52-1.46,1.09-3.43,1.72-5.84.56-1.79,1.51-5.16,2.83-10.02,1.37-5.01,2.96-10.74,4.75-17.02,1.82-6.41,3.85-13.44,6.02-20.9,2.09-7.16,4.17-14.41,6.17-21.56,1.87-6.64,3.7-13.05,5.44-19.05,1.69-5.8,3.02-10.37,4.01-13.72,1.1-3.55,2.23-7.7,3.35-12.32,1.12-4.61,2.48-9.13,4.06-13.43,1.57-4.3,3.59-8.04,5.99-11.14,2.42-3.11,5.42-5.02,8.93-5.68,2.53-.48,4.96-.5,7.23-.08,2.2.42,4.5.4,6.84-.03,3.73-.7,7.2-2.46,10.32-5.22,3.17-2.82,6.79-4.63,10.76-5.37,3.02-.57,6.11-.34,9.19.67,3.07,1.01,5.95,2.73,8.56,5.1,2.6,2.36,4.86,5.25,6.72,8.61,1.86,3.36,3.09,7.14,3.67,11.25l.13.93c.06.41.11,1.28.16,2.84.04,1.49.06,3.03.04,4.59-.02,1.63,0,3.17.04,4.57.05,1.79.11,2.51.15,2.8l.23,1.63c1.73-.37,3.11-1.25,4.12-2.61,1.06-1.44,2.13-3.07,3.18-4.85,1.04-1.77,2.11-3.46,3.18-5.04,1.1-1.61,2.64-2.62,4.58-2.98.94-.18,2.05-.28,3.39-.32,1.41-.02,2.27.95,2.54,2.91.35,2.49-.23,5.67-1.73,9.44-1.5,3.76-3.29,7.57-5.33,11.3-2.04,3.72-3.97,7.07-5.76,9.95-1.81,2.91-2.89,4.56-3.31,5.07-5.17,8.93-10.54,16.65-15.94,22.92-5.4,6.27-11.2,11.62-17.22,15.91-6.02,4.28-12.66,7.72-19.74,10.2-7.07,2.48-15.04,4.35-23.7,5.56-1.76,1.99-3.19,5.2-4.24,9.52-1.07,4.39-1.94,9.44-2.6,15.01-.66,5.6-1.3,11.47-1.9,17.43-.6,6-1.4,11.64-2.37,16.75-.97,5.14-2.24,9.49-3.78,12.93-1.56,3.5-3.74,5.54-6.48,6.05-.46.09-.93.13-1.42.13ZM436.04,207.11c-1.25,0-2.53.12-3.84.37-3.4.64-6.32,2.5-8.67,5.53-2.37,3.06-4.37,6.77-5.93,11.02-1.57,4.29-2.93,8.79-4.05,13.39-1.12,4.63-2.25,8.79-3.35,12.35-.98,3.34-2.32,7.92-4.01,13.72-1.74,6-3.57,12.41-5.44,19.05-2.01,7.15-4.08,14.4-6.18,21.56-2.17,7.46-4.2,14.49-6.02,20.9-1.79,6.29-3.39,12.01-4.75,17.02-1.32,4.86-2.28,8.24-2.83,10.03-.62,2.41-1.2,4.39-1.72,5.87-.51,1.44-.86,2.72-1.03,3.79-.17,1.08-.26,2.15-.27,3.18,0,1.06.12,2.51.37,4.33h0c.37,2.62,1.46,5.47,3.25,8.48,1.79,3.01,3.94,5.83,6.39,8.4,2.45,2.57,5.06,4.67,7.76,6.25,2.68,1.56,5.13,2.15,7.27,1.74,2.6-.49,4.67-2.44,6.17-5.81,1.52-3.41,2.78-7.73,3.75-12.84.96-5.1,1.76-10.73,2.36-16.71.6-5.97,1.24-11.84,1.9-17.44.66-5.59,1.54-10.66,2.61-15.06,1.08-4.44,2.55-7.72,4.38-9.76l.05-.06h.08c8.66-1.22,16.64-3.09,23.7-5.56,7.04-2.47,13.65-5.89,19.63-10.15,5.99-4.27,11.76-9.6,17.14-15.84,5.39-6.24,10.74-13.94,15.92-22.88.42-.51,1.52-2.2,3.3-5.05,1.78-2.87,3.72-6.21,5.75-9.93,2.04-3.72,3.82-7.51,5.31-11.25,1.47-3.71,2.04-6.81,1.7-9.23-.25-1.74-.92-2.59-2.11-2.55-1.32.04-2.4.14-3.32.31-1.83.34-3.28,1.29-4.31,2.8-1.07,1.57-2.13,3.25-3.17,5.01-1.06,1.79-2.14,3.44-3.21,4.89-1.12,1.51-2.66,2.45-4.6,2.82l-.22.04-.29-2.07c-.06-.43-.11-1.39-.16-2.84-.05-1.41-.06-2.95-.04-4.59.02-1.55,0-3.09-.04-4.57-.05-1.52-.1-2.41-.15-2.79l-.13-.93c-.57-4.06-1.79-7.79-3.62-11.1-1.83-3.31-4.07-6.17-6.63-8.5-2.57-2.33-5.4-4.01-8.41-5.01-3.01-.99-6.03-1.21-8.98-.66-3.89.73-7.44,2.5-10.56,5.27-3.18,2.82-6.72,4.61-10.52,5.32-2.39.45-4.74.46-7,.03-1.04-.2-2.12-.29-3.23-.29ZM433.99,274.66c-.99,0-1.69-.21-2.14-.63-.69-.65-1.22-2.3-1.61-5.05h0c-.76-5.35-.41-11.03,1.02-16.88,1.44-5.86,3.57-11.33,6.35-16.26,2.78-4.95,6.11-9.26,9.89-12.81,3.79-3.57,7.81-5.77,11.93-6.54,2.74-.51,4.81-.13,6.17,1.15,1.34,1.26,2.27,3.69,2.77,7.21.76,5.34.22,10.85-1.59,16.36-1.81,5.51-4.36,10.63-7.59,15.23-3.23,4.6-6.92,8.61-10.99,11.9-4.08,3.3-8.15,5.35-12.11,6.09-.81.15-1.51.23-2.1.23ZM430.66,268.92c.37,2.61.87,4.23,1.48,4.8.6.56,1.9.66,3.87.29,3.89-.73,7.9-2.75,11.92-6.01,4.03-3.27,7.7-7.24,10.91-11.81,3.2-4.57,5.74-9.66,7.54-15.12,1.79-5.45,2.32-10.9,1.57-16.17-.48-3.42-1.37-5.76-2.64-6.96-1.25-1.18-3.21-1.53-5.8-1.04-4.04.76-7.99,2.92-11.72,6.44-3.75,3.52-7.05,7.8-9.81,12.71-2.75,4.9-4.88,10.34-6.3,16.16-1.42,5.8-1.77,11.43-1.02,16.72h0Z"/>
          </g>
          <g>
            <path d="M488.68,287.44c-1.02-7.19-.79-14.72.69-22.58,1.48-7.87,3.86-15.64,7.14-23.32,3.28-7.68,7.25-15.06,11.92-22.16,4.66-7.09,9.64-13.4,14.92-18.93,5.29-5.52,10.67-10.12,16.14-13.78,5.47-3.66,10.73-5.97,15.78-6.91.79-.15,2.25-.37,4.4-.67,2.14-.3,3.61-.52,4.4-.67.56.53,1.74,1.41,3.53,2.64,1.79,1.24,2.96,2.02,3.49,2.34.53.33,1.22.66,2.09,1.03.86.36,1.37.53,1.53.5s.59-.37,1.31-1.03c.72-.66,1.48-1.27,2.29-1.84.81-.57,1.54-1.13,2.19-1.67s1.13-.84,1.45-.9c.13-.23,1.02-.51,2.68-.82l3.67-.69c.47-.09,1.5-.28,3.07-.58s2.62-.38,3.12-.27c.34.15.98.66,1.92,1.53.93.87,1.58,1.49,1.96,1.83l.13.92c.55,3.89.2,7.68-1.06,11.38-1.26,3.7-2.93,7.32-5.02,10.86-2.09,3.54-4.42,7.07-7,10.6-2.58,3.53-4.9,7.12-6.98,10.76-2.08,3.64-3.74,7.31-5,11.02-1.26,3.7-1.6,7.59-1.02,11.68,4.41-.83,8.09-3.45,11.03-7.87,2.93-4.42,5.7-9.17,8.3-14.26,2.6-5.08,5.21-9.81,7.83-14.17,2.62-4.36,5.98-6.92,10.08-7.69,1.73-.33,2.8.06,3.2,1.14.4,1.09.72,2.55.99,4.4l.28,2c.13.92.15,1.61.05,2.05-2.97,6.46-6.44,13.97-10.41,22.51-3.97,8.55-8.35,16.75-13.15,24.61-4.8,7.86-10.13,14.76-16.01,20.71-5.88,5.95-12.21,9.56-18.98,10.84-2.21.41-4.25,0-6.12-1.23-1.87-1.23-3.57-2.65-5.1-4.26-1.52-1.61-2.95-3.09-4.27-4.42-1.32-1.33-2.54-1.9-3.64-1.69-2.68.5-5.13,1.76-7.36,3.75-2.23,2-4.47,4.16-6.73,6.48-2.26,2.32-4.62,4.5-7.09,6.55-2.47,2.04-5.19,3.35-8.19,3.91-4.1.77-7.98.23-11.64-1.61-3.66-1.85-5.93-5.85-6.8-12.01ZM527.98,244.33c.26,1.85.78,2.97,1.57,3.34.78.38,1.8.45,3.07.22,2.52-.47,5.05-1.79,7.58-3.95,2.52-2.16,4.58-4.54,6.15-7.16l20.64-37.71c-.03-.2-.04-.57-.03-1.1,0-.52,0-.89-.03-1.1-.2-1.43-.74-2.39-1.62-2.86-.88-.47-1.94-.59-3.21-.35-3.47.65-7.33,2.85-11.57,6.6-4.25,3.75-8.11,8.16-11.6,13.25-3.49,5.08-6.34,10.41-8.54,15.99-2.21,5.58-3,10.53-2.39,14.84Z"/>
            <path d="M503.57,301.61c-2.84,0-5.59-.66-8.19-1.97-3.71-1.87-6.03-5.96-6.91-12.17-1.02-7.17-.78-14.79.69-22.65,1.47-7.84,3.88-15.71,7.15-23.37,3.28-7.66,7.29-15.13,11.94-22.19,4.64-7.06,9.67-13.44,14.95-18.96,5.27-5.51,10.72-10.16,16.17-13.81,5.47-3.66,10.81-6,15.86-6.94.78-.15,2.23-.37,4.41-.67,2.1-.29,3.58-.51,4.39-.66l.11-.02.08.07c.55.52,1.73,1.4,3.51,2.62,1.81,1.26,2.95,2.02,3.48,2.33.52.32,1.19.65,2.06,1.01,1.14.48,1.37.49,1.41.49.04-.01.27-.12,1.2-.98.72-.66,1.49-1.28,2.31-1.86.81-.57,1.54-1.13,2.18-1.66.65-.54,1.12-.84,1.47-.93.19-.2.78-.47,2.76-.84l6.74-1.26c1.62-.3,2.67-.39,3.21-.27.4.17,1.03.67,2.01,1.58l.73.68c.55.52.96.9,1.23,1.15l.06.05.14.99c.55,3.9.19,7.76-1.07,11.48-1.26,3.69-2.95,7.36-5.04,10.9-2.08,3.52-4.44,7.09-7.01,10.62-2.55,3.49-4.89,7.1-6.96,10.74-2.06,3.61-3.73,7.31-4.98,10.98-1.22,3.58-1.57,7.4-1.04,11.36,4.24-.86,7.83-3.46,10.67-7.74,2.91-4.38,5.7-9.18,8.29-14.24,2.58-5.06,5.22-9.83,7.84-14.18,2.64-4.39,6.08-7.01,10.22-7.79,1.84-.35,3,.08,3.43,1.27.4,1.1.73,2.59,1,4.44l.28,2c.13.94.15,1.66.04,2.12-3.22,7.02-6.73,14.59-10.43,22.55-3.95,8.51-8.38,16.8-13.16,24.63-4.78,7.84-10.18,14.82-16.04,20.75-5.88,5.96-12.31,9.62-19.1,10.89-2.25.42-4.36,0-6.28-1.26-1.88-1.23-3.61-2.68-5.13-4.29-1.5-1.59-2.93-3.07-4.26-4.42-1.26-1.27-2.42-1.82-3.45-1.63-2.63.49-5.07,1.74-7.26,3.7-2.21,1.98-4.47,4.16-6.72,6.47-2.26,2.32-4.65,4.53-7.1,6.56-2.48,2.06-5.27,3.39-8.28,3.95-1.21.23-2.41.34-3.58.34ZM563.99,178.65c-.84.15-2.28.37-4.3.65-2.17.3-3.61.52-4.39.67-4.99.94-10.28,3.25-15.7,6.88-5.43,3.64-10.85,8.26-16.1,13.75-5.26,5.5-10.27,11.86-14.9,18.9-4.63,7.04-8.63,14.49-11.9,22.13-3.26,7.63-5.66,15.46-7.13,23.28-1.46,7.81-1.69,15.39-.68,22.51.86,6.06,3.11,10.05,6.68,11.85,3.6,1.81,7.48,2.35,11.51,1.59,2.94-.55,5.66-1.85,8.09-3.87,2.44-2.02,4.82-4.22,7.07-6.53,2.25-2.32,4.52-4.5,6.74-6.49,2.24-2.02,4.75-3.3,7.46-3.8,1.17-.22,2.46.37,3.83,1.75,1.33,1.35,2.77,2.83,4.27,4.42,1.5,1.59,3.2,3.01,5.06,4.23,1.82,1.19,3.83,1.59,5.97,1.19,6.7-1.26,13.05-4.88,18.87-10.78,5.84-5.91,11.21-12.87,15.98-20.68,4.77-7.82,9.19-16.09,13.14-24.59,3.7-7.96,7.2-15.53,10.41-22.51.08-.37.06-1.04-.06-1.93l-.28-2c-.26-1.82-.59-3.29-.98-4.36-.36-.98-1.33-1.31-2.96-1.01-4.02.75-7.36,3.31-9.94,7.59-2.61,4.34-5.24,9.1-7.82,14.16-2.59,5.08-5.39,9.88-8.31,14.28-2.96,4.45-6.71,7.13-11.16,7.96l-.22.04-.03-.22c-.58-4.11-.24-8.07,1.03-11.78,1.25-3.7,2.94-7.42,5.01-11.05,2.08-3.65,4.43-7.28,6.99-10.78,2.57-3.51,4.92-7.07,6.99-10.58,2.07-3.52,3.76-7.16,5-10.82,1.24-3.65,1.59-7.45,1.05-11.28l-.12-.84c-.27-.25-.66-.62-1.18-1.1l-.73-.68c-.92-.86-1.55-1.36-1.86-1.49-.29-.06-1.08-.08-3,.28l-6.74,1.26c-2.22.42-2.5.67-2.53.71l-.05.09h-.1c-.28.07-.73.36-1.35.87-.64.54-1.39,1.1-2.21,1.68-.8.57-1.57,1.18-2.27,1.82-.98.91-1.26,1.06-1.41,1.09-.15.03-.46-.01-1.65-.51-.89-.37-1.58-.71-2.11-1.04-.53-.32-1.68-1.08-3.5-2.34-1.71-1.18-2.88-2.05-3.48-2.59ZM531.26,248.24c-.69,0-1.29-.12-1.8-.38-.86-.41-1.41-1.56-1.68-3.5h0c-.61-4.33.19-9.36,2.4-14.95,2.2-5.58,5.08-10.97,8.56-16.03,3.48-5.07,7.39-9.53,11.64-13.29,4.25-3.76,8.18-5.99,11.67-6.65,1.3-.24,2.43-.12,3.34.37.93.5,1.52,1.51,1.73,3.01.03.22.04.59.04,1.13,0,.49,0,.87.03,1.07v.07s-.02.06-.02.06l-20.64,37.71c-1.58,2.63-3.66,5.05-6.2,7.22-2.54,2.17-5.12,3.52-7.67,4-.5.09-.97.14-1.39.14ZM563.28,193.75c-.37,0-.75.04-1.16.11-3.42.64-7.28,2.85-11.47,6.55-4.22,3.73-8.11,8.17-11.57,13.21-3.46,5.04-6.33,10.4-8.52,15.95-2.18,5.52-2.98,10.48-2.38,14.73h0c.25,1.77.74,2.84,1.45,3.18.74.36,1.72.43,2.94.2,2.48-.47,4.99-1.78,7.48-3.91,2.5-2.14,4.56-4.53,6.11-7.11l20.61-37.65c-.03-.23-.04-.6-.03-1.06,0-.51,0-.87-.03-1.07-.19-1.36-.7-2.27-1.51-2.7-.55-.29-1.19-.44-1.91-.44Z"/>
          </g>
          <g>
            <path d="M580.6,278.11c-.67-4.72-.25-10.6,1.27-17.63,1.52-7.03,3.74-14.46,6.68-22.29,2.94-7.83,6.4-15.7,10.38-23.61,3.98-7.91,8.09-15.12,12.36-21.61,4.26-6.49,8.55-11.93,12.86-16.33,4.31-4.39,8.21-6.92,11.68-7.57.47-.09,1.61-.3,3.43-.64,1.81-.34,3.05-.46,3.71-.38.37.36,1.27,1.24,2.68,2.66,1.41,1.43,2.39,2.3,2.92,2.62l.71-.13c3.15-.59,6.05-1.87,8.68-3.84,2.63-1.97,5.53-3.25,8.68-3.84,3.94-.74,7.77-.24,11.5,1.48,3.72,1.73,6.04,5.78,6.94,12.14.67,4.73.35,9.32-.96,13.78-1.31,4.47-3.01,8.79-5.08,12.97-2.08,4.19-4.2,8.38-6.35,12.58-2.16,4.2-3.76,8.3-4.81,12.29.31-.06.75-.09,1.32-.09.57,0,.93-.02,1.08-.05,4.1-.77,7.51-3.25,10.24-7.46,2.72-4.2,5.31-8.79,7.76-13.79,2.45-4.99,4.97-9.79,7.55-14.38,2.59-4.6,5.71-7.66,9.38-9.19,1.83-.76,2.99-.35,3.45,1.25.47,1.6.79,3.02.96,4.25.06.41.11,1.09.17,2.03.05.94.11,1.61.17,2.02-3.32,6.32-7.08,13.77-11.28,22.36-4.21,8.59-8.87,16.85-13.98,24.76-5.11,7.92-10.68,14.92-16.7,21-6.02,6.08-12.58,9.79-19.67,11.12l-8.04,1.51c-3.55-1.03-5.77-2.71-6.67-5.08-.9-2.36-1.6-5.28-2.09-8.78-.96-6.78-.42-12.94,1.63-18.49,2.04-5.55,4.49-10.86,7.34-15.93,2.84-5.07,5.59-10.22,8.25-15.47,2.66-5.24,4.13-10.84,4.42-16.8-.16.03-.4.03-.73-.02-.33-.04-.58-.05-.73-.02-5.83,1.09-10.61,3.94-14.33,8.54-3.72,4.6-6.88,10.04-9.47,16.32-2.59,6.29-4.96,13-7.1,20.15-2.14,7.15-4.51,13.87-7.1,20.15-2.59,6.29-5.67,11.71-9.23,16.28-3.56,4.57-8.18,7.39-13.86,8.45l-7.1,1.33c-1.32-.18-2.12-1.56-2.41-4.14-.28-2.59-.46-4.07-.51-4.49Z"/>
            <path d="M583.53,286.95h-.03c-1.42-.2-2.29-1.65-2.59-4.33-.28-2.51-.45-4.06-.51-4.48h0c-.67-4.72-.24-10.68,1.27-17.71,1.51-7.02,3.76-14.53,6.69-22.32,2.93-7.8,6.43-15.76,10.39-23.63,3.98-7.92,8.14-15.2,12.37-21.63,4.24-6.46,8.58-11.97,12.89-16.36,4.33-4.4,8.29-6.97,11.79-7.63l3.43-.64c1.81-.34,3.09-.47,3.78-.38h.07s.05.06.05.06c.41.39,1.36,1.34,2.69,2.66,1.33,1.34,2.28,2.2,2.81,2.54l.63-.12c3.11-.58,6-1.86,8.6-3.8,2.65-1.98,5.6-3.29,8.77-3.88,3.96-.74,7.87-.24,11.63,1.5,3.78,1.75,6.15,5.89,7.06,12.3.67,4.73.34,9.4-.97,13.87-1.3,4.44-3.02,8.82-5.1,13.01-2.04,4.1-4.18,8.34-6.35,12.58-2.09,4.06-3.67,8.08-4.72,11.94.27-.03.61-.04,1.03-.05.72,0,.97-.03,1.05-.04,4.02-.76,7.42-3.23,10.1-7.36,2.72-4.2,5.33-8.83,7.75-13.77,2.46-5.01,5-9.85,7.56-14.39,2.6-4.61,5.79-7.74,9.49-9.28,1.05-.44,1.91-.5,2.56-.19.55.26.95.79,1.18,1.58.47,1.61.8,3.05.97,4.28.06.41.11,1.08.17,2.04.05.88.1,1.58.16,2.01v.07s-.02.06-.02.06c-3.27,6.23-7.07,13.75-11.28,22.35-4.19,8.56-8.9,16.9-13.99,24.78-5.11,7.91-10.74,14.99-16.72,21.04-6.03,6.09-12.68,9.85-19.78,11.18l-8.09,1.52h-.05c-3.6-1.06-5.89-2.81-6.81-5.22-.9-2.35-1.61-5.32-2.1-8.83-.96-6.78-.41-13.04,1.64-18.6,2.03-5.52,4.51-10.89,7.35-15.96,2.83-5.05,5.61-10.25,8.25-15.46,2.59-5.12,4.07-10.66,4.39-16.47-.16,0-.33-.01-.54-.04-.31-.04-.53-.05-.66-.02-5.76,1.08-10.53,3.93-14.2,8.46-3.69,4.57-6.87,10.04-9.44,16.27-2.58,6.25-4.96,13.02-7.09,20.13-2.13,7.11-4.52,13.89-7.11,20.17-2.59,6.28-5.71,11.78-9.26,16.33-3.58,4.59-8.29,7.46-13.99,8.53l-7.13,1.34ZM580.81,278.08c.06.43.24,1.98.52,4.49.27,2.44,1.01,3.76,2.19,3.94l7.06-1.32c5.6-1.05,10.22-3.87,13.73-8.37,3.53-4.53,6.62-9.99,9.2-16.23,2.58-6.27,4.97-13.04,7.1-20.13,2.14-7.12,4.53-13.91,7.11-20.17,2.58-6.27,5.78-11.78,9.5-16.38,3.74-4.62,8.6-7.52,14.46-8.61.18-.03.44-.03.8.02.37.05.57.04.67.02l.26-.05v.27c-.31,5.96-1.8,11.64-4.46,16.89-2.64,5.21-5.42,10.41-8.26,15.47-2.83,5.05-5.3,10.4-7.32,15.89-2.03,5.49-2.57,11.68-1.62,18.39.49,3.47,1.19,6.41,2.08,8.73.86,2.27,3.05,3.93,6.48,4.93l7.99-1.5c7.01-1.32,13.6-5.04,19.56-11.06,5.97-6.03,11.58-13.08,16.67-20.97,5.08-7.88,9.78-16.2,13.97-24.74,4.2-8.58,7.98-16.08,11.25-22.3-.06-.44-.11-1.12-.16-1.98-.05-.95-.11-1.61-.16-2.01-.17-1.21-.49-2.63-.96-4.22-.19-.66-.52-1.11-.95-1.32-.53-.26-1.28-.19-2.21.2-3.61,1.51-6.73,4.57-9.28,9.1-2.56,4.54-5.09,9.37-7.55,14.37-2.43,4.95-5.04,9.6-7.77,13.81-2.74,4.23-6.23,6.77-10.38,7.55-.24.04-.74.05-1.13.05-.58,0-1,.03-1.28.09l-.33.06.09-.32c1.05-3.98,2.67-8.13,4.83-12.33,2.18-4.24,4.32-8.47,6.35-12.58,2.07-4.16,3.77-8.52,5.07-12.94,1.3-4.41,1.62-9.02.96-13.69-.89-6.26-3.18-10.29-6.82-11.98-3.68-1.7-7.5-2.19-11.37-1.46-3.1.58-6,1.86-8.6,3.81-2.65,1.98-5.6,3.29-8.77,3.88l-.79.15-.07-.04c-.55-.33-1.54-1.22-2.96-2.65-1.27-1.27-2.2-2.19-2.63-2.61-.66-.06-1.87.07-3.58.39l-3.43.64c-3.41.64-7.3,3.17-11.57,7.51-4.29,4.37-8.61,9.86-12.84,16.3-4.22,6.42-8.37,13.69-12.35,21.59-3.95,7.86-7.44,15.8-10.37,23.59-2.92,7.77-5.16,15.26-6.67,22.26-1.5,6.98-1.92,12.89-1.26,17.56h0Z"/>
          </g>
          <g>
            <path d="M670.1,318.57c-.81-5.75-.57-10.91.72-15.48,1.3-4.57,3.17-8.82,5.6-12.75,2.44-3.94,5.25-7.52,8.43-10.76,3.18-3.24,6.26-6.39,9.22-9.48l.11-.97c-.23-1.65-1.04-3.02-2.41-4.14-1.37-1.12-2.87-2.26-4.49-3.43-1.62-1.17-3.16-2.57-4.6-4.2-1.44-1.63-2.36-3.77-2.73-6.45-1.16-8.21-.35-16.8,2.42-25.76,2.78-8.95,6.41-17.65,10.88-26.08,4.47-8.43,9.21-16.43,14.21-24.01,5-7.58,9.21-14.11,12.64-19.61.87-1.85,2.42-2.93,4.64-3.24,2.22-.31,3.96-.59,5.23-.82l3.67-.69c1.81-.34,2.97-.45,3.47-.34,1,.24,1.61.81,1.82,1.71.21.91.39,1.88.53,2.91.79,5.55.03,10.8-2.26,15.76-2.29,4.97-4.92,9.83-7.89,14.6-2.96,4.78-5.6,9.64-7.89,14.61-2.29,4.97-3.05,10.22-2.26,15.76,4.57-.86,8.33-2.3,11.28-4.33,2.95-2.03,5.92-5.64,8.91-10.84l29.78-52.08c1.7-2.85,3.52-4.56,5.47-5.14,1.94-.57,4.17-1.1,6.7-1.57.47-.09,1.5-.28,3.07-.58s2.62-.38,3.12-.27c1.32.18,2.07.93,2.26,2.27s.36,2.52.5,3.54c.06.41.11,1.08.17,2.02.05.94.11,1.61.17,2.02-1.1,2.53-2.98,6.36-5.66,11.5-2.67,5.14-5.29,10.69-7.84,16.65-2.56,5.96-4.71,11.9-6.46,17.82-1.75,5.92-2.35,10.83-1.8,14.73,4.41-.83,7.98-3.39,10.69-7.7,2.71-4.3,5.29-8.95,7.74-13.94,2.45-4.99,5.03-9.64,7.74-13.94,2.71-4.3,6.35-6.88,10.92-7.74l1.27,8.93c.03.21-.62,1.59-1.96,4.16-1.34,2.57-2.97,5.62-4.9,9.14-1.93,3.53-3.93,7.12-6,10.77-2.07,3.66-3.75,6.66-5.04,9.01-4.56,7.81-9.83,14.6-15.82,20.36-5.98,5.76-11.87,11.61-17.67,17.55-3.41,3.38-6.17,7.85-8.3,13.42-2.13,5.56-4.19,11.59-6.18,18.08-1.99,6.49-4.06,13.1-6.18,19.82-2.13,6.73-4.8,12.97-8.03,18.74-3.23,5.77-7.26,10.74-12.09,14.92-4.83,4.17-10.87,6.94-18.13,8.3-6.62,1.24-12.42,0-17.4-3.69-4.98-3.71-8.1-10.08-9.38-19.12ZM691.99,299.91c.52,1.37,1.14,2.05,1.86,2.02.72-.03,1.48-.12,2.27-.27,2.84-.53,5.38-2.59,7.62-6.18,2.25-3.58,3.5-7.3,3.76-11.14l-2.37.44c-3.15.59-5.8,2.46-7.95,5.6-2.14,3.14-3.88,6.31-5.21,9.52Z"/>
            <path d="M692.09,342.05c-4.7,0-8.97-1.4-12.73-4.2-5-3.73-8.19-10.21-9.47-19.26h0c-.82-5.76-.57-10.99.73-15.56,1.29-4.56,3.19-8.86,5.63-12.81,2.44-3.94,5.29-7.57,8.46-10.79,3.37-3.43,6.37-6.51,9.17-9.42l.1-.9c-.22-1.53-1.01-2.88-2.33-3.95-1.34-1.09-2.85-2.24-4.48-3.42-1.64-1.18-3.2-2.61-4.64-4.23-1.47-1.65-2.4-3.86-2.79-6.56-1.16-8.2-.34-16.9,2.43-25.85,2.77-8.93,6.44-17.72,10.89-26.12,4.45-8.39,9.23-16.47,14.22-24.03,5-7.58,9.25-14.17,12.64-19.61.89-1.89,2.5-3.02,4.79-3.34,2.14-.3,3.89-.57,5.22-.82l3.67-.69c1.85-.35,3.01-.46,3.56-.33,1.08.26,1.75.89,1.98,1.87.21.94.39,1.92.54,2.92.79,5.56.02,10.9-2.28,15.88-2.29,4.96-4.95,9.88-7.9,14.63-2.96,4.76-5.61,9.67-7.87,14.58-2.23,4.84-3,10.02-2.27,15.42,4.43-.85,8.12-2.28,10.99-4.25,2.91-2,5.88-5.62,8.84-10.77l29.78-52.08c1.72-2.88,3.6-4.64,5.59-5.24,1.98-.58,4.24-1.11,6.72-1.58l3.07-.58c1.59-.3,2.67-.39,3.21-.27,1.4.19,2.22,1.01,2.43,2.44l.5,3.54c.06.41.11,1.08.17,2.04.05.89.1,1.58.16,2.01v.06s-.02.06-.02.06c-1.09,2.52-3,6.39-5.66,11.51-2.66,5.13-5.3,10.73-7.83,16.64-2.54,5.92-4.71,11.91-6.45,17.79-1.7,5.75-2.31,10.59-1.82,14.42,4.23-.86,7.71-3.4,10.33-7.56,2.71-4.3,5.31-8.99,7.73-13.93,2.45-4.99,5.06-9.69,7.75-13.96,2.73-4.33,6.45-6.97,11.06-7.84l.22-.04,1.3,9.15c.02.13.05.38-1.98,4.29-1.33,2.56-2.93,5.55-4.9,9.14-1.87,3.41-3.89,7.04-6,10.78-2.08,3.66-3.77,6.7-5.04,9.01-4.56,7.81-9.89,14.68-15.85,20.41-5.95,5.73-11.89,11.63-17.67,17.54-3.37,3.34-6.15,7.83-8.25,13.35-2.12,5.55-4.2,11.62-6.18,18.07-1.9,6.18-3.92,12.67-6.18,19.82-2.11,6.69-4.82,13.01-8.05,18.78-3.23,5.76-7.31,10.8-12.14,14.98-4.84,4.18-10.97,6.99-18.23,8.35-1.66.31-3.27.47-4.84.47ZM736.6,150.55c-.5,0-1.39.09-2.93.37l-3.67.69c-1.33.25-3.09.53-5.24.82-2.14.3-3.64,1.35-4.48,3.12-3.41,5.46-7.66,12.06-12.66,19.64-4.98,7.55-9.75,15.62-14.2,24-4.44,8.37-8.09,17.13-10.86,26.04-2.76,8.89-3.57,17.52-2.42,25.66.37,2.62,1.27,4.75,2.68,6.34,1.42,1.6,2.96,3,4.57,4.17,1.64,1.18,3.16,2.34,4.5,3.43,1.41,1.14,2.24,2.58,2.48,4.27l-.11,1.09-.05.05c-2.81,2.93-5.83,6.03-9.22,9.48-3.15,3.2-5.98,6.8-8.4,10.72-2.42,3.91-4.3,8.18-5.58,12.7-1.28,4.51-1.52,9.69-.72,15.39h0c1.26,8.94,4.39,15.32,9.3,18.98,4.91,3.65,10.71,4.88,17.23,3.66,7.18-1.35,13.25-4.12,18.03-8.26,4.79-4.14,8.85-9.15,12.05-14.86,3.21-5.75,5.91-12.04,8.01-18.71,2.26-7.15,4.28-13.64,6.18-19.82,1.98-6.45,4.06-12.54,6.19-18.09,2.13-5.57,4.93-10.11,8.35-13.49,5.77-5.91,11.72-11.81,17.67-17.55,5.93-5.71,11.24-12.54,15.78-20.32,1.26-2.31,2.96-5.34,5.04-9.01,2.12-3.74,4.13-7.36,6-10.77,1.94-3.54,3.59-6.61,4.89-9.14,1.73-3.31,1.93-3.94,1.94-4.05l-1.23-8.7c-4.39.88-7.95,3.44-10.57,7.6-2.68,4.26-5.28,8.95-7.73,13.93-2.43,4.95-5.03,9.65-7.75,13.96-2.73,4.34-6.37,6.96-10.83,7.79l-.22.04-.03-.22c-.55-3.92.05-8.9,1.8-14.82,1.75-5.9,3.93-11.9,6.47-17.84,2.54-5.92,5.18-11.53,7.85-16.67,2.64-5.08,4.54-8.92,5.63-11.43-.06-.44-.11-1.12-.16-1.98-.05-.95-.11-1.6-.16-2.01l-.5-3.54c-.18-1.24-.86-1.92-2.08-2.09-.35-.08-1.15-.09-3.05.27l-3.07.58c-2.47.46-4.72.99-6.68,1.57-1.89.56-3.68,2.26-5.34,5.04l-29.78,52.08c-2.99,5.21-6.01,8.88-8.97,10.91-2.96,2.04-6.78,3.5-11.36,4.36l-.22.04-.03-.22c-.79-5.56-.02-10.9,2.28-15.88,2.27-4.93,4.93-9.85,7.9-14.63,2.94-4.73,5.59-9.64,7.88-14.58,2.26-4.9,3.02-10.17,2.24-15.65-.14-.99-.32-1.96-.53-2.89-.19-.83-.74-1.34-1.66-1.56-.1-.02-.24-.04-.46-.04ZM693.81,302.15c-.81,0-1.47-.71-2.02-2.16l-.03-.08.03-.08c1.33-3.2,3.09-6.41,5.23-9.56,2.17-3.18,4.89-5.09,8.08-5.69l2.63-.49-.02.27c-.27,3.87-1.54,7.65-3.8,11.24-2.27,3.62-4.88,5.73-7.76,6.27-.79.15-1.56.24-2.3.27-.02,0-.04,0-.05,0ZM692.22,299.92c.48,1.22,1.01,1.85,1.63,1.81.72-.03,1.47-.12,2.24-.26,2.77-.52,5.28-2.56,7.48-6.08,2.16-3.45,3.41-7.07,3.71-10.77l-2.1.39c-3.08.58-5.71,2.43-7.81,5.51-2.11,3.09-3.85,6.26-5.16,9.4Z"/>
          </g>
        </g>
        <g>
          <path d="M472.77,155.57c0-1.88.33-3.86.98-5.94.65-2.07,1.47-4.15,2.46-6.22.98-2.07,2.05-4.07,3.19-5.99,1.15-1.92,2.21-3.64,3.19-5.15-.13-2.04-.2-4.35-.2-6.96s.16-5.28.49-8.03c.33-2.75.84-5.45,1.52-8.09.69-2.64,1.65-4.98,2.9-7.01,1.24-2.04,2.82-3.69,4.72-4.98,1.9-1.28,4.19-1.92,6.88-1.92,4.26,0,7.29,1.38,9.09,4.13,1.8,2.75,2.7,6.39,2.7,10.91,0,2.79-.44,5.47-1.33,8.03-.88,2.56-2,4.98-3.34,7.24-1.34,2.26-2.82,4.37-4.42,6.33-1.61,1.96-3.16,3.81-4.67,5.54v.79c0,.75.03,1.6.1,2.54.06.94.26,1.6.59,1.98l5.9,6.79h.69c1.11,0,1.87-.47,2.26-1.41.39-.94.65-2.11.79-3.51.13-1.39.2-2.9.2-4.52s.13-3.13.39-4.52c.26-1.39.75-2.56,1.47-3.51.72-.94,1.83-1.41,3.34-1.41,1.51,0,2.62.34,3.34,1.02.72.68,1.23,1.55,1.52,2.6.29,1.06.44,2.21.44,3.45,0,1.24,0,2.43,0,3.56,0,1.51-.2,2.94-.59,4.3-.39,1.36-.84,2.68-1.33,3.96-.49,1.28-.95,2.6-1.38,3.96-.43,1.36-.64,2.79-.64,4.3,0,1.36.3,2.43.89,3.22.59.79,1.31,1.41,2.16,1.87.85.45,1.8.83,2.85,1.13,1.05.3,2,.7,2.85,1.19.85.49,1.57,1.15,2.16,1.98.59.83.88,2,.88,3.51,0,2.26-.46,3.7-1.38,4.3-.92.6-2.23.9-3.93.9-1.11,0-2.18-.15-3.19-.45-1.02-.3-2.01-.64-3-1.02-.98-.38-1.98-.72-3-1.02-1.02-.3-2.08-.45-3.19-.45-1.31,0-2.59.19-3.83.57-1.24.38-2.49.81-3.73,1.3-1.24.49-2.49.92-3.73,1.3-1.24.38-2.52.57-3.83.57-2.75,0-5.35-.43-7.81-1.3-2.46-.87-4.6-2.17-6.44-3.9-1.84-1.73-3.29-3.92-4.37-6.56-1.08-2.64-1.62-5.77-1.62-9.39ZM482.6,156.36c0,1.51.26,2.79.79,3.85.52,1.06,1.21,1.91,2.06,2.54.85.64,1.82,1.11,2.9,1.41,1.08.3,2.21.45,3.39.45.98,0,2-.21,3.05-.62,1.05-.41,1.57-1.19,1.57-2.32,0-.98-.29-2.22-.88-3.73-.59-1.51-1.34-3-2.26-4.47-.92-1.47-1.92-2.73-3-3.79-1.08-1.06-2.11-1.58-3.09-1.58-.66,0-1.26.32-1.82.96-.56.64-1.03,1.41-1.42,2.32-.39.9-.71,1.81-.93,2.71-.23.9-.34,1.66-.34,2.26ZM500.29,107.39c-1.83,0-3.24.58-4.23,1.75-.98,1.17-1.7,2.56-2.16,4.18-.46,1.62-.72,3.34-.79,5.15-.07,1.81-.1,3.39-.1,4.75,1.31,0,2.51-.55,3.59-1.64,1.08-1.09,1.98-2.41,2.7-3.96.72-1.54,1.28-3.18,1.67-4.92.39-1.73.59-3.28.59-4.64,0-.38-.13-.58-.39-.62-.26-.04-.56-.06-.88-.06Z"/>
          <path d="M493.02,177.28c-2.8,0-5.49-.45-8-1.33-2.52-.89-4.75-2.24-6.64-4.02-1.88-1.78-3.4-4.05-4.51-6.76-1.1-2.69-1.66-5.92-1.66-9.6,0-1.93.34-3.99,1.01-6.11.66-2.08,1.49-4.2,2.48-6.29.99-2.09,2.07-4.12,3.22-6.04,1.09-1.82,2.13-3.51,3.1-5.01-.12-1.98-.19-4.27-.19-6.81s.17-5.35.5-8.1c.33-2.76.84-5.5,1.54-8.16.7-2.68,1.7-5.09,2.96-7.16,1.28-2.09,2.92-3.83,4.88-5.15,1.99-1.34,4.41-2.02,7.19-2.02,4.44,0,7.66,1.47,9.56,4.38,1.85,2.84,2.79,6.61,2.79,11.22,0,2.84-.46,5.6-1.36,8.21-.89,2.58-2.03,5.05-3.39,7.34-1.35,2.28-2.86,4.43-4.47,6.4-1.55,1.9-3.08,3.71-4.54,5.4v.58c0,.74.03,1.59.1,2.51.07,1.01.28,1.46.45,1.65l5.73,6.59h.43c.88,0,1.44-.34,1.74-1.07.37-.88.62-2.01.75-3.34.13-1.37.19-2.88.19-4.47s.14-3.21.4-4.63c.28-1.47.81-2.73,1.58-3.74.83-1.08,2.1-1.63,3.79-1.63s2.9.39,3.73,1.17c.79.75,1.36,1.71,1.68,2.86.31,1.1.46,2.31.46,3.6v3.56c0,1.55-.21,3.05-.61,4.45-.4,1.37-.85,2.72-1.34,4-.49,1.28-.95,2.6-1.36,3.93-.41,1.29-.61,2.68-.61,4.13,0,1.23.26,2.2.77,2.89.54.72,1.2,1.29,1.97,1.7.82.43,1.74.8,2.74,1.09,1.09.31,2.09.73,2.98,1.24.92.53,1.71,1.25,2.34,2.14.66.92.99,2.21.99,3.83,0,2.49-.53,4.05-1.63,4.77-1.01.66-2.43,1-4.24,1-1.17,0-2.3-.16-3.35-.48-1.02-.3-2.04-.65-3.04-1.03-.96-.37-1.95-.71-2.96-1-2.11-.62-4.52-.55-6.7.11-1.24.38-2.48.81-3.69,1.29-1.25.49-2.52.93-3.78,1.32-1.29.39-2.63.59-4,.59ZM498.91,95.85c-2.56,0-4.77.61-6.56,1.83-1.83,1.23-3.36,2.85-4.55,4.8-1.21,1.98-2.16,4.28-2.83,6.86-.68,2.61-1.19,5.31-1.51,8.01-.32,2.71-.49,5.39-.49,7.96s.07,4.92.19,6.92v.19s-.09.16-.09.16c-.99,1.53-2.06,3.25-3.18,5.13-1.13,1.89-2.19,3.89-3.17,5.95-.97,2.05-1.79,4.12-2.43,6.15-.63,2.01-.96,3.95-.96,5.77,0,3.53.53,6.62,1.58,9.17,1.05,2.55,2.47,4.69,4.24,6.36,1.77,1.67,3.86,2.94,6.24,3.78,2.38.84,4.95,1.27,7.62,1.27,1.25,0,2.49-.18,3.67-.54,1.23-.37,2.47-.8,3.69-1.29,1.24-.49,2.51-.93,3.78-1.32,2.39-.72,5.02-.8,7.35-.11,1.03.31,2.05.65,3.04,1.03.97.37,1.97.71,2.95,1,.96.28,1.98.43,3.03.43,1.58,0,2.8-.27,3.62-.81.73-.48,1.12-1.81,1.12-3.83,0-1.38-.26-2.45-.78-3.18-.54-.76-1.21-1.37-1.98-1.82-.81-.46-1.72-.85-2.72-1.13-1.08-.31-2.07-.7-2.96-1.18-.92-.49-1.71-1.17-2.35-2.03-.66-.89-1-2.09-1-3.56,0-1.56.22-3.06.66-4.47.42-1.35.89-2.69,1.39-3.99.48-1.26.92-2.57,1.31-3.91.38-1.3.57-2.69.57-4.14v-3.56c0-1.19-.14-2.29-.42-3.3-.27-.95-.72-1.74-1.37-2.34-.61-.57-1.6-.86-2.95-.86s-2.28.39-2.89,1.19c-.66.87-1.12,1.97-1.37,3.27-.25,1.35-.38,2.84-.38,4.42s-.07,3.17-.2,4.58c-.14,1.45-.42,2.69-.83,3.67-.48,1.15-1.44,1.76-2.78,1.76h-.94l-6.06-6.98c-.42-.48-.65-1.23-.73-2.31-.07-.94-.1-1.81-.1-2.58v-1l.14-.16c1.49-1.72,3.06-3.58,4.66-5.53,1.58-1.93,3.05-4.04,4.37-6.26,1.32-2.22,2.43-4.62,3.29-7.13.86-2.49,1.3-5.13,1.3-7.85,0-4.39-.88-7.96-2.61-10.61-1.71-2.61-4.53-3.87-8.62-3.87ZM491.74,165.18c-1.23,0-2.42-.16-3.54-.47-1.14-.32-2.18-.83-3.09-1.51-.92-.69-1.67-1.61-2.23-2.75-.56-1.13-.84-2.5-.84-4.1,0-.65.12-1.46.36-2.4.23-.92.56-1.87.96-2.8.41-.95.92-1.78,1.52-2.46.66-.77,1.42-1.16,2.24-1.16,1.13,0,2.3.59,3.49,1.74,1.11,1.08,2.15,2.39,3.08,3.89.93,1.49,1.71,3.03,2.31,4.56.62,1.59.92,2.88.92,3.94,0,1.36-.67,2.34-1.93,2.84-1.11.44-2.2.66-3.25.66ZM487.12,148.67c-.49,0-.94.25-1.39.77-.52.6-.96,1.33-1.33,2.17-.38.88-.69,1.76-.9,2.63-.22.85-.33,1.57-.33,2.12,0,1.42.24,2.62.73,3.59.48.97,1.12,1.76,1.9,2.35.79.6,1.7,1.04,2.71,1.32,1.03.29,2.12.43,3.24.43.91,0,1.86-.2,2.84-.58.83-.33,1.22-.9,1.22-1.79s-.28-2.09-.85-3.53c-.57-1.47-1.32-2.94-2.21-4.37-.89-1.42-1.87-2.66-2.91-3.68-.97-.94-1.88-1.42-2.7-1.42ZM493.02,123.78h-.56v-.56c0-1.37.03-2.97.1-4.77.07-1.84.34-3.62.81-5.28.48-1.69,1.24-3.17,2.27-4.39,1.09-1.3,2.66-1.95,4.66-1.95.34,0,.67.02.96.06.21.03.88.21.88,1.18,0,1.39-.2,2.99-.6,4.76-.4,1.77-.97,3.46-1.71,5.03-.75,1.6-1.69,2.99-2.81,4.12-1.19,1.2-2.53,1.81-3.99,1.81ZM500.29,107.95c-1.67,0-2.91.51-3.79,1.55-.93,1.1-1.62,2.44-2.05,3.98-.44,1.57-.7,3.26-.76,5.01-.06,1.53-.09,2.91-.1,4.13.94-.13,1.8-.61,2.62-1.43,1.03-1.04,1.9-2.32,2.59-3.8.7-1.5,1.25-3.12,1.63-4.81.38-1.69.58-3.21.58-4.51,0-.03,0-.06,0-.08-.21-.03-.45-.04-.71-.04Z"/>
        </g>
      </g>
    </g>
  </g>
</svg>