<?xml version="1.0" encoding="UTF-8"?>
<svg fill="#342609" id="Layer_2" data-name="Layer 2" xmlns="http://www.w3.org/2000/svg" viewBox="0 0 996.4 718.98">
  <g id="Layer_1-2" data-name="Layer 1">
    <g>
      <g>
        <path d="M128.82,264.41l-10.79,3.36v17.18c0,8.31.48,16.78,2,25.73-14.22,8.15-34.04,11.67-50.9,11.67C23.89,322.35,0,296.85,0,251.94c0-37.24,19.98-65.53,70.16-65.53,17.74,0,30.77,1.92,43.55,6.39.48,11.75,1.44,23.65,2.88,35.4l-2.96.72c-11.35-26.45-26.45-38.04-44.75-38.04-24.45,0-38.2,18.78-38.2,60.81,0,46.59,19.1,66.17,42.35,66.17,6.95,0,12.95-1.28,18.78-4.64v-45.47l-16.14-3.36v-2.24h53.14v2.24Z"/>
        <path d="M189.14,236.68c0,4.4-1.28,8.87-4.88,12.55-10.07-4.47-20.38-3.44-28.21,2.8v62.97l15.82,2.88v1.92h-50.66v-1.92l11.43-2.88v-67.45c-3.84-2.16-8.23-5.11-12.15-8.23v-.56c10.31-3.84,21.42-8.63,31.33-14.06h.48c1.92,8.71,2.56,15.58,2.72,23.73,3.68-15.18,12.71-23.26,22.62-23.26,6.87,0,11.51,3.68,11.51,11.51Z"/>
        <path d="M272.97,309c-4.71,7.83-13.03,12.87-21.82,12.87s-13.83-3.6-14.86-12.39l-8.95,5.91c-4.79,2.96-10.63,6.95-19.82,6.95-13.35,0-24.05-7.83-24.05-21.74,0-14.62,10.79-20.7,52.66-26.37l.24-19.1c.24-12.39-2.88-23.1-18.78-23.1-4.08,0-7.91.88-11.35,2.4-.48,8.79.48,17.26,2.48,25.09-3.76,2.24-8.07,3.28-12.31,3.28-7.19,0-13.03-3.68-13.03-11.19,0-14.78,25.89-26.53,46.51-26.53s29.73,11.43,29.33,30.13l-1.12,43.79c-.16,6.71,1.36,11.11,6.47,11.11,2.16,0,4.48-.56,7.59-2.08l.8.96ZM235.81,306.44l.32-28.37c-24.13,4-28.05,9.35-28.05,19.02,0,8.95,4.79,14.22,11.83,14.22,5.35,0,10.15-1.68,15.9-4.87Z"/>
        <path d="M264.96,272.88c0-31.25,15.5-47.79,43.87-47.79,23.26,0,35.08,9.11,35.08,22.3,0,8.87-5.35,13.11-13.51,13.11-3.76.08-7.27-1.12-9.75-2.72,2.4-21.66-2.8-29.25-11.83-29.25-12.23,0-19.42,11.75-19.42,34.76,0,26.61,10.63,42.11,28.69,42.11,9.83,0,17.34-4.32,24.77-13.59l.96.4c-4.71,21.02-18.46,30.13-36.04,30.13-28.13,0-42.83-21.18-42.83-49.47Z"/>
        <path d="M341.83,319.79v-1.92l11.59-2.88v-67.61c-4-2.32-8.39-5.11-12.39-8.07v-.56c12.15-4,23.73-8.63,35.56-14.06h.32v90.3l11.59,2.88v1.92h-46.67ZM350.7,197.68c0-8.31,4.71-12.55,14.14-12.55s14.3,4.23,14.3,12.55-4.79,12.15-14.3,12.15-14.14-4-14.14-12.15Z"/>
        <path d="M462.41,292.86c-5.67,21.18-19.82,29.49-36.52,29.49-29.01,0-43.95-21.5-43.95-49.07s15.98-48.19,44.83-48.19c22.94,0,35.08,10.07,35.32,28.45,0,3.52-.24,6.95-1.12,10.31l-55.3-.48v.96c0,27.01,12.23,41.08,30.61,41.08,9.75,0,17.58-3.76,24.93-13.03l1.2.48ZM405.75,259.61l32.84-.96c.8-4.08,1.12-8.07,1.12-11.43,0-11.75-4.32-18.7-13.91-18.7-11.83,0-19.1,10.71-20.06,31.09Z"/>
        <path d="M526.97,194.16v120.43l15.82,3.2v2h-58.26v-2l15.34-3.2v-120.43l-15.34-3.2v-2h58.26v2l-15.82,3.2ZM608,318.19v1.6c-18.62,3.92-36.12.56-48.91-15.42-11.59-15.02-20.78-31.88-29.01-52.42l45.87-56.42-17.66-4.55v-2h45.71v2l-14.38,4.55c-13.19,12.95-26.29,26.37-39.48,40.36,9.99,22.22,25.25,46.67,40.04,65.13,7.03,8.23,11.91,12.79,17.82,17.18Z"/>
        <path d="M667.44,236.68c0,4.4-1.28,8.87-4.88,12.55-10.07-4.47-20.38-3.44-28.21,2.8v62.97l15.82,2.88v1.92h-50.66v-1.92l11.43-2.88v-67.45c-3.84-2.16-8.23-5.11-12.15-8.23v-.56c10.31-3.84,21.42-8.63,31.33-14.06h.48c1.92,8.71,2.56,15.58,2.72,23.73,3.68-15.18,12.71-23.26,22.62-23.26,6.87,0,11.51,3.68,11.51,11.51Z"/>
        <path d="M750.46,308.52c4.64,2.08,9.19,4.4,13.83,6.95v.72c-12.79,1.52-24.37,3.6-35.48,6.39-.88-6.15-1.36-12.47-1.52-18.86-5.35,12.07-15.5,18.7-28.29,18.7-21.34,0-26.05-15.66-26.05-33.16v-45.39c-4.16-2.72-8.31-5.59-12.39-8.95v-.56c12.47-2.72,23.41-5.67,35.32-9.67h.48v65.13c0,10.87,3.67,17.02,14.86,17.02,6.07,0,11.19-1.84,15.82-5.67v-57.3c-4.72-2.72-9.11-5.59-13.43-8.95v-.56c12.87-2.72,24.05-5.67,36.36-9.67h.48v83.83Z"/>
        <path d="M755.4,272.88c0-31.25,15.5-47.79,43.87-47.79,23.25,0,35.08,9.11,35.08,22.3,0,8.87-5.35,13.11-13.51,13.11-3.76.08-7.27-1.12-9.75-2.72,2.4-21.66-2.8-29.25-11.83-29.25-12.23,0-19.42,11.75-19.42,34.76,0,26.61,10.63,42.11,28.69,42.11,9.83,0,17.34-4.32,24.77-13.59l.96.4c-4.71,21.02-18.46,30.13-36.04,30.13-28.13,0-42.83-21.18-42.83-49.47Z"/>
        <path d="M864.31,174.35v140.65l11.75,2.88v1.92h-46.75v-1.92l11.67-2.88v-119.39c-4.4-2.4-8.71-5.19-12.95-8.23v-.72c12.47-3.76,23.57-7.51,35.8-12.31h.48ZM929.13,317.63l-.08,1.28c-16.38,5.43-30.05,1.6-41.72-11.99-7.43-8.71-15.82-23.09-21.82-37.64l33.88-35.32-12.63-4.4v-1.92h37.72v1.92l-12.95,4.71-28.61,24.61c9.11,16.7,20.22,34.12,32.84,47.71,4.4,4.79,8.31,8.23,13.35,11.03Z"/>
        <path d="M996.4,292.86c-5.67,21.18-19.82,29.49-36.52,29.49-29.01,0-43.95-21.5-43.95-49.07s15.98-48.19,44.83-48.19c22.93,0,35.08,10.07,35.32,28.45,0,3.52-.24,6.95-1.12,10.31l-55.3-.48v.96c0,27.01,12.23,41.08,30.61,41.08,9.75,0,17.58-3.76,24.93-13.03l1.2.48ZM939.74,259.61l32.84-.96c.8-4.08,1.12-8.07,1.12-11.43,0-11.75-4.32-18.7-13.91-18.7-11.83,0-19.1,10.71-20.06,31.09Z"/>
      </g>
      <g>
        <g>
          <path d="M393.4,718.69l6.5-16.92h2.41l6.92,16.92h-2.55l-1.97-5.12h-7.07l-1.86,5.12h-2.38ZM398.28,711.75h5.74l-1.77-4.69c-.54-1.42-.94-2.59-1.2-3.51-.22,1.08-.52,2.16-.91,3.23l-1.86,4.96Z"/>
          <path d="M412.93,718.69v-14.92h-5.57v-2h13.41v2h-5.6v14.92h-2.24Z"/>
          <path d="M422.34,718.69v-16.92h2.24v14.92h8.33v2h-10.57Z"/>
        </g>
        <g>
          <path d="M571.51,712.06v-1.98h7.17s0,6.27,0,6.27c-1.1.88-2.24,1.54-3.41,1.98s-2.37.66-3.6.66c-1.66,0-3.17-.36-4.53-1.07-1.36-.71-2.38-1.74-3.08-3.09-.69-1.35-1.04-2.85-1.04-4.51s.34-3.18,1.03-4.61c.69-1.43,1.68-2.49,2.97-3.18,1.29-.69,2.78-1.04,4.47-1.04,1.22,0,2.33.2,3.32.59.99.4,1.76.95,2.33,1.66.56.71.99,1.63,1.28,2.77l-2.02.55c-.25-.86-.57-1.54-.95-2.03s-.92-.89-1.62-1.18c-.7-.3-1.48-.45-2.33-.45-1.02,0-1.91.16-2.65.47-.75.31-1.35.72-1.81,1.23s-.81,1.07-1.07,1.67c-.43,1.05-.65,2.18-.65,3.41,0,1.51.26,2.77.78,3.79.52,1.02,1.28,1.77,2.27,2.26s2.05.74,3.16.74c.97,0,1.92-.19,2.84-.56.92-.37,1.62-.77,2.1-1.19v-3.15h-4.97Z"/>
          <path d="M579.49,718.69l6.5-16.92h2.41l6.92,16.92h-2.55l-1.97-5.12h-7.07l-1.86,5.12h-2.38ZM584.37,711.75h5.74l-1.77-4.69c-.54-1.42-.94-2.59-1.2-3.51-.22,1.08-.52,2.16-.91,3.23l-1.86,4.96Z"/>
        </g>
      </g>
      <g>
        <g>
          <path d="M258.51,618.19l2.91-.25c.14,1.17.46,2.12.96,2.87.5.75,1.29,1.35,2.35,1.81,1.06.46,2.25.69,3.58.69,1.18,0,2.22-.17,3.12-.52.9-.35,1.57-.83,2.01-1.44.44-.61.66-1.28.66-2s-.21-1.37-.64-1.92c-.42-.55-1.12-1-2.1-1.38-.63-.24-2.01-.62-4.15-1.14s-3.64-1-4.5-1.46c-1.11-.58-1.94-1.31-2.49-2.17s-.82-1.83-.82-2.9c0-1.18.33-2.28,1-3.3s1.64-1.8,2.93-2.33c1.28-.53,2.71-.8,4.28-.8,1.73,0,3.25.28,4.57.84,1.32.56,2.34,1.38,3.05,2.46.71,1.08,1.09,2.31,1.15,3.67l-2.96.22c-.16-1.47-.7-2.59-1.61-3.34-.92-.75-2.27-1.13-4.06-1.13s-3.23.34-4.08,1.03c-.85.68-1.28,1.51-1.28,2.47,0,.84.3,1.53.91,2.07.59.54,2.15,1.1,4.65,1.66,2.51.57,4.23,1.06,5.16,1.49,1.36.63,2.36,1.42,3.01,2.38.65.96.97,2.06.97,3.32s-.36,2.41-1.07,3.51c-.71,1.1-1.73,1.95-3.06,2.56-1.33.61-2.83.92-4.49.92-2.11,0-3.88-.31-5.31-.92-1.43-.61-2.54-1.54-3.36-2.78-.81-1.24-1.24-2.63-1.28-4.19Z"/>
          <path d="M279.47,614.32c0-3.87,1.04-6.9,3.12-9.09,2.08-2.19,4.76-3.29,8.05-3.29,2.15,0,4.09.51,5.82,1.54,1.73,1.03,3.05,2.46,3.95,4.3.91,1.84,1.36,3.93,1.36,6.26s-.48,4.48-1.43,6.35c-.95,1.87-2.31,3.28-4.06,4.24-1.75.96-3.64,1.44-5.66,1.44-2.2,0-4.16-.53-5.89-1.59-1.73-1.06-3.04-2.51-3.93-4.34-.89-1.83-1.34-3.78-1.34-5.82ZM282.66,614.37c0,2.81.76,5.02,2.27,6.64,1.51,1.62,3.41,2.43,5.69,2.43s4.23-.82,5.73-2.45,2.25-3.95,2.25-6.95c0-1.9-.32-3.56-.96-4.97-.64-1.42-1.58-2.51-2.82-3.29-1.24-.78-2.62-1.17-4.16-1.17-2.19,0-4.06.75-5.64,2.25-1.58,1.5-2.36,4.01-2.36,7.52Z"/>
          <path d="M321.52,617.51l3.09.78c-.65,2.54-1.81,4.47-3.49,5.8-1.68,1.33-3.74,2-6.16,2s-4.56-.51-6.13-1.54c-1.57-1.02-2.77-2.51-3.6-4.45-.82-1.94-1.23-4.02-1.23-6.25,0-2.43.46-4.55,1.39-6.36s2.25-3.18,3.96-4.12c1.71-.94,3.6-1.41,5.66-1.41,2.33,0,4.3.59,5.89,1.78,1.59,1.19,2.7,2.86,3.32,5.01l-3.04.72c-.54-1.7-1.33-2.93-2.35-3.71-1.03-.77-2.32-1.16-3.88-1.16-1.79,0-3.29.43-4.49,1.29-1.2.86-2.05,2.01-2.54,3.46-.49,1.45-.73,2.94-.73,4.48,0,1.98.29,3.71.87,5.19.58,1.48,1.48,2.58,2.7,3.32,1.22.73,2.54,1.1,3.96,1.1,1.73,0,3.19-.5,4.39-1.5s2.01-2.48,2.43-4.44Z"/>
          <path d="M328.05,625.68v-23.32h3.09v23.32h-3.09Z"/>
          <path d="M333.14,625.68l8.96-23.32h3.32l9.55,23.32h-3.52l-2.72-7.06h-9.75l-2.56,7.06h-3.28ZM339.86,616.11h7.91l-2.43-6.46c-.74-1.96-1.29-3.58-1.65-4.84-.3,1.5-.72,2.98-1.26,4.45l-2.56,6.84Z"/>
          <path d="M356.42,625.68v-23.32h3.09v20.57h11.49v2.75h-14.57Z"/>
          <path d="M397.39,617.51l3.09.78c-.65,2.54-1.81,4.47-3.49,5.8-1.68,1.33-3.74,2-6.16,2s-4.56-.51-6.13-1.54c-1.57-1.02-2.77-2.51-3.6-4.45-.82-1.94-1.23-4.02-1.23-6.25,0-2.43.46-4.55,1.39-6.36s2.25-3.18,3.96-4.12c1.71-.94,3.6-1.41,5.66-1.41,2.33,0,4.3.59,5.89,1.78,1.59,1.19,2.7,2.86,3.32,5.01l-3.04.72c-.54-1.7-1.33-2.93-2.35-3.71-1.03-.77-2.32-1.16-3.88-1.16-1.79,0-3.29.43-4.49,1.29-1.2.86-2.05,2.01-2.54,3.46-.49,1.45-.73,2.94-.73,4.48,0,1.98.29,3.71.87,5.19.58,1.48,1.48,2.58,2.7,3.32,1.22.73,2.54,1.1,3.96,1.1,1.73,0,3.19-.5,4.39-1.5s2.01-2.48,2.43-4.44Z"/>
          <path d="M402.46,614.32c0-3.87,1.04-6.9,3.12-9.09,2.08-2.19,4.76-3.29,8.05-3.29,2.15,0,4.09.51,5.82,1.54,1.73,1.03,3.05,2.46,3.95,4.3.91,1.84,1.36,3.93,1.36,6.26s-.48,4.48-1.43,6.35c-.95,1.87-2.31,3.28-4.06,4.24-1.75.96-3.64,1.44-5.66,1.44-2.2,0-4.16-.53-5.89-1.59-1.73-1.06-3.04-2.51-3.93-4.34-.89-1.83-1.34-3.78-1.34-5.82ZM405.64,614.37c0,2.81.76,5.02,2.27,6.64,1.51,1.62,3.41,2.43,5.69,2.43s4.23-.82,5.73-2.45c1.5-1.63,2.25-3.95,2.25-6.95,0-1.9-.32-3.56-.96-4.97-.64-1.42-1.58-2.51-2.82-3.29-1.24-.78-2.62-1.17-4.16-1.17-2.19,0-4.06.75-5.64,2.25-1.58,1.5-2.36,4.01-2.36,7.52Z"/>
          <path d="M427.83,625.68v-23.32h3.17l12.25,18.31v-18.31h2.96v23.32h-3.17l-12.25-18.33v18.33h-2.96Z"/>
          <path d="M456.44,625.68v-20.57h-7.68v-2.75h18.49v2.75h-7.72v20.57h-3.09Z"/>
          <path d="M469.59,625.68v-23.32h16.86v2.75h-13.78v7.14h12.9v2.74h-12.9v7.94h14.32v2.75h-17.4Z"/>
          <path d="M490.35,625.68v-23.32h3.17l12.25,18.31v-18.31h2.96v23.32h-3.17l-12.25-18.33v18.33h-2.96Z"/>
          <path d="M518.96,625.68v-20.57h-7.68v-2.75h18.49v2.75h-7.72v20.57h-3.09Z"/>
          <path d="M545.28,621.91v-6.4h-6.35v-2.67h6.35v-6.35h2.7v6.35h6.35v2.67h-6.35v6.4h-2.7Z"/>
          <path d="M564.9,618.19l2.91-.25c.14,1.17.46,2.12.96,2.87.5.75,1.29,1.35,2.35,1.81,1.06.46,2.25.69,3.58.69,1.18,0,2.22-.17,3.12-.52.9-.35,1.57-.83,2.01-1.44.44-.61.66-1.28.66-2s-.21-1.37-.64-1.92c-.42-.55-1.12-1-2.1-1.38-.63-.24-2.01-.62-4.15-1.14s-3.64-1-4.5-1.46c-1.11-.58-1.94-1.31-2.49-2.17s-.82-1.83-.82-2.9c0-1.18.33-2.28,1-3.3.67-1.02,1.64-1.8,2.93-2.33,1.28-.53,2.71-.8,4.28-.8,1.73,0,3.25.28,4.57.84,1.32.56,2.34,1.38,3.05,2.46.71,1.08,1.09,2.31,1.15,3.67l-2.96.22c-.16-1.47-.7-2.59-1.61-3.34-.92-.75-2.27-1.13-4.06-1.13s-3.23.34-4.08,1.03c-.85.68-1.28,1.51-1.28,2.47,0,.84.3,1.53.91,2.07.59.54,2.15,1.1,4.65,1.66,2.51.57,4.23,1.06,5.16,1.49,1.36.63,2.36,1.42,3.01,2.38.65.96.97,2.06.97,3.32s-.36,2.41-1.07,3.51c-.71,1.1-1.73,1.95-3.06,2.56-1.33.61-2.83.92-4.49.92-2.11,0-3.88-.31-5.31-.92-1.43-.61-2.54-1.54-3.36-2.78-.81-1.24-1.24-2.63-1.28-4.19Z"/>
          <path d="M592.74,625.68v-20.57h-7.68v-2.75h18.49v2.75h-7.72v20.57h-3.09Z"/>
          <path d="M605.87,625.68v-23.32h10.34c2.08,0,3.66.21,4.74.63,1.08.42,1.95,1.16,2.59,2.22.65,1.06.97,2.23.97,3.52,0,1.66-.54,3.05-1.61,4.19-1.07,1.13-2.73,1.86-4.96,2.16.82.39,1.44.78,1.86,1.16.9.83,1.76,1.86,2.56,3.1l4.06,6.35h-3.88l-3.09-4.85c-.9-1.4-1.64-2.47-2.23-3.21-.58-.74-1.11-1.26-1.57-1.56s-.93-.5-1.41-.62c-.35-.07-.92-.11-1.72-.11h-3.58v10.36h-3.09ZM608.96,612.65h6.63c1.41,0,2.51-.15,3.31-.44.8-.29,1.4-.76,1.81-1.4s.62-1.34.62-2.09c0-1.1-.4-2.01-1.2-2.72-.8-.71-2.07-1.07-3.79-1.07h-7.38v7.72Z"/>
          <path d="M625.91,625.68l8.96-23.32h3.32l9.55,23.32h-3.52l-2.72-7.06h-9.75l-2.56,7.06h-3.28ZM632.64,616.11h7.91l-2.43-6.46c-.74-1.96-1.29-3.58-1.65-4.84-.3,1.5-.72,2.98-1.26,4.45l-2.56,6.84Z"/>
          <path d="M652.84,625.68v-20.57h-7.68v-2.75h18.49v2.75h-7.72v20.57h-3.09Z"/>
          <path d="M665.99,625.68v-23.32h16.86v2.75h-13.78v7.14h12.9v2.74h-12.9v7.94h14.32v2.75h-17.4Z"/>
          <path d="M697.69,616.54v-2.74l9.88-.02v8.66c-1.52,1.21-3.08,2.12-4.69,2.73-1.61.61-3.27.92-4.96.92-2.29,0-4.37-.49-6.24-1.47-1.87-.98-3.29-2.4-4.24-4.26s-1.43-3.93-1.43-6.22.47-4.39,1.42-6.36c.95-1.97,2.32-3.43,4.1-4.38,1.78-.95,3.83-1.43,6.16-1.43,1.69,0,3.21.27,4.57.82,1.36.55,2.43,1.31,3.2,2.28.77.98,1.36,2.25,1.77,3.82l-2.78.76c-.35-1.19-.78-2.12-1.3-2.8s-1.26-1.22-2.23-1.63c-.97-.41-2.04-.61-3.21-.61-1.41,0-2.63.22-3.66.64-1.03.43-1.86.99-2.49,1.69-.63.7-1.12,1.47-1.47,2.31-.59,1.44-.89,3.01-.89,4.69,0,2.08.36,3.82,1.07,5.22.72,1.4,1.76,2.44,3.13,3.12,1.37.68,2.82,1.02,4.36,1.02,1.34,0,2.64-.26,3.91-.77,1.27-.51,2.24-1.06,2.9-1.65v-4.34h-6.86Z"/>
          <path d="M717.81,625.68v-9.88l-8.99-13.44h3.75l4.6,7.03c.85,1.31,1.64,2.63,2.37,3.94.7-1.22,1.55-2.59,2.54-4.12l4.52-6.86h3.6l-9.31,13.44v9.88h-3.09Z"/>
        </g>
        <path d="M747.12,639.99H241.6v-51.95h505.52v51.95ZM244.43,637.16h499.86v-46.28H244.43v46.28Z"/>
      </g>
      <g>
        <g>
          <path d="M466.73,40.08l-4.11,1.28v6.54c0,3.16.18,6.39.76,9.8-5.41,3.1-12.96,4.44-19.38,4.44-17.22,0-26.31-9.7-26.31-26.8,0-14.18,7.61-24.95,26.71-24.95,6.75,0,11.71.73,16.58,2.43.18,4.47.55,9,1.1,13.48l-1.13.27c-4.32-10.07-10.07-14.48-17.04-14.48-9.31,0-14.54,7.15-14.54,23.15,0,17.74,7.27,25.19,16.12,25.19,2.65,0,4.93-.49,7.15-1.76v-17.31l-6.14-1.28v-.85h20.23v.85Z"/>
          <path d="M478.34,13.05v45.84l6.02,1.22v.76h-22.18v-.76l5.84-1.22V13.05l-5.84-1.22v-.76h22.18v.76l-6.02,1.22ZM509.18,60.27v.61c-7.09,1.49-13.75.21-18.62-5.87-4.41-5.72-7.91-12.14-11.04-19.96l17.46-21.48-6.72-1.73v-.76h17.4v.76l-5.48,1.73c-5.02,4.93-10.01,10.04-15.03,15.36,3.8,8.46,9.61,17.77,15.24,24.79,2.68,3.13,4.53,4.87,6.78,6.54Z"/>
          <path d="M564.88,59.3l6.15,1.1v.76h-23.97v-.76l7.09-1.1-1.76-43.44-16.09,41.86c-1.37.4-3.92.4-5.41.03l-16.15-41.4-.85,24.22c-.24,6.36-.4,12.47-.4,18.28l6.97,1.55v.76h-15.73v-.76l5.75-1.55c.46-5.78.88-11.89,1.22-18.22l1.4-27.04-6.45-1.46v-.76h17.13l14.24,35.87,14.15-35.87h17.01v.76l-6.15,1.25,1.89,45.94Z"/>
        </g>
        <path d="M581.13,72.52h-173.55V0h173.55v72.52ZM410.42,69.69h167.89V2.83h-167.89v66.85Z"/>
      </g>
      <g>
        <path d="M438.58,465.78c0,8.45,4.95,13.2,10.31,13.2,15.05,0,40.01-35.26,40.21-54.24,0-5.36-3.92-8.04-7.63-8.04-10.52,0-18.35,19.18-21.86,27.22-.62,1.65-1.44,1.03-1.24-.41,2.27-7.22,12.37-29.28,23.1-29.28,5.36,0,9.9,5.36,9.9,14.44,0,24.95-21.03,53-39.8,53-13.2,0-19.18-10.52-19.18-28.05,0-39.8,56.92-109.92,56.92-114.87,0-.62-.62-.82-.82-.82-8.46,0-31.35,27.43-48.46,58.98-21.24,39.59-44.75,85.58-54.65,85.79-4.54,0-7.63-8.25-7.63-15.26,0-28.66,63.1-121.88,63.1-127.86,0-.83-.21-.83-1.03-.83-4.74,0-25.78,27.02-47.02,61.25-23.1,37.33-45.58,82.08-67.64,82.28-9.69,0-18.35-8.25-18.35-21.45,0-6.6,3.09-12.79,7.63-12.79,3.92,0,7.01,5.16,7.01,11.34,0,6.81-4.12,11.34-8.25,10.93,1.24,7.01,6.39,9.9,11.96,9.9,20,0,42.48-43.51,66.2-82.08,20.83-33.61,42.89-62.07,50.11-62.07,2.89,0,3.92,2.89,3.92,7.63,0,33.41-60.22,112.6-60.22,132.4,0,1.65,1.24,2.89,2.06,2.89,7.01,0,29.9-43.93,51.76-82.9,17.53-31.76,38.98-60.42,51.14-60.42,2.27,0,3.92,2.89,3.92,6.19,0,22.27-55.47,97.34-55.47,123.94Z"/>
        <path d="M499,482.28c-6.19,0-10.72-4.33-10.72-18.15,0-23.1,23.3-48.26,35.88-48.26,4.54,0,8.87,4.54,8.87,11.96,0,16.29-15.05,24.75-24.95,24.75-.82,0-2.47-.21-2.47-.21l-10.52,18.35c-.82,1.24-1.24,2.89-1.24,4.95,0,3.92,3.3,4.54,5.77,4.54,8.04,0,20.62-9.49,36.5-34.65l1.24,1.24c-15.88,26.19-28.46,35.47-38.36,35.47ZM527.25,419.17c-1.03,0-2.06.41-3.09,1.86-5.36,7.63-11.55,18.15-17.12,28.87,8.66,0,22.48-12.17,22.48-26.4,0-2.47-1.03-4.33-2.27-4.33Z"/>
        <path d="M562.93,472.59c-.62.83-1.65,3.09-1.65,4.74,0,1.44.83,1.86,1.65,1.86,8.46,0,21.04-16.09,31.97-33.61l1.24,1.24c-10.31,15.88-22.27,34.85-33.82,34.85-4.74,0-7.42-6.39-7.42-14.64,0-1.24,0-2.47.21-3.71-5.98,9.07-11.34,18.97-17.94,18.97-5.78,0-8.46-10.31-8.46-18.97,0-26.4,24.95-46.19,36.71-46.19,3.51,0,8.25,2.89,8.25,8.45l39.39-68.26h14.64l-64.76,115.28ZM567.88,419.59c-1.65,0-4.33,1.86-6.39,4.95-9.07,14.64-20,34.65-25.36,45.37-1.03,2.06-1.86,4.74-1.86,5.57,0,2.47,1.44,4.33,2.89,4.33,6.8,0,14.85-16.5,15.88-18.15l17.12-29.7c.82-1.44,1.44-4.33,1.44-6.81,0-2.27-1.24-5.36-3.71-5.57Z"/>
        <path d="M591.18,481.66c-4.74,0-7.63-6.6-7.63-14.85,0-4.74,1.65-10.52,3.51-13.82l20.21-35.88h14.64l-30.31,55.27c-.62.83-1.44,3.09-1.44,4.74,0,1.44.83,2.06,1.86,2.06,7.01,0,18.77-16.09,29.9-33.61l1.24,1.24c-9.28,15.88-21.45,34.85-31.96,34.85ZM630.98,398.76c-3.09,0-5.36-3.09-5.36-7.63.21-6.39,4.74-12.37,8.04-12.37,2.68,0,5.15,3.09,5.15,8.04,0,5.77-4.74,11.96-7.84,11.96Z"/>
        <path d="M648.09,481.66c-3.71,0-7.42-4.95-7.42-13.82,0-1.44,0-2.89.21-4.33-5.98,8.87-11.34,18.56-17.94,18.77-5.78,0-8.46-10.31-8.46-18.97,0-26.4,24.95-46.19,36.71-46.19,3.5,0,8.25,2.89,8.25,8.45l4.74-8.25h14.64l-30.11,55.27c-.62.83-1.65,3.09-1.65,4.74,0,1.44.83,1.86,1.65,1.86,8.46,0,20.62-16.09,31.96-33.61l1.24,1.24c-9.69,15.88-23.51,34.85-33.82,34.85ZM653.66,419.59c-1.65,0-4.33,1.86-6.39,4.95-9.07,14.64-20,34.65-25.36,45.37-1.03,2.06-1.86,4.74-1.86,5.57,0,2.47,1.44,4.33,2.89,4.33,6.8,0,13.2-12.99,19.8-24.33l12.58-22.07c2.06-3.5,2.06-5.57,2.06-8.25,0-2.27-1.24-5.36-3.71-5.57Z"/>
      </g>
    </g>
  </g>
</svg>