<?xml version="1.0" encoding="UTF-8"?>
<svg fill="#342609" id="Layer_2" data-name="Layer 2" xmlns="http://www.w3.org/2000/svg" viewBox="0 0 757.38 379.43">
  <g id="Layer_1-2" data-name="Layer 1">
    <g>
      <path d="M679.18,184.77c2.41,0,4.82-.13,7.09-.27-.13.54-.27,1.2-.54,1.87-2.01,5.89-6.83,9.64-12.31,9.64-2.94,0-6.16-.54-9.1-3.61l-4.82,5.22c4.55,5.62,10.98,8.03,17.67,8.03,12.72,0,25.57-6.16,33.33-21.02,1.61-3.08,2.68-6.16,3.21-9.24,9.24-5.89,15.79-14.19,20.21-23.29,7.63-15.8,3.21-30.92-10.71-31.19-7.09-.13-12.18,4.69-13.52,9.1-1.61,5.09-.54,10.44,3.48,14.19.8-3.48,4.28-4.95,6.69-4.95,5.89,0,7.09,4.69,4.02,12.18-2.41,5.89-6.16,9.77-10.31,12.18-2.54-14.05-12.45-26.9-15.39-39.22,6.02-1.74,12.45-4.28,18.2-9.64,8.17-7.5,6.83-21.95-5.09-21.95-7.63,0-16.87,5.49-23.83,18.2-1.87,3.48-3.21,6.96-4.02,10.44-12.31,4.15-25.57,9.64-32.26,22.09-13.39,24.76,7.36,41.23,27.98,41.23ZM699.79,107.67c2.81-5.09,6.69-6.83,8.7-6.83,3.75,0,4.55,4.02,1.74,7.9-2.54,3.61-7.23,6.02-12.98,8.17.13-3.08.8-6.16,2.54-9.24ZM674.23,136.32c2.01-3.35,4.82-5.49,8.17-6.96-.67,12.72,3.48,25.3,4.82,37.35-14.72-3.75-20.75-17.4-12.98-30.38Z"/>
      <path d="M115.58,261.25c.91,4.55.68,11.82-.23,15-2.73,10.45-11.82,17.5-25.91,17.5-35,0-48.41-46.36-25.45-92.05,17.5-34.09,52.05-55,80.91-55,16.82,0,22.27,14.32,15.68,26.36-4.77,8.86-16.14,16.36-25.68,16.36s-15.68-8.86-13.41-19.55c-11.82,1.36-24.09,12.73-27.5,20.68-7.05,16.36,1.14,35.68,23.64,35.68,20.23,0,45.68-16.82,56.36-35.23,17.73-30.45,7.05-60-29.55-60-54.09,0-111.59,53.18-131.36,92.05-33.86,65.91,3.64,112.05,48.64,112.05,35.91,0,55-22.73,63.41-40.68,5-10.45,6.36-24.09,4.55-34.32l-14.09,1.14Z"/>
      <path d="M251.94,260.57c-5.91,7.05-14.77,11.14-20.68,11.36,6.38-14.96,7.66-30.09,3.47-41.33-2.05-.62-4.04-1.32-5.95-2.1-6.83-2.77-12.8-6.49-17.76-11.08-1.64-1.51-3.16-3.12-4.56-4.8-23.6.35-45.77,18.16-57.25,40.67-16.14,31.36-8.18,64.09,24.09,64.09,20.45,0,39.09-14.09,50.68-32.05,1.36.23,2.95.23,4.32.23,3.93,0,8.33-.97,12.86-2.96l11.76-23.22-.99,1.18ZM209.22,239.88c-5.91,11.36-5.91,25-.68,34.55-5.68,5.91-12.95,9.77-20,9.77-14.55,0-17.5-18.86-9.32-34.77,6.36-12.5,18.64-22.05,28.64-22.05,3.64,0,6.36,1.14,8.64,3.18-2.73,2.27-5.23,5.45-7.27,9.32Z"/>
      <path d="M364.21,260.57c-22.73,27.27-29.32,32.05-34.32,32.05-3.18,0-4.09-2.95,0-10.91l33.41-65.68h-34.09l-22.05,43.41c-11.59,22.95-23.41,33.18-30.91,33.18-1.59,0-3.18-.91-3.18-2.95,0-2.27,1.36-6.36,5.45-14.32l24.74-48.18c-10.77,4.13-22.36,6.51-34.54,7.1-1.05.05-2.1.09-3.13.11l-12.67,25.01-11.76,23.22-1.27,2.51c-3.64,7.27-5,13.41-5,17.05,0,8.18,5.91,15,15.45,15,16.59,0,30.45-9.77,41.14-20.45-.23,1.82-.45,3.41-.45,5,0,11.36,9.77,15.45,17.95,15.45,11.74,0,23.12-6.68,36.76-19.8l19.15-37.6-.68.81Z"/>
      <path d="M474.8,260.13l-.36.44c-22.73,27.27-29.32,32.05-34.32,32.05-3.18,0-3.86-2.95.23-10.91,4.32-8.64,12.5-20.91,18.41-32.73,4.09-7.95,7.05-15.68,7.05-21.36,0-8.41-5.91-15-16.59-15-12.27,0-25.23,5.45-36.82,16.59l6.14-13.18h-31.36l-22.27,43.73-19.15,37.6-8.35,16.39h34.09l22.5-44.09c13.86-27.05,22.73-33.18,30-33.18,5.23,0,5,4.55,1.59,11.36-4.77,9.09-14.77,23.41-21.14,35.91-3.41,6.59-5.68,12.5-5.68,17.27,0,10.23,6.59,16.14,17.27,16.14,14.81,0,27.73-7.76,43.04-22.97.7-3.19,1.85-6.6,3.32-9.53l12.41-24.53Z"/>
      <path d="M548.98,267.61l-8.41-7.04c-21.59,25.91-34.32,32.04-40.45,32.04-4.09,0-5.91-3.41-1.59-12.05l26.59-52.05h20l6.36-12.5h-20l13.41-26.36h-4.62c-6.65,3.56-13.5,5.43-20.16,5.43-4.49,0-8.25-.69-11.4-1.76l-11.54,22.7h-12.5l-6.36,12.5h12.5l-16,31.61-12.41,24.53c-1.47,2.94-2.62,6.35-3.32,9.53-.49,2.24-.77,4.37-.77,6.15,0,9.09,6.36,16.82,18.64,16.82,22.5,0,44.77-16.82,72.05-49.55l1.14-1.36h0s0,0,0,0l-1.14,1.36Z"/>
      <path d="M636.78,259.38l-.98,1.18c-14.77,17.73-24.77,26.82-34.55,26.82-5.91,0-11.59-7.5-3.41-23.86,6.82-13.18,20.91-26.59,31.82-35.45-3.64-3.64-8.64-11.59-10.91-17.27-6.36,5-22.05,11.36-33.64,11.36-1.82,0-3.64-.23-5.23-.45,6.32-14.59,5.36-23.7.9-28.2-3.58,1.05-7.12,1.58-10.68,1.58-2.62,0-5.18-.34-7.57-.97-1.97,1.78-3.76,4.11-5.15,6.91-4.32,8.64-5,23.64,3.41,32.05-4.32,7.73-10.23,15.45-19.09,26.14l-1.14,1.36h0s8.41,7.05,8.41,7.05l1.14-1.36s0,0,0,0c5-5.91,13.41-16.36,20.68-27.73,2.05.45,4.09.68,6.59.68,5.45,0,11.59-2.05,16.59-4.55l.45.91c-16.82,14.32-27.05,26.82-32.73,37.95-11.82,22.73-5.23,43.64,17.27,43.64,13.72,0,25.41-6.63,40.93-22.24.8-2.88,2.04-6.2,3.84-9.81l13.03-25.73Z"/>
      <path d="M748.97,259.2l-1.14,1.36c-10.45,12.5-24.55,23.41-39.77,32.5l39.09-77.05h-34.09l-22.05,43.41c-14.32,28.41-27.05,33.18-31.36,33.18-1.59,0-2.95-.91-2.95-2.95,0-2.5,1.59-6.36,5.68-14.32l30.45-59.32h-34.09l-21.97,43.36-13.03,25.73c-1.8,3.6-3.04,6.93-3.84,9.81-.81,2.93-1.16,5.4-1.16,7.24,0,8.18,5.91,15,15.45,15,15,0,25.45-6.59,34.77-15.45l-7.27,13.41c-21.82,8.41-44.09,16.14-55.68,27.73-14.09,14.09-11.59,36.59,18.86,36.59,40.45,0,54.09-28.86,74.55-69.32l.23-.45c22.05-11.14,42.73-25.23,56.59-42.05l1.14-1.36-8.41-7.05ZM645.57,344.66c-5.68,10.45-11.14,16.36-15.68,16.36-7.5,0-8.18-9.55-1.14-16.59,5.45-5.45,14.55-10.23,25-15l-8.18,15.23Z"/>
      <path d="M214.78,213.36c4.3,3.97,9.62,7.4,16.08,10.01,8.53,3.46,19.04,5.5,31.75,5.5,1.98,0,3.93-.05,5.85-.14,14.45-.69,27.3-3.95,38.74-9.22,29.48-13.57,49.61-40.47,63.82-71.09,11.36-24.32,34.09-67.73,57.05-88.64-3.64-1.82-9.77-5.68-12.73-8.41-23.64,30-49.32,50.45-75.68,50.45s-32.27-23.41-21.82-46.59c9.09-19.77,31.59-39.77,52.73-39.77,12.05,0,16.59,7.73,11.59,19.09-3.92,8.84-14.12,14.36-22.77,14.36-4.91,0-9.31-1.77-11.78-5.72-15.68,23.18-3.64,38.18,10.68,38.18s30.68-8.41,42.27-34.55c9.55-21.82,2.27-46.82-26.82-46.82s-73.64,26.36-90,61.36c-13.41,28.41-7.5,70.45,36.36,70.45,18.86,0,36.14-8.41,49.32-20-22.73,40.68-42.5,65.45-81.14,65.45-27.05,0-38.18-16.82-29.09-34.32,2.95-5.68,7.73-10.23,13.64-11.82-3.41-1.82-9.09-4.09-18.18-4.09-20,0-40.23,13.18-49.32,31.14-8.36,16.44-7.09,39.87,9.45,55.17Z"/>
      <path d="M402.15,125.68c-16.14,31.36-8.18,64.09,24.09,64.09,20.45,0,39.09-14.09,50.68-32.05,1.36.23,2.95.23,4.32.23,4.59,0,9.8-1.32,15.12-4.04-2.94,18.81,2.66,35.63,23.75,35.63,11.59,0,22.95-6.59,32.05-15.91v.45c0,11.36,9.77,15.45,17.95,15.45,18.64,0,36.36-16.82,63.64-49.55l1.14-1.36-8.41-7.05-1.14,1.36c-22.73,27.27-29.32,32.05-34.32,32.05-3.18,0-4.09-2.95,0-10.91l64.77-127.05h-34.09l-37.27,73.64c-1.59-11.14-10.68-15.68-20.45-15.68-24.32,0-47.27,20.68-59.55,44.55-1.18,2.31-2.26,4.7-3.23,7.13-5.52,4.75-12.22,7.46-16.99,7.64,12.5-29.32,5.45-59.32-24.09-59.32-23.86,0-46.36,17.95-57.95,40.68ZM540.11,131.59c7.27-14.55,18.86-27.95,27.73-27.95,11.82,0,3.64,24.32-1.82,35-6.82,13.64-17.27,26.14-25.45,26.14-12.73,0-6.59-21.59-.45-33.18ZM432.15,121.82c6.36-12.5,18.64-22.05,28.64-22.05,3.64,0,6.36,1.14,8.64,3.18-2.73,2.27-5.23,5.45-7.27,9.32-5.91,11.36-5.91,25-.68,34.55-5.68,5.91-12.95,9.77-20,9.77-14.55,0-17.5-18.86-9.32-34.77Z"/>
    </g>
  </g>
</svg>