<?xml version="1.0" encoding="UTF-8"?>
<svg fill="#342609" id="Layer_2" data-name="Layer 2" xmlns="http://www.w3.org/2000/svg" viewBox="0 0 748.25 554">
  <g id="Layer_1-2" data-name="Layer 1">
    <g>
      <g>
        <path d="M127.6,280.21c4.91-1.71,12.27-3.42,18.58-3.85,22.08-1.71,44.51,5.99,40.65,32.08-3.85,26.52-40.65,39.35-67.29,39.35-19.63,0-40.3-5.56-52.92-17.11-26.64,29.09-45.56,68.02-45.56,95.82,0,24.81,12.62,34.65,30.14,34.65,20.68,0,37.15-11.12,50.82-22.24,9.11-7.7,17.52-16.68,21.73-21.39,4.91-5.56,6.66-7.27,7.71-5.99.7.86-1.05,3.42-2.81,5.56-8.06,9.41-17.52,19.25-25.23,25.67-14.37,12.41-32.25,23.1-52.92,24.38-29.09,1.28-49.42-11.55-50.47-43.2-1.05-37.64,28.39-78.28,57.48-103.95-4.91-7.7-8.76-17.11-8.76-26.95,0-23.96,16.82-39.78,35.75-39.78,16.82,0,33.64,10.27,43.11,26.95ZM53.3,293.47c0,8.13,2.45,16.68,7.01,23.95,18.93-15.4,42.06-28.66,61.68-35.51-10.86-14.54-25.58-23.1-40.3-23.1s-28.39,13.26-28.39,34.65ZM173.86,307.59c3.5-19.68-7.71-28.66-26.29-28.23-5.26,0-14.37,2.14-18.58,4.28,2.81,5.99,5.26,15.83,5.96,23.53.7,6.84,0,11.12-1.05,10.69-.7-.43-.35-2.57-1.4-8.56-1.4-8.56-5.26-18.39-8.41-23.53-18.57,8.56-39.6,25.24-54.67,41.92,12.27,11.12,31.89,15.83,50.82,15.83,25.59,0,49.77-14.97,53.62-35.93Z"/>
        <path d="M129,416.67c-2.45,2.57-3.86,3.42-4.56,2.57-.7-1.28,1.05-3.42,2.45-5.13,2.45-2.99,7.36-7.7,10.86-10.69,4.56-3.85,9.46-7.7,16.82-12.41,10.16-6.42,21.03-11.12,29.09-11.55,2.45,0,5.26,0,5.26,1.71,0,.86-1.05.86-3.85,2.57-8.41,4.71-15.42,11.98-25.23,23.53-10.16,12.41-19.63,29.09-20.33,37.64-.35,4.28,1.05,7.27,4.91,7.27,7.71,0,21.73-11.55,32.59-26.09.35-4.28,1.75-10.69,6.31-17.97,3.85-6.42,8.76-9.84,11.21-11.12,1.05-2.99,1.05-7.7,1.05-9.84,0-4.71-1.4-5.99-.35-6.84,1.4-.86,3.5.86,4.91,2.57,2.8,3.42,4.91,8.56,4.2,14.97-1.05,10.27-9.11,22.67-19.98,34.65,1.4.86,5.26.43,6.66,0,3.16-.86,7.01-2.99,11.92-7.27,4.56-3.85,7.36-6.84,11.22-11.12,3.15-3.42,4.91-5.56,5.96-4.28,1.05,1.28-1.05,3.85-4.56,7.7-3.16,3.42-6.66,7.27-11.22,11.12-5.61,4.71-9.81,6.84-13.32,7.7-3.15.86-7.36.86-9.46-.86-9.11,8.56-25.58,20.96-39.95,20.96-10.86,0-17.52-6.42-17.17-18.82.35-8.56,4.56-18.82,11.21-27.38l-.35-.43-6.31,6.84Z"/>
        <path d="M344.89,429.51c4.91.43,10.86-1.71,16.82-6.84,4.2-3.85,7.36-7.27,8.76-8.98,1.75-2.14,4.21-4.71,5.26-3.42.7.86-1.4,3.85-3.5,6.42-2.1,2.57-4.21,4.71-8.41,8.56-5.96,5.13-11.92,8.13-18.58,8.13-5.61,0-10.16-3.42-11.22-8.13-3.85,2.99-8.06,6.42-14.02,10.69-10.87,7.27-19.98,13.26-32.25,17.97-3.5,1.28-7.71,2.57-10.16,2.57s-4.21-.86-5.26-5.13c-.7-2.99.35-5.13,1.75-7.7,3.85-7.7,10.86-17.11,15.42-24.81,8.76-14.97,10.16-20.11,9.11-20.96-1.4-1.28-3.5,0-6.66,3.85-7.71,9.84-21.73,24.81-30.49,32.08-9.81,8.13-19.63,15.83-29.44,20.11-3.16,1.28-8.06,2.57-10.86,2.57-2.1,0-4.56-.86-4.91-5.13-.35-2.99,1.4-5.13,3.15-7.7,5.26-7.7,11.57-16.26,17.17-24.81,4.91-7.7,10.16-16.68,12.97-23.53,1.05-2.57,1.05-5.13,0-5.99-1.4-1.28-3.85-.43-5.26.43-3.85,2.14-9.46,7.27-13.67,11.55-5.61,5.56-12.97,13.69-14.72,15.83-1.4,1.71-2.8,2.57-3.5,1.71-.7-.86,0-2.57,1.4-4.28,2.1-2.57,13.67-15.4,18.57-20.11,8.41-8.13,17.17-14.97,24.53-14.97,6.66,0,10.86,4.71,9.81,14.97-.7,7.27-5.61,16.68-11.56,26.09-7.71,11.98-16.82,23.1-20.68,27.38,6.66-3.42,16.82-10.69,25.59-18.39,8.06-6.84,21.73-22.24,29.09-30.8,7.36-8.56,12.97-14.54,18.93-14.54,3.5,0,8.41,1.28,8.41,10.27,0,6.42-4.21,16.26-9.46,26.09-5.61,10.69-12.62,21.39-17.17,27.38,9.11-2.99,17.52-8.13,29.09-16.26,4.91-3.42,11.21-8.56,14.72-11.98.35-8.13,4.56-18.39,8.06-24.38,6.31-11.12,12.27-17.11,16.82-15.83,4.21,1.28,3.85,9.84,1.05,15.4-2.45,5.13-8.06,16.26-22.43,27.81.7,4.28,3.85,6.42,7.71,6.84Z"/>
        <path d="M442.67,436.35c-14.37,13.26-28.74,17.97-40.3,18.39-7.71,0-14.02-1.28-14.02-8.56.35-8.13,9.46-11.98,22.78-16.26,9.81-2.99,20.68-6.42,26.99-9.84,3.5-4.71,9.46-15.4,11.22-21.39,1.4-4.71,2.45-12.83-3.5-12.83-6.31,0-17.87,7.27-30.49,19.25-15.42,14.54-25.59,26.95-38.9,43.21-2.8,3.42-6.31,5.56-10.16,5.99-7.01.43-6.66-2.14-4.91-6.84,3.16-8.56,8.41-17.97,14.37-28.66,3.15-5.56,6.31-11.12,10.16-16.68h-.35l-12.62,13.69c-2.1,2.14-3.15,2.57-3.85,1.71-.7-.86,0-2.14,1.75-4.28,5.61-5.99,14.37-15.83,22.43-23.95,12.62-19.68,26.64-41.49,42.76-64.17,19.98-29.09,62.74-82.56,81.31-98.82,9.46-8.56,19.63-17.11,29.79-17.11,9.11,0,11.92,7.7,10.86,15.4-2.8,20.53-36.45,54.76-71.85,90.69-21.38,21.39-50.82,47.06-71.5,69.73-5.96,8.98-23.48,39.36-23.48,39.36l.35.43c10.16-12.83,22.43-24.38,32.95-32.94,7.01-5.56,20.68-13.69,30.84-12.41,7.71,1.28,11.92,6.42,10.86,16.26-1.4,12.41-9.46,27.81-23.48,40.64ZM419.18,442.77c5.96-4.71,11.22-10.27,16.12-17.97-4.2,2.57-16.12,6.42-21.73,8.13-12.62,3.85-19.98,7.7-19.63,13.26.35,3.42,3.85,4.28,8.41,3.85,7.01-.86,12.27-3.85,16.82-7.27ZM482.97,310.59c33.65-36.79,64.84-69.73,66.24-88.55.35-5.56-2.1-8.13-5.96-8.13-5.96,0-15.42,8.56-22.78,17.11-11.92,14.12-28.39,34.65-46.61,61.17-25.59,37.22-34.7,50.91-53.62,81.7,33.3-35.51,46.96-45.77,62.74-63.31Z"/>
        <path d="M538.69,436.35c-3.16.86-7.36.86-9.46-.86-9.11,8.56-25.59,20.96-39.95,20.96-10.86,0-17.52-6.42-17.17-18.82.7-10.27,4.56-19.25,9.81-26.52,5.96-8.13,13.67-15.83,21.73-20.96,9.46-5.99,20.33-10.27,27.69-10.69,2.46,0,5.26,0,5.26,1.71,0,.86-1.05.86-3.85,2.57-8.41,4.71-15.42,11.98-25.24,23.53-10.51,12.41-19.63,29.09-20.33,37.64-.35,4.28,1.05,7.27,4.91,7.27,7.71,0,21.73-11.55,32.6-26.09.35-4.28,1.75-10.69,6.31-17.97,3.85-6.42,8.76-9.84,11.22-11.12,1.05-2.99,1.05-7.7,1.05-9.84,0-3.85-1.4-5.99-.35-6.84,1.05-.86,3.5.86,4.91,2.57,3.16,3.42,4.91,8.56,4.21,14.97-1.05,10.27-9.11,22.67-19.98,34.65,1.4.86,5.26.43,6.66,0,3.15-.86,6.66-2.57,11.92-7.27,4.56-3.85,7.36-6.84,11.21-11.12,3.16-3.42,4.91-5.56,5.96-4.28,1.05,1.28-1.05,3.85-4.56,7.7-3.15,3.42-6.66,7.27-11.21,11.12-5.61,4.71-9.81,6.84-13.32,7.7Z"/>
        <path d="M628.26,413.24c9.28-11.69,17.13-20.93,28.45-30.56-2.63.76-2.79-.38-4.82,1.48-11.22,10.69-21.03,21.39-37.85,37.22-10.87,10.27-18.58,16.68-26.29,21.82-3.5,2.14-6.66,2.99-8.06,1.28-1.05-1.28-1.05-4.28.35-7.7,1.75-4.71,7.36-14.12,12.97-23.1,7.01-10.69,13.67-20.53,18.22-26.52,4.21-5.56,3.5-6.84-3.85-6.84-6.66,0-11.22,1.71-20.33,9.41-8.41,6.84-21.03,19.68-24.88,23.96-3.86,4.28-4.56,5.99-3.86,6.84,1.05.86,2.45-.43,5.26-3.42,3.5-3.85,7.01-7.27,12.27-12.41,5.26-5.13,12.97-11.98,15.42-13.26-8.41,9.84-17.52,22.24-24.88,34.22-4.2,6.84-5.96,12.41-6.31,17.11-.35,7.7,3.85,12.41,11.21,12.41,10.51,0,23.48-10.27,37.85-23.53,5.9-5.54,12.97-12.33,19.12-18.4Z"/>
        <path d="M637.12,398.77l.39.18c-17.18,23.53-27.46,37.85-32.59,45-21.62,14.58-35.51,22.54-64.73,42.46-24.73,17.13-61.15,44.57-61.33,59.6-.26,8.54,9.74,8.76,18.02,7.3,6.56-1.16,14.19-4.27,22.91-9.31,19.33-11.42,43.93-31.28,63.87-53.3,8.29-9.46,27.45-33.85,39.59-51.74,10.27-6.32,23.99-15.25,34.91-23.93,7.51-5.83,15.54-12.75,18.86-16.09.91-.91,3.06-2.79,1.9-3.34-.78-.36-2.11.13-3.63,1.64-4.27,4.01-12.3,10.93-19.2,16.15-10.36,7.83-23.04,16.58-30.42,21.14,8.63-11.52,19.3-25.66,24.22-32.03,5.78-7.52,10.1-13.28,14.72-19.35,3.24-3.82.39-3.82-5.82-2.71-4.83.86-6.69,2.44-9.19,4.38M573.39,487.02c-22.92,29.3-40.75,45.2-55.42,54.8-6.39,4.13-15.66,8.02-21.4,7.79-3.58-.11-5.69-1.99-5.99-5.68-.85-12.84,21.37-34.02,48.3-52.79,29.08-20.65,44.96-29.46,63.65-42.52-6.04,8.07-17.53,23.59-29.14,38.4Z"/>
        <path d="M694.65,411.54c-1.4.86-2.81,1.71-3.5.43-.35-1.28,0-2.14,1.75-3.42,3.5-2.57,9.11-6.84,14.72-11.98,6.31-5.56,12.62-11.98,20.68-20.53.7-1.71,3.16-5.13,5.61-7.27,3.85-3.42,7.71-4.71,10.16-4.71,8.06,0,2.81,5.56-1.75,8.98-3.16,2.57-6.66,4.28-8.41,6.42-2.81,3.42-2.45,6.84-2.45,11.55.35,11.98,1.05,23.1-3.16,35.08-2.1,5.99-5.96,11.98-11.21,17.54-9.46,9.84-19.63,12.83-30.49,12.83-18.23,0-22.08-13.69-20.68-25.67,1.4-12.41,9.46-22.67,17.87-22.24,4.91.43,7.36,4.71,6.66,9.41-.7,4.28-3.16,7.7-7.71,10.69-3.15,2.14-7.71,6.84-8.06,12.83-.35,6.84,3.85,10.69,10.16,10.69,7.01,0,15.77-6.84,23.48-23.1,6.31-12.41,12.62-38.07,16.47-43.63v-.43c-3.5,4.28-10.86,11.12-16.82,16.26-4.91,4.28-10.51,8.56-13.32,10.27Z"/>
      </g>
      <g>
        <path d="M65.59,102.39c-1.55,1.29-2.63,2.62-3.26,4-.63,1.38-.92,2.88-.89,4.49.3,2.15,2.45,5.64,6.45,10.46l33.54,40.34c3.5,4.21,6.22,8.12,8.15,11.72,1.93,3.6,3.29,6.92,4.08,9.96.79,3.04,1.08,5.81.88,8.31-.2,2.49-.68,4.73-1.44,6.69-.76,1.97-1.72,3.68-2.89,5.12-1.16,1.45-2.32,2.65-3.46,3.59-1.84,1.53-3.67,2.61-5.49,3.23-1.82.62-3.57.88-5.25.77-1.68-.11-3.21-.53-4.6-1.26-1.39-.73-2.57-1.68-3.54-2.86-.91-1.09-1.54-2.17-1.9-3.25-.36-1.07-.5-2.08-.42-3.04.08-.95.36-1.84.84-2.65.48-.81,1.07-1.5,1.77-2.09,1.1-.92,2.26-1.4,3.47-1.45,1.21-.04,2.4.16,3.59.61,1.18.45,2.36,1.02,3.52,1.7,1.16.68,2.28,1.29,3.35,1.84,1.08.55,2.09.9,3.04,1.07.95.17,1.79-.05,2.53-.67.48-.4.82-.96,1.03-1.68.21-.72.21-1.61.01-2.68-.2-1.07-.67-2.3-1.41-3.71-.73-1.41-1.81-2.96-3.22-4.66l-46.73-56.19c-2.02-2.43-3.68-4.29-4.97-5.58-1.29-1.29-2.51-2.14-3.66-2.55-.56-.22-1.24-.33-2.06-.34-.81,0-1.67.11-2.57.34-.9.23-1.8.57-2.7,1.02-.91.45-1.73.97-2.46,1.59l-2.6,2.16-1.82-2.19,31.98-26.59,1.82,2.19-2.71,2.25Z"/>
        <path d="M127.74,74.52c1.4,2.36,2.38,4.67,2.95,6.93.57,2.27.83,4.42.79,6.47-.04,2.04-.29,3.99-.76,5.83-.47,1.84-1.05,3.52-1.76,5.05-.71,1.53-1.46,2.89-2.25,4.09s-1.49,2.17-2.11,2.91l-1.74-2.92c.64-1.36,1.31-2.83,2.01-4.41.7-1.58,1.23-3.23,1.58-4.94.35-1.71.44-3.48.27-5.31-.17-1.83-.8-3.67-1.91-5.53-.51-.86-1.03-1.52-1.55-1.97-.52-.46-.99-.76-1.42-.91-.42-.15-.8-.2-1.13-.15-.33.05-.56.11-.69.18-.58.34-1.18.95-1.81,1.81-.63.87-1.36,1.54-2.18,2.03-.7.42-1.51.69-2.44.81-.93.12-1.88.06-2.83-.2-.96-.26-1.89-.73-2.8-1.41-.91-.69-1.7-1.59-2.37-2.73-.81-1.36-1.24-2.69-1.3-4.01-.06-1.31.12-2.54.53-3.67.41-1.13,1-2.14,1.76-3.02.76-.88,1.55-1.56,2.37-2.05,1.23-.73,2.68-1.16,4.33-1.29,1.65-.12,3.34.1,5.07.66,1.73.57,3.41,1.48,5.05,2.74,1.64,1.26,3.08,2.93,4.32,5.02Z"/>
        <path d="M231.85,129.31l-1.14-2.78c3.13-1.34,5.16-2.75,6.1-4.25.94-1.5,1.21-3.04.81-4.65-.4-1.6-1.29-3.24-2.68-4.92-1.39-1.68-2.87-3.36-4.44-5.06l-11.22-12.05-34.96,14.32.36,18.3c.08,2.59.24,4.83.5,6.71.26,1.89.87,3.35,1.83,4.37.97,1.03,2.38,1.57,4.24,1.64,1.86.06,4.43-.4,7.69-1.4l1.14,2.78-28.51,11.68-1.14-2.78c1.84-.93,3.32-2.06,4.43-3.39,1.11-1.34,1.94-2.94,2.49-4.82.55-1.88.89-4.05,1.02-6.52.13-2.47.17-5.26.14-8.38l-1.85-94.7,2.39-.98,65.09,69.64c2.75,2.92,5.08,5.19,6.99,6.83,1.91,1.64,3.66,2.78,5.25,3.44,1.59.66,3.14.92,4.67.78,1.52-.14,3.24-.52,5.16-1.13l1.14,2.78-35.49,14.54ZM183.47,57.09l.79,46.64,30.97-12.69-31.76-33.95Z"/>
        <path d="M366.38,47.61c.88,7.48.63,14.62-.74,21.41-1.37,6.79-3.98,12.88-7.83,18.26-3.85,5.39-9.01,9.88-15.48,13.48-6.47,3.6-14.37,5.95-23.69,7.04l-43.3,5.09-.35-2.98,3.64-.43c2.04-.24,3.75-.79,5.12-1.64,1.37-.85,2.35-2.05,2.94-3.61.37-.94.59-2.4.64-4.37.06-1.97-.09-4.47-.45-7.5l-8.08-68.74c-.77-6.54-1.88-10.65-3.33-12.34-1.13-.98-2.4-1.68-3.83-2.1-1.42-.42-3.04-.52-4.84-.31l-3.64.43-.33-2.83,39.31-4.62c5.37-.63,10.24-.97,14.6-1,4.36-.04,8.33.25,11.93.87s6.87,1.55,9.84,2.82c2.97,1.27,5.73,2.87,8.27,4.8,2.49,1.93,4.83,4.23,6.99,6.89,2.17,2.66,4.11,5.62,5.82,8.86,1.71,3.25,3.15,6.76,4.32,10.55,1.17,3.79,2,7.77,2.49,11.96ZM350.36,50.33c-.87-7.37-2.62-13.87-5.26-19.49-2.64-5.62-5.92-10.27-9.85-13.94-3.93-3.67-8.41-6.32-13.45-7.96-5.04-1.63-10.41-2.12-16.12-1.44-2.14.25-4.39.69-6.75,1.31-2.36.62-4.89,1.54-7.59,2.76l10.63,90.4c3.08.33,5.9.55,8.47.67,2.57.12,4.88.06,6.92-.18,5.47-.59,10.44-2.25,14.89-4.97,4.45-2.72,8.16-6.34,11.13-10.85,2.97-4.51,5.09-9.83,6.37-15.97,1.28-6.14,1.48-12.92.61-20.34Z"/>
        <path d="M490.46,62.42c-.81,5.31-2.13,10.32-3.96,15.02-1.83,4.7-4.07,8.97-6.71,12.8-2.65,3.83-5.64,7.21-9,10.14-3.35,2.92-6.96,5.32-10.83,7.18-3.87,1.86-7.94,3.12-12.2,3.77-4.27.65-8.65.64-13.14-.05-6.53-1-12.45-3.27-17.74-6.83-5.3-3.55-9.7-8.1-13.21-13.65-3.51-5.54-5.97-11.93-7.36-19.15-1.39-7.22-1.45-14.99-.18-23.32,1.21-7.91,3.56-15.06,7.05-21.42,3.49-6.37,7.78-11.68,12.86-15.94,5.08-4.26,10.77-7.32,17.06-9.18,6.29-1.86,12.87-2.27,19.73-1.22,4.21.64,8.18,1.89,11.89,3.73,3.71,1.85,7.1,4.17,10.16,6.99,3.06,2.81,5.73,6.07,8.03,9.78,2.29,3.71,4.13,7.74,5.53,12.11,1.39,4.37,2.28,9.01,2.67,13.91.39,4.91.18,10.02-.63,15.33ZM474.1,62c1.28-8.06,1.77-15.37,1.46-21.92-.31-6.55-1.44-12.21-3.4-16.98-1.96-4.78-4.74-8.62-8.34-11.54-3.6-2.92-8.07-4.82-13.41-5.68-4.83-.74-9.3-.26-13.41,1.43-4.11,1.69-7.79,4.46-11.04,8.3-3.25,3.85-6.01,8.7-8.29,14.56-2.28,5.86-3.99,12.59-5.15,20.19-1.15,7.5-1.53,14.45-1.15,20.84.38,6.4,1.51,12.02,3.38,16.86,1.88,4.84,4.53,8.79,7.96,11.85,3.43,3.06,7.63,4.99,12.59,5.8,4.59.7,8.95.38,13.08-.96,4.13-1.34,7.88-3.79,11.26-7.35,3.38-3.56,6.3-8.27,8.77-14.13,2.47-5.86,4.36-12.95,5.68-21.27Z"/>
        <path d="M559.62,148.29l-9.99-59.13c-1.2-.47-2.26-.87-3.17-1.18-.91-.31-1.71-.63-2.41-.93-.66-.29-1.3-.59-1.92-.89-.63-.3-1.28-.69-1.96-1.16l-12.51,28.42c-2.76,6.27-3.8,10.35-3.12,12.26.71,2.9,2.75,5.1,6.13,6.58l3.48,1.53-1.21,2.75-38.19-16.82,1.21-2.75,3.35,1.48c3.86,1.7,7.1,1.57,9.74-.37,1.56-1.16,3.58-4.56,6.06-10.2l27.89-63.34c2.65-6.03,3.78-10.13,3.39-12.32-.47-1.42-1.22-2.67-2.23-3.75-1.02-1.08-2.36-1.99-4.02-2.72l-3.35-1.48,1.15-2.6,32.34,14.24c4.78,2.1,8.85,4.11,12.22,6.03,3.37,1.91,6.01,3.78,7.93,5.61,1.92,1.82,3.54,3.88,4.86,6.16,1.32,2.28,2.28,4.7,2.88,7.27.6,2.57.77,5.23.52,8-.25,2.77-.99,5.55-2.22,8.35-1.34,3.04-3.03,5.7-5.09,7.99-2.05,2.29-4.47,4.12-7.24,5.49-2.77,1.37-5.89,2.26-9.34,2.67-3.45.41-7.24.25-11.37-.47l5.79,36.22c.66,3.97,1.39,7.36,2.2,10.16.81,2.8,1.81,5.21,3.01,7.24,1.2,2.03,2.63,3.76,4.3,5.21,1.66,1.45,3.66,2.86,5.98,4.23l-1.21,2.75-23.86-10.51ZM581.08,72.11c1.36-3.08,2.14-6.09,2.36-9.02s-.11-5.66-.98-8.2c-.87-2.54-2.26-4.85-4.17-6.93-1.91-2.08-4.32-3.79-7.24-5.13-1.14-.5-2.62-1.03-4.45-1.57-1.83-.55-3.96-1.13-6.41-1.74l-18.02,40.93,3.75,1.65c4.38,1.93,8.42,3.07,12.11,3.43,3.69.36,7.01.05,9.98-.92,2.96-.97,5.55-2.52,7.74-4.66,2.2-2.14,3.98-4.75,5.33-7.84Z"/>
        <path d="M648.27,209.12l-59.4-45.88,1.83-2.38,2.67,2.06c.34.26.79.56,1.35.89s1.19.65,1.89.96c.7.31,1.43.56,2.19.74s1.48.24,2.14.16c.67-.08,1.32-.24,1.96-.48.64-.24,1.36-.68,2.16-1.33.8-.65,1.72-1.54,2.74-2.67,1.03-1.14,2.27-2.64,3.72-4.52l42.5-55.03c2.13-2.75,3.69-5.05,4.7-6.9,1.01-1.85,1.49-3.22,1.46-4.12-.04-2.76-1.68-5.39-4.9-7.88l-2.67-2.06,1.74-2.25,59.4,45.88-13.34,19.15-2.27-1.76c.67-1.41,1.34-2.77,2.02-4.08.68-1.31,1.24-2.62,1.68-3.94.44-1.32.71-2.63.8-3.92.09-1.29-.12-2.64-.64-4.04-.52-1.4-1.41-2.87-2.67-4.41-1.26-1.54-3.03-3.19-5.3-4.94l-21.37-16.51-25.84,33.45,17,13.13c2.61,2.02,4.85,3.38,6.7,4.08,1.85.7,3.56.86,5.12.48,1.56-.38,3.1-1.21,4.61-2.5,1.51-1.29,3.21-2.88,5.11-4.79l2.16,1.67-22.75,29.45-2.16-1.67c1.44-2.41,2.6-4.54,3.49-6.39.88-1.85,1.32-3.59,1.31-5.23,0-1.64-.57-3.26-1.67-4.89-1.11-1.62-2.97-3.44-5.58-5.46l-17-13.13-24.53,31.77c-.87,1.13-1.45,2.25-1.75,3.39s-.18,2.29.36,3.47c.54,1.18,1.72,2.47,3.54,3.88l13.02,10.05c2.08,1.61,3.99,2.94,5.73,3.98,1.74,1.04,3.42,1.82,5.04,2.35,1.62.52,3.25.76,4.88.73,1.63-.04,3.41-.3,5.32-.78,1.92-.48,4.03-1.21,6.36-2.18,2.32-.97,4.99-2.15,8.01-3.55l2.33,1.8-23.18,16.14Z"/>
      </g>
      <path d="M341.63,162.56c-.92-.52-1.85-1.05-2.74-1.62-.36-.23-.65-.59-.95-.91-1.45-1.57-2.9-3.14-4.35-4.71-.39-.42-.52-.93-.36-1.47.22-.7.45-1.41.74-2.08.21-.49.25-.93-.04-1.4-.37-.59-.21-1.24-.05-1.82.11-.39.17-.88.67-1.14.18-.09.22-.53.24-.82.03-.34.12-.52.51-.5.37.02.43-.18.29-.47-.05-.09-.11-.18-.16-.27-.37-.77-.75-1.54-1.12-2.31-.32-.68-.63-1.36-.94-2.05-.35-.76-.74-1.52-1.04-2.3-.49-1.28-.96-2.57-1.38-3.87-.19-.57-.44-1.25-.29-1.78.18-.63-.21-1.02-.27-1.53-.01-.12-.27-.32-.39-.31-.76.08-1.52.17-2.18.63-.33.23-.44.46-.29.84.69,1.75,1.36,3.5,2.04,5.25.38.98.78,1.96,1.13,2.95.22.63-.34,1.01-.73,1.2-.78.39-1.12.79-.76,1.65.07.17-.22.58-.45.74-.47.34-.81.7-.94,1.28-.05.23-.27.45-.47.6-.59.47-.62.87-.07,1.38.24.22.47.44.68.72-.62-.02-.97.21-1.09.77-.01.07-.05.15-.1.18-.62.31-.48.78-.38,1.31.05.24-.13.54-.22.8-.09.27-.29.53-.27.79.04.86.32,1.66.93,2.3.19.2.49.32.74.47.15.09.33.14.45.26.75.8,1.52,1.58,2.22,2.42.6.73,1.1,1.54,1.65,2.32,1.07,1.5,2.14,3.01,3.23,4.5.46.63.93,1.25,1.42,1.84.49.58.99,1.16,1.48,1.74.14.44.25.9.4,1.36-.56.21-.99.36-1.41.54-1.22.54-2.42,1.21-2.75,2.58-.37,1.53-.61,3.11-.68,4.68-.04.85-.21,1.36-.96,1.77-1.97,1.1-3.31,2.73-3.8,4.97-.55,2.52.98,4,3.5,3.4.89-.21,1.78-.43,2.65-.71,1.77-.57,3.33-.44,4.81.86.61.53.84.97.84,1.73-.01,4.68-.22,9.37.58,14.01.31,1.77.15,3.69,1.67,5.08.19.17.18.66.12.97-.23,1.1-.98,1.65-2.38,1.83-.02-.02-.02-.05-.04-.07-.91.82-2.1,1.24-3.35,1.5-1.09,1.27-2.34,2.4-3.76,3.37-1.34.91-2.77,1.7-4.17,2.55-.06-.06-.12-.12-.19-.18-2.28,1.63-4.46,3.22-4.62,6.52-.05.94,0,1.88.08,2.82,0,0,0,.01,0,.02.3,1.65.5,3.31.73,4.97-.17-.22-.32-.45-.46-.68,0,.35-.02.7-.04,1.05.17-.1.34-.22.51-.32.06.24.25.53.16.69-.48.91-.65,2.01-1.24,2.8-.18.63-.39,1.26-.65,1.9-1.54,3.82-2.85,7.77-5.78,10.66-.61,1.19-1.31,2.33-1.94,3.51-.31.57-.27,1.23.67,1.42-.18.17-.33.31-.5.46-.56-.72-1.11-1.41-1.82-2.32-.32.82-.5,1.31-.77,2.02-.49-.69-.85-1.22-1.22-1.74-.49.39-.98.79-1.57,1.26.11-.77-.16-1.62,1.01-1.71-.05-.3-.1-.61-.16-1.01-.4.31-.82.55-1.11.89-.64.77-.62.79-1.32,0-.09.15-.18.27-.25.41-.06.12-.11.24-.23.52-.42-.48-.75-.87-1.09-1.26-.6.47-1.06.07-1.3-1.3-.13.66-.27,1.41-.41,2.15-.14,0-.28.02-.42.03-.1-.77-.27-1.54-.28-2.32-.01-.82.12-1.65-.02-2.49-.11,1.69-.21,3.38-.33,5.34.6.67.29,1.76-.97,2.51-.58.35-1,.97-1.58,1.34-.27.18-.73.08-1.17.1-.18.45-2.03.86-3.45.58.26-.4.5-.76.73-1.13.23-.37.44-.76.74-1.28-1.18.48-1.01,2.68-2.86,1.75.21-.47.41-.9.61-1.34l-.13-.07c-.39.55-.78,1.1-1.21,1.69.28.09.56.18.9.29-.74.23-1.36.53-2.01.58-.42.03-.87-.29-1.4-.48.2-.38.32-.61.4-.77-.62.34-1.3.71-2.03,1.11q-.27-.91.53-2.16c-.41.5-.96.95-1.19,1.53-.2.52-.04,1.18-.04,1.75-.37.14-.87.34-1.34.52.45.36.91.56.92.77,0,.29-.27.78-.53.86-.72.24-1.49.31-2.22.45-1.06-1.79-2.39-3.15-4.1-4.26-.84-.55-1.35-1.61-1.99-2.48-.03.14-.06.3-.11.52-.17-.49-.28-.82-.39-1.15-.88.98-.64,2.58.69,4.92-.06.07-.13.14-.19.21-.63-.57-1.26-1.13-1.99-1.78.36.82.71,1.62,1.04,2.37-.93.19-1.94.08-2.17-.47-.35-.82-.52-1.72-.84-2.83-.03.55-.04.88-.07,1.45-.29-.61-.49-1.02-.71-1.48-.09.39-.18.77-.26,1.14v3.02c-.2-.09-.43-.16-.64-.18-1.02-.13-1.85-.5-2.45-1.41-.28-.42-.76-.7-1.15-1.04-.08.06-.16.12-.23.18,0,.16-.04.34,0,.49.53,1.74,1.05,3.49,1.61,5.23.36,1.14.73,2.28,1.17,3.39.12.3.15.56.14.8.04.1.09.19.13.3.55,1.48.21,2.79-.55,3.92-.21.91-.42,1.81-.68,2.7-.18.62-.73,1.12-.97,1.73-.27.68-.74,1.64-.47,2.1,1.18,2.07.68,4.2.49,6.3-.26,2.9-.79,5.78-.98,8.69-.21,3.19-.46,6.42.16,9.6.13.66.5,1.31.91,1.86.69.92,1.5,1.76,2.27,2.63.93,1.06,3.18.97,4.32-.14.26-.26.69-.51,1.03-.5,1.83.09,3.2-1.04,4.65-1.82.8-.43.95-1.51.53-2.48-.64-1.48.02-2.96,1.34-3.84.8-.53,1.42-1.43,1.92-2.29.36-.63.62-1.32.9-2,1.16-3.44,3.68-6.27,6.08-8.96.35-.75.73-1.48,1.23-2.11.46-.57,1.32-.82,2.08-1.25.13.29.26.59.4.9,1.98-.12,3.89.03,5.7,1.01.71.39,1.55.61,2.36.74.07.01.14.03.21.04.1.11.21.21.3.32.48.16.96.33,1.42.54.72.32,1.31,1.03,1.82,1.68.12.15.23.3.35.45.08,0,.16.01.25.02.25.33.5.68.75,1.02,1.82,2.5,3.8,4.89,5.69,7.34.93,1.21.89,2.5.57,3.96-.36,1.63-.61,3.34-.53,4.99.23,4.32-.33,8.52-1.61,12.6-.05.16-.11.31-.18.46-.13,3.33-1.45,6.41-2.84,9.41-1.2,2.59-2.17,5.31-3.43,7.87-.51.23-.99.54-1.41.95-.55.54-1.17,1.01-1.82,1.41-1.51.95-3.12,1.77-4.58,2.79-.75.52-1.27,1.38-1.92,2.06-1,1.04-2.04,2.04-3.02,3.11-1.1,1.19-.98,2.47.49,3.09,4.71,1.99,7.44,2.61,12.11-.7.41.54.82,1.09,1.15,1.54.21-.21.43-.43.65-.65l.77-5.49c.77-1.23,1.5-2.48,2.18-3.75-.15,0-.29,0-.44,0,.49-.86.81-1.32,1.2-1.43.38-.75.76-1.5,1.11-2.25,1.1-2.32,2.24-4.62,3.39-6.92.79-1.58,1.11-3.32,1.95-4.84,2.2-4.01,5.7-7.74,8.66-11.21,1.75-2.06,3.56-4.07,5.42-6.04.89-.93,1.87-1.81,2.71-2.78.42-.48,1.07-1.81,1.66-2.01,2.31-.77,4.64-1.45,6.94-2.22.79-.27,1.55-.67,2.29-1.07,1.97-1.05,4.17-1.18,6.28-1.68,4.31-1.03,8.56-2.32,12.57-4.24,1.26-.61,2.46-1.35,3.67-2.07,1.88-1.1,3.8-2.14,5.62-3.33,0,0,0,.01.01.02,1.71-1.11,3.42-2.23,5.1-3.41.86-.6,1.67-1.28,2.47-1.95v-.26c.46-.36.92-.73,1.38-1.09,1.46-1.18,2.67-2.68,4.08-3.92.5-.44,1.27-.71,1.94-.78.89-.09,1.79-.03,2.69,0,1.64-1.22,3.46-2.2,4.9-3.67.44-.45,1.09-.74,1.77-.83-.19-.35-.37-.69-.57-1.04-.07-.12-.13-.25-.17-.38-.02-.06,0-.14.02-.52.44.22.84.32,1.09.58.36.37.58.88.91,1.29.06.08.12.15.19.22.37.14.7.36.95.68.03.04.07.08.1.12.31.11.67.12,1.1,0,.3-.09.87.13,1.07.4,1.95,2.57,4.58,3.34,7.66,3.1,1.58-.12,1.73.05,1.23,1.56-1.05,3.21-2.13,6.41-3.27,9.59-.78,2.17-.18,4.53,1.6,5.89.61.47,1.16,1.02,1.65,1.61,1.15,1.37,2.19,2.84,3.4,4.15.62.67,1.54,1.07,2.3,1.61,1.17.84,2.31,1.74,3.5,2.56,1.34.92,2.58.62,2.99-.92,1.32-4.94,1.55-7.73-2.37-11.89.48-.48.97-.96,1.36-1.36-.83-.63-1.73-1.32-2.66-2.02.66-.68,1.2-1.2,1.7-1.76.11-.12.09-.36.13-.54-.19-.03-.37-.09-.56-.08-.4.02-.79.09-1.19.13-.03-.1-.07-.21-.1-.31.33-.17.65-.33,1.2-.61-1.46.4-1.51-.73-2.02-1.39-.61-.79-.62-1.58-.36-2.47.23-.8.29-1.69.66-2.41.38-.73.92-1.6,1.61-1.9,2.32-.99,4.75-1.74,7.12-2.62,1.32-.49,2.6-1.05,3.91-1.56,2.72-1.06,5.52-1.6,8.46-1.49,2.14.08,3.91.88,5.05,2.6,2.85,4.28,5.67,8.59,8.28,13.02,1.13,1.93,2.49,3.11,4.66,3.54.88.17,1.71.63,2.54,1.02,1.78.86,3.53,1.77,5.3,2.65.22.11.45.22.69.26,2.24.42,4.48.85,6.73,1.24.29.05.61-.05.92-.09v-.67c-.02-.15-.05-.29-.11-.41-1.43-2.67-2.77-5.4-4.39-7.95-.82-1.29-2.16-2.25-3.31-3.41.13-.22.29-.48.5-.82-1.81-.11-1.29-.9-.33-1.92-.53-.04-.84-.07-1.15-.08-1.21-.06-2.43-.07-3.64-.2-.47-.05-.94-.31-1.35-.56-.76-.46-1.43-1.18-2.24-1.45-1.16-.39-1.77-1.35-2.13-2.22-.53-1.25-1.62-1.89-2.38-2.85-3.18-4.03-5.99-8.26-8.02-12.98-1-2.31-3.11-3.42-5.47-2.54-1.11.41-2.13,1.06-3.16,1.66-2,1.16-3.89,2.57-5.99,3.48-1.37.59-3.04.68-4.57.62-1.34-.05-1.41-.88-1.04-2.25,1.16-4.33,2.67-8.64,1.58-13.25-.84-3.59-2.61-6.61-5.36-9.04-.16-.08-.32-.16-.47-.25-.6-.31-.99-.73-1.22-1.2-1.2-1.01-2.41-2.01-3.62-3.03-.26-.22-.5-.47-.82-.76,2.86-3.11,5.17-6.65,8.97-8.65,2.61-1.37,4.77-3.31,6.82-5.37,1.24-1.24,2.38-2.58,3.57-3.86.14-.15.31-.25.55-.44.4,1,.82,1.9,1.12,2.85.1.31-.02.76-.18,1.07-1,1.86-2.05,3.7-3.06,5.55-.17.32-.26.68-.22,1.08,1.22-2.24,2.45-4.49,3.66-6.7.8.87,1.58,1.69,2.35,2.52.13-.12.25-.24.38-.35-.3-.33-.59-.68-.91-1-1.64-1.63-1.65-1.78-.21-3.81.19.13.37.27.56.4.17-.87.34-1.75.5-2.62-.72.05-.38-.38-.31-.68.18-.76.36-1.53.54-2.29-.05,0-.09-.02-.14-.03-.24.66-.47,1.32-.71,1.99-.12-.49-.01-.92.06-1.35.09-.56.15-1.13.23-1.7,0,0,.01,0,.02,0,.63-.47,1.38-.82,1.33-1.84-.01-.19.44-.41.67-.62.11.06.21.13.32.19-.61,1.91-1.23,3.83-1.84,5.74.48-.74.96-1.49,1.44-2.24.31.48.6.93.89,1.37-.84-1.66-.39-3.54.49-5.09l-2.22-.4c-.39.3-.76.63-1.15.93-.76.59-1.67,1.11-2.63,1.03.8-1.24,2.03-2.15,3.41-2.65,1.52-.88,3.53-.9,5.02.04-1.59-.67-3.41-.63-5.02-.04-.25.14-.48.31-.7.5l1.07.19c.37-.29.77-.56,1.2-.74,1.79-.78,4.12.09,4.97,1.84l-2.58-.46c.73.84.64,1.69.48,3.3-.04.45-.1.89-.17,1.33-.13.14-.28.28-.39.42-.08-.06-.17-.12-.25-.18.07.51.14,1.01.22,1.65-.5-.03-.85-.06-1.2-.08.14.71.28,1.43.44,2.22.06-.03.21-.11.39-.19-.09.32-.17.65-.27.97-.1.35-.22.69-.34,1.03-.1.09-.2.18-.31.28-.04-.12-.08-.23-.19-.56-.98,3.3-2.2,6.29-4.66,8.59.35.93-.15,1.49-.94,1.71-1.04.29-2.12.44-3.19.6-.43.06-.88,0-1.33,0-.55,1.1-1.64,1.33-2.67,1.66-.35.11-.71.21-1.03.41,2.77-.25,5.12-2.06,7.88-2.14-1.16,2.15-2.29,4.25-3.43,6.36l.24.14c.31-.51.61-1.03.93-1.52.66-1.02,1.34-2.02,2-3.04.31-.49.53-1.05.9-1.49.27-.32.71-.48,1.24-.83-1.03,3.79-3.2,6.96-3.51,10.7.03.01.05.03.08.04.28-1.16.55-2.32.83-3.48l.27.07c-.18,1.25-.36,2.51-.55,3.81.06.05.11.1.17.16.17.18.34.35.51.5.02-.92.07-1.83.2-2.73.14-.88.67-1.79,1.25-2.5,1.28-1.58,2.65-3.09,4.09-4.52,1.06-1.05,2.3-1.92,3.64-3.02-.18.67-.31,1.18-.46,1.69-.29.94-.09,1.81.5,2.56.5.63.86,1.23.45,2.04.17-.34.34-.68.55-1.09.83.11,1.67.22,2.57.34,0,0,.07-.14.04-.25-.51-1.51,0-2.67,1-3.85.73-.85,1.11-2,1.6-3.03.76-1.59,1.49-3.2,2.23-4.8.11.02.22.04.33.07-.03.33-.09.67-.08,1,.02.57-.15,1.25.69,1.41-.29,1.09-.35,2.31-1.65,2.9.29.15.52.26.86.43.45-.76.97-1.63,1.5-2.51h.34c.26,1.09.51,2.17.8,3.36.1-.69.2-1.31.29-1.93-.15,0-.44.03-.44.01-.14-.95-.53-1.98-.31-2.86.46-1.81.88-3.56.53-5.43-.01-.07.25-.19.4-.3.09,1.78.22,3.55.24,5.33,0,.83-.23,1.66-.35,2.49.93-.45.67-1.33.66-2.06-.02-1.64-.12-3.29-.23-4.93-.02-.28-.2-.56-.31-.84-.58-2.19-.47-4.53-1.78-6.57-1.2-1.86-2.12-3.9-3.02-6.06.86.67,1.84,1.23,2.53,2.03.74.87,1.45,1.59,2.58,1.98.57.2.98.86,1.61,1.23-.35-.44-.65-.94-1.06-1.31-.53-.48-1.28-.75-1.72-1.29-1.02-1.25-1.91-2.6-2.85-3.91.07-.06.14-.13.2-.19l1.74,1.38c-.83-1.24-2-2.02-3.3-2.6-1.21-.54-2.39-.87-2.97-2.43-.28-.75-1.82-1.28-2.86-1.43-1.94-.29-3.93-.2-5.74.9-.04-.1-.09-.19-.13-.29.29-.18.56-.38.86-.53.33-.17.67-.31.96-.54-2.3.73-4.47,1.7-6.27,3.36q.34.1,0,.89c1.15-1.07,2.1-2.41,3.61-2.92-1.34,1.42-2.68,2.88-4.07,4.3-.12.13-.47.04-.72.05l-.89.88c-.09-.07-.17-.15-.26-.22.56-.83,1.12-1.67,1.68-2.5-.52-.21-.54-.23-.13-.76,1.43-1.86,3.08-3.55,5.23-4.51,2.27-1.01,4.66-1.76,7.02-2.54.61-.2,1.34-.02,1.99-.15.67-.13,1.29-.53,1.96-.64,2.17-.37,4.35-.66,6.5-1.2-4.78.53-9.57,1.06-14.5,1.6.31-.27.5-.45.72-.64-.26.04-.48.07-.71.1l-2.54,1.04c-3.09,1.07-5.98,2.49-8.38,5.05.08-1.31,1.23-3.28,2.4-4.4.5-.48.94-1.03,1.4-1.55-.26.18-.53.33-.77.53-2.37,2.02-3.68,4.75-5.01,7.47-.51,1.04-.9,2.13-1.34,3.2-.14-.35-.14-.66-.05-.94,1.1-3.84,3.23-7.07,5.99-9.89.58-.6,1.44-.93,2.17-1.38,2.2-1.32,4.39-2.64,6.58-3.98.35-.21.63-.53.88-.92-.21.07-.43.11-.63.22-2,1.06-4.07,2.01-5.97,3.23-1.46.94-2.66,2.26-4.05,3.33-3.13,2.42-4.76,5.83-6.16,9.36-.51,1.29-.71,2.7-1.12,4.03-.14.47-.48.88-.72,1.32-.15-.02-.3-.03-.45-.05-.79-1.76-1.87-3.45-2.29-5.3-.39-1.7-.08-3.56-.08-5.68-.27,1.89-.5,3.5-.73,5.11l-.31-.06c-.51-1.33-.49-1.88-.02-5.02-.16.66-.34,1.32-.48,1.99-.1.45-.07.94-.25,1.35-.32.77-.15,1.35.21,2.09.33.68.2,1.61.16,2.42-.02.58-.22,1.16-.55,1.77-.09-.58-.18-1.16-.26-1.74l-.17.04c-.12.41-.24.81-.4,1.34-1.37-1.01-1.76-2.4-2.01-3.74-.25-1.34-.17-2.74-.23-4.08-.78,1.78-.19,3.65-.08,5.51.77,1.35,1.6,2.66,2.27,4.05.3.62-.18.79-.75.58.17.43.37.84.5,1.28.12.41.15.84.22,1.34-.59-.21-.95-.34-1.31-.46-.05.09-.09.19-.14.28.18.17.35.33.53.49-.33.86-.94.95-1.57.47-.85-.64-1.63-1.37-2.41-2.1-.85-.8-1.65-1.64-2.48-2.46-.11.1-.23.2-.34.3.47.62.86,1.3,1.41,1.84.92.91,1.93,1.74,2.93,2.57.2.16.54.15.77.29.55.34,1.08.72,1.61,1.09-.07.14-.14.28-.21.42-.42-.09-.88-.09-1.25-.27-1.81-.9-3.56-1.95-5.42-2.73-1.35-.57-2.28-1.45-2.99-2.67-.08.05-.16.1-.24.15.28.48.54.97.83,1.44.44.71.94,1.39,1.34,2.13.16.3.04.75.18,1.08.26.64.66,1.05,1.46,1.15.46.05.86.63,1.16,1.18-.5-.14-1-.29-1.51-.43,1.2.96,3.25.82,3.49,2.99-1.09-.21-.95.57-1.05,1.22-.16,1.09-.34,2.19-.6,3.27-.19.8-.78,1.03-1.55.77-.67-.22-1.33-.47-2.01-.64-.23-.06-.6-.03-.73.12-.27.29-.2,2.67-.47,3.37-.5,1.28-1.09,2.67-2.48,3.17-.7.26-1.47.22-2.22.17-2.96-.17-5.89-.64-8.85-.74-2.86-.09-5.71.32-8.53.75-1.26.19-2.54.16-3.78.51-1.34.38-2.61,1.01-3.81,1.7-1.7.98-3.34,2.06-5.16,2.81-1.12.46-1.85,1.59-2.94,2.11-1.21.57-3.17-.02-4.36-.46-1.74-.64-2.88-.8-4.54.02-.52-.3-.98-.57-1.51-.89.89-.91,1.79-1.8,2.74-2.63,1.37-1.02,2.87-1.69,4.8-1.12.03,0,.07,0,.11,0,.98.03,1.54-.42,1.59-1.39.02-.44-.18-.89-.22-1.33-.08-.98-.12-1.96-.17-2.94.13-.02.25-.05.38-.07.26.45.51.89.77,1.34v-1.54c.53.03,1.06.06,1.54.09-.52-.46-.88-1.25-1.54-1.71v-.33l1,.27c.02-.06.04-.11.06-.17-.35-.15-.71-.29-1.06-.44v-.23c-.17-.03-.34-.06-.5-.12-.49-.17-.94-.46-1.46-.72.59-.62,1.03-1.09,1.46-1.54l.16-.1-.03-.03s.06-.06.09-.09c-.09-.11-.19-.22-.28-.33-.29.19-.61.34-.86.57-.57.53-1.07,1.12-1.65,1.63-.25.22-.64.34-.97.37-.14.01-.48-.42-.45-.47.19-.3.44-.6.73-.81.7-.51,1.44-.97,2.16-1.45l-.23-.31c-1.09.74-2.17,1.48-3.45,2.36-.24-.25-.57-.61-.91-.96.01-.04.02-.07.03-.11.39-.24.77-.48,1.17-.7.19-.11.41-.17.89-.36-1.04-.12-1.79-.21-2.54-.3,0-.08,0-.17,0-.25.02-.04.04-.07.06-.11.22-.17.44-.34.7-.55-.22-.41-.42-.77-.54-.99-.05.04-.09.08-.14.12-.02-.04-.04-.07-.06-.11-.04.1-.09.19-.14.28-.84.74-1.63,1.42-2.41,2.1-.02,0-.03.02-.05.02-.12-.1-.24-.2-.35-.3.97-.6,1.9-1.23,1.36-2.62-.67.83-1.01,2.01-2.37,2.5-.06-.06-.13-.11-.18-.17.4-.88.71-1.57,1.02-2.27-.1-.04-.2-.08-.3-.12-.3.57-.61,1.13-.93,1.73-.6-.67-.95-3.61-.4-3.96.74-.48.36-1.03.25-1.46-.13-.5-.5-1.04-.92-1.35-.29-.21-.74-.18-1.21-.21-.1-.06-.18-.13-.26-.2,0-.76.02-1.51,0-2.24-.07-1.7.18-3.42-.52-5.09-.38-.89-.54-1.88-.7-2.84-.25-1.47,0-1.92,1.43-2.27,2.76-.67,5.55-1.23,8.32-1.85.36-.08.7-.27,1.05-.41-.04-.12-.08-.25-.12-.37-.68.04-1.36.07-2.04.11l-.09-.24,1.42-.69c.18.09.26-.05.23-.17-.31-1.67-1.29-2.86-2.69-3.77-.95-.62-1.83-.93-2.6.24-.02.02-.12,0-.19-.02.13-.25.25-.49.37-.73-2.76,1.51-4.38,3.92-5.6,6.73-.24-.67-.4-1.27-.33-1.84.27-2.31-.23-4.32-1.93-6-.32-.32-.53-.84-.61-1.3-.07-.44-.14-.87-.21-1.31,0-.03,0-.05,0-.08.05-.47-.06-.97-.17-1.44-.04-.18-.08-.37-.12-.55-.05-.43-.11-.85-.16-1.28-.43-3.59-2.16-6.64-4.1-9.58-.25-.38-.86-.62-1.34-.73-.61-.14-1.29-.2-1.89-.06-1.2.28-1.61-.34-1.99-1.3-.55-1.4-1.22-2.75-1.87-4.11-.4-.82-.91-1.59-1.28-2.42-.12-.27-1.29-1.36-1.95-2.04M460.61,217.98c.56,1.15.18,3.96-.66,4.73-.05.04-.26-.09-.4-.15-.67-1.28-.19-3.35,1.06-4.58ZM450.45,207.59c.12.06.22.12.31.18,0-.11,0-.23,0-.34l.06.39c.46.38.33.79.17,1.19l.68,4.66c-.54-1.52-.85-3.11-.92-4.72l-.47-.54c.05-.27.11-.54.16-.82ZM450.94,216.2c.15-.07.32-.12.5-.18-.44.76-.87,1.51-1.31,2.27-.06-.14-.1-.28-.13-.4.33-.56.65-1.12.95-1.69ZM452.55,215.65c-.8,1.91-2.13,3.59-3.8,4.8l3.8-4.8ZM449.59,218.55c.03.72-.36,1.39-1.14,1.75.4-.57.78-1.16,1.14-1.75ZM443.05,226.61c.74-.71,1.46-1.44,2.14-2.2.05.04.1.09.14.13l-2.03,2.31c-.09-.08-.17-.15-.26-.23ZM444.77,227.23c-.7,1.38-1.41,2.76-2.11,4.13-.1-.05-.19-.11-.29-.16.3-1.61.98-3.01,2.4-3.97ZM442.28,233.34c-.1-.07-.2-.14-.3-.21,1.69-2.57,3.28-5.21,5.11-7.68.81-1.09,2.05-1.94,3.94-1.3-2.98,3.13-5.87,6.16-8.75,9.18ZM451.01,231.04c-.15-.02-.3-.04-.45-.06-.2-.52-.62-1.08-.55-1.57.2-1.31.55-2.61.96-3.87.12-.36.63-.64,1.03-.83.14-.06.65.24.67.41.2,1.91-.7,3.57-1.27,5.3-.07.22-.26.41-.39.61ZM453.37,231.83c-.83-.16-1.39-.28-2.06-.41,1.07-2.06,2.02-4.01,3.86-5.36-.72,1.86-2.43,3.33-1.8,5.77ZM453.44,227.28c.3-1.4.54-2.5.79-3.58h0c.43-.4.87-.79,1.3-1.18.34-.09.69-.19,1.02-.28-.26,2.06-1.71,3.35-3.11,5.04ZM457.7,217.6c.54.86.35,2.55-.46,3.29-.44.4-.87.8-1.31,1.2-.28-.22-.57-.44-.86-.66-.11.3-.23.6-.34.9l.33-.9c.89-1.3,1.77-2.59,2.62-3.84ZM459.37,204.83c-1.49-1-2.82-1.86-4.1-2.79-.17-.12-.08-.6-.12-1,2,.74,3.35,1.83,4.22,3.79ZM454.09,210.84l.51,2.97c-.04.39-.11.77-.2,1.15.13-.2.25-.4.38-.6.89,1.04.86,1.35-.17,2.49-.59.66-1.06,1.43-1.63,2.12-.05.15-.09.29-.15.44-.13.37-.29.75-.5,1.08.2-.16.4-.32.59-.47.06.11.12.21.18.32-1.2,1.96-2.26,2.68-2.94,1.88.36-.29.72-.57,1.07-.85-.38.1-.79.06-1.09-.19.31-.21.61-.43.89-.68h-.01c.19-.34.36-.68.56-1,.72-1.16,1.44-2.31,2.16-3.47.31-1.7.43-3.44.34-5.17l-.92-5.33c.53,1.73.83,3.53.92,5.33ZM442.69,201.2c2.42-3.26,4.82-3.98,8.61-3.59,1.14.12,2.32,1.44,2.42,2.52-4-2.36-7.62-1.7-11.07,1.69.02-.48,0-.57.04-.61ZM441.32,213.17c.36-1.31,1.3-2.46,2.04-3.66.13-.22.47-.31.73-.45-.25,1.68-.49,3.36-.75,5.04-.16,1.01-.74,1.78-1.54,2.5-.31-1.17-.76-2.4-.48-3.43ZM439.43,203.73c-.86,1.26-1.71,2.53-2.56,3.78-.3-1.46.58-2.96,2.56-3.78ZM447.26,192.8c.05.11.1.21.15.31-.87.42-1.74.84-2.61,1.26-.06-.1-.12-.2-.17-.29l2.63-1.28ZM441.93,195.23c-1.2,1.28-2.42,2.46-3.5,3.77-1.1,1.32-2.06,2.76-3.06,4.12-.65-1.48,3.53-6.58,6.56-7.88ZM427.52,203.46c.66,1.03,1.33,2.04,1.96,3.08.51.83.37,1.61-.53,2.32-.61-1.82-1.2-3.56-1.79-5.3.12-.03.23-.07.35-.1ZM427.34,205.44c.53,1.62,1.71,2.97.89,4.78-.54-1.5-2.29-2.75-.89-4.78ZM373.56,225.63c.27-.02.75.28.81.51.28,1.05.46,2.12.65,3.2.12.68-.15,1.13-.89,1.1-.62-.03-1.24-.16-1.63-.21,0-.53.03-1,.03-1.45.02-.08.03-.16.03-.24.04,0,.07-.02.1-.03-.03-.01-.06-.02-.1-.03.01-.2-.01-.39-.07-.58,0-.1-.01-.2-.03-.3-.11-.67.4-1.92,1.09-1.97ZM372.22,229.42c-.65.4-1.12.68-1.58.96-.06-.11-.13-.21-.19-.32.43-.34.58-1.15,1.77-.64ZM368.14,196.6l.07.27c-1.08.24-2.16.48-3.24.72-.02-.06-.03-.13-.05-.19l3.22-.8ZM329.32,147.59c-.49-.51-1.22-.87-1.21-1.73,0-.64.85-1.28,1.46-1.06.48.17.55.55.28.97-.31.49-.76.58-1.41.54.41.5.81.51,1.24.41.27-.06.52-.04.54.31.02.33-.69.78-.91.56ZM322.82,253.01c-.33-1.99-2.29-1.64-3.52-2.46.1-.23.2-.46.31-.71.13-.15.26-.29.39-.45.32.41.59.74.85,1.07.05.09.1.18.14.27h.06s.02.01.03.02c0-.01.01-.03.02-.04l.28-.06c-.01-.16-.02-.33-.02-.49.13-.28.27-.58.42-.91-.06,1.4,1.62,2.21,1.04,3.76ZM322.94,250.08c-.1.06-.19.11-.29.17-.13-.29-.27-.58-.38-.88-.13-.34-.14-.82-.38-1.02-1-.83-1.04-1.62-.06-2.64,1.84,1.07,1.25,2.78,1.11,4.37ZM326.34,245.34c-.77-.05-1.35-.08-1.94-.12,0-.11-.01-.22-.02-.33.25-.03.53,0,.74-.11.21-.1.47-.32.49-.52.09-.66,0-1.35.14-2,.2-1.04-.76-.79-1.16-1.16-.25.31-.54.59-.74.93-.3.52-.53,1.08-.79,1.63-.13-.07-.26-.13-.39-.2.74-1.44,1.47-2.88,2.31-4.53,1.43,2.07.72,4.22,1.58,6.21-.05.07-.14.15-.23.21ZM336.33,222.82c-.05,0-.11-.02-.17-.03l-.18-.35c.45-.24.9-.49,1.36-.73.09.16.17.31.26.47-.42.21-.85.42-1.27.63ZM339.3,217.03c-.47-.92-.04-1.1.49-1.36.17-.09.33-.19.49-.29.21-.07.41-.16.51-.31.03-.05.07-.1.1-.15.21-.16.41-.32.63-.47.73-.51,1.46-1.02,2.22-1.47.11-.07.44.22.87.46,0,0,0,.01,0,.02-1.88,1.27-3.55,2.39-5.3,3.58ZM346.27,244.69c-1.31-.36-4.33.01-5.33-1.04-.1-.11-.18-.22-.24-.33-.61-1.22.95-2.97,1.7-3.89.68-.84,3.41-5.13,4.53-3.55.73,1.02-1.21,5.71-1.55,6.92-.26.92-.31,1.58.88,1.9ZM368.44,237.58c-.75-.36-1.52-.68-2.24-1.1-.61-.35-.6-.85,0-1.51.83.83,1.63,1.62,2.42,2.41-.06.06-.12.13-.18.19ZM396.7,228.38c.54-.07,1.07-.13,1.75-.22-.54,1.23-1.16.59-1.75.22Z"/>
    </g>
  </g>
</svg>