<?xml version="1.0" encoding="UTF-8"?>
<svg fill="#342609" id="Layer_2" data-name="Layer 2" xmlns="http://www.w3.org/2000/svg" viewBox="0 0 1249.48 127.06">
  <g id="Layer_1-2" data-name="Layer 1">
    <g>
      <path d="M631.96,74.3c.14-14.54-.34-33.09-11.77-28.13-4.43,1.92-7.55,6.38-7.92,11.5-.83,11.56-.16,24,1.78,35.52.8,4.76-12.62,4.5-22.36,2.49-1.22-.25-3.52-2.28-3.86-3.43-1.15-3.83,6.2-7.99,6.53-11.82,1.02-11.84,1.01-22.64-1.04-34.15l-2.96-8.01c4.38-3.13,9.32-3.43,14.8-3.55,3.73-.08,6.76,1.05,7.69,4.83,1.65,6.68,11.54-6.38,28.6-1.26,5.44,1.63,7.48,5.82,11.84,3.32l9.65-5.53c5.71-3.27,12.82-2.7,18.24.58,4.99,3.03,8.82,8.82,9.03,15.49l.72,23.22c.3,9.58,6.8,10.4,6.99,15.36.24,6.36-24.92,7.22-24.86,4.01l.07-3.75.22-19.72c.06-5.47.39-11.1-.6-16.19-1.06-5.45-5.18-8.54-10.71-8.19-3.24.21-7.08,2.8-7.26,6.33l-1.23,25.24c-.23,4.82,5.73,10.18,4.12,13.7-.39.85-2.51,2.31-3.81,2.32l-24.39.22c-1.18.01-1.97-3.45-1.4-4.51,2.69-4.98,3.82-10.24,3.87-15.89Z"/>
      <path d="M122.31,90.23c2.87-15.83,7.81-43.8-5.19-44.7-7.02-.49-13.23,4.95-13.88,12.03-.82,8.85-.93,17.24.33,26.21.43,3.07,3.42,6.86,5.23,9.83,0,1.17-3.23,3.39-4.77,3.39l-22.48.03c-.95,0-2.88-.91-3.13-1.65-1.19-3.52,5.22-7.98,6.07-18.04,1.22-14.41.56-28.08-.44-42.34-.36-5.16.05-10.27.08-15.63.04-7.55-6.32-9.14-5.9-13.36.1-.94,2.12-2.42,3.22-2.56,9.73-1.28,20.24-2.96,20.73,2.81l1.97,22.96c.19,2.25,1,5.16,1.77,7.82l8.08-2.94c10.03-3.64,21.93-.72,26.67,9.64,1.83,4,1.73,9.93,1.85,14.44l.54,19.16c.25,8.95,6.49,12.59,6.55,16.23.08,5.26-28.67,4.12-28.05.71l.73-4.02Z"/>
      <path d="M352.3,107.8c-.48,5.21,2.37,8.97,5.73,11.6l4.42,3.46c.41.32.75,2.24.44,2.68-.41.58-2.09,1.52-3,1.51l-28.99-.38c-.87-.01-2.78-.92-3.39-1.45-3.41-2.93,6.87-8.28,7.28-17.74l1.31-30.52-.35-24.77c-.09-6.34-6.81-9.61-7.13-13.23s13.43-6.36,22.36-6.04l3.01,6.27c13.32-7.88,26.47-10.26,35.96,1.34,10.44,12.76,9.63,33.94-1.25,46.25-7.9,8.94-19.63,12.7-31.32,8.81-1.06-.35-4.01.71-4.12,1.9l-.94,10.3ZM379.06,64.3c-.07-7.13-1.67-14.08-6.98-18.99-3.25-3-8.21-3-12.08-.9-3.31,1.79-5.54,5.73-5.79,10.16-.88,15.4-2.53,32.02,9.42,33.53,11.15,1.4,15.55-10.62,15.42-23.8Z"/>
      <path d="M920.25,60.73c1.35,22.26-15.7,38.12-36.95,37.15-16.88-.77-29.69-12.48-30.36-29.54-.84-21.3,15.05-37.13,36.3-36.78,16.72.27,29.95,11.57,31.02,29.17ZM896.51,46.17c-2.18-4.46-6.37-7.22-10.82-7.02-12.97.58-17.48,26.77-8.78,44.17,2.31,4.62,6.27,7.04,10.69,6.94,13.43-.3,17.06-27.44,8.91-44.1Z"/>
      <path d="M1077.22,93.96c-5.22-4.6-14,9.03-28.57,2.86-5.53-2.34-9.03-7.4-9.67-12.77-1.6-13.37,10.77-18.5,23.16-22.59l8.54-2.82c1.72-.57,3.72-4.29,3.67-6.25-.11-3.88-1.93-7.12-4.44-8.46-3.46-1.85-7.76-1.1-10.42,1.52l-6.71,6.62c-2.49,2.46-8.2,3.25-10.45.33-5.79-7.51,10.04-20.53,31.63-18.46,9.16.88,17.36,7.42,17.33,17.09l-.05,18.26.81,13.18c.11,1.85,4.36,3.9,5.95,4.95l2.6,1.72c2.94,1.94-11.93,14.9-23.37,4.83ZM1073.93,78.61l.13-11.29c-7.16-1.09-13.07,2.22-16.78,8.19-2.03,3.26-2.02,8.83,1.39,11.44,2.7,2.07,7.54,1.44,10.24-.28,2.02-1.29,4.98-5.27,5.02-8.05Z"/>
      <path d="M467.23,93.94c-5.21-4.58-13.91,9.05-28.57,2.85-5.5-2.32-9-7.37-9.65-12.74-1.59-13.1,10.38-18.29,22.42-22.31l9.29-3.11c1.66-.55,3.77-4.26,3.69-6.19-.16-3.96-1.94-7.17-4.48-8.52-3.46-1.84-7.76-1.08-10.42,1.54l-6.71,6.61c-2.5,2.46-8.2,3.23-10.44.3-5.76-7.53,10.03-20.48,31.6-18.45,9.21.87,17.39,7.4,17.37,17.08l-.03,17.22.52,13.32c.15,3.84,6.15,4.95,8.79,7.6s-12.28,14.55-23.37,4.8ZM463.93,78.87l.21-11.58c-7.21-1.02-13.14,2.24-16.82,8.23-1.99,3.24-1.97,8.8,1.38,11.39,2.71,2.1,7.54,1.52,10.25-.24,2.01-1.3,4.94-5.19,4.99-7.8Z"/>
      <path d="M219.9,86.63l14.61-4.67c10.63-3.4,1.4,17.46-25.29,16.34-16.07-.67-27.44-12.29-28.87-27.98-1.84-20.06,12.6-36.48,32.87-37.09,7.38-.22,14,1.14,19.01,6.43,4.57,4.83,7.6,10.91,6.58,18.59-.3,2.29-2.94,4.84-5.35,5.08l-28.38,2.9c-1.43.15-3.84,1.06-4.75,1.9-1.06.98-1.61,4.33-1.28,6.05,1.8,9.38,11.19,15.52,20.86,12.44ZM218.74,56.8c5.55-.23,3.3-12.67-3.39-14.89-2.29-.76-6.95-.97-9.02.31-5.21,3.22-8.37,11.39-6.46,13.88.46.61,2.52,1.37,3.41,1.33l15.47-.63Z"/>
      <path d="M1163.26,97.41l-29.13-.44c-1.32-.02-1.87-3.76-1.11-4.79,2.18-2.94,4.29-6.3,4.48-9.83l1.7-31.06-.35-29.01c-.12-9.64-7.84-13.41-8.15-17.26-.06-.83,1.81-2.61,2.68-2.71L1153.33,0c1.34-.15,3.28,2.17,3.28,3.28l.09,12.99.36,37.01c.1,10.39,1.46,20.02,3.97,30.18.97,3.93,7.08,7.31,5.87,11.94-.24.94-2.58,2.01-3.65,1.99Z"/>
      <path d="M818.31,97.4l-29.21-.42c-1.27-.02-1.88-3.79-1.12-4.81,2.24-3,4.22-6.31,4.46-9.86l1.69-26.03-.23-33.04c-.07-10.87-8.02-14.35-8.21-18.24-.04-.84,1.82-2.61,2.69-2.71L808.35.01c1.3-.15,3.2,2.2,3.21,3.35l.09,12.91.36,37.02c.1,10.54,1.5,20.68,4.24,30.87.89,3.32,6.75,6.54,5.62,11.23-.22.93-2.59,2.02-3.56,2Z"/>
      <path d="M553.25,97.4l-29.04-.44c-1.36-.02-1.93-3.75-1.19-4.74,1.93-2.59,4.09-5.88,4.33-8.85l1.69-21.25-.02-38.1c0-10.77-6.45-14.29-8.4-18.23-1.89-3.82,12.51-5.54,22.6-5.76,1.54-.03,3.44,2.06,3.45,3.36l.1,12.9.33,37c.09,10.35,1.49,20.01,3.96,30.1.98,4.02,7.16,7.51,5.88,12.02-.27.94-2.61,1.99-3.7,1.97Z"/>
      <path d="M1233.84,97.26c-6.03,1.74-12.16.73-17.97.22l-10.61-.93c-3.41-.3-6.89-1.39-6.95-5.52l-.17-12.71c1.24-1.17,4.96-.39,6.05.64l7.89,7.44c5.27,4.97,12.96,6.18,19.35,1.93,1.43-.95,2.7-4.69,2.37-6.4s-2.18-4.63-3.72-5.33l-11.24-5.08-11.39-5.55c-8.81-4.29-11.13-16.74-5.48-24.87,5.24-7.54,14.22-10.02,23.06-9.18l16.29,1.55c1.64.16,4.53,2.04,4.63,3.75l.64,10.63c.05.75-.78,2.81-1.41,2.87s-2.33-.25-2.99-.74l-8.95-6.72c-5.44-4.09-12.56-5.64-17.86-.67-3,2.82-1.17,8.36,2.59,9.98l18.13,7.85c4.69,2.03,9.38,5.6,11.6,10.28,5.02,10.61-.82,22.78-13.85,26.54Z"/>
      <path d="M35.24,84.81l10.8.48c2.01.09,1.07,5.65-.96,6.83-6.05,3.52-11.92,5.85-18.91,6.04-17.89.47-15.55-19.6-16.07-37.87l-.26-9.06C9.61,42.69.09,42.34,0,38.71c-.1-3.73,7.2-2.57,10.15-10.54,4.08-11.02,12.18-14.68,14.78-11.61,4.8,5.67,2.55,13.58,10.49,15.65l7.8,2.03c1.4.37,2.67,3.21,2.57,4.45s-1.97,3.43-3.25,3.7l-8.52,1.79c-2.1.44-5.11,3.49-5.43,5.79-1.75,12.82-2.36,34.43,6.64,34.82Z"/>
      <path d="M971.05,75.77c3.65,8.16,11.55,12.64,20.08,10.46l13.25-3.4c.92-.24,4.16.38,4.2,1.29.08,1.95-2.13,5.36-3.74,6.67-6.72,5.48-14.21,7.49-22.63,7.74-18.17.53-31.93-13.09-32.07-31.31-.12-15.95,9.56-30.71,25.94-33.83,6.88-1.31,14.66-.54,21.8.36,3.46.43,7.24,2.77,8.6,4.96,1.82,2.94,2.27,7.6.68,10.37-1.57,2.74-5.06,3.21-7.19,1.65l-7.77-5.66c-3-2.19-7.59-4.05-11.52-3.4-10.44,1.72-15.81,20.3-9.63,34.11Z"/>
    </g>
  </g>
</svg>