<?xml version="1.0" encoding="UTF-8"?>
<svg fill="#342609" id="Layer_2" data-name="Layer 2" xmlns="http://www.w3.org/2000/svg" viewBox="0 0 1364.78 502.1">
  <g id="Layer_1-2" data-name="Layer 1">
    <g>
      <g>
        <g>
          <path d="M567.63,399.61c1.26,0,2.59.06,5.49.5,1.2-2.65,1.83-5.49,2.65-9.78l3.41-17.67c.38-2.02.5-3.28.57-4.23h-1.96c-1.58,0-3.85.13-5.49.13-2.08,0-3.15-1.07-3.15-2.97,0-2.27,1.51-4.67,4.35-4.67,4.04,0,14.64.95,22.84.95,4.48,0,7.64-.63,9.4-.63,2.59,0,4.86,2.33,4.86,9.91,0,2.4-.82,3.28-2.65,3.28-3.03,0-5.11-2.4-7.38-5.36-3.66-.32-7.82-.44-12.49-.57-.82,2.71-1.83,6.94-2.59,11.17,1.77-.13,4.29-.31,6.31-.31,3.91,0,5.74,1.45,5.74,4.67,0,2.27-1.89,3.79-4.73,3.79-2.65,0-5.55-.44-8.52-1.45l-.57,3.34c-.82,4.73-1.01,7.51-1.01,10.1,3.53-.25,5.87-.51,7-.51,2.02,0,2.78.76,2.78,2.71,0,2.15-1.64,4.99-6.63,4.99-2.97,0-6.25-.25-9.21-.19-3.34.06-6.37.19-9.46.19-2.15,0-3.34-.82-3.34-2.59,0-2.53,1.33-4.8,3.79-4.8Z"/>
          <path d="M616.72,400.05c1.2,0,2.78.13,6.06.19,1.26-2.9,1.83-5.74,2.71-9.91l3.79-17.67c.38-1.7.5-2.9.57-4.23-2.27.13-4.29.19-6.18.19-2.15,0-3.34-.82-3.34-2.59,0-2.52,1.33-4.79,3.79-4.79.69,0,2.46.25,4.1.5,9.65-.13,15.27-.82,17.29-.82s2.78.76,2.78,2.71c0,2.15-1.64,4.92-6.63,4.92-1.14,0-2.21-.06-3.47-.32-1.01,3.09-1.7,6.37-2.9,12.05l-1.7,7.95c-.95,4.61-1.33,7.38-1.33,11.86,5.24-.19,11.86-.57,17.79-1.13,2.46-3.22,3.22-5.87,3.79-9.66.32-2.21,2.52-3.09,4.67-3.09s2.97.95,2.97,3.09c0,5.18-4.67,18.49-7.51,18.49-2.21,0-6.25-1.07-13.69-1.07-11.17,0-20.25,1.2-24.73,1.2-2.08,0-3.15-1.07-3.15-2.97,0-2.4,1.51-4.92,4.35-4.92Z"/>
        </g>
        <path d="M1230.06,426.79l-.09-.23c-.82-1.73-1.92-2.63-2.99-3.51-.87-.72-1.7-1.4-2.48-2.61l-2.94-4.57c-.39-.61-.45-.9-.46-.97-.11-.92-.08-1.82-.05-2.78.01-.44.03-.89.03-1.35.04-6.93-.29-13.61-.65-19.81l-.78-13.54c-.38-6.49-.45-13.08-.52-19.45-.02-1.81-.04-3.63-.07-5.44l-.13-8.61c-.07-4.56-.3-8.4-.73-11.98l1.5-.8-1.56.33c-.02-.15-.04-.3-.06-.45.11-.54.04-1.07-.21-1.54-.23-.44-.6-.79-1.07-.99-.33-.3-.66-.59-.99-.89-1.67-1.5-3.4-3.06-5.35-4.37l-3.66-2.45c-.51-.34-1.03-.69-1.6-1.02-.05-.97-.14-2.02-.35-3.05-.03-.12-.06-.25-.09-.36l.08-.04-.1-.04c-.41-1.25-1.39-2.17-2.75-2.55-1.65-.46-3.28-.73-4.97-.82l-1-.06-.09-.11h-7.46l-.18.05c-.14.04-.39.05-.63.06-.15,0-.31.02-.47.03l-4.08.36c-2.58.23-5.18.73-7.95,1.54-.85.25-1.59.58-2.3.9l-.33.15h-.02c-.26.07-.97.23-1.4,1.01-.24.43-.42.88-.55,1.35l-.43.2.36.08c-.09.41-.13.82-.13,1.23v2.15c-1.3.82-2.46,1.68-3.47,2.43-2.87,2.15-5.34,4.41-7.52,6.89-.71.81-.9,1.68-.99,2.35l-.21,1.6-.47,10.49-.76,19.83-.38,12.16-.71,23.77-.36,11.19-.03,3.67c-1.31,1.5-2.36,3.06-3.39,4.57-.67.99-1.36,2.01-2.11,2.99-.45.59-.96,1.12-1.5,1.69-.24.25-.47.5-.71.75-3.29,3.57-2.42,5.96-1.11,7.34.88.93,1.9,1.78,3.11,2.61l.48.33c.98.68,1.99,1.38,3.12,2,2.76,1.52,5.62,2.62,8.75,3.37l.85.21c2.51.61,5.11,1.24,7.87,1.25l12.13.06,11.87-.51c2.07-.09,4.2-.18,6.44-.47l9.97-1.29c3.92-.51,7.74-1.81,11.67-3.99.27-.15.48-.33.66-.51l.14.12.91-.59c1.95-1.26,5.21-3.37,5.69-6.7v-1.68s-.25-.97-.25-.97ZM1179.75,438.6c-1.72.07-3.35.14-5.04.06-2.43-.12-4.75-.4-7.1-.85-3.93-.74-9.2-2.77-12.84-4.54,3.86,1.53,8.12,2.61,11.35,3.16,9.45,1.62,17.89,1.65,28.43,1.18,3.04-.14,6.02-.46,9.1-.99,5.88-1.01,10.82-2.08,15.6-3.91-2.68,1.4-6.03,2.87-9.36,3.58-4.54.98-9.31,1.54-14.59,1.74l-14.14.52c-.48.02-.95.04-1.42.06ZM1166.33,330.62c1.99-1.76,4.03-3.35,6.18-5.01.53.24,1.1.4,1.72.5,6.39,1.05,14.97,1.06,21.87.02,2-.3,4.84-.85,7.33-2.18.77.6,1.49,1.12,2.23,1.62,1.34.9,2.68,1.9,4.36,3.25l1.9,1.53c-2.59,1.26-5.43,1.87-7.95,2.29-6.63,1.11-16.4,2.31-25.27,1.68l-8.54-.61c-1.39-.1-3.94-.55-5.88-1.1.67-.69,1.34-1.35,2.06-1.99ZM1192.35,322.34c-2.3.26-4.65.37-7.64.37-2.83,0-5.88-.08-9.03-.59-.37-.06-.7-.12-1.01-.19,0-.48-.02-.9-.04-1.3,0-.03,0-.06,0-.09.37.08.75.13,1.17.17,9.41.88,16.95.55,24.5-1.07.22-.05.43-.11.65-.17l.03.94c-2.49,1.15-5.73,1.6-8.63,1.93ZM1216.04,412.87c-.23.04-.47.1-.72.16-4.51,1.11-9.99.66-14.81.26-10.61-.88-19.42-2.11-26.73-3.72,6.15-.37,12.24-1.25,18.51-2.65,3.8-.85,7.52-1.72,11.26-2.92,3.64-1.17,6.58-2.33,9.27-3.62,1.18-.57,2.24-1.18,3.21-1.86l.05,1.09.08,3.17c.15,3.62.11,6.94-.12,10.12ZM1160.39,413.26l.04-3.96c1.55.83,3.1,1.49,4.79,2.05,4.44,1.45,9.31,2.6,14.89,3.53,6.35,1.06,13.04,1.88,20.47,2.5,3.16.27,6.62.51,10.03.36-4.13,1.69-8.7,2.7-12.24,3.3-8.67,1.45-17.39,1.41-25.93-.12-4.29-.77-7.42-1.75-10.47-3.26-.66-.33-1.25-.75-1.75-1.26.1-1.09.15-2.1.16-3.14ZM1210.59,384.54l-13.52-1.47c-2.96-.32-5.44-.63-7.97-1.09l-8.57-1.57c-1.94-.36-3.76-.7-5.73-.92-.76-.08-1.59.42-1.84,1.12-.16.43-.11.91.13,1.35.26.47.68.8,1.16.9l2.92.61,8.31,1.65c3.99.79,7.11,1.29,10.13,1.63l13.32,1.48c2.83.31,3.47,1.11,3.82,1.53.19.24.71.87,1.52.87.18,0,.37-.03.58-.1h0c.28-.1.53-.29.74-.53l.07,1.22.07,1.44c-.88.26-1.67.52-2.42.78-3.74,1.3-7.18,2.3-10.53,3.05-3.16.72-6.2,1.24-9.83,1.84-.64-.03-1.13.36-1.35.74-.28.49-.32,1.26.4,1.93l.43.41.6-.02c2.48-.09,5.14-.39,7.9-.86-.83.25-1.67.49-2.53.72-4.23,1.14-8.41,2.08-12.78,2.86-5.91,1.06-18.72,2.62-24.86.93-.04-.01-.14-.07-.26-.17l.26-9.79c.53.22,1.08.41,1.65.56,5.67,1.56,11.46,2.29,17.21,2.16.38,0,.67-.16.92-.3l.9-.53-.21-1.01c-.15-.74-.85-1.21-1.42-1.27l-6.63-.75c-3-.34-5.98-.87-9.11-1.62-1.14-.27-2.19-.64-3.2-1.11l.08-2.46v-.06s.34-11.01.34-11.01l.08-.06v-.71c.01-.29.02-.57.04-.86l.2-3.14-.17.13.26-8.52c.18-5.01.33-9.69.47-14.32l.1-3.79c.38.07.76.1,1.11.14.2.02.48.05.55.06,3.93,1.11,7.66,1.98,11.4,2.65,5.18.93,9.26,1.48,13.24,1.8l15.91,1.26c2.38.19,6.36.51,8.4,1.4.3.13.41.29.63.65.18.29.45.73.91,1.05l.07,3.91c-.41.31-.64.72-.79,1-.18.34-.35.65-.88,1.05-3.44,2.58-12.46,6.78-16.62,8.24-8.03,2.82-16.13,4.66-22.99,6.08-1.8.37-3.53.58-5.35.79l-1.15.14-.17,1.05-.13.92.48.51c.24.26.76.8,3.88.48,2.29-.23,4.44-.65,6.44-1.05,5.34-1.08,10.7-2.4,16.39-4.04,3.11-.9,5.93-1.91,8.61-3.1,3.06-1.36,6.34-2.86,9.61-4.64.84-.46,1.85-1,2.81-1.7l.11,4.87.42,11.76.29,5.2c-1.09-1.45-3.3-2.22-4.82-2.38ZM1213.9,349.79c-3.05-1.03-7.55-1.4-10.67-1.59-8.08-.49-14.4-1.05-20.47-1.8-1.3-.16-2.59-.34-3.88-.54,7.49-.99,14.71-2.64,21.86-4.98l.66-.21c4.29-1.4,8.73-2.84,12.6-5.42l.17,6.86.15,7.84c-.14-.06-.28-.11-.42-.16ZM1195.38,338.5c-6.08,1.7-12.32,2.96-18.4,3.7-6.2.75-10.47.92-12.7.51-.24-.04-.54-.13-.82-.22-.35-.11-.73-.22-1.11-.28l.15-5.38c2.79.99,6.27,1.41,7.88,1.55,9.36.86,16.24,1.14,25.01.13ZM1193.18,427.13c4.83-.29,9.4-1.08,13.96-2.42,3.3-.97,6.5-2.33,9.78-4.16.43-.24.85-.48,1.26-.75.6.95,1.27,1.93,2.08,3.04.66.91,1.28,1.72,1.99,2.48-3.08,1.96-7.97,3.82-11.34,4.57-6.39,1.42-14.49,2.2-24.06,2.3-4.31.05-8.49-.18-12.02-.4-6.97-.45-12.62-1.64-17.3-3.64-1.45-.62-2.58-1.19-3.54-1.79.04-.05.08-.1.11-.15.14-.18.28-.37.42-.58l.19-.28c1.59-2.31,2.52-3.65,3.07-4.42,2.74,1.87,6.06,3.01,7.95,3.55,7.78,2.26,17.78,3.22,27.44,2.64Z"/>
        <g>
          <g>
            <path d="M609.66,101.17c1.51,0,3.09.08,6.26.56,1.51-3.57,2.22-7.13,3.33-12.2-1.82-.48-2.62-1.27-2.62-2.3,0-2.61,2.14-5.55,4.52-6.34l3.65-16.72c.16-.55.24-1.11.32-1.58-4.28.79-6.5,1.98-7.69,1.98-2.54,0-4.52-2.85-4.52-5.47,0-3.64,12.28-6.1,20.92-6.1,20.45,0,23.62,10.94,23.62,16.96,0,7.61-5.55,20.53-26.94,20.53h-1.82c-.79,3.96-1.11,7.05-1.19,11.02,4.68-.4,7.77-.71,9.27-.71,2.54,0,3.49.95,3.49,3.41,0,2.69-2.06,6.26-8.32,6.26-3.72,0-7.05-.32-10.78-.24-4.28.08-8.16.24-12.05.24-2.69,0-4.2-1.03-4.2-3.25,0-3.17,1.66-6.02,4.75-6.02ZM630.58,81.75c1.03,0,2.22.08,3.49.08,8.96,0,13-5.55,13-11.33,0-6.5-6.74-8.56-11.97-8.72-.87,3.17-1.58,6.82-2.77,11.97l-1.74,8Z"/>
            <path d="M661.1,101.8c.87,0,2.22.08,3.8.16,1.58-2.06,3.33-4.68,5.47-8.08l18.86-29.88c-.16-.95-.32-1.51-.63-1.9-1.03.24-3.41.71-5.23.71-3.25,0-3.96-2.54-3.96-6.26,0-2.61,1.82-3.57,9.11-3.57h2.54c3.49,0,5.15,1.98,5.63,4.6l4.99,28.53c1.74,9.75,2.46,11.25,2.46,12.92,0,1.27-.16,2.22-.56,2.93,2.06-.08,3.65-.16,4.83-.16,2.3.08,3.25,1.27,3.25,3.17s-1.19,5.63-3.65,5.63c-2.14,0-4.12-.24-7.77-.32l-5.23-.08c-2.61,0-3.49.4-5.07.4-1.9,0-2.85-1.35-2.85-3.49,0-2.3.87-5.31,4.6-5.31.79,0,1.74.08,3.17.16-.48-.79-.87-1.82-1.03-3.25l-.24-1.82c-.79.71-1.74,1.27-3.01,1.27-1.74,0-1.98-.79-5.47-.87l-7.05-.24c-1.19,1.98-2.06,3.64-2.62,5.07,1.35,0,2.62-.08,3.64-.08,2.3,0,3.41.63,3.41,2.85,0,2.06-.79,5.78-3.88,5.78-2.14,0-9.03-.48-10.62-.48-3.33,0-6.89.24-7.29.24-2.46,0-3.72-1.19-3.72-3.41,0-2.93,1.82-5.23,4.12-5.23ZM682.65,89.68c1.43.08,2.77.16,3.33.16,3.01,0,4.6-.63,6.18-.63.16,0,.32,0,.4.08l-1.74-13.16c-.95,1.74-2.06,3.72-3.01,5.23l-5.15,8.32Z"/>
            <path d="M727.82,101.72c1.51,0,3.49.16,7.61.24,1.59-3.65,2.3-7.21,3.41-12.44l4.75-22.19c.48-2.14.63-3.65.71-5.31-2.85.16-5.39.24-7.77.24-2.69,0-4.2-1.03-4.2-3.25,0-3.17,1.66-6.02,4.76-6.02.87,0,3.09.32,5.15.63,12.12-.16,19.18-1.03,21.71-1.03s3.49.95,3.49,3.41c0,2.7-2.06,6.18-8.32,6.18-1.43,0-2.77-.08-4.36-.4-1.27,3.88-2.14,8-3.64,15.14l-2.14,9.99c-1.19,5.78-1.66,9.27-1.66,14.9,6.58-.24,14.9-.71,22.35-1.43,3.09-4.04,4.04-7.37,4.75-12.12.4-2.77,3.17-3.88,5.86-3.88s3.72,1.19,3.72,3.88c0,6.5-5.86,23.22-9.43,23.22-2.77,0-7.85-1.35-17.2-1.35-14.03,0-25.44,1.51-31.07,1.51-2.62,0-3.96-1.35-3.96-3.72,0-3.01,1.9-6.18,5.47-6.18Z"/>
            <path d="M798.12,100.69c1.19,0,2.54.08,3.88.16,1.11-1.82,2.22-4.12,3.49-6.97l13.55-31.54c-1.11.4-2.14.63-3.17.71-3.25.16-4.12-2.3-4.28-6.02-.16-2.62,1.58-4.04,8.88-4.04h4.04c4.68,0,5.55,1.82,6.26,5.15l4.2,20.53c.87,4.2,1.66,8.32,2.38,11.97l16.25-32.1c-.08-.48-.16-.95-.16-1.35,0-2.54,1.35-4.2,6.82-4.2h2.77c7.29,0,9.11.95,9.11,3.57,0,3.72-.71,6.26-3.96,6.26-1.19,0-2.54-.24-3.72-.56l2.7,23.85c.95,8.08,1.98,11.89,1.98,14.19,0,.4,0,.71-.08.95,2.77-.08,5.07-.16,5.94-.16,2.3,0,3.25,1.27,3.25,3.17,0,2.62-1.11,6.34-4.04,6.34-2.3,0-4.36-.24-8.16-.32l-5.63-.08c-3.72-.08-4.99.4-7.29.4-1.9,0-2.85-1.35-2.85-3.49,0-2.3.87-5.31,4.6-5.31.55,0,2.3-.08,4.44-.16-.24-.79-.4-1.82-.56-3.09l-2.77-26.23-16.48,32.41c0,3.25-1.19,4.52-4.52,4.52s-4.28-1.11-5.23-6.26l-6.02-31.7-8.56,22.51c-1.35,3.41-2.14,5.94-2.77,7.92,1.98.24,3.8.32,5.39.32,2.3,0,3.41.63,3.41,2.85,0,2.06-.79,5.78-3.88,5.78-2.3,0-9.75-.48-11.49-.48-3.64,0-7.61.24-8.08.24-2.46,0-3.72-1.19-3.72-3.41,0-3.57,1.82-6.34,4.12-6.34Z"/>
            <path d="M927.85,95.62c0-1.82,1.66-6.34,3.41-13.16-1.11-.55-1.74-1.51-1.74-2.54,0-1.51,1.35-4.6,3.72-6.02.16-.95.32-1.9.48-2.93.71-4.2.95-7.05,1.19-9.35-2.69.24-5.23.48-7.29.48-3.96,0-5.39-1.43-5.39-3.49,0-2.85,2.93-5.86,5.47-5.86,2.06,0,5.39.4,10.38.4,3.88,0,7.77-.24,10.46-.24,9.67,0,14.9,4.6,14.9,12.2,0,4.44-2.14,8.8-4.68,11.41,3.96,2.38,6.81,6.58,6.81,12.76,0,9.27-7.13,22.35-29.16,22.35-11.73,0-19.02-4.83-19.02-8.4,0-2.22,2.54-5.15,5.07-5.15,3.64,0,4.83,4.91,16.01,4.91,12.92,0,17.2-5.94,17.2-13.31,0-4.2-2.06-7.45-9.75-7.45-2.06,0-4.2.24-6.34.4-.48,3.01-.87,5.39-1.19,7.05.71,1.51,1.51,4.04,1.51,5.94,0,1.66-2.46,4.04-7.21,4.04-3.64,0-4.83-1.66-4.83-4.04ZM951.7,74.14c.87-2.3,2.77-4.52,2.77-8.16,0-2.93-2.62-5.07-9.11-5.07h-.71c-.79,2.93-2.06,7.45-3.33,12.68,2.3.24,4.99.48,8.64.48.55,0,1.19,0,1.74.08Z"/>
            <path d="M977.86,107.11c0-3.01,1.9-6.18,5.47-6.18,1.03,0,3.65.16,6.58.24,1.35-3.17,2.06-6.58,3.01-11.65l4.28-22.19c.48-2.54.63-4.12.71-5.31h-2.46c-1.98,0-4.83.16-6.89.16-2.62,0-3.96-1.35-3.96-3.72,0-2.85,1.9-5.86,5.47-5.86,5.07,0,18.39,1.19,28.69,1.19,5.63,0,9.59-.79,11.81-.79,3.25,0,6.1,2.93,6.1,12.44,0,3.01-1.03,4.12-3.33,4.12-3.8,0-6.42-3.01-9.27-6.74-4.6-.4-9.83-.56-15.69-.71-1.03,3.41-2.3,8.72-3.25,14.03,2.22-.16,5.39-.4,7.92-.4,4.91,0,7.21,1.82,7.21,5.86,0,2.85-2.38,4.76-5.94,4.76-3.33,0-6.97-.56-10.7-1.82l-.71,4.2c-1.03,5.94-1.27,9.43-1.27,12.68,9.67-.08,14.98-.4,20.6-1.35,1.51-2.22,2.46-4.75,3.09-8.32.48-2.77,2.77-3.88,5.15-3.88,3.25,0,4.44,1.19,4.44,3.88,0,5.71-5.39,18.94-8.64,18.94-2.77,0-8-.71-17.36-.71-12.28,0-22.11.87-27.1.87-2.62,0-3.96-1.35-3.96-3.72Z"/>
            <path d="M1048.31,101.8c.87,0,2.22.08,3.8.16,1.58-2.06,3.33-4.68,5.47-8.08l18.86-29.88c-.16-.95-.32-1.51-.63-1.9-1.03.24-3.41.71-5.23.71-3.25,0-3.96-2.54-3.96-6.26,0-2.61,1.82-3.57,9.11-3.57h2.54c3.49,0,5.15,1.98,5.63,4.6l4.99,28.53c1.74,9.75,2.46,11.25,2.46,12.92,0,1.27-.16,2.22-.56,2.93,2.06-.08,3.65-.16,4.83-.16,2.3.08,3.25,1.27,3.25,3.17s-1.19,5.63-3.65,5.63c-2.14,0-4.12-.24-7.77-.32l-5.23-.08c-2.61,0-3.49.4-5.07.4-1.9,0-2.85-1.35-2.85-3.49,0-2.3.87-5.31,4.6-5.31.79,0,1.74.08,3.17.16-.48-.79-.87-1.82-1.03-3.25l-.24-1.82c-.79.71-1.74,1.27-3.01,1.27-1.74,0-1.98-.79-5.47-.87l-7.05-.24c-1.19,1.98-2.06,3.64-2.62,5.07,1.35,0,2.62-.08,3.64-.08,2.3,0,3.41.63,3.41,2.85,0,2.06-.79,5.78-3.88,5.78-2.14,0-9.03-.48-10.62-.48-3.33,0-6.89.24-7.29.24-2.46,0-3.72-1.19-3.72-3.41,0-2.93,1.82-5.23,4.12-5.23ZM1069.87,89.68c1.43.08,2.77.16,3.33.16,3.01,0,4.6-.63,6.18-.63.16,0,.32,0,.4.08l-1.74-13.16c-.95,1.74-2.06,3.72-3.01,5.23l-5.15,8.32Z"/>
            <path d="M1111.24,91.74c0-20.76,20.21-38.75,40.97-38.75,1.66,0,3.25.24,4.28,1.43h1.27c2.54,0,5.23,1.58,5.23,4.68,0,6.97-2.69,15.37-6.42,15.37-2.46,0-6.66-1.59-6.66-4.52,0-2.46,1.35-4.28,2.06-7.05-1.82.08-4.28,0-7.53-.24-11.89,3.17-22.66,14.82-22.66,27.34,0,8.8,4.04,12.36,12.28,12.36,3.88,0,6.74-.63,9.19-1.27,3.25-3.96,7.13-7.21,9.99-7.21,2.3,0,3.33,1.11,3.33,4.12,0,5.63-2.54,12.44-7.45,12.44-1.27,0-2.77-.08-4.83-.4-4.2,1.03-8.24,1.59-12.12,1.59-13.79,0-20.92-6.18-20.92-19.89Z"/>
            <path d="M1174,101.17c1.59,0,3.41.08,7.29.63,1.51-3.33,2.3-6.9,3.33-12.28l4.28-22.19c.48-2.54.63-4.2.71-5.39-4.52.32-7.29.71-8.8.71-2.54,0-3.49-.95-3.49-3.41,0-2.7,2.06-6.26,8.32-6.26,3.72,0,7.85.32,11.57.24,4.2-.08,6.42-.24,10.3-.24,2.7,0,4.2,1.03,4.2,3.25,0,3.17-1.66,6.02-4.75,6.02-1.58,0-3.25-.08-6.82-.55-1.03,3.49-2.46,9.43-3.49,15.3l-.24,1.35c.95-.24,1.9-.32,2.77-.32,4.04,0,10.46.71,18.23.71,3.01,0,4.6-.63,6.18-.63.24,0,.56.08.79.08l2.06-10.86c.48-2.46.63-4.04.71-5.23-3.57.32-5.94.56-7.21.56-2.54,0-3.49-.95-3.49-3.41,0-2.7,2.06-6.26,8.32-6.26,3.72,0,6.26.32,9.99.24,4.2-.08,8-.24,11.89-.24,2.69,0,4.2,1.03,4.2,3.25,0,3.17-1.66,6.02-4.76,6.02-1.74,0-3.64-.08-8.24-.79h-.08c-1.11,3.49-2.54,9.59-3.57,15.53l-2.06,11.73c-1.03,5.94-1.27,9.43-1.27,12.68,4.28-.32,6.97-.63,8.4-.63,2.54,0,3.49.95,3.49,3.41,0,2.69-2.06,6.26-8.32,6.26-3.72,0-7.85-.32-11.57-.24-4.2.08-6.42.24-10.3.24-2.69,0-4.2-1.03-4.2-3.25,0-3.17,1.66-6.02,4.76-6.02,1.43,0,2.93.08,5.78.48,1.51-3.33,2.22-6.82,3.25-12.12l.48-2.54c-.16.08-.4.08-.63.08-1.74,0-1.98-.87-5.47-.87-10.86,0-17.35-.32-21.32-.87l-.63,3.41c-1.03,5.86-1.27,9.35-1.27,12.6,3.33-.32,5.55-.55,6.82-.55,2.54,0,3.49.95,3.49,3.41,0,2.69-2.06,6.26-8.32,6.26-3.72,0-6.26-.32-9.99-.24-4.2.08-8,.24-11.89.24-2.69,0-4.2-1.03-4.2-3.25,0-3.17,1.66-6.02,4.75-6.02Z"/>
          </g>
          <g>
            <path d="M567.14,135.38l.3,8.61c.13,3.54-.49,5.81-1.85,6.78-1.36.98-6.38,3.64-15.06,8-8.68,4.36-16.97,9.42-24.88,15.19,2.96-4.67,5.69-8.14,8.19-10.43,2.5-2.28,5.88-5.15,10.16-8.59-3.85-1.39-9.15-1.96-15.9-1.73-10.47.37-21.68,2.83-33.65,7.39-11.97,4.56-22.09,9.86-30.37,15.89-8.28,6.04-12.35,11-12.22,14.88.07,2.03,1.41,3.65,4.04,4.87,2.62,1.22,6.79,2.09,12.51,2.61,5.72.52,12.85.76,21.38.71,8.53-.04,19.05-.28,31.54-.72,9.12-.32,14.99-.19,17.63.4,2.64.59,4,2.1,4.09,4.55.11,3.12-1.31,6.74-4.25,10.86-2.94,4.12-6.93,6.64-11.97,7.58-7.8,1.54-14.02,2.83-18.63,3.88-4.61,1.05-10.07,2.74-16.36,5.07-6.3,2.33-13.26,5.62-20.89,9.86-11.35,6.48-20.17,12.96-26.45,19.43-6.28,6.47-9.34,12.11-9.17,16.93.14,4.14,2.58,7.28,7.3,9.44,4.72,2.16,11.43,3.09,20.12,2.78,29.96-1.05,60-15.57,90.12-43.58.46,8.27-.2,15.58-1.96,21.93-1.77,6.36-5.58,12.51-11.46,18.46-4.9,4.99-12.14,9.85-21.74,14.58-9.6,4.73-20.11,8.6-31.54,11.62-11.43,3.02-22.21,4.71-32.34,5.06-11.73.41-21.54-2.06-29.41-7.4-7.88-5.35-11.98-12.66-12.3-21.94-.24-6.75,1.39-13.53,4.87-20.32,3.48-6.8,8.95-13.39,16.42-19.78,7.47-6.39,17-12.28,28.6-17.67,11.6-5.39,25.03-9.79,40.29-13.2,2.18-.5,3.25-1.21,3.22-2.14-.04-1.01-1.34-1.58-3.93-1.7-2.58-.12-7.31-.1-14.2.05-6.88.16-12.95.07-18.2-.25-5.25-.32-10.82-1.23-16.7-2.71-6.06-1.65-10.79-4.74-14.2-9.26-3.41-4.53-5.21-9.62-5.41-15.28-.25-7.26,2.11-14.65,7.09-22.18,4.98-7.53,12.13-14.41,21.46-20.65,9.33-6.24,20.71-11.39,34.13-15.45,13.42-4.06,28.19-6.37,44.31-6.93,9.28-.33,15.78-.02,19.49.9,3.71.93,5.89,2.25,6.54,3.95.65,1.71,1.06,4.93,1.22,9.65Z"/>
            <path d="M622.57,270.6c11.29-10.7,20.98-20.02,29.07-27.95,8.09-7.93,14.44-14.17,19.06-18.73,4.61-4.56,8.68-8.42,12.21-11.58,3.52-3.17,5.79-4.77,6.81-4.8,1.94-.15,3.86,1.79,5.78,5.82,1.92,4.03,2.92,7.27,3,9.72.06,1.6-2.49,5.47-7.64,11.61-5.15,6.14-9,11.02-11.53,14.66-2.53,3.64-3.74,7.4-3.6,11.28.08,2.28.9,4.09,2.47,5.43,1.57,1.34,3.41,1.97,5.52,1.9,2.45-.09,5.34-1.45,8.67-4.11s8.55-7.35,15.67-14.11l.31,8.99c-7.1,7.18-13.56,13.38-19.38,18.61-5.82,5.23-10.9,9.17-15.24,11.81-4.35,2.64-8,4.02-10.95,4.12-2.62.09-4.84-.82-6.69-2.75-1.84-1.92-2.81-4.36-2.92-7.31-.1-2.87.3-5.8,1.21-8.79.91-2.99,2.35-6.55,4.32-10.67,1.97-4.13,4.58-9.1,7.85-14.91,3.26-5.82,6.24-11.14,8.95-15.97-8.36,7.31-15.77,14.33-22.21,21.06-6.44,6.73-11.69,12.6-15.74,17.6-4.05,5-7.25,8.94-9.6,11.81-4.54,5.4-8.84,8.17-12.89,8.31-4.39.15-6.69-2.89-6.91-9.14-.09-2.53,1.4-7.13,4.46-13.78,3.06-6.66,7.46-15.15,13.18-25.49.48-.69.7-1.76.65-3.19-.06-1.69-.93-2.5-2.62-2.44-1.86.07-4.48,1.91-7.86,5.54-3.38,3.62-9.9,11.18-19.55,22.67-2.68,3.22-5.68,7.4-9.01,12.55-3.33,5.15-5.72,8.59-7.18,10.33-1.46,1.74-2.95,2.64-4.47,2.69-3.04.11-5.96-2.5-8.76-7.81-2.81-5.31-4.33-11.55-4.58-18.73-.18-5.23.52-9.78,2.12-13.64,1.59-3.86,4.11-8.68,7.54-14.46,5.37-8.38,9.79-14.39,13.25-18.02,3.47-3.63,7.18-5.51,11.15-5.65,2.45-.09,4.53.33,6.25,1.24,1.72.91,2.61,2.21,2.67,3.9.06,1.77-1.38,4.74-4.32,8.9-2.94,4.16-6.7,8.47-11.27,12.94-2.45,2.54-4.75,5.64-6.9,9.3-2.15,3.67-3.2,6.3-3.15,7.91.08,2.28,1.01,3.39,2.78,3.33,1.44-.05,4.96-3.13,10.58-9.24,5.62-6.11,11.79-12.77,18.51-19.98,6.72-7.21,12.98-13.21,18.76-18.02,5.79-4.81,10.75-7.28,14.89-7.43,2.53-.09,4.65.79,6.37,2.63,1.71,1.84,2.62,4.15,2.71,6.94.07,1.86-1.08,5.26-3.44,10.2-2.36,4.94-5.85,11.06-10.45,18.36-4.61,7.3-10.57,16.15-17.9,26.55Z"/>
            <path d="M790.99,247.61l.29,8.23c-8.58,5.88-15.41,8.9-20.47,9.08-2.78.1-5.76-.26-8.91-1.08-7.26,9.89-13.53,17.16-18.82,21.83-5.29,4.66-10.68,7.09-16.16,7.28-6.33.22-11.32-2.94-14.97-9.49-3.65-6.55-5.65-14.76-6-24.63-.47-13.42,3.07-28.18,10.62-44.29,7.55-16.11,16.8-31.26,27.76-45.46,10.95-14.2,21.63-26,32.04-35.41,10.4-9.4,17.5-14.17,21.3-14.31,3.63-.13,5.53,2.3,5.7,7.28.77,22.11-26.24,61.68-81.03,118.69-.12,1.52-.1,4.52.06,9,.41,11.65,3.73,17.36,9.98,17.15,2.45-.09,4.88-1.16,7.3-3.23,2.42-2.07,6.11-5.98,11.06-11.73-2.18-4.49-3.32-7.83-3.39-10.02-.16-4.64,1.56-9.73,5.17-15.26,3.61-5.53,7.77-10.35,12.49-14.44,4.71-4.09,8.17-6.18,10.36-6.26,3.46-.12,5.28,2.31,5.45,7.29.13,3.8-.7,8.39-2.5,13.78-1.8,5.39-4.48,11.56-8.04,18.53,1.48,1.13,2.65,1.96,3.51,2.48.86.52,2.14.75,3.83.69,3.88-.14,8.34-2.02,13.36-5.66ZM726.01,230.86c4.26-3.95,8.51-8.6,12.76-13.95s10.45-13.53,18.6-24.54c7.83-10.58,13.96-19.39,18.41-26.44,4.44-7.04,7.77-12.88,9.97-17.52,2.2-4.64,3.28-7.8,3.22-9.49-.04-1.27-.4-1.89-1.08-1.86-1.86.06-5.61,3.26-11.26,9.58-5.65,6.33-12.05,14.93-19.19,25.83-9.87,15.05-17,26.37-21.38,33.96-4.38,7.59-7.73,15.73-10.05,24.44Z"/>
            <path d="M790.05,257.15l-.29-8.23c4.37-5.56,7.67-10.28,9.9-14.16-2.73-.83-4.74-1.9-6.01-3.21-1.27-1.31-1.95-3.31-2.05-6.01-.11-3.04,1.03-6.92,3.39-11.65,2.37-4.73,5.34-9.19,8.91-13.37,3.57-4.18,6.86-6.91,9.85-8.2,1.16-.63,2.29-.97,3.39-1.01,1.69-.06,2.56.71,2.62,2.32.05,1.44-1.16,4.39-3.62,8.87,17.29-3.31,28.22-5.04,32.78-5.2,1.77-.06,3,.07,3.69.38,1.46.71,2.7,2.44,3.73,5.19,1.03,2.75,1.59,5.52,1.69,8.31.06,1.77-.65,3.72-2.14,5.84-1.49,2.12-4.06,5.23-7.72,9.33-4.31,4.97-7.88,10.33-10.72,16.09-2.84,5.76-4.21,10.08-4.11,12.95.14,3.97,2.65,5.86,7.55,5.69,5.15-.18,13.91-5.72,26.29-16.64l.3,8.48c-6.75,7.59-12.33,13.57-16.74,17.95-4.41,4.38-8.51,7.88-12.31,10.51-3.8,2.63-7.21,3.99-10.25,4.1-3.54.12-6.56-1.4-9.03-4.56-2.48-3.17-3.82-7.83-4.04-13.99-.13-3.63.66-7.8,2.35-12.5,1.69-4.71,4.24-9.85,7.64-15.41,3.39-5.57,7.24-11.13,11.52-16.69-2.35.59-4.99,1.21-7.92,1.86-2.94.65-6.04,1.33-9.31,2.04-3.27.71-5.79,1.26-7.55,1.66-4.87,10.65-12.13,20.41-21.79,29.28Z"/>
            <path d="M948.08,241.61l.3,8.48c-5.39,5.26-9.75,8.79-13.07,10.6-3.32,1.81-8.15,2.65-14.49,2.53-10.52,13.38-19.95,20.22-28.31,20.51-4.73.16-9.09-1.24-13.08-4.23-3.99-2.99-7.24-7.14-9.75-12.46-2.51-5.32-3.88-11.31-4.11-17.98-.19-5.4,1.39-11.46,4.75-18.17,3.36-6.71,7.78-13.01,13.28-18.91,5.5-5.9,11.44-10.71,17.81-14.44,6.38-3.73,12.35-5.69,17.92-5.89,3.97-.14,7.11.37,9.43,1.51,2.32,1.15,3.52,2.81,3.6,5.01.06,1.69-.85,3.66-2.71,5.93,3.23.56,5.46,1.61,6.7,3.12,1.24,1.52,1.92,4.35,2.07,8.48.14,4.05-.63,9.19-2.31,15.42-1.68,6.23-4.08,12.1-7.18,17.62l2.36,2.2,1.9-.07c1.43-.05,2.84-.46,4.2-1.22,1.37-.76,2.59-1.57,3.66-2.41,1.07-.84,3.41-2.72,7.03-5.63ZM920.84,209.23c-6.86,4.47-12.72,8.49-17.58,12.09-4.86,3.59-8.96,7.2-12.3,10.82-3.34,3.62-5.54,7.23-6.59,10.81-1.78,9.53-2.66,14.67-2.63,15.43.2,5.57,4.17,8.22,11.94,7.95,3.63-.13,9.59-3.46,17.9-10.01-1.57-3.92-2.42-7.69-2.55-11.32-.19-5.32.72-10.78,2.72-16.38,2-5.6,5.03-12.07,9.08-19.39Z"/>
            <path d="M1008.36,239.76l.32,9.24c-7.82,10.84-15.18,19.06-22.08,24.67-6.9,5.61-12.84,8.5-17.82,8.67-6.92.24-12.2-3.21-15.82-10.35-3.63-7.14-5.59-15.02-5.9-23.62-.12-3.29.11-6.45.68-9.47.57-3.02,1.29-5.52,2.15-7.49.86-1.97,2.48-5.07,4.87-9.3,11.33-19.07,21.98-28.78,31.94-29.13,5.15-.18,7.79,1.71,7.93,5.68.09,2.7-1.43,6.98-4.56,12.84-3.13,5.86-5.97,10.05-8.5,12.59-7.1,7.35-11.72,12.45-13.85,15.31-2.14,2.86-3.15,6.07-3.02,9.61.11,3.04,1.33,5.53,3.68,7.48,2.35,1.95,5.34,2.86,8.97,2.73,3.97-.14,8.28-1.75,12.95-4.83,4.67-3.08,10.69-7.96,18.06-14.64ZM997.77,183.47c-2.11.07-4.14-.66-6.1-2.2-1.95-1.54-2.98-3.53-3.06-5.98-.13-3.71,1.5-7.91,4.88-12.59s6.98-7.09,10.78-7.22c2.53-.09,4.67.62,6.41,2.12,1.74,1.5,2.67,3.73,2.77,6.68.13,3.63-1.47,7.7-4.77,12.21-3.31,4.51-6.94,6.83-10.91,6.97Z"/>
            <path d="M1065.08,238.03c-7.13,8.7-13.53,16.11-19.19,22.22-5.66,6.11-10.27,10.69-13.84,13.73-3.57,3.04-6.03,4.58-7.38,4.63-2.2.08-4.73-1.61-7.59-5.06-2.87-3.45-5.37-7.88-7.5-13.3-2.13-5.42-3.3-10.95-3.5-16.61-.28-8.19,3.39-16.58,11.04-25.17,7.64-8.59,16.43-15.8,26.37-21.65,9.94-5.84,17.44-8.85,22.5-9.02,4.13-.14,8.28,2.33,12.43,7.43,6.02-13.82,11.78-26.1,17.28-36.86,5.5-10.75,10.14-18.78,13.93-24.06,3.79-5.29,6.52-7.96,8.21-8.02,1.86-.06,3.6.78,5.22,2.54,1.62,1.76,2.48,3.78,2.56,6.06.15,4.39-2.79,12.03-8.83,22.93-6.04,10.9-12.01,21.52-17.9,31.87-5.89,10.35-10.9,20.52-15.03,30.5-4.13,9.99-6.05,19.16-5.76,27.52.26,7.6,2.84,11.31,7.74,11.14,2.95-.1,6.61-1.9,10.97-5.39,4.35-3.49,10.53-9.3,18.53-17.44l.32,9.24c-17.41,24.19-31.05,36.45-40.93,36.79-3.97.14-6.87-1.28-8.71-4.26-1.84-2.98-2.86-7.46-3.07-13.46-.28-8.1.42-16.87,2.12-26.31ZM1073.37,206.82c-7.42,2.79-16.1,7.18-26.03,13.14-9.93,5.97-15.92,10.04-17.95,12.23-1.8,1.75-3.33,4.98-4.61,9.67-1.27,4.69-1.87,8.22-1.79,10.58.05,1.44.51,2.6,1.39,3.5.87.9,1.95,1.33,3.21,1.28,1.18-.04,2.51-.59,4-1.66s3.84-3.13,7.07-6.2c3.23-3.07,5.34-5.05,6.32-5.92,1.39-1.32,4.48-4.15,9.27-8.5,4.79-4.35,8.29-7.75,10.48-10.19,2.2-2.44,4.05-5.15,5.55-8.12,1.5-2.97,2.53-6.24,3.08-9.8Z"/>
            <path d="M1135.75,239.88l.11,3.17c.18,4.98,1.53,8.82,4.08,11.52,2.54,2.7,5.8,3.98,9.77,3.84,4.13-.14,8.38-1.26,12.75-3.36,4.36-2.1,8.68-4.82,12.96-8.18,4.28-3.36,9.49-7.85,15.63-13.48l.27,7.72c-9.14,11.81-17.78,20.92-25.92,27.33-8.14,6.41-16.52,9.77-25.13,10.07-7.51.26-13.57-2.44-18.16-8.11-4.59-5.67-7.06-13.57-7.42-23.7-.31-8.86,1.48-16.97,5.36-24.33,3.88-7.36,10.37-15.21,19.46-23.56,6.22-5.71,12.45-10.07,18.68-13.07,6.23-3.01,11.84-4.6,16.82-4.77,3.97-.14,7.14.66,9.53,2.39,2.39,1.73,3.64,4.42,3.77,8.04.19,5.32-1.61,10.68-5.4,16.1-3.78,5.41-9.66,10.86-17.62,16.33-7.97,5.47-17.81,10.83-29.54,16.05ZM1136.73,231.6c7.49-3.22,13.86-7.12,19.11-11.7,5.25-4.58,9.09-8.91,11.52-13.01,2.43-4.1,3.62-7.08,3.55-8.93-.07-1.94-.99-2.88-2.76-2.82-1.52.05-3.95,1.11-7.31,3.17-3.35,2.06-6.72,4.71-10.12,7.96-3.39,3.25-6.41,7.03-9.05,11.34-2.64,4.32-4.29,8.98-4.96,13.99Z"/>
            <path d="M1190.12,243.17l-.29-8.23c4.37-5.56,7.67-10.28,9.9-14.16-2.73-.83-4.74-1.9-6.01-3.21-1.27-1.31-1.95-3.31-2.05-6.01-.11-3.04,1.03-6.92,3.39-11.65,2.37-4.73,5.34-9.19,8.91-13.37,3.57-4.18,6.86-6.91,9.86-8.2,1.16-.63,2.29-.97,3.39-1.01,1.69-.06,2.56.71,2.62,2.32.05,1.44-1.16,4.39-3.62,8.87,17.29-3.31,28.22-5.04,32.78-5.2,1.77-.06,3,.07,3.69.38,1.46.71,2.7,2.44,3.73,5.19,1.03,2.75,1.59,5.52,1.69,8.31.06,1.77-.65,3.72-2.14,5.84-1.49,2.12-4.06,5.23-7.72,9.33-4.31,4.97-7.88,10.33-10.72,16.09-2.84,5.76-4.21,10.08-4.11,12.95.14,3.97,2.65,5.86,7.55,5.69,5.15-.18,13.91-5.72,26.29-16.64l.3,8.48c-6.75,7.59-12.33,13.57-16.74,17.95-4.41,4.38-8.51,7.88-12.31,10.51-3.8,2.63-7.21,3.99-10.25,4.1-3.54.12-6.56-1.4-9.03-4.56-2.48-3.17-3.82-7.83-4.04-13.99-.13-3.63.66-7.8,2.35-12.5,1.69-4.71,4.24-9.85,7.64-15.41,3.39-5.57,7.24-11.13,11.52-16.69-2.35.59-4.99,1.21-7.92,1.86-2.94.65-6.04,1.33-9.31,2.04-3.27.71-5.79,1.26-7.55,1.66-4.87,10.65-12.13,20.41-21.79,29.28Z"/>
            <path d="M1325.29,233.64l-21.87,19.9c-10.39,9.74-17.4,14.68-21.03,14.8-3.29.12-6.88-3.54-10.78-10.97-3.89-7.43-5.94-13.97-6.14-19.62-.17-4.81.43-8.91,1.79-12.29,1.36-3.38,3.76-7.8,7.21-13.24,4.9-7.35,9.62-13.6,14.18-18.75,4.55-5.14,8.6-9.15,12.13-12.02,3.53-2.87,6.02-4.33,7.45-4.38,2.28-.08,4.53,1.03,6.77,3.31,2.23,2.29,3.39,4.7,3.48,7.23.06,1.6-1.01,4.22-3.21,7.85-2.2,3.62-5.71,8.25-10.54,13.87-4.83,5.62-11.59,12.38-20.27,20.29l-2.16,7.05c-.63,1.38-.92,2.57-.89,3.58.08,2.28,1.26,3.38,3.54,3.3,2.36-.08,7.81-3.27,16.33-9.57,8.53-6.3,17.72-14.69,27.58-25.17,3.83-4.1,7-7.72,9.51-10.85s4.77-6.06,6.79-8.79c2.02-2.73,3.7-4.8,5.04-6.2,1.34-1.4,2.56-2.16,3.66-2.28,2.1-.33,3.78.5,5.03,2.49,1.25,1.98,1.95,4.96,2.09,8.93.08,2.28-.83,5.16-2.74,8.65-1.91,3.49-5.5,9.44-10.78,17.87-5.28,8.42-10.54,17.14-15.76,26.16-5.22,9.01-10.51,19.15-15.86,30.41.24-.26,2.75-2.89,7.52-7.87,4.77-4.98,9.8-10.18,15.11-15.61,5.3-5.42,9.67-9.78,13.11-13.07,3.43-3.29,7.74-7.13,12.91-11.54l.3,8.48c-10.97,12.64-20.88,24.6-29.74,35.9-8.86,11.29-15.69,20.32-20.48,27.08-4.79,6.76-7.59,10.7-8.4,11.83-2.18,3.03-4.13,5.87-5.85,8.51-1.73,2.64-3.18,4.67-4.35,6.11-1.18,1.43-2.14,2.17-2.9,2.19-1.77.06-3.42-1.64-4.93-5.09-1.52-3.46-2.32-6.53-2.41-9.23-.09-2.45.3-4.62,1.17-6.51,5.6-13.88,18.4-38.12,38.4-72.71Z"/>
          </g>
          <g>
            <path d="M859.91,407.4v6.53c-11.26,12.53-21.59,22.87-31.01,31.01-9.42,8.14-18.61,14.41-27.59,18.8-8.98,4.39-17.66,6.58-26.03,6.58-7.24,0-13.45-1.44-18.65-4.32-5.19-2.88-9.11-7.09-11.76-12.61-2.65-5.53-3.97-12.08-3.97-19.65,0-5.96.96-12.28,2.86-18.95,1.91-6.67,4.67-13.4,8.29-20.2,3.62-6.8,8.06-13.82,13.32-21.06,5.26-7.24,11.44-14.84,18.55-22.82,7.37-8.24,14.64-15.36,21.81-21.36,7.17-6,13.67-10.7,19.5-14.12,5.83-3.42,11.24-5.96,16.23-7.64,4.99-1.67,9.13-2.51,12.41-2.51s6.2.8,8.54,2.41c2.34,1.61,4.15,3.95,5.43,7.04,1.27,3.08,1.91,6.63,1.91,10.66,0,7.57-2.58,16-7.74,25.28-5.16,9.28-11.59,18.24-19.3,26.89-7.71,8.64-15.06,15.7-22.06,21.16-7,5.46-12.05,8.19-15.13,8.19-2.08,0-4-.82-5.78-2.46-1.78-1.64-2.66-3.5-2.66-5.58,0-3.82,2.03-8.44,6.08-13.87,4.05-5.43,8.48-10.4,13.27-14.93,4.79-4.52,7.65-6.78,8.59-6.78.47,0,.7.2.7.6,0,.6-.35,1.64-1.06,3.12-.7,1.47-1.06,2.38-1.06,2.71,0,.54.2.8.6.8,1.14,0,4.42-3.05,9.85-9.15,5.43-6.1,10.4-12.82,14.93-20.15,4.52-7.34,6.78-13.35,6.78-18.04,0-1.94-.42-3.43-1.26-4.47-.84-1.04-2.1-1.56-3.77-1.56-4.69,0-11.81,3.8-21.36,11.41-9.55,7.61-19.33,17.29-29.35,29.05-10.02,11.76-18.38,23.91-25.08,36.44-6.7,12.53-10.05,23.55-10.05,33.07,0,5.49.82,10.09,2.46,13.77,1.64,3.68,4.05,6.53,7.24,8.54,3.18,2.01,7.02,3.01,11.51,3.01,9.72,0,20.74-3.79,33.07-11.36,12.33-7.57,25.9-18.73,40.71-33.47Z"/>
            <path d="M907.05,406.7v7.44c-14,18.56-25.4,27.84-34.17,27.84-4.76,0-8.49-2.6-11.21-7.79-2.71-5.19-4.07-12.01-4.07-20.45,0-6.83,1.61-14.96,4.83-24.37,3.22-9.41,7.52-18.96,12.92-28.65,5.39-9.68,10.99-18.12,16.78-25.33,5.8-7.2,11.17-12.25,16.13-15.13,2.01-1.21,3.58-1.81,4.72-1.81,1.41,0,2.34.62,2.81,1.86.47,1.24.7,3.37.7,6.38,0,9.31-3.79,20.76-11.36,34.32-7.57,13.57-18.13,27.42-31.66,41.56-.67,3.48-1,6.17-1,8.04,0,4.29.92,7.77,2.76,10.45,1.84,2.68,4.4,4.02,7.69,4.02,1.67,0,3.48-.65,5.43-1.96,1.94-1.31,3.99-2.93,6.13-4.87,2.14-1.94,6.33-5.8,12.56-11.56ZM877,388.61c3.48-3.42,6.85-7.3,10.1-11.66,3.25-4.35,6.32-9.01,9.2-13.97,2.88-4.96,5.14-9.41,6.78-13.37,1.64-3.95,2.46-6.94,2.46-8.95,0-1.54-.54-2.31-1.61-2.31-.4,0-1.17.37-2.31,1.11-4.09,3.35-8.68,9.9-13.77,19.65-5.09,9.75-8.71,19.58-10.86,29.5Z"/>
            <path d="M953.49,400.97c-9.72,12.87-17.1,22.01-22.16,27.44-5.06,5.43-9.2,8.14-12.41,8.14-2.55,0-4.89-1.06-7.04-3.17-2.15-2.11-3.8-4.96-4.98-8.54-1.17-3.58-1.76-7.42-1.76-11.51,0-2.68.25-5.09.75-7.24.5-2.14,1.46-4.51,2.86-7.09,1.41-2.58,3.27-5.38,5.58-8.39,2.31-3.01,5.14-6.43,8.49-10.25,2.01-2.35,3.7-4.32,5.08-5.93,1.37-1.61,2.71-2.7,4.02-3.27,1.31-.57,3.43-.85,6.38-.85,2.14,0,4.19.29,6.13.85,1.94.57,2.91,1.16,2.91,1.76,0,1.21-.99,3.38-2.96,6.53-1.98,3.15-5.16,6.99-9.55,11.51-4.39,4.52-9.47,8.96-15.23,13.32-1.27,3.95-1.91,6.97-1.91,9.05,0,2.88,1.11,4.32,3.32,4.32.8,0,2.14-.69,4.02-2.06,1.87-1.37,5.04-4.02,9.5-7.94,4.46-3.92,8.46-7.39,12.01-10.4,2.61-2.28,5.64-5.68,9.1-10.2,3.45-4.52,6.25-7.92,8.39-10.2,4.96-5.23,8.34-8.63,10.15-10.2,1.81-1.57,3.55-2.36,5.23-2.36s2.7.5,3.27,1.51c.57,1,.85,3.05.85,6.13,0,1.41-.13,2.55-.4,3.42-.27.87-.82,1.99-1.66,3.37-.84,1.37-2.53,3.9-5.08,7.59-2.55,3.69-5.56,8.04-9.05,13.07-1.88,2.68-3.52,5.61-4.92,8.8-1.41,3.18-2.11,5.58-2.11,7.19,0,3.48,1.37,5.23,4.12,5.23,2.28,0,4.93-.94,7.94-2.81,3.02-1.88,7.64-5.26,13.87-10.15v6.73c-7.84,7.24-13.64,12.5-17.39,15.78-3.75,3.28-7,5.76-9.75,7.44-2.75,1.68-5.36,2.51-7.84,2.51-5.63,0-8.44-3.35-8.44-10.05,0-2.55.84-5.98,2.51-10.3,1.67-4.32,4.39-10.57,8.14-18.75Z"/>
            <path d="M1051.89,408.01v6.53c-6.97,4.42-12.46,6.63-16.48,6.63-2.21,0-4.56-.37-7.04-1.11-6.03,7.64-11.21,13.24-15.53,16.79-4.32,3.55-8.66,5.33-13.02,5.33-5.03,0-8.89-2.65-11.61-7.94-2.71-5.29-4.07-11.86-4.07-19.7,0-10.65,3.22-22.26,9.65-34.83,6.43-12.56,14.19-24.32,23.27-35.28,9.08-10.96,17.87-20.02,26.38-27.19,8.51-7.17,14.27-10.76,17.29-10.76s4.32,1.98,4.32,5.93c0,17.56-22.51,48.18-67.54,91.87-.13,1.21-.2,3.59-.2,7.14,0,9.25,2.48,13.87,7.44,13.87,1.94,0,3.9-.79,5.88-2.36,1.98-1.57,5.01-4.57,9.1-9-1.61-3.62-2.41-6.3-2.41-8.04,0-3.68,1.51-7.67,4.52-11.96,3.02-4.29,6.45-7.99,10.3-11.11,3.85-3.12,6.65-4.67,8.39-4.67,2.75,0,4.12,1.98,4.12,5.93,0,3.02-.79,6.63-2.36,10.86-1.57,4.22-3.87,9.05-6.88,14.47,1.14.94,2.04,1.63,2.71,2.06.67.44,1.67.65,3.01.65,3.08,0,6.67-1.37,10.76-4.12ZM1000.83,392.93c3.48-3.02,6.99-6.58,10.5-10.71,3.52-4.12,8.66-10.44,15.43-18.95,6.5-8.17,11.61-14.99,15.33-20.45,3.72-5.46,6.52-10,8.39-13.62,1.87-3.62,2.81-6.1,2.81-7.44,0-1-.27-1.51-.81-1.51-1.47,0-4.54,2.43-9.2,7.29-4.66,4.86-9.97,11.51-15.93,19.95-8.24,11.66-14.21,20.44-17.89,26.33-3.69,5.9-6.57,12.26-8.64,19.1Z"/>
          </g>
        </g>
        <g>
          <path d="M567.63,399.61c1.26,0,2.59.06,5.49.51,1.2-2.65,1.83-5.49,2.65-9.78l3.41-17.67c.38-2.02.51-3.28.57-4.23h-1.96c-1.58,0-3.85.13-5.49.13-2.08,0-3.15-1.07-3.15-2.96,0-2.27,1.51-4.67,4.35-4.67,4.04,0,14.64.95,22.84.95,4.48,0,7.63-.63,9.4-.63,2.59,0,4.86,2.33,4.86,9.91,0,2.4-.82,3.28-2.65,3.28-3.03,0-5.11-2.4-7.38-5.36-3.66-.32-7.82-.44-12.49-.57-.82,2.71-1.83,6.94-2.59,11.17,1.77-.13,4.29-.32,6.31-.32,3.91,0,5.74,1.45,5.74,4.67,0,2.27-1.89,3.79-4.73,3.79-2.65,0-5.55-.44-8.52-1.45l-.57,3.34c-.82,4.73-1.01,7.51-1.01,10.1,3.53-.25,5.87-.51,7-.51,2.02,0,2.78.76,2.78,2.71,0,2.15-1.64,4.98-6.62,4.98-2.97,0-6.25-.25-9.21-.19-3.34.06-6.37.19-9.47.19-2.14,0-3.34-.82-3.34-2.59,0-2.52,1.33-4.8,3.79-4.8Z"/>
          <path d="M616.72,400.05c1.2,0,2.78.13,6.06.19,1.26-2.9,1.83-5.74,2.71-9.91l3.79-17.67c.38-1.7.51-2.9.57-4.23-2.27.13-4.29.19-6.18.19-2.15,0-3.34-.82-3.34-2.59,0-2.52,1.33-4.8,3.79-4.8.69,0,2.46.25,4.1.51,9.65-.13,15.27-.82,17.29-.82s2.78.76,2.78,2.71c0,2.15-1.64,4.92-6.63,4.92-1.14,0-2.21-.06-3.47-.32-1.01,3.09-1.7,6.37-2.9,12.05l-1.7,7.95c-.95,4.61-1.33,7.38-1.33,11.86,5.24-.19,11.86-.57,17.79-1.14,2.46-3.22,3.22-5.87,3.79-9.65.32-2.21,2.52-3.09,4.67-3.09s2.97.95,2.97,3.09c0,5.17-4.67,18.49-7.51,18.49-2.21,0-6.25-1.07-13.69-1.07-11.17,0-20.25,1.2-24.73,1.2-2.08,0-3.15-1.07-3.15-2.97,0-2.4,1.51-4.92,4.35-4.92Z"/>
        </g>
        <path d="M1230.06,426.79l-.09-.23c-.82-1.73-1.92-2.63-2.99-3.51-.87-.72-1.7-1.4-2.48-2.61l-2.94-4.57c-.39-.61-.45-.9-.46-.97-.11-.92-.08-1.82-.05-2.78.01-.44.03-.89.03-1.35.04-6.93-.29-13.61-.65-19.81l-.78-13.54c-.38-6.49-.45-13.08-.52-19.45-.02-1.81-.04-3.63-.07-5.44l-.13-8.61c-.07-4.56-.3-8.4-.73-11.98l1.5-.8-1.56.33c-.02-.15-.04-.3-.06-.45.11-.54.04-1.07-.21-1.54-.23-.44-.6-.79-1.07-.99-.33-.3-.66-.59-.99-.89-1.67-1.5-3.4-3.06-5.35-4.37l-3.66-2.45c-.51-.34-1.03-.69-1.6-1.02-.05-.97-.14-2.02-.35-3.05-.03-.12-.06-.25-.09-.36l.08-.04-.1-.04c-.41-1.25-1.39-2.17-2.75-2.55-1.65-.46-3.28-.73-4.97-.82l-1-.06-.09-.11h-7.46l-.18.05c-.14.04-.39.05-.63.06-.15,0-.31.02-.47.03l-4.08.36c-2.58.23-5.18.73-7.95,1.54-.85.25-1.59.58-2.3.9l-.33.15h-.02c-.26.07-.97.23-1.4,1.01-.24.43-.42.88-.55,1.35l-.43.2.36.08c-.09.41-.13.82-.13,1.23v2.15c-1.3.82-2.46,1.68-3.47,2.43-2.87,2.15-5.34,4.41-7.52,6.89-.71.81-.9,1.68-.99,2.35l-.21,1.6-.47,10.49-.76,19.83-.38,12.16-.71,23.77-.36,11.19-.03,3.67c-1.31,1.5-2.36,3.06-3.39,4.57-.67.99-1.36,2.01-2.11,2.99-.45.59-.96,1.12-1.5,1.69-.24.25-.47.5-.71.75-3.29,3.57-2.42,5.96-1.11,7.34.88.93,1.9,1.78,3.11,2.61l.48.33c.98.68,1.99,1.38,3.12,2,2.76,1.52,5.62,2.62,8.75,3.37l.85.21c2.51.61,5.11,1.24,7.87,1.25l12.13.06,11.87-.51c2.07-.09,4.2-.18,6.44-.47l9.97-1.29c3.92-.51,7.74-1.81,11.67-3.99.27-.15.48-.33.66-.51l.14.12.91-.59c1.95-1.26,5.21-3.37,5.69-6.7v-1.68s-.25-.97-.25-.97ZM1179.75,438.6c-1.72.07-3.35.14-5.04.06-2.43-.12-4.75-.4-7.1-.85-3.93-.74-9.2-2.77-12.84-4.54,3.86,1.53,8.12,2.61,11.35,3.16,9.45,1.62,17.89,1.65,28.43,1.18,3.04-.14,6.02-.46,9.1-.99,5.88-1.01,10.82-2.08,15.6-3.91-2.68,1.4-6.03,2.87-9.36,3.58-4.54.98-9.31,1.54-14.59,1.74l-14.14.52c-.48.02-.95.04-1.42.06ZM1166.33,330.62c1.99-1.76,4.03-3.35,6.18-5.01.53.24,1.1.4,1.72.5,6.39,1.05,14.97,1.06,21.87.02,2-.3,4.84-.85,7.33-2.18.77.6,1.49,1.12,2.23,1.62,1.34.9,2.68,1.9,4.36,3.25l1.9,1.53c-2.59,1.26-5.43,1.87-7.95,2.29-6.63,1.11-16.4,2.31-25.27,1.68l-8.54-.61c-1.39-.1-3.94-.55-5.88-1.1.67-.69,1.34-1.35,2.06-1.99ZM1192.35,322.34c-2.3.26-4.65.37-7.64.37-2.83,0-5.88-.08-9.03-.59-.37-.06-.7-.12-1.01-.19,0-.48-.02-.9-.04-1.3,0-.03,0-.06,0-.09.37.08.75.13,1.17.17,9.41.88,16.95.55,24.5-1.07.22-.05.43-.11.65-.17l.03.94c-2.49,1.15-5.73,1.6-8.63,1.93ZM1216.04,412.87c-.23.04-.47.1-.72.16-4.51,1.11-9.99.66-14.81.26-10.61-.88-19.42-2.11-26.73-3.72,6.15-.37,12.24-1.25,18.51-2.65,3.8-.85,7.52-1.72,11.26-2.92,3.64-1.17,6.58-2.33,9.27-3.62,1.18-.57,2.24-1.18,3.21-1.86l.05,1.09.08,3.17c.15,3.62.11,6.94-.12,10.12ZM1160.39,413.26l.04-3.96c1.55.83,3.1,1.49,4.79,2.05,4.44,1.45,9.31,2.6,14.89,3.53,6.35,1.06,13.04,1.88,20.47,2.5,3.16.27,6.62.51,10.03.36-4.13,1.69-8.7,2.7-12.24,3.3-8.67,1.45-17.39,1.41-25.93-.12-4.29-.77-7.42-1.75-10.47-3.26-.66-.33-1.25-.75-1.75-1.26.1-1.09.15-2.1.16-3.14ZM1210.59,384.54l-13.52-1.47c-2.96-.32-5.44-.63-7.97-1.09l-8.57-1.57c-1.94-.36-3.76-.7-5.73-.92-.76-.08-1.59.42-1.84,1.12-.16.43-.11.91.13,1.35.26.47.68.8,1.16.9l2.92.61,8.31,1.65c3.99.79,7.11,1.29,10.13,1.63l13.32,1.48c2.83.31,3.47,1.11,3.82,1.53.19.24.71.87,1.52.87.18,0,.37-.03.58-.1h0c.28-.1.53-.29.74-.53l.07,1.22.07,1.44c-.88.26-1.67.52-2.42.78-3.74,1.3-7.18,2.3-10.53,3.05-3.16.72-6.2,1.24-9.83,1.84-.64-.03-1.13.36-1.35.74-.28.49-.32,1.26.4,1.93l.43.41.6-.02c2.48-.09,5.14-.39,7.9-.86-.83.25-1.67.49-2.53.72-4.23,1.14-8.41,2.08-12.78,2.86-5.91,1.06-18.72,2.62-24.86.93-.04-.01-.14-.07-.26-.17l.26-9.79c.53.22,1.08.41,1.65.56,5.67,1.56,11.46,2.29,17.21,2.16.38,0,.67-.16.92-.3l.9-.53-.21-1.01c-.15-.74-.85-1.21-1.42-1.27l-6.63-.75c-3-.34-5.98-.87-9.11-1.62-1.14-.27-2.19-.64-3.2-1.11l.08-2.46v-.06s.34-11.01.34-11.01l.08-.06v-.71c.01-.29.02-.57.04-.86l.2-3.14-.17.13.26-8.52c.18-5.01.33-9.69.47-14.32l.1-3.79c.38.07.76.1,1.11.14.2.02.48.05.55.06,3.93,1.11,7.66,1.98,11.4,2.65,5.18.93,9.26,1.48,13.24,1.8l15.91,1.26c2.38.19,6.36.51,8.4,1.4.3.13.41.29.63.65.18.29.45.73.91,1.05l.07,3.91c-.41.31-.64.72-.79,1-.18.34-.35.65-.88,1.05-3.44,2.58-12.46,6.78-16.62,8.24-8.03,2.82-16.13,4.66-22.99,6.08-1.8.37-3.53.58-5.35.79l-1.15.14-.17,1.05-.13.92.48.51c.24.26.76.8,3.88.48,2.29-.23,4.44-.65,6.44-1.05,5.34-1.08,10.7-2.4,16.39-4.04,3.11-.9,5.93-1.91,8.61-3.1,3.06-1.36,6.34-2.86,9.61-4.64.84-.46,1.85-1,2.81-1.7l.11,4.87.42,11.76.29,5.2c-1.09-1.45-3.3-2.22-4.82-2.38ZM1213.9,349.79c-3.05-1.03-7.55-1.4-10.67-1.59-8.08-.49-14.4-1.05-20.47-1.8-1.3-.16-2.59-.34-3.88-.54,7.49-.99,14.71-2.64,21.86-4.98l.66-.21c4.29-1.4,8.73-2.84,12.6-5.42l.17,6.86.15,7.84c-.14-.06-.28-.11-.42-.16ZM1195.38,338.5c-6.08,1.7-12.32,2.96-18.4,3.7-6.2.75-10.47.92-12.7.51-.24-.04-.54-.13-.82-.22-.35-.11-.73-.22-1.11-.28l.15-5.38c2.79.99,6.27,1.41,7.88,1.55,9.36.86,16.24,1.14,25.01.13ZM1193.18,427.13c4.83-.29,9.4-1.08,13.96-2.42,3.3-.97,6.5-2.33,9.78-4.16.43-.24.85-.48,1.26-.75.6.95,1.27,1.93,2.08,3.04.66.91,1.28,1.72,1.99,2.48-3.08,1.96-7.97,3.82-11.34,4.57-6.39,1.42-14.49,2.2-24.06,2.3-4.31.05-8.49-.18-12.02-.4-6.97-.45-12.62-1.64-17.3-3.64-1.45-.62-2.58-1.19-3.54-1.79.04-.05.08-.1.11-.15.14-.18.28-.37.42-.58l.19-.28c1.59-2.31,2.52-3.65,3.07-4.42,2.74,1.87,6.06,3.01,7.95,3.55,7.78,2.26,17.78,3.22,27.44,2.64Z"/>
      </g>
      <g>
        <path d="M382.54,103.35v-.11S364.87,0,364.87,0L11.32,1.92h-1.32s-.1,1.32-.1,1.32c0,0-7.7,100.94-7.71,100.99-.41,5.34-.13,10.72.15,15.93.04.74.08,1.47.11,2.21.11,2.14.03,4.36-.05,6.51-.11,3.12-.23,6.35.2,9.51,1.17,8.54,5.58,16.63,12.1,22.22,5.49,4.69,13.49,7.54,22.47,8.1-.03,31.6-.09,72.69-.12,93.65.02,4.26,0,7.48-.02,9.83,0,1.44,0,2.6,0,3.55-.05,0-.11.02-.17.02-1.32.14-2.81.11-4.39.08-4.93-.08-11.07-.19-12.61,5.66,0,.03-.01.06-.02.09-.72,4.13-5.11,28.21-9.75,53.69-4.24,23.31-8.63,47.41-9.96,54.84-.5,1.91.37,4.06,2.41,5.9,2.45,2.19,5.77,3.2,10.14,3.09,7.75,0,14.9-.88,21.49-1.82,1.23-.18,2.18-.31,2.83-.38.05,6.09-.02,31.28-.09,55.69-.05,16.62-.1,33.62-.11,45.01-2.72.19-2.66,4.49.18,4.49h311.58c2.67,0,2.88-3.81.64-4.42-.15-46.74-.2-243.66-.11-330.53,4.35-.98,8.72-2.59,12.99-4.82,5.28-2.76,10.03-6.26,14.13-10.42,3.33-3.39,6.88-10.47,6.8-16.01l-.46-32.55ZM285.08,116.74c.05,5.57.1,11.32-.78,17.18-1.43,9.57-11.85,15.73-20.68,15.48-11.26-.32-18.86-8.29-20.3-15.64-1.15-5.9-.89-11.87-.61-18.19.14-3.09.28-6.27.24-9.45l42.28-.39c-.22,3.69-.19,7.4-.16,11.01ZM274.67,5.8l10.38,95.46-36.47.34c-.08,0-.17,0-.26,0-.64.01-1.3.04-1.93.06-1.05.04-2.13.09-3.16.06.04-1.67-.18-3.4-.4-5.09-.11-.9-.22-1.75-.29-2.55l-.76-9.57c-.26-3.29-.61-6.64-.95-9.88-.43-4.16-.88-8.47-1.14-12.65l-1.35-21.62c-.37-5.94-.93-12.6-1.76-20.96-.04-.43-.14-2.68-.24-5.05-.09-2.24-.2-4.78-.3-6.77-.04-.77-.07-1.39-.11-1.9,3.09.01,12.16.04,38.73.13ZM148.54,106.98c14-.5,27.06-.56,43.08-.21l-.12,26.99c-.02,4.56-2.53,7.88-4.62,9.87-4.39,4.16-11.27,6.64-17.53,6.32-10.72-.54-18.97-9.28-19.95-17.1-.51-4.05-.43-8.22-.35-12.26.08-4.45.17-9.03-.5-13.62ZM186.5,5.97l4.86,96.11c-5.16.05-10.18-.02-15.06-.08-5.44-.07-10.71-.15-16-.06-3.87.06-7.74.21-11.7.5l-1.95-95.94,39.85-.53ZM56.43,61.23c.27-5.19.48-10.47.69-15.57.27-6.56.54-13.35.94-20.02l1.12-18.89,39.5-.14-1.97,96.17h-42.42s2.15-41.55,2.15-41.55ZM37.55,345.82c-.06,4.9-.11,12.56-.16,20.66-.06,10.99-.13,22.33-.23,26.19-5.79.71-13.76,1.36-20.83,1.94-2.26.18-4.41.35-6.36.52,1.96-12.14,4.7-27.7,7.37-42.77,1.54-8.72,3-16.96,4.21-24.05.7-3.85,1.48-7.74,2.23-11.49,1.57-7.77,3.18-15.8,4.15-23.66.06-.39.12-.8.17-1.2.32-2.28.64-4.64,2.04-6.21,1.35-1.35,5.28-2.13,7.16-1.53l.02,6.25c.07,15.56.23,51.99.23,55.37ZM50.46,392.77c-.14,40.15-.26,76.51-.26,104.83h-8.99c-.04-103.69.21-217.58.47-328.8.24,0,.48,0,.72-.01,3.34-.12,6.05-.58,8.41-1.44-.08,9.08-.12,20.22,0,34.08.08,66.24-.15,132.7-.35,191.34ZM96.5,107.36l1.61,27.05c-2.85,9.2-10.86,15.77-20,16.38-8.79.59-19.35-3.93-21.6-13.49-1.33-5.66-1.49-11.56-1.66-17.81-.1-3.93-.21-7.98-.64-11.99l42.29-.15ZM89.11,359.42c5.61-.11,11.97-.22,14.94-.12h.02c2.17.14,4.65-.18,5.92-.38,2.42-.36,6.35-.71,11.06-.97,14.31-.75,23.79-.75,30.74.02.8.11,1.67.11,2.6.11,1.57.02,3.2.03,4.44.5.16.08.43.3.45.97.05,1.33-.88,2.93-1.54,3.33-.86.57-2.44.5-3.83.45l-.53-.02c-1.89-.07-3.76-.05-5.27.07-2.49.25-7.34.68-12.94,1.17-10.65.94-25.23,2.22-33.28,3.17-5.87.59-11.88.85-17.68,1.1-1.26.05-2.54.11-3.84.17-.44.04-.96.09-1.43.21-1.11.28-1.85.89-2.5,1.42-.55.45-1.02.84-1.64,1-.68.16-1.48.14-2.26.14h-.08c-.36-.05-.74-.06-1.11-.08-1.35-.07-2.27-.15-2.51-.66-.21-1.75-.18-4.18-.16-6.33.02-1.21.03-2.36,0-3.31.02-.35.05-.53.08-.62h.02c.38-.03.88.04,1.37.11.14.02.29.05.4.05,3.77.57,6.96.14,9.48-1.26.19-.06.43-.1.68-.1,1.97,0,5.08-.06,8.38-.11ZM88.52,355.33s.05-.08.06-.12c-.02.05-.03.08-.05.12h0ZM84.1,355.42c-.26.28-.94.35-1.31.14-.32-.29-.23-1.93-.2-2.48.02-.34.03-.64.03-.87-.02-.66-.02-1.33.02-1.99.03.06.05.13.08.2.18.43.38.85.58,1.26.66,1.36,1.24,2.54.8,3.73ZM82.63,318.59c-.79,4.03-1.54,7.84-2.14,11.29-.36,2.09-.36,4.22-.35,6.28,0,1.58,0,3.21-.16,4.76-.26,2.3-.69,4.61-1.31,6.85-.13.47-.25.99-.38,1.52-.39,1.66-.84,3.55-1.73,4.69-.94,1.19-2.32,1.15-4.49.98-1.4-.11-2.84-.22-4.18.23-3.21,1.08-3.19,4.87-3.18,7.62,0,1.05,0,2.02-.13,2.75,0,.05,0,.08-.02.12-.03.44-.09.89-.16,1.36-.22,1.6-.47,3.4.36,5.13,1.21,2.85,3.59,3.25,5.32,3.54,1.51.25,2.14.42,2.45,1.17.45,2.43-.32,5.41-2.69,6.22-2.05.74-3.42,2.2-4.76,3.63-.52.56-1.02,1.08-1.55,1.57-2.63,2.02-6.71,2.58-8.92,1.86-.3-.46-.16-1.53-.03-2.48.11-.81.22-1.65.14-2.44v-.04s0-.03,0-.05c-.5-6.25-.38-12.7-.26-18.93.08-3.82.14-7.77.08-11.64.15-9.46.05-19.16-.03-28.54-.14-14.07-.28-28.62.38-42.68,3.84-.28,13.21-.47,20.89-.62,4-.08,7.48-.15,9.36-.22.14.41.2,1.33.22,1.81.04.62.07,1.17.18,1.63.12,1.07.31,2.1.5,3.1.29,1.5.55,2.91.55,4.41.02,1.46-.18,3.02-.38,4.53-.11.81-.22,1.66-.29,2.47-.73,5.32-2.02,11.82-3.26,18.12ZM57.6,244.83c-.19,6.83-.38,13.88-.13,20.73l-.08,13.76c-.99.04-1.85.06-2.58.08.04-3.07.02-11.54,0-26.26-.05-24.6-.12-59.7.11-87.93,1-.67,2.03-1.47,3.02-2.35l-.22,61.2v.05c.26,6.81.07,13.88-.12,20.72ZM56.95,497.6h-2.63c-.02-17.17.02-42.75.06-63.55.04-20.34.07-36.45.02-38.83.07-.17.62-.54,1.22-.63.39-.05.56.05.66.15.44.41.69,1.61.61,2.94v.07c-.01,11.38,0,27.23.02,44.02.02,18.75.05,39.33.03,55.83ZM81.6,477.24c-.34,3.12-.82,8.03-1.34,13.23-.23,2.41-.47,4.84-.7,7.13h-18.71c0-9.39,0-23.43-.01-38.76,0-23.65-.02-50.42,0-64.19.14-.07.29-.14.38-.17.73-.32,1.6-.74,2.31-1.12,1.91-.98,3.33-2.4,4.7-3.79.61-.61,1.23-1.25,1.89-1.81.55-.47,1.22-.84,1.93-1.23.72-.39,1.47-.8,2.15-1.35,1.55-1.27,1.9-3.13,2.23-4.93l.03-.14c.35-2.23.82-4.5,2.43-5.69l.02-.02c3.03-1.93,6.67-1.8,10.53-1.66,1.71.07,3.48.14,5.13,0,1.03-.06,1.93-.25,2.81-.43.9-.19,1.76-.37,2.69-.38h.07c5.6-.44,12.34-.97,19.01-1.51,6.76-.53,13.44-1.06,18.78-1.47.63-.05,1.57.13,2.46.29.44.08.87.17,1.26.22,2.91.47,5.83.53,8.65.6,1.26.03,2.56.06,3.88.13,1.32.03,1.64.33,1.7.42.07.1.25.51-.23,1.84-3.78,12.25-6.1,23.86-8.56,36.15-.47,2.38-.95,4.77-1.44,7.18-.2.73-.72,1.57-2.97,1.53h-.05c-20.06.64-36.78.75-52.64.35h-.06c-1.34.04-2.37.11-3.43.81-.05.03-.09.06-.13.1-3.81,3.3-3.41,12.79-2.68,22.21.12,1.56.23,2.9.25,3.82,0,.05,0,.1.02.14.02.17.03.4.04.64.02.78.06,1.74.75,2.39.2.18.46.29.73.29,2.53.08,6.09.15,10.18.22-3.12,1.15-5.87,2.95-7.68,5.39-4.6,6.05-5.43,14.26-6.17,21.5-.08.71-.14,1.4-.22,2.08ZM123.26,444.26c-13.61.03-30.37.08-34.9.03-.02-.26-.03-.61-.04-.85,0-.37-.02-.75-.06-1.11-.04-.84-.08-1.69-.12-2.52-.26-5.39-.5-10.48.26-15.73.02-.14.04-.29.06-.44.05-.34.14-1.01.26-1.42,6.77-.19,41.97-.51,55.37-.36-.55,3.33-1.4,7.8-2.16,11.82-.54,2.87-1.05,5.58-1.41,7.65-.11.61-.22,1.16-.3,1.63-.1.52-.18.96-.24,1.29-2.27,0-9,.02-16.71.04ZM138.8,448.79c-2.07,5.98-7.71,12-14.98,12.45-1.48.11-2.16-.13-2.61-.88-.69-1.13-1.54-2.68-2.35-4.18-.5-.91-.99-1.81-1.44-2.62-.19-.33-.36-.64-.52-.93-.68-1.26-1.26-2.34-2.58-3.38-.02,0-.04-.02-.05-.04-.38-.26-.78-.5-1.21-.73,3.73.05,7.4.08,10.75.12,6.85.08,12.43.14,14.98.18ZM84.07,497.6c.52-5.34,1.04-10.82,1.34-15.48l.03-.38c.54-6.92,1.05-13.46,3.51-19.88.18-.44.36-.88.55-1.32,1.08-2.66,2.19-5.41,4.48-6.76,1.2-.62,2.55-.99,3.98-1.38.42-.11.85-.23,1.26-.35,7.7-2.19,11.57.47,12.91,1.73,1.29,1.17,2.02,2.88,2.79,4.69,1.02,2.42,2.08,4.91,4.61,6.34.02,0,.03.02.05.03,4.55,2.31,9.33-.1,13.17-2.04.37-.19.73-.37,1.08-.55.02,0,.05-.02.07-.03,3.29-1.9,5.07-5.18,6.8-8.35.28-.51.56-1.02.84-1.54,1.11-2.05,1.96-4.24,2.51-6.51,1.81-7.17,3.19-14.77,4.3-21.26,4.95-30.32,11.57-55.64,20.84-79.68h0c.28-.75.73-1.79,1.35-2.28l.07-.05c.47-.37,1.24-.61,2.38-.74,9.54-1.13,18.82-.9,28.65-.67,1.33.04,2.66.07,4,.1h.59c2.73.08,5.82.17,7.78,1.9.51.44.98,1.03,1.43,1.8.81,1.38,1.38,3.05,1.88,4.52,7.97,22.96,12.61,47.57,17.11,71.37,1.35,7.19,2.75,14.62,4.23,21.89.78,3.67,1.65,7.28,2.63,11.29.09.35.17.7.26,1.06.55,2.26,1.17,4.82,2.76,6.75,1.92,2.35,5.31,3.81,8.26,3.55,2.22-.2,4.03-1.34,5.08-3.2.66-1.1.99-2.29,1.32-3.44.23-.83.46-1.61.8-2.36,1.57-3.63,6.35-4.03,10.85-3.92.91.14,1.33.8,1,3.75-.04.42-.1.9-.17,1.38-.3,2.17-.72,5.16,1.87,6.79.02.02.03.02.05.03,1.92,1.08,4.17.89,6.16.72.99-.09,1.92-.17,2.77-.11h.08c.44,0,.88,0,1.33-.02,2.61-.06,4.86-.11,6.16,1.87.02.02.03.05.05.06,4.33,5.75,5.11,13,5.31,18.69.17,3.12.38,7.55.59,11.98H84.07ZM140.96,244.75c.16,1.06.3,2.06.28,3.08l-.07,1.6c-.59,12.82-1.2,26.09-.23,39.53-.08.5-.29.93-.68,1.32-5.64,3.94-6.02,11.82-6.39,19.44-.14,2.93-.28,5.96-.73,8.62-.21,1.2-.93,1.94-2.14,2.24-2.05.45-4.71.87-7.1.17-.65-.77-.35-5.44-.15-8.55.55-8.64,1.24-19.38-5.61-21.14-.37-.13-.51-.2-.56-.24-.04-.15-.03-.56-.03-.93v-.39c-.11-7.11-.24-14-.36-20.76-.25-13.24-.47-25.75-.59-38.5.05-.02.15-.04.29-.06,3.02-.48,11-1.75,17.04-2.69h.02c.38,0,.75-.06,1.11-.17l1.68-.26c.38.05.78.05,1.17-.04.79-.14,1.58-.3,2.36-.46l.08-.02c0,.09.02.18.02.26l.02.29c.06,2.21.11,4.47.14,6.66.05,2.87.11,5.85.2,8.78v.05c.06.75.17,1.47.26,2.17ZM164.37,236.57c.09,2.45.18,4.89.28,7.33.19,4.78.39,10.25.6,15.66.17,4.65.35,9.26.5,13.34.07,1.79.14,3.63.21,5.49.11,2.84.23,5.7.32,8.49.08,1.49-.74,2.46-1.87,3.81-.26.3-.53.62-.81.97-1.47,1.91-2.55,4.18-3.15,6.61-.86,4.1-.61,8.06-.38,11.55.26,4.04.46,7.22-1.16,8.68-1.25,1.12-3.73,1.37-7.59.75v-.02c-.07-1.77-.2-6.45-.31-10.59-.07-2.53-.14-4.92-.19-6.48.12-4.88-1.63-8.66-4.94-10.66-.32-.25-.68-.43-1.04-.61-.22-.11-.56-.29-.72-.41,0-2.66.03-12.73.06-23.37.02-6.77.04-13.64.05-18.63-.02-1.61,0-2.87.02-3.88.03-1.69.05-2.81-.14-3.94-.34-2.77-.35-5.71-.37-8.56,0-1.53-.02-3.1-.08-4.63,0-.03,0-.05,0-.07-.12-1.22.47-1.6,3.2-2.03.41-.06.81-.13,1.18-.2,1.25-.17,2.5-.35,3.74-.53,3.09-.44,6.28-.9,9.44-1.26.16-.02.32-.05.48-.06.57.23,1.2.28,1.85.17h0c.17.11.34.36.33,1v.07c.17,3.99.32,8,.47,12.01ZM185.77,287.99c.37,3.47.28,7.13.19,10.66-.07,2.96-.16,6.01.03,8.97,0,.87-.11,1.69-.23,2.55-.14,1.08-.29,2.18-.23,3.44.23,3.13-.6,8.62-1.55,8.93,0,0-.34-.02-1.02-.81-.03-.03-.06-.07-.09-.1-.79-.71-1.49-1.31-2.11-1.84-2.96-2.51-3.76-3.18-3.06-8.38.02-.09.02-.19,0-.29-.19-1.53-.26-3.13-.34-4.82-.25-5.28-.53-11.26-4.92-15.16-.05-.05-.11-.08-.17-.12-1.23-.75-2.68-2.14-2.54-4.43v-.11c-.26-8.4-.62-17.03-.96-25.38-.52-12.52-1.05-25.45-1.3-37.96.08-.26.22-.48.42-.68,1.2-.35,2.46-.76,3.94-1.29.45-.06.9-.11,1.34-.15.49-.05.97-.11,1.42-.17.56.13,1.17.1,1.78-.11.29-.09.57-.18.86-.26l.35-.11c.74-.11,1.49-.23,2.22-.36,2.02-.34,4.1-.69,6.01-.62.06,3.84.17,13.24.25,23.81l.02,29.7c-.05,6.52-.15,11.51-.3,14.81,0,.05,0,.1,0,.14v.11ZM169.01,296.12c1.03,0,1.96.18,2.51.55,1.8,1.63,1.79,8.07,1.79,12.79,0,2.75,0,5.12.27,6.76.08.88-.03,1.27-.12,1.44-1.05,1.1-3.67.84-5.58.63-.52-.05-1.01-.1-1.47-.13-1.89-.08-2.45-.57-2.51-2.24-.11-1.6-.04-3.07.03-4.64.04-.85.08-1.73.09-2.66-.02-.82-.05-1.66-.08-2.51-.08-1.97-.15-4.01-.08-5.86v-.11c.03-1.23.18-2.12.87-2.74.96-.87,2.73-1.29,4.29-1.29ZM145.49,297.76c1.83,1.04,1.69,10.26,1.62,14.68-.04,2.47-.07,4.6.07,5.88.16,1.73-.85,2.05-1.63,2.14-.02,0-.04,0-.05,0-2.3.39-4.67.34-7.03-.15l-.2-.04c-.43-.1-1.02-.23-1.26-.41-.03-.12-.02-.44,0-.63l.86-11.22c.24-2.07.12-3.08-.06-4.47-.03-.27-.07-.56-.11-.89v-.07c-.11-1.47.32-2.91,1.17-3.88.62-.71,1.41-1.1,2.35-1.16.02,0,.05,0,.08,0,1.93-.25,3.51-.17,4.21.22ZM119.58,301.29c.16,0,.32-.02.47-.04.07,0,.16,0,.24-.02-.07,2.54-.25,8.77-.39,13.81-.08,2.66-.14,4.97-.18,6.25v.05c0,.16-.02.23,0,.24-.03.02-.11.06-.31.1-2.04.42-4.56.47-6.58.11-.43-.08-1.74-.3-1.99-.53-.05-.11-.02-.47-.02-.62.11-1.26.29-3.05.48-4.95.32-3.18.68-6.77.84-9.22v-.09c0-1.35.1-2.75.25-3.71l.03-.16c.14-.81.27-1.56.69-1.96.21-.2,1.35.08,1.96.23.38.09.76.18,1.11.25,1.17.25,2.36.33,3.41.26ZM127.85,331.43c.66-.08,1.63-.23,2.5-.51.5-.17.8-.32.99-.42.04-.02.07-.04.08-.05.2-.02.41-.03.67-.05.26-.01.57-.03.95-.06,4.07-.24,9.94-.64,16.16-1.06,9.56-.65,19.44-1.32,23.42-1.46.56.07.86.3.84.49,0,.23-.36.55-1.11.56-.02,0-.05,0-.07,0l-27.56,2.1-3.85.29c-2.1.17-3.72.29-4.55.35-.56.04-1.17.14-1.84.58l-.08.05c-.47.35-.9.76-1.32,1.17-.51.49-1.04.99-1.6,1.32-.93.59-2.26.75-3.66.93-.25.04-.5.07-.72.1-1.76.22-3.57.37-5.36.44-8.73.26-15.67-.44-21.82-2.18-.59-.23-.87-.87-.98-1.24-.24-.81-.14-1.78.21-2.25.29-.36,1.13-.3,1.9-.2,9.81,1.41,18.13,2.13,26.8,1.08ZM194.27,230.71c0-5.22,0-9.29,0-11.15,1.11.08,2.36.23,3.57.38,1.08.14,2.11.26,3.03.33,3.64.36,8.44.93,13.09,1.48,3.37.41,6.58.78,8.91,1.03-.07.39-.15.89-.25,1.45-.11.69-.26,1.52-.41,2.45-.72,4.21-1.45,8.59-2.14,12.82-1.97,11.89-4,24.18-6.44,35.76,0,.02,0,.04-.02.06-.2,1.31-.65,2.56-1.14,3.88-.35.96-.72,1.95-.99,3-.2.88-.35,1.78-.5,2.64-.18,1.08-.37,2.2-.65,3.27-.23.85-.84,1.32-1.81,2.02-.45.32-.92.65-1.4,1.1-2.33,2.33-3.67,5.82-3.69,9.6h0c-.25,3.85-.5,7.82-.35,11.79-.03.53-.02,1.11,0,1.66.04,1.41.09,2.75-.63,3.51-.33.2-.76.34-1.21.47-.62.19-1.31.41-1.94.85-.87.56-1.39,1.32-1.85,2-.39.56-.66.96-.97,1.11-2.39-.83-2.01-7.13-1.86-9.56l.02-.39c.07-1.54-.08-3.1-.22-4.61-.08-.8-.15-1.62-.2-2.4-.02-.66-.03-1.33-.04-1.99-.02-1.68-.04-3.42-.29-5.16-.51-3.54-.1-7.34.3-11,.07-.59.13-1.17.19-1.75,0-.02,0-.06,0-.09v-.08c-.11-9.05-.11-37.48-.11-54.46ZM211.46,328.22c.38-.02.8-.04,1.24-.08,4.3-.12,9.77.23,15.04.62,4,.31,8.09.71,12.04,1.1,13.83,1.36,28.14,2.77,42.22.35l.23-.04c.66-.11,1.41-.24,1.87-.11h.03c1.08.42,1.3,2.83.87,4.12-.22.59-.89.99-2.18,1.29-6.07,1.4-12.67,1.81-19.6,1.21l-.85-.08c-2.87-.23-6.12-.51-8.8-1.38-1.27-.41-2.49-.96-3.78-1.54-1.44-.65-2.92-1.31-4.49-1.78-1.08-.32-2.29-.39-3.45-.45-.47-.02-.93-.05-1.34-.09-4.52-.44-9.11-.75-13.56-1.05-1.66-.11-3.33-.23-4.99-.35-1.08-.08-2.22-.13-3.32-.18-3.35-.16-6.81-.32-9.87-1.19.74-.26,1.54-.31,2.68-.37ZM206.78,317.77c.05-3.42.18-9.47.29-14.35.05-2.43.1-4.49.12-5.66,0-.23.06-.35,1.47-.56.34-.05.68-.1,1.02-.17,1.75-.26,3.85-.28,5.38-.06.23.03.35.07.42.09,0,.05,0,.11,0,.21,0,1.65.11,4.46.26,7.71.21,4.84.45,10.28.29,12.99-1.78,1.14-6.93.75-9.28-.2ZM234.34,305.88h0s-.04-.73-.04-.73c-.29-4.84.08-7.19,2.93-7.53.02,0,.05,0,.07,0,1.57-.28,3.3-.29,5.49-.03.7.06,1.63.33,1.62,2.04,0,.02,0,.04,0,.06.3,6.85.42,12.28.1,18.18-.05.76-.17,1.29-.35,1.56-.5.58-1.44.59-2.81.53-.32,0-.63-.02-.95-.02-.14,0-.29,0-.43,0-.32,0-.66-.02-.99-.02-1.15,0-2.34-.02-3.17-.35-1.95-.84-1.89-3.21-1.59-6.46.07-.77.14-1.5.14-2.14.08-1.77.03-3.56-.02-5.09ZM273.16,319.36c-.05,1.55-1.23,1.9-1.94,1.96-.02,0-.04,0-.06,0-2.26.33-4.25.35-6.13.07-2.1-.26-2.28-1.41-2.23-4.4,0-.5.02-1.02,0-1.54v-.05l-.09-1.12c-.18-2.13-.36-4.33-.33-6.43.04-1.04.12-2.1.2-3.12.1-1.2.2-2.45.22-3.69.03-.68.07-1.61.42-2.11.21-.31.71-.49,1.45-.54.76-.05,1.51-.07,2.25-.07,1.47,0,2.86.08,4.11.16.31.02,1.24.09,1.61.44l.05.04c.3.3.38.96.42,1.41.14,2.37.25,4.83.31,7.31.08,4.45.02,8.14-.24,11.67ZM266.4,289.12c-.44,1.75-1.43,2.48-2.68,3.4-1.59,1.17-3.56,2.63-4.36,6.4-.92,3.76-.74,7.71-.57,11.52.12,2.78.25,5.64-.05,8.38-.11.98-.36,1.38-.49,1.52-.65.7-3.03.42-4.61.23-.82-.1-1.6-.2-2.26-.2-.04,0-.08,0-.11,0-1.06-.04-1.76-.25-2.14-.65-.36-.38-.52-1.01-.49-1.94v-.06c-.04-1.88,0-3.78.02-5.62.08-4.37.14-8.9-.73-13.31-.49-3.25-2.65-6.38-5.77-8.38-.2-.14-.55-.45-.17-1.84.68-2.86,1.31-5.64,1.89-8.28,3.67-16.64,6.52-33.77,8.48-50.91.04-.26.07-.54.1-.84.09-.78.2-1.84.6-2.14.16-.11.59-.22,1.32-.15,3.24.32,6.51.76,9.98,1.23,1.05.14,2.13.29,3.22.44.48.06.99.14,1.47.23.29.05.58.1.84.14.26.05.53.08.8.11.75.1,1.39.17,1.76.5l.02.02s.02.02.05.04c.09.11.28.64.26,1.66.08,7.56-.32,15.15-1.2,22.57v.08c-.59,12.62-2.34,24.68-5.19,35.86ZM249.44,227.14c-2.88,24.53-6.4,44.29-11.04,62.17-.32.61-.86.99-1.53,1.48-.56.41-1.19.87-1.77,1.51-.18.2-.37.41-.55.61-.35.39-.72.8-1.08,1.17-2.06,1.93-3.03,4.88-2.85,8.75.14,6.16-.02,11.01-.49,15.66-.14,1.04-.72,1.26-3.24,1.27h-.48c-.84,0-1.51-.02-2.15-.09-1.68-.15-2.83-.62-3.53-1.46-1.15-1.38-1.09-3.84-.88-6.08.12-1.72-.02-3.43-.15-5.09l-.03-.46c-.08-1.1-.09-2.22-.09-3.4,0-3.33,0-6.77-1.85-9.83-1.41-2.39-2.64-3.24-3.45-3.79q-.63-.43-.6-1.01c.05-1.1.61-3.32,1.69-7.32.41-1.64.9-3.25,1.42-4.96.73-2.38,1.47-4.84,1.99-7.42,0-.02.02-.04.02-.06,1.57-11.24,3.56-22.65,5.48-33.69.62-3.52,1.23-7.04,1.83-10.55.15-.86.51-1,.86-1.08.17-.03.35-.05.53-.05.58,0,1.28.13,1.91.24h.02c3.15.51,6.47.96,9.9,1.3l.09.02c2.74.29,5.54.51,8.65.75.65.05,1.11.2,1.29.41s.16.64.11.98ZM273.94,446.77c-1.24-1.23-3.09-1.81-5.91-1.81-.36,0-.74,0-1.12.03-7.17,0-14.2-.05-21.49-.72l-.33-.03c-.58-.06-1.56-.15-1.89-.35t-.02,0c-.11-.24-.22-.89-.28-1.29-.05-.32-.11-.65-.18-.99l-1.27-7.23c-.37-1.99-.81-4.55-1.24-7.01-.33-1.88-.64-3.67-.87-4.97,6.79-.25,36.21-.33,53.68-.35.95.11,4.06.67,4.55,3.68.99,10.16,1.06,20.82.21,32.58-.14,1.62-1.71,1.96-2.63,2.02-.02,0-.05,0-.07,0-3.46.43-6.78.4-10.3.37-2.23-.02-4.55-.04-6.98.08-.84.07-1.41-.05-1.71-.33-.57-.55-.5-2.07-.44-3.54.02-.43.04-.87.05-1.26.17-3.86.14-6.97-1.77-8.87ZM263.09,449.02c-2.5.49-5.04,1.55-6.86,4.4-.91,1.28-1.3,2.69-1.68,4.06-.33,1.19-.64,2.32-1.28,3.22-.57.66-1.18.96-1.86.9-1.17-.09-2.59-1.23-3.62-2.94-1.73-2.66-3-6.82-3.48-9.75-.04-.21-.06-.38-.08-.5,2.97.08,11.42.36,18.3.59.19,0,.38.02.56.02ZM314.44,435.13c-.04,25.06-.07,47.44-.07,62.47h-14.08c-.62-8.94-1.35-17.5-3.36-26.15-.14-.89-.68-1.87-1.25-2.9-1.1-2.02-1.55-3.11-1-3.45.41-.23,1.03-.41,1.69-.61,1.46-.43,3.27-.97,4.27-2.47,1.08-1.45,1.35-3.38,1.47-4.91.55-8.32.55-17.21,0-28.79-.1-6.2-3.15-9.75-8.81-10.26h-.09c-7.33-.08-19.95,0-31.08.09-10.13.08-19.72.14-23.79.07-.05-.1-.09-.29-.15-.71-.05-.34-.11-.71-.22-1.14-.91-5.28-1.96-10.48-2.99-15.51-1.38-6.83-2.69-13.27-3.18-17.95-.42-3.12-1.45-6.13-2.44-9.05-.77-2.24-1.56-4.55-2.05-6.86,0-.02,0-.04,0-.05-1.16-4.43-2.58-8.65-4.18-13.31-.56-1.57-.71-2.81-.47-3.94.14-.72.4-1.44.68-2.21l.16-.44c.32-.78.56-1.59.71-2.49.47-2.64.14-5.38-.16-7.8.02-.46.13-.69,1.89-.82,1.46-.08,2.93-.22,4.33-.36l.25-.02c8.59-1.07,12.87.38,20.63,2.99l1.17.39s.04.02.05.02c9.32,2.6,19.83,2.81,31.24.61,2.89-.4,5.08-2.69,5.47-5.73.74-4.11.83-9.02-5.09-10.63-.53-.24-1.08-.44-1.56-.61-.21-.07-.41-.14-.62-.21-1.59-.54-3.09-1.05-4.01-2.09-.35-.51-.41-1.4-.46-2.25v-.11c-.1-2.14,0-4.37.11-6.54.26-5.66.54-11.51-2.51-16.63-.53-.92-1.47-2.2-2.83-3.09-.22-.14-.44-.29-.65-.42-1.16-.73-1.47-1.01-1.44-1.72,2.88-12.93,4.64-25.89,5.25-38.5.66-6.51.98-12.94.94-19.12,0-.87.02-1.86.34-2.72.15-.43.38-.85.63-1.29.38-.68.81-1.45,1.03-2.43.35-1.59.03-3.15-.9-4.4-.93-1.26-2.42-2.05-4.07-2.17-6.43-.97-12.97-1.82-19.31-2.65-5.07-.65-10.32-1.34-15.44-2.07-1.62-.24-3.23-.48-4.85-.72-15.77-2.36-32.07-4.81-48.31-4.46-11.48.33-22.82,2.76-33.8,5.11-3.24.7-6.58,1.41-9.86,2.06-3.65.66-7.4,1.19-11.03,1.69-6.53.92-13.28,1.86-19.78,3.65-1.63.44-3.62,1.66-4.18,3.28-.31.93-.14,1.89.49,2.7.72.97,1.84,1.57,2.81,2.11.44.24.86.47,1.21.71l.05.02c1.17.72,1.7,1.86,1.83,3.88.31,10.9.48,21.94.64,32.62.11,7.17.22,14.6.38,21.92,0,.04,0,.07,0,.11.19,1.63-.39,2.14-1.55,3.15-1.37,1.21-3.25,2.87-3.69,7.04-.34,2.58-.76,6-1.2,9.62-.56,4.55-1.14,9.23-1.53,12.03-.16,1.02-1.05,1.28-3.21,1.64-.19.03-.37.06-.56.09-2.6.14-4.57.96-5.83,2.43-1.47,1.72-1.99,4.18-1.63,7.74.21,2.99,2.24,5.23,5.15,5.72,11.85,2.45,21.81,2.75,30.45.96,1.96-.29,3.57-1.17,5.13-2.04,1.28-.71,2.49-1.37,3.81-1.68,1.26-.28,2.67-.26,4.03-.25.28,0,.56,0,.81,0,2.49.08,5.09-.26,7.62-.57,2.82-.35,5.73-.71,8.55-.55.35.06.47.2.54.29.17.23.32.76.13,2.01-.68,4.55-.48,9.28-.2,13.27,0,.14.02.27.02.41.02.41.07,1.26-.08,1.43,0,0-.08.05-.35.05-1.99-.01-5.14-.06-8.3-.12-3.17-.06-6.33-.12-8.35-.17-.44-.05-.64-.14-.71-.18-.02-.37.52-1.37.84-1.98.9-1.68,2.11-3.97.38-5.61-1.49-1.56-5.24-2.23-8.06-1.43-1.9.54-3.12,1.69-3.41,3.19-.29,1.22.36,2.64,1.05,4.14.98,2.13,1.35,3.25.83,3.81l-1.52.07c-8.42.38-33.4,1.51-40.44,1.43-.03-.62.35-1.45.91-2.54.78-1.54,1.66-3.27.79-4.93-.02-.04-.05-.08-.07-.11-1.19-1.78-4.69-2.61-7.39-2.39-1.35.11-2.45.48-3.24,1.07.04-.1.08-.2.11-.3,1.09-3.35.54-7.41.12-9.53,0,0,0-.02,0-.03,0-.32,0-.58,0-.83.53-6.05,1.85-12.11,3.14-17.97,1.5-6.85,3.06-13.92,3.37-21.12.2-3.12-.05-6.37-.78-10.56-1.03-11.01-7.91-11.67-16.81-11.39-2.05.08-4.88.14-7.38.2-1.62.04-3.09.07-4.14.11v-.05c.2-10.04.17-29.03.12-51.01-.04-21.15-.09-45.29.1-64.76.04-.07.09-.14.14-.2,4.72,6.79,12.12,10.64,20.68,10.65,8.36.01,16.02-4.18,21.32-11.57,5.31,7.09,12.72,10.84,21.09,10.63,8.2-.21,15.47-4.23,20.69-11.37,5.58,7.9,13.32,12.27,21.97,12.36,7.99.08,15.12-4.29,20.3-12.38,4.91,7.22,12.31,11.07,21.08,10.93.07,0,.15,0,.22,0,8.23-.2,15.13-4.04,20.53-11.43,5.44,7.71,12.87,11.82,21.13,11.65,8.14-.17,15.55-4.52,20.62-12,5.65,7.6,13.05,11.55,21.05,11.19,8.47-.38,15.35-4.32,19.99-11.43.66.81,1.31,1.56,1.95,2.29-.05,18.96,0,42.32.04,65.26.06,27.02.11,54.97,0,74.39.14,32.99.05,90.93-.01,137.48ZM326.24,343.13c-.05,42.5-.1,90.66,0,151.64v2.83h-7.38c-.05-42.82-.07-160.6-.09-251.11,0-33.09-.01-62.69-.02-84.3,2.05,1.62,4.35,2.92,7.27,3.96.34,67.63.28,118.98.22,176.98ZM331.22,340.83c-.1,63.32-.19,123.5-.26,156.76h-.34c-.02-6.05-.05-12.93-.08-20.53-.3-75.42-.88-220.1-.1-309.67.35.08.7.14,1.05.21-.08,45.09-.18,109.98-.28,173.23ZM344.47,497.6h-9.27c.02-24.68.03-48.52.05-71.87.05-90.98.09-170.85.54-257.56,1.31.1,2.62.15,3.95.13,1.76-.03,3.54-.17,5.32-.41.38,94.19-.21,242.68-.59,329.71ZM378.02,117.33c.11,6.05.22,11.76-.94,17.58-1.61,8.13-11.41,13.61-19.7,13.74-.11,0-.23,0-.35,0-7.98-.01-17.66-5.44-20.06-14.51-1.4-5.32-1.16-10.82-.9-16.65.18-3.95.36-8.02-.02-12.05,4.39-.19,8.68-.12,12.84-.04,7.59.14,15.44.28,23.67-1.28l-.25-2.83-36.76-.49-13.38-95.32,38.59-.1,17.5,98.65c-.42,4.5-.34,8.97-.26,13.3Z"/>
        <path d="M184.87,358.76c-8.4,3.21-13.59,12.72-11.81,21.6,1.22,7.27,6.4,13.36,13.52,15.9,2.24.8,4.53,1.19,6.79,1.19,4.59,0,9.03-1.63,12.61-4.76l.06-.05c4.12-3.47,6.48-8.44,6.66-14.01.19-5.88-2.08-11.54-6.23-15.52-5.65-5.5-14.33-7.25-21.59-4.36ZM204.97,386.9c-3.25,4.34-8.65,6.71-13.77,6.03-5.18-.66-9.93-4.05-12.4-8.86-2.17-4.24-2.18-8.76-.03-12.74,0,0,0,0,0-.01l.04-.07c1.23-2.31,3.09-4.28,5.84-6.18,3.1-2.09,5.95-3.11,8.78-3.11,1.14,0,2.29.17,3.44.5,4.79,1.19,8.51,4.68,10.23,9.57,1.79,5.09.97,10.79-2.14,14.87Z"/>
      </g>
    </g>
  </g>
</svg>