<?xml version="1.0" encoding="UTF-8"?>
<svg fill="#342609" id="Layer_2" data-name="Layer 2" xmlns="http://www.w3.org/2000/svg" viewBox="0 0 1025.07 572.5">
  <defs>
    <style>
      .cls-1 {
        fill: none;
      }
    </style>
  </defs>
  <g id="Layer_1-2" data-name="Layer 1">
    <g>
      <path class="cls-1" d="M694.24,125.57c-.33.93-.48,1.76-.54,2.42,3.94-2.18,7.55-5.18,11.36-8.35.87-.73,1.75-1.45,2.63-2.17,4.4-3.73,8.09-7.01,11.6-10.3,6.04-5.69,8.2-8.55,12.95-14.83l.34-.45c.69-.94,1.42-1.91,2.17-2.89,1.8-2.37,3.65-4.81,5.06-7.17-3.45.9-8.43,3.08-11.28,4.7-13.1,7.47-24.18,18.88-31.21,32.13l-.14.26c-1.31,2.5-2.21,4.38-2.91,6.55-.01.03-.02.07-.03.1Z"/>
      <path class="cls-1" d="M583.56,207.73s-.04.09-.06.14c-4.95,11.05-10.23,23.45-15.7,36.9-2.38,5.71-2.4,8.61-2.17,9.45.1.02.24.03.44.03.39,0,1.08-.06,2.13-.32,13.5-3.8,28.08-13.76,40.01-27.33l.46-.57c5.89-7.27,13.94-17.2,10.5-25.05-3.26-4.94-9.23-7.34-18.24-7.34-5.75,0-11.81,1-17.32,2.15,0,.01.02.02.03.03.13.15.26.32.37.49,2.56,3.97.74,8.46-.35,11.14l-.11.28Z"/>
      <path class="cls-1" d="M351.44,104.98c-3.11,6.01-3.21,8.49-3.14,9.2.17.04.45.07.87.07,4.99,0,15.37-4.86,23.05-9.68,5.77-3.57,15.28-10.72,23.1-19.13,8.14-8.76,12.33-16.68,11.83-22.34-1.8-6.67-8.61-10.04-20.26-10.04-5.11,0-10.29.68-14.55,1.47.17.24.32.47.44.68,1.22,2.14,1.97,5.85-1.31,11.43-2.35,4.3-10.56,19.48-20.03,38.34Z"/>
      <path class="cls-1" d="M539.24,57.62c.87-1.48,1.8-3.02,2.75-4.62,4.74-7.92,10.33-17.26,14.21-25.66-.32.43-.63.87-.95,1.3-.72,1-1.43,1.98-2.13,2.9-8.58,12.44-20.47,30.78-28.45,47.55l-.1.22c-.08.17-.17.34-.27.5-.46.86-1.34,2.96-2.38,5.64,6.05-9.49,12.46-19.85,17.32-27.84Z"/>
      <path class="cls-1" d="M317.11,240.33c.1-2.42-3.41-2.44-3.58-.11v.11c0,2.48,3.34,2.33,3.58,0Z"/>
      <path class="cls-1" d="M803.03,411.69h-.05s-.5,1.98-.83,3.03l-1.76,5.67h5.21l-1.76-5.67c-.33-1.05-.8-3.03-.8-3.03Z"/>
      <path class="cls-1" d="M350.02,254.65c-.33,2.95,4.53,4.88,4.45.84v-.13c-.09-2.21-3.98-3.18-4.45-.71Z"/>
      <path class="cls-1" d="M883.75,123.6c.18,1.29.68,2.26,1.6,3.07.5.16,1.06.24,1.69.24,8.11,0,22.01-12.78,27.54-19.98,5.06-6.39,8.82-11.4,11.2-17.67.77-2.03.66-3.93-.32-5.35-.93-1.36-2.56-2.13-4.45-2.13h0c-.62,0-1.27.08-1.93.25-8.63,2.96-16.89,9.23-24.53,18.59l-.18.22c-10.15,13.34-11.01,19.99-10.62,22.76Z"/>
      <path class="cls-1" d="M906.26,208.75c-1.17.38-2.49.95-3.5,1.39-.65.28-1.26.55-1.83.77-9.24,4.37-18.32,12.31-25.6,22.37-6.44,9.47-10.22,18.31-10.15,23.57,1.85-1,4.79-3.64,6.03-4.76.62-.56,1.2-1.08,1.7-1.51,9.98-9.35,17.24-17.05,21.55-22.87l.12-.17c1.76-2.41,3.82-5.72,6-9.23l.46-.74c.6-1.1,1.33-2.24,2.1-3.45.79-1.24,2.28-3.58,3.11-5.39Z"/>
      <path class="cls-1" d="M292.54,387.16c-5.63,4.57-11.25,9.24-17.89,12.17-6.14,2.93-12.64,5.84-19.37,5.96-5.31.08-10.55-1.15-15.86-1.22-4.63-.19-9.3.2-13.93-.05-12.36-.92-24.04-6.72-33.4-14.74-1.97-1.68-3.89-3.43-5.81-5.15-1.65-1.46-3.32-2.97-4.99-4.31-1.66-1.31-3.29-1.94-4.46-1.29l-.08.04c-1.98,1.38-1.96,4.36-1.43,6.92,1.69,6.09,7.31,8.42,11.78,13.35,3.42,3.79,7.47,6.84,11.5,9.9,3.97,3.46,7.26,6.4,11.08,9.75,2.73,2.43,6.92,6.18,9.72,8.66,1.71,1.51,3.71,3.09,5.42,3.58,3.76.98,6.92-1.09,10.76-1.84,4.24-.77,8.77-.6,12.99-1.55,3.99-.84,7.97-2.26,12.1-2.97,3.7-.69,7.45-1.18,10.97-2.57,4.4-1.7,8.44-4.43,12.27-7.19,1.71-1.21,3.33-2.34,4.99-3.53,2.25-1.63,4.75-3.29,5.79-5.96,1.41-3.45.78-8.42,1.21-12.55.11-2.9,1.01-9.15-3.34-5.41Z"/>
      <path d="M19.2,374.54h0c-.95-.96-2.21-2-3.22-2.89.97.9,2.07,2.16,3.21,2.89Z"/>
      <path d="M352.56,243.91l-.13.09c-2.09,1.54-3.6,3.74-4.3,6.05-1.97,5.95,1.81,13.74,8.78,10.04,4.62-2.56,8.34-8.9,6.41-14.23-1.63-4.63-7.29-4.69-10.76-1.96ZM350.02,254.65c.47-2.47,4.36-1.5,4.44.71v.13c.09,4.05-4.77,2.11-4.44-.84Z"/>
      <path d="M248.05,330.95c-17.06,10.95-33.77,23.94-54.33,27.05-2.11.67-4.53,2.62-2.13,3.45,1.39.41,4.06-.49,6.47-1.28,3.46-1.13,6.89-2.37,10.28-3.7,10.16-4.02,20.2-9,29.4-14.82l.12-.07c5.8-3.65,11.81-7.49,17.26-11.68,1.16-.93,2.58-2.12,3.28-3.3,1.67-4.15-9.38,3.8-10.34,4.35Z"/>
      <path d="M193.45,342.92c-2.04-.49-5.42.75-7.95,1.25-5.78,1.51-11.56,1.86-17.53,1.6h-.17c-11.27.04.25,2.32,3.87,2.37,5.02.34,9.93-.51,14.77-1.34,2.24-.39,4.89-.85,6.73-2.13.95-.64,1.32-1.43.28-1.75Z"/>
      <path d="M311.68,265.74c3.29,1.03,7.51-.04,10.39-2.15,1.71-.99,3.74-4.55,1-4.71-1.89.21-4.3,1.75-6.17,2.86-1.33.82-2.62,1.68-3.65,2.38-1.24.85-1.87,1.37-1.61,1.6l.03.03Z"/>
      <path d="M149.74,342.18c.55,1.26,1.07-2.54,1.2-2.98.75-4.15,2.88-7.8,5.84-10.82,4.78-4.91,11.13-8.07,17.39-10.7,14.74-6.16,29.3-13.11,44.29-18.74,10.63-4.08,21.28-8.19,31.23-13.78,15.98-8.85,32.16-17.37,48.25-26.02,2.34-1.36,6.25-3.65,7.3-5.68.03-.23-.19-.3-.62-.2-.3.07-.71.22-1.19.43-4.27,2.12-8.46,4.71-12.54,7l-.13.07c-4.08,2.34-8.14,4.98-12.37,7.27-3.75,2.03-6.21,3.11-9.85,5.33-17.09,10.5-35.9,17.71-54.43,25.17-4.6,1.68-8.27,4.94-12.77,6.8-4.31,1.68-8.86,2.76-13.18,4.41-9.84,3.63-19.51,8.14-28.13,14.17-6.27,4.16-12.48,10.35-10.28,18.25Z"/>
      <path d="M503.59,467.56c-2.18-3.37-1.88-7.88-4.34-11.15-2.14-3.13-5.93-4.73-7.93-7.92-2.59-4.37-2.75-9.85-6.02-13.9-2.92-4.34-8.13-6.37-11.28-10.48-2.02-3.08-1.69-4.41-.27-7.43.74-3.15,1.34-6.87,2.36-10.04,2.02-6.79,8.03-11.08,11.31-17.11,3.32-6.19,2.65-16.59-.21-22.84-1.55-3.41-.89-7.68-2.59-10.92-3.66-6.2-11.52-3.38-17.37-3.7-6.44-.89-12.35-2.85-18.59.33-3.72,1.51-7.52,3.65-11.64,3.53-5.72-.37-10.2-3.15-16.01-3.91-6-1.04-11.87-2.62-17.97-2.58-4.49.04-9.05.78-13.24,2.28-2.24.81-4.62,1.71-6.98,1.77-2.65.13-5.3-.69-8.06-.96-1.28-.2-2.83-.18-3.94-.8-1.32-.78-.31-2.48.55-3.69h-.41c2.19-4.7,4.39-9.4,6.58-14.1.31-.67.28-1.32.04-1.86.25-.36.5-.69.7-.97,4.65-5.83,8.78-10.67,13.95-15.37,8.4-7.27,16.69-14.85,19.99-25.67,4.86-14.06,4.33-29.3,4.28-43.9-.45-8.04,1.36-16.78-1.78-24.36-6.33-11.3-22.08-12.49-33.54-14.8-9.49-1.94-19.23-2.69-28.63.09-11.24,2.78-21.83,7.27-30.93,14.3-3.48,2.93-5.97,6.87-8.96,10.36-3.49,3.84-6.56,7.89-8.94,12.47-2.31,4.33-6.53,6.73-10.75,8.86-5.31,2.8-10.19,6.52-15.52,9.26-6.97,3.16-13.04,7.37-20.17,10.39-14.85,5.86-29.7,11.71-44.44,17.86-12.51,4.46-25.24,8.53-37.72,12.99-6.95,2.04-13.1,4.9-18.47,9.03l-13.98-12.18c-.21-.18-.43-.28-.66-.34-.27-.34-.61-.5-.96-.53-5.83-4.59-11.94-8.97-17.28-14.16-8.96-7.38-27.63-22.6-38.6-22.87-28.98,2.58-61.46,40.82-75.97,64.41-6.29,9.98-11.7,22.31-7.98,34.17,1.39,4.42,4.42,7.54,7.68,10.61,4.73,4.85,9.81,7.7,15.25,11.81,11.15,9.35,22.2,18.47,33.82,27.11,11.98,8.56,21.25,22.2,35.83,26.32,6.79,1.28,12.95-3.04,18.84-5.79,7.72-3.89,15.86-7.29,22.76-12.51,3.95-2.98,8.58-4.72,13.41-5.67,7.58-2.19,13.27-2.93,19.54,2.16,11.84,8.2,23.18,16.52,33.42,26.61,3.25,3.22,9.03,5.12,9.75,10.18.25,4.02.04,9.73,3.94,12.7,4.34,3.13,8.54,5.79,12.68,9.42,6.69,3.86,10.91,10.47,16.73,15.35,5.63,5.23,13.26.52,19.42,3.51,5.52,2.9,9.67,8.02,14.42,12.01,23.96,20.07,50.21,38.97,72.68,60.75,4.62,4.86,11.81,10.17,17.63,4.06,2.44-2.22,4.72-5.6,6.42-8.71,4.03-7.32-4.23-12.52-9.05-17.21-6-5.83-12.28-11.37-18.71-16.72-12.91-10.71-26.47-20.61-40.02-30.49l-12-8.75c-1.65-1.21-3.5-2.15-5.2-3.29-1.33-.89-4.36-2.57-4.63-4.37-.23-1.51,1.59-1.64,2.8-2.15,0,0,5.81-2.41,5.9-2.44,3.15-1.31,6.31-2.61,9.46-3.92,3.96-1.65,7.58-5.75,12.17-5.9,1.36-.04,5.3.31,6.29,1.45,1.51,1.73-.73,3.83-.89,5.72-.26,3.03,2.91,5.85,4.44,8.41,1.55,2.22,2.59,4.92,4.83,6.54,3.81,2.63,9.4.89,13.77,2.26,4.78.79,9.41,4.85,14.15,3.66,1.82-.57,3.21-1.98,4.5-3.35,4.38-5.95,10.25-3.18,16.07-1.22,3.74,2.4-4.93,6.72-1.41,11.5,1.57,2.26,5.09,3.45,7.03,5.69,2.96,3.58,4.79,9.72,10.57,8.87,6.91-1.21,14.13-5.52,21.35-3.01,3.15.87,6.4,3.83,9.72,2.87,6.43-3.62,1.93-14.69,1.64-20.59-1.3-8.47,5.54-3.53,10.11-2.54,15.25,2.64,30.43,7.75,46.09,5.63,8.9-1.02,19.6-1.27,25.48-9.08,7.2-9.69-.17-14.06-6.23-20.97l-.06-.09ZM370.32,356.87l.11.03c2.26.71.37,2.14-1.17,2.78-1.67.78-4.27,2.05-6.14,2.86-2.13.93-1.34-1.01-.86-2.16.69-1.55,1.32-3.02,2.93-3.42,1.61-.41,3.53-.35,5.13-.08ZM313.52,240.22c.18-2.32,3.68-2.3,3.58.11-.24,2.33-3.57,2.47-3.59,0v-.11ZM170.86,310.57c11.2-5.82,23.51-10.18,35.29-14.18,14.86-5.5,31.75-11.51,46.35-16.91,7.78-3.33,16.35-8.38,24.43-12.26,7.67-3.93,15.05-9.22,22.47-13.52,3.42-2.2,7.16-3.22,11.41-3.41,1.79-.12,3.58-.23,5.35-.54.79-.14,1.6-.44,2.39-.43.85,0,1.76.2,2.59.37,2.35.47,4.7,1.21,6.7,2.55,1,.67,1.9,1.49,2.63,2.44.81,1.05,1.11,2.25,1.83,3.35.99,1.52,2.09,2.98,3.23,4.4.33.4.65.8.97,1.18,2.77,3.1,4.65,6.45-.55,8.3-13.18,3.69-25.61,9.74-37.37,16.65-9.09,5.84-19.05,10.24-28.56,15.5-13.06,7.93-25.62,16.56-39.03,23.9-9.9,5.72-19.47,10.71-29.88,15.26-7.61,3.37-15.4,7.62-23.39,9.96-8.42,2.91-17.52,1.02-26.07,2.35-2.8.51-5.52,1.62-8.33,2.03-11.03,1.67-9.19-13.24-4.54-19.03,4.96-6.75,10.81-12.98,17.11-18.65,5.01-3.41,9.79-6.27,14.97-9.31ZM295.43,306.95c2.32-.65,4.73-1.71,7.03-2.58,9.53-3.57,19.07-7.72,28.95-10.07,5.16-1.27,10.74-1.59,15.56-3.96,2.21-1.04,4.24-2.88,5.9-3.36,3.82-1.03,4.8,4.73,6.42,7.12,1.81,3.44,4.19,6.62,3.64,10.43-.57,3.83-2.82,7.35-4.56,10.68-1.19,2.05-2.59,4.23-3.75,5.71-4.96,6.6-14.23,8.42-20.55,13.28-1.93,1.44-3.67,3.11-5.4,4.78-4.34,4.42-9.57,8.01-13.07,13.14-4.52,6.67-9.02,13.46-13.96,19.75-3.98,5.32-9.49,9.06-14.85,12.86-9.47,6.9-18.51,15.21-30.41,16.8-10.07,1.4-19.96-1.53-30.03-1.34-10.3.46-20.13-2.65-28.44-8.9-5.43-3.98-9.99-9.34-15.07-13.7-6.19-5.37-13.79-8.92-21.52-11.42l-.14-.05c-2.82-.89-10.32-3.2-9.49-5.53.77-.81,1.82-.85,3.43-1.15,3.76-.52,7.92-1.11,11.73-1.65,5.47-.78,9.03-1.07,13.79-2.28,7.17-2,14.47-4.94,20.77-8.74,2.23-1.39,4.38-2.94,6.59-4.32,5.55-3.39,10.77-5.53,16.62-8.96,9.03-5.14,17.81-9.84,26.84-14.98,7.95-4.91,15.51-10.31,23.5-15.09,6.2-3.49,12.93-6.49,19-10.23,6.08-3.64,12.69-6.24,19.18-9.07,5.31-2.35,11-5.12,16.17-7.49,3.16-1.47,4.45-1.61,7.5-2.35,4.17-.96,8.68-2.99,13.07-2.02,3.36.84,6.5,1.75,4.17,5.06-2.25,3-5.11,6.57-8.12,8.63-14.11,8.83-32.13,7.52-46.34,16.16-1.51.95-6.51,3.53-6.41,4.97.19.26,1.02.18,2.26-.16ZM295.88,392.57c-.42,4.13.21,9.1-1.21,12.55-1.04,2.67-3.54,4.33-5.79,5.96-1.66,1.2-3.28,2.33-4.99,3.53-3.84,2.75-7.87,5.48-12.27,7.19-3.52,1.39-7.27,1.88-10.97,2.57-4.13.72-8.11,2.13-12.1,2.97-4.22.95-8.74.78-12.99,1.55-3.84.75-7,2.82-10.76,1.84-1.71-.49-3.71-2.08-5.42-3.58-2.8-2.48-6.99-6.23-9.72-8.66-3.82-3.35-7.11-6.3-11.08-9.75-4.03-3.06-8.08-6.11-11.5-9.9-4.47-4.93-10.09-7.26-11.78-13.35-.53-2.56-.55-5.55,1.43-6.92l.08-.04c1.17-.64,2.8-.02,4.46,1.29,1.67,1.34,3.34,2.84,4.99,4.31,1.92,1.72,3.85,3.47,5.81,5.15,9.36,8.02,21.04,13.82,33.4,14.74,4.64.25,9.3-.14,13.93.05,5.31.08,10.54,1.3,15.86,1.22,6.73-.12,13.23-3.03,19.37-5.96,6.64-2.92,12.26-7.6,17.89-12.17,4.35-3.74,3.46,2.52,3.34,5.41ZM86.87,428.72h0c.3.2,1.25.82,1.53,1.16-.33,0-1.41-.86-1.54-1.16ZM152.91,406.42c-4.4.45-8.47,3.08-12.57,4.93-5,2.3-10.13,4.41-14.87,7.22-8.8,5.18-17.09,12.42-27.58,13.31-11.45-.37-24.29-16.4-34.21-22.83-12.81-9.92-25.12-19.36-38.43-28.74-22.37-16.41-27.21-28.61-12.76-53.22,14.73-23.49,34.87-44.22,58.86-58.26,13.59-7.98,23.44,1.16,34.43,8.92,8.01,5.66,17.07,11.33,24.87,17.89,7.56,6.36,14.41,14.64,23.2,19.33-2.22,2.01-4.3,4.26-6.23,6.82-6.97,9.71-17.73,19.75-14.75,32.82.79,4.15,2.74,9.05,7.32,8.75,2.15-.12,4.39-1.12,6.52-.54,2.55.7,4.66,2.59,7,3.83,2.88,1.65,6.2,2.06,9.32,3.14,12.07,3.71,7.64,9.36,8.19,18.69,1.37,9.18,18.07,12,14.62,18.06-1.85,3-6.1,7.15-10.01,7.7-7.99,0-14.33-9.14-22.93-7.82ZM185.77,423.01c-1.56-1.1-3.35-2.25-4.49-3.23-1.78-1.44-1.36-2.83-.16-4.31,4.64-5.47,7.2-12.34,14.55-5.93,4.19,3.55,8.02,7.58,11.88,11.11,4.08,3.79,8.29,6.69,12.53,10.36.83.74,1.56,1.48,2.12,2.23,1.24,1.65,1.67,3.58,2.29,5.51.3.93.69,1.75,1.21,2.57.65,1,1.14,2.05,1.88,3,.31.4.65.8,1.09,1.06.19.11.55.27.86.3-3.93,1.56-7.92,3.14-11.87,2.47-2.16-.41-4.02-1.67-5.65-3.14-8.37-7.72-16.61-16.12-26.26-22ZM219.09,464.01l-.13-.06c-3.45-1.42-6.11-6.1-3.35-9.29,1.96-2.33,6.13-2.3,9.16-2.98,4.83-.88,8.71-5.68,13.65-5.53,2.41.21,5.13,2.69,5.98,4.76,1.04,2.32-.92,4.22-2.49,5.8-1.46,1.44-3.26,2.98-4.84,4.22-5.2,4.41-11.73,5.57-17.99,3.08ZM257.62,475.27c-.07.07-.13.14-.2.21-2.34,2.46-6.98,2.14-8.99,4.99-.58,1.99,4.97.48,6,.78,2.38.06,1.39,3.13,1.08,4.86-.42,1.7-.82,3.93-2.8,4.24-2.92.28-7.65-2.85-9.95-5.39-2.63-2.69-4.3-6.62-6.84-9.04-1.53-1.45-3.49-2.3-5.38-3.18-1.18-.57-3.02-1.33-2.92-2.61.08-.61.7-1.17,1.66-1.7,1.21-.67,2.91-1.34,4.43-2.2,4.18-2.36,8.58-5.06,11.02-9.35,1.22-2.14,1.78-4.55,1.66-7.01-.05-1.08-.56-2.44,1.18-1.96.48.13.9.41,1.31.69,2.41,1.62,5.44,3.09,7.56,5.07,1.78,1.66,3.54,3.75,4.89,5.79,1.89,2.86,2.46,4.61,1.17,7.77-1.18,2.9-2.74,5.73-4.88,8.04ZM295.16,490.38l.11.09c11.09,9.53,22.84,18.25,34.42,27.24,6.75,5.34,10.9,9.96,17.57,15.36,6.74,5.36,14.19,10.25,20.18,16.25,4.38,4.28,9.15,7.59,3.96,13.9-1.48,2.12-3.56,4.53-5.13,5.23-2.9,1.34-4.53-1-6.94-2.88-1.12-.96-2.22-1.72-3.59-2.78-5.2-4.04-11.29-9.48-16.31-13.02-4-2.87-8.36-6.03-11.99-8.99-7.71-6.47-15.1-13.04-23.62-19.03-4.92-3.74-9.46-8.72-14.13-12.66-5.96-5.11-12.52-10.18-18.27-15.13-2.9-2.55-6.19-5.41-9.14-8.09-2.78-2.39-4.62-5.45-2.79-9.13,1.23-2.86,4.19-7.36,6.52-7.53,1.21-.13,2.22.77,3.08,1.66,3.03,3.47,7.28,6.19,11.23,8.67,5.09,3.4,10.21,6.97,14.84,10.84ZM311.69,464.05c-1.55.95-2.88,2.11-4.64,2.86-5.76,2.67-11.3,5.52-17.52,6.45-4.12.66-8.64,1.08-12.44-.97-6.2-3.34-8-10.98-13.61-15.15-6.03-4.9-19.11-15.53-27.07-13.83-2.07.4-4.17,1.21-6.31,2.06.18-.3.17-.83.14-1.1-.05-.44-.2-.86-.35-1.27-.5-1.4-1.01-2.8-1.51-4.2-.42-1.16-.96-2.2-.74-3.44.29-1.65,1.66-2.78,3.1-3.47,1.38-.66,3.31-1.29,4.87-1.17,22.41,1.64,39.02-6.55,57.39-18.28,3.56-2.21,5.33-1.3,6.27,2.75.68,2.66,1.46,5.37,2.21,8.02,3.71,13.17,4.25,28.17,11.82,39.91-.57.24-1.1.53-1.61.84ZM357.52,491.17c-2.25.67-4.52-.61-6.62-1.48-1.81-.8-3.64-1.5-5.55-2.04-2.23-.65-4.52-1.04-6.84-1.1-4.32.07-7.1.16-9.44-3.61-1.5-2.18-2.77-4.87-4.23-7-.99-1.45-1.63-2.76-1.23-3.71,1.58-2.87,7.67.14,10.13.81,4.33,1.35,8.28,3.65,12.44,5.48,2.68,1.18,5.38,2.22,8.16,3.14,2.4.97,6.83,1.7,7.16,4.67v.09c0,1.84-1.94,4.14-3.98,4.74ZM425.99,508.13c-.33,1.75-.73,3.18-1.52,3.65l-.06.03c-1.84.72-4.26-1.05-6.19-1.42-4.83-1.36-9.37-1.23-14.09-.28-2.29.45-4.71,1.48-7.05,2.01-3.83.98-5.37-1.82-7.13-4.64-1-1.5-2.2-2.86-3.66-3.92-2.11-1.59-4.77-2.57-5.81-4.85-1.37-3.73,3.2-5.07,5.82-6.71,3.85-2.56,7.9-4.48,12.63-5.14,2.42-.29,4.83-.93,7.06-.9,4.15.18,8.45,1.84,12.33,3.1,4.11,1.35,7.54,2.88,7.5,7.82.07,3.7.97,7.49.16,11.24ZM504.55,488.99l-.11.06c-12.2,6.81-19.24,7.92-32.9,5.6-11.03-.61-21.89-2.98-32.08-7.27-8.8-3.42-17.85-6.79-26.02-11.63-8.91-5.41-18.58-10.52-26.86-16.75-7.93-5.14-12.04-12.76-11.86-22.21-.13-13.79,17.27-15.46,13.16-27.52-.35-1.01-1.73-2.25-2.34-.79-.64,1.68-.12,4.09-.55,6.35-.27,1.62-1.03,3.13-2.15,4.32-3.09,2.92-7.37,5.51-9.56,9.58-4.24,7.24-3.16,16.33.72,23.42,6.59,11.15,21.81,13.84,30.07,23.24,4.66,6.53-5.26,7.21-9.56,7.6-5.55.54-11.09,2.02-16.69,1.81-6.63-.15-12.46-3.64-18.7-5.43-6.21-1.71-12.11-4.01-17.37-7.63-7.56-5.2-16.86-5.53-24.33-10.04-5.64-3.41-6.62-10.64-8.23-16.46-1.47-5.33-2.87-10.68-4.18-16.05-2.32-9.49-4.91-19.1-5.76-28.84-1.19-13.56,1.78-25.22,11.09-35.33,6.23-9.14,14.05-17.13,23.55-22.96,6.07-4.78,12.46-9.23,18.56-13.98,4.41-3.83,7.56-8.96,10.11-14.25,1.75-3.8,3.96-8.06,2.75-12.31-1.75-5.87-8.84-11-8.77-17.43.11-2.49,1.77-4.72,2.3-7.07,1.12-6.69-8.87-5.35-12.3-8.85-3.06-2.49-5.59-5.91-8.65-8.22-3.19-2.65-4.87-6.56-8.05-9.26-1.47-1.25-3.27-1.9-5.13-2.42-3.19-.9-6.58-.57-9.86-.49-.19,0-.38,0-.58,0-.12,0-.24,0-.36,0-.2,0-.4-.03-.59-.05-.1-.01-.2-.02-.29-.03-.28-.04-.55-.09-.8-.17-1.78-.36-3.42-2.75-1.95-4.22,1-.86,3.17-.11,5.3-.24,2.87-.18,5.35-3.05,5.83-5.89.61-4.04-2.81-7.28-.37-10.76,9.42-11.41,30.7-16.09,45.11-16.9,12.32-.04,35.01,4.35,43.24,14,3.65,4.97,2.21,11.96,2.36,17.95-.15,7.3.62,14.6.16,21.88-1.12,27.32-4.46,33.85-25.15,51.54-10.42,7.94-15.22,21.69-20.62,33.21-.06.12-.09.24-.13.36-7.66,9.87-14.21,23.26-13.66,35.12.3,2.69,1.47,5.48,3.55,7.3.9.96,3.62,2.06,3.12-.26-.54-2.18-2.28-4.29-2.82-6.54-.95-4.45.47-9.32,2.21-13.45,2.81-5.57,11.58-7.69,17.09-10.01,4.55-1.36,8.46-3.73,12.99-5.28,6.45-1.83,13.1-1.82,19.64-1.87,5.2.09,10.18,1.81,15.19,3.13,8.94,2,16.16,3.88,23.5,9.79,1.57,1.07,4.37,3.09,5.93,2.71,1.25-.42.16-1.77-.5-2.37-2.45-2.47-6.57-3.4-7.89-6.69-.5-3.96,10.24-5.66,13.28-6.09,4.59-.64,9.18.96,13.68.88,1.98-.06,3.99-.45,5.96-.32,5.66.16,4.9,6.65,5.9,10.78,2.02,5.3,3.42,9.77,1.91,15.47-.64,3.95-2.65,6.77-4.88,10.01-2.17,3.55-4.98,6.74-7.74,9.82-1.42,1.61-1.49,3.33-2.93,4.89-1.33,1.55-3.27,2.77-5.36,2.89-1.97.2-3.75-.66-5.43-1.58-5.56-2.78-11.29-5.76-17.1-8.04-8.52-2.71-3.59,1.71.15,3.92,4.8,3.35,10.56,5.33,15.21,8.77,2.61,2.05,5.71,3.87,7.75,6.38,2.14,2.59,3.07,6.03,5.62,8.31,4.51,3.85,10.76,6.72,13.22,12.63,2.07,4.07,2.88,8.95,5.47,12.66,2.02,3.01,5.18,5.04,7.24,8.02,2.32,3.32,3.28,7.4,5.71,10.66,5.07,6.56,13.6,12.53,2.53,18.93Z"/>
      <path d="M272.2,105.53c1.78,5.88,6.35,8.3,11.47,8.3,4.36,0,9.13-1.75,12.93-4.61,2.83-1.91,6.66-6.04,6.44-7.81-.01-.12-.04-.35-.05-.46-.43-2.13-4.74-3.1-5.27-5.53-.38-1.97.58-3.61,1.78-5.38,12.79-14.4,44.62-32.19,63.52-37.73,6.05-1.63,15.16-3.46,23.87-3.46,11.24,0,21.83,3.05,24.42,13.52,1.86,16.12-23.97,37.83-36.87,45.81-6.44,4.04-18.44,10.31-25.27,10.31-5.32,0-7.5-3.8-1.47-15.44,7.86-15.68,15.55-30.14,20.1-38.48,3.59-6.06,1.44-9.29-3.22-9.29-1.65,0-3.61.41-5.75,1.24-8.76,3.35-11.82,10.95-16.22,18.32-5.23,9.13-10.5,18.62-15.37,27.56-13.18,24.27-28.39,53.77-41.1,80.76-3.58,7.77-7.07,15.41-9.56,22.31-2.81,6.36.17,8.41,4.33,8.41,2.22,0,4.77-.58,6.97-1.4,7.95-3.06,11.43-10.38,14.79-17.66,2.31-4.86,4.76-9.94,7.09-14.8,4.28-8.97,8.26-17.23,12.81-26.46,2.79-5.3,5.25-12.19,10.01-15.9,2.06-1.46,4.28-1.9,6.58-1.9,3.57,0,7.36,1.06,11.1,1.06,1.18,0,2.36-.11,3.53-.39,28.1-5.59,63.93-32.76,77.16-57.85l.13-.25c8.3-15.57,10.15-32.05-7.13-40.32-7.22-3.73-14.22-5.35-21.77-5.99-1.85-.1-3.72-.14-5.61-.14-31.94,0-68.69,13.48-94.17,30.4-12.35,8.9-34.32,26.09-30.23,43.27Z"/>
      <path d="M484.65,139.73c-.14-.02-.29-.03-.44-.03-3.56,0-8.25,4.94-10.86,7.28-5.72,5.26-11.88,10.7-18.78,14.75-5.14,2.97-11.45,5.52-17.55,5.52-2.76,0-5.47-.52-8.03-1.76-8.58-5.17,5.55-14.5,10.07-18.69,3.46-2.82,6.87-5.13,10.34-7.52,4.1-2.97,8.4-5.68,9.12-10.36.23-2.34-1.23-4.22-3.95-4.73-.7-.15-1.42-.22-2.15-.22-4.43,0-9.26,2.46-13.47,2.48-6.74-1.47,13.05-17.28,15.46-18.12,1.61-.94,3.25-1.23,4.89-1.23,2.87,0,5.78.91,8.67.91,1.38,0,2.76-.21,4.13-.81,10.59-4.11,17.28-20.85,1.44-21.71-.18,0-.36,0-.53,0-5.05,0-10.02,1.68-14.7,3.56-6.81,2.78-14.46,7.05-21.16,11.95-8.03,5.87-15.94,13.95-18.2,23.59-2.76,14.75,8.19,14.32-6.44,28.28-14.24,16.45-1.91,30.91,15.87,30.91,1.4,0,2.82-.09,4.28-.27,8.55-.76,16.01-2.92,23.31-6.49,7.37-3.8,23.62-13.42,29.81-23.69-.92-4.24-1.25-8.83-1.13-13.57Z"/>
      <path d="M534.72,25.85c-15.68,21.03-26.72,40.71-35.5,66.43-6.22,19.22-18.55,58.22-2.38,73.46l.19.16c3.71,2.88,7.97,4,12.44,4,9.12,0,19.06-4.68,26.74-8.56,2.24-1.05,4.49-1.44,6.74-1.44,4.5,0,9.02,1.56,13.52,2.54,1.46.27,2.92.4,4.38.4,6.68,0,13.37-2.67,19.86-6.63,4.71-2.95,9.52-7.11,14.99-7.11,1.42,0,2.89.28,4.42.94,6.04,2.52,12.3,5.61,19.03,5.71.71.04,1.43.05,2.14.05,14.46,0,30.04-7.16,43.15-13.54,2.09-1.11,3.95-1.56,5.67-1.56,5.91,0,10.18,5.33,16.75,7.47,1.87.48,3.72.69,5.55.69,13.39,0,25.56-11.74,34.78-20.48,1.28-1.21,2.37-2.07,3.27-2.07.99,0,1.76,1.02,2.3,3.73,1.81,10.88,9.21,16.29,18.67,16.29,2.24,0,4.6-.3,7.02-.91,8.13-1.68,15.8-2.6,22.1-8.08,4.95-4.44,8.82-10.37,13.07-15.36,10.96-13.22,23.76-26.1,37.19-37.41,4.25-3.39,6.61-4.74,7.68-4.74,3.73,0-8.22,16.52-10.47,21.19-5.03,9.47-11.06,22.65-6.64,32.36,3.41,7.53,12,11.58,20.01,11.58.53,0,1.06-.02,1.59-.05,7.53-.14,14.58-5.53,21.93-5.53,1.88,0,3.77.35,5.7,1.23,5.78,2.89,11.21,4.28,16.68,4.28s11.18-1.45,17.22-4.23c18.51-8.79,33.42-24.23,42.68-42.29,7.04-14.82,3.93-24.96-12.11-30.43-4.96-2.04-9.98-3.22-15.04-3.22-4.34,0-8.7.86-13.09,2.79-16.27,6.87-31.24,19.74-38.62,36.05-3.14,7.29-5.23,15.66-11.67,20.81-3.34,2.72-8.12,4.95-12.03,4.95-3.07,0-5.61-1.38-6.5-4.97-1.66-15.05,25.22-38.66,24.82-52.83-.13-7.14-6.85-10.07-13.25-10.07-1.71,0-3.4.21-4.94.6-9.38,1.96-17.42,8.13-25.26,15.11-1.03.72-4.64,4.37-5.57,4.37-.38,0-.31-.62.58-2.32,2.04-4.4,5.9-9.42,5.11-14.24-1.02-2.75-3.31-3.79-5.95-3.79-4.27,0-9.48,2.73-11.8,5.39-4.31,4.43-7.17,10.36-10.5,16.07-4.23,7.49-8.61,15.18-12.83,22.71-4.52,7.98-7.65,14.74-14.38,20.2-2.13,1.75-5.26,3.58-8.12,3.58-1.4,0-2.73-.44-3.86-1.55-6.86-8.19,8.06-36.58,12.62-45.48,2.36-4.39,5.53-11.01.02-13.97-1.52-.79-3.39-1.01-5.38-1.01-2.68,0-5.58.41-8.12.41-.04,0-.09,0-.13,0-.26,0-.53.01-.79.01-5.15,0-10.31-1.69-15.5-1.69-.11,0-.22,0-.33,0-22.7,1.02-47.3,23.19-56.92,43.31-2.4,5.15-4.93,10.37-9.11,14.31-9.16,8.15-21.03,12.11-33.19,14.95-3.39.84-6.54,1.25-9.38,1.25-14.68,0-21.43-10.76-13.17-27.7,6.65-12.42,17.47-22.58,29.69-29.22,1.86-.92,4.27-1.9,6.18-1.9,2.03,0,3.49,1.12,3.1,4.63-.44,4.3-.36,10.2,5.08,10.2.22,0,.44,0,.68-.03,8.19-1.03,14.61-11.16,14.44-18.64-1.37-8.93-8.09-11.91-16.01-11.91-8.93,0-19.4,3.78-25.49,7.08-16.94,8.69-30.27,23.03-36.62,40.92-2.44,7.24-4.04,14.88-9.06,20.86-4.45,5.04-10.6,10.48-17.65,10.66-9.74-1.56-1.64-14.72,1.05-20.51,2.8-5.48,5.15-10.19,8.16-16.29,3.3-6.71,6.72-13.68,9.87-20.44,1.67-3.7,3.88-7.42,2.77-10.13-1.67-3.51-4.8-4.92-8.21-4.92-3.55,0-7.38,1.53-10.15,3.82-6.39,4.82-13.96,11.48-12.55,20.22,1.14,6.6-2.95,13.5-5.99,19.41-5.56,11.03-9.99,23.34-20.25,30.8-3.93,3.36-9.08,5.39-13.61,5.39-6.14,0-11.16-3.72-10.5-12.9.75-5.67,4.08-10.77,7.45-15.32,9.59-12.88,20.11-27.69,29.89-42.16,13.07-20.1,27.63-40.21,34.63-63.51,3.05-9.65-3.19-18.07-12.66-18.07-.57,0-1.15.03-1.74.09-11.69,2.32-19.32,11.74-30.52,25.76ZM891.04,98.25l.2-.25c7.21-8.85,16.15-16.47,26.62-20.01,1.08-.29,2.13-.42,3.14-.42,6.73,0,11.43,6.06,8.72,13.19-2.66,7.02-6.85,12.49-11.83,18.79-5.31,6.92-20.29,21.58-30.85,21.58-1.36,0-2.65-.24-3.83-.78-9.8-7.33,2.09-24.55,7.84-32.1ZM690.26,124.17c.83-2.56,1.89-4.74,3.19-7.22l.15-.28c7.46-14.06,19.12-25.98,32.84-33.81,2.79-1.58,11.35-5.66,15.88-5.66,2.7,0,3.96,1.45,1.71,5.73-2.14,3.91-5.41,7.83-8.05,11.44-5.09,6.72-7.35,9.77-13.8,15.86-3.84,3.6-7.69,7-11.8,10.48-4.8,3.91-9.46,8.12-14.78,11.04-1.26.62-2.29.89-3.13.89-3.47,0-3.56-4.62-2.21-8.47ZM560.92,16.01c.6-.36,1.1-.52,1.5-.52,1.73,0,1.71,2.9,1.18,4.65-3.83,12.08-13.84,27.99-20.73,39.63-8.74,14.37-20.67,33.41-28.17,44.41-1.84,2.77-2.93,3.93-3.47,3.93-2.7,0,8.29-28.8,9.51-30.56l.1-.22c7.51-15.78,18.57-33.34,28.87-48.26,3.32-4.37,6.9-10.09,11.21-13.06Z"/>
      <path d="M587.36,46.67c-1.9,4.75.11,11.3,5.94,11.39h.25c8.19-.16,16.5-9.16,17.39-17.21.49-4.43-3.08-7.73-7.22-7.73-.32,0-.64.02-.97.06-6.59.55-13.16,6.8-15.39,13.49Z"/>
      <path d="M600.95,189.42c8.88,0,17.3,2.2,21.95,9.52,4.96,10.56-4.97,22.37-11.45,30.37-10.88,12.39-26.18,24.21-42.14,28.68-1.24.32-2.31.47-3.22.47-7.21,0-4.72-9.19-2.17-15.32,6.59-16.19,11.92-28.48,15.74-37,.94-2.31,2.26-5.33.83-7.55-1.12-1.29-2.73-1.77-4.47-1.77-2.71,0-5.74,1.18-7.81,2.38-5.07,2.72-7.49,6.66-9.88,11.6-5.33,10.88-10.69,22.59-15.57,33.44-8.55,19.03-18.33,42.32-26.9,64-4.57,12.23-11.66,28.6-13.86,40.98-.26,3.26,2.61,4.25,5.51,4.25,1.22,0,2.45-.18,3.45-.43,9.75-1.87,14.41-10.79,17.23-19.41,2.58-6.75,5.27-13.72,7.69-20.06l.09-.22c2.68-7,5.71-14.75,8.78-22.47,2.56-6.37,5.53-15.53,13.6-15.53.13,0,.27,0,.4,0h.01c2.77,0,5.98.59,9.11.59.81,0,1.62-.04,2.41-.14,5.55-.54,10.74-2.37,15.87-4.67,20.05-9.52,38.16-23.35,51.15-40.97,8.69-12.35,19.21-33.29,6.93-46.45-9.6-8.27-22.23-11.12-35.1-11.12-9.51,0-19.15,1.56-27.8,3.63-26.81,6.64-50.29,16.54-71.48,33.15-10.88,9.23-29.86,26.74-21.82,42.17,2.53,4.14,6.46,5.83,10.69,5.83,5.04,0,10.52-2.41,14.56-5.95,2.33-1.99,5.61-5.79,4.58-7.68-.85-1.91-5.04-2.75-5.75-5.03-.82-3.69,2.4-6.89,4.84-9.52,17.1-15.42,39.57-30.34,62.18-36.72,6.19-1.41,14.16-3.04,21.8-3.04Z"/>
      <path d="M670.46,210.77c.82.29,1.66.42,2.52.42,10,0,21.83-18.16,13.11-24.79l-.19-.12c-1.25-.7-2.58-1.01-3.92-1.01-10.71,0-22.91,19.85-11.51,25.5Z"/>
      <path d="M537.65,436.48c7.8.5,15.66.77,23.55.77,28.59,0,57.42-3.57,84.36-12.62,20.16-7.02,39.29-17.3,58.35-26.95,48.65-25.26,101.87-41.87,156.32-48.59,12.39-1.58,24.75-3.21,37.08-5.09,20.34-3.65,41.1-5.06,61.24-9.76,16.75-4.61,33.02-13.1,45.51-25.23,17.09-17.71,27.53-44.49,16.41-68.24l-.11-.25c-8.01-16.94-20.8-28.63-37.42-28.63-5,0-10.34,1.06-16.01,3.34-10.13,4.14-16.69,13.05-23.33,21.36-3.69,4.51-11,14.11-17.25,14.11-.5,0-.99-.06-1.48-.19-3.83-1.97-3.33-7.89-2.23-14.23,1.8-9.23,5.04-19.27,8.65-27.74,5.06-11.23,2.46-15.56-6.05-15.56-2.03,0-4.39.25-7.07.7-1.47.21-2.95.28-4.43.28-3.92,0-7.87-.52-11.81-.52-1,0-2,.03-3,.12-20.8,2.68-40.15,21.66-49.41,39.81-2.27,4.55-3.73,10.06-6.17,14.36-2.02,3.83-6.05,5.85-10.52,7.45-5.32,2.06-12.96,4.72-19.7,7.01-7.1,2.11-18.13,6.83-24.16,7.59-8.34-.28,23.07-35.79,32.97-45.41,4.75-6.04,23.79-17.52,18.2-25.43-2.02-2.17-4.53-2.92-7.24-2.92-4.81,0-10.22,2.36-14.56,3.23-9.61,2.4-22.39,4.53-33.24,6.82-7.37,1.56-15.69,4.45-19.13,11.58-.9,1.96-1.49,4.04-.68,5.95.48,1.31,1.9,1.75,3.58,1.75,1.42,0,3.01-.32,4.37-.69,4.18-1.06,11.69-2.78,17.18-3.97,2.58-.5,8.62-2.13,11.89-2.13,1.04,0,1.8.17,2.07.59.29,1.44-1.18,2.87-3.29,5.32-2.33,2.51-5.04,5.16-7.48,7.67-6.18,6.3-10.83,11.19-15.59,17.35-2.63,3.51-5.84,7.2-9.37,9.6-2.47,1.76-4.91,2.82-7.65,3.82-7.74,3.71-18.42,8.74-27.08,11.91-9.08,3.22-20.85,8.73-29.09,10.71-.1,0-.19.01-.28.01-8.45,0,25.06-39.96,34.93-49.86,5.11-6.25,17.44-13.79,16.94-22.12-.51-3.43-4.29-4.98-7.8-4.98-.77,0-1.53.08-2.23.22-9.31,2.23-18.22,5.58-27.7,7.54-10.86,2.99-24.95,4.17-33.01,11.43-4.88,4.19-7.61,13.22-1.19,13.22,1.04,0,2.32-.24,3.87-.77,7.16-2.11,15.58-4.35,23.94-6.46,2.38-.58,4.41-1,5.77-1.07.15,0,.29-.01.42-.01.81,0,1.33.16,1.52.51.24,2.73-4.72,6.87-6.72,9.36-5.01,5.41-10.66,11.46-14.81,16.56-4.07,5.45-9.35,11.22-14.15,15.15-4,3.37-7.14,7.3-10.41,11.59-3.96,5.07-11.19,12.62-17.39,12.62-.26,0-.53-.01-.79-.04-6.51-1.62-3.92-9.27-2.14-14.82,4.14-11.29,8.61-22.74,12.73-34.4,1.17-3.29,2.34-6.55,3.43-9.8,1.84-5.42,3.18-8.85-1.31-11.73-1.74-.94-3.49-1.35-5.22-1.35-8.35,0-16.13,9.64-19.93,16.02-3.33,6.45.69,12.2-1.14,19.16-2.46,8.09-6.14,16.06-8.48,24.28-2.34,7.97-4.44,15.97-1.66,21.69,3.62,6.81,10.56,9.69,17.8,9.69,5.27,0,10.69-1.53,15.1-4.19,4.67-2.59,9.64-4.96,14.98-5.2.65-.05,1.3-.07,1.95-.07,2,0,4.03.19,5.99.19.18,0,.35,0,.53,0,6.73-.5,15.49-4.78,22.98-7.25,12.64-4.64,26.1-9.55,38.64-14.03,1.98-.82,3.71-1.15,5.3-1.15,4.27,0,7.51,2.44,11.99,4.53,2.15.81,4.04,1.13,5.84,1.13,4.53,0,8.51-2.07,14.77-3.77,16.16-5.18,33.3-10.65,49.35-15.68,2.16-.73,4.12-1.03,5.94-1.03,8.14,0,13.63,5.91,22.24,5.91,6.37,0,14.45-3.24,26.57-14.51,2.63-2.47,5.09-5.53,7.54-7.97,1.15-1.07,2.06-1.82,2.9-1.82.62,0,1.2.41,1.81,1.4,1.46,2.71,2.67,6.32,4.6,8.94,3.6,5.18,9.52,7.84,15.49,7.84,3.38,0,6.78-.86,9.78-2.59,8.48-4.49,15.05-13.35,23.19-19.4,5.88-4.56,12.86-8.06,20.4-8.06.13,0,.25,0,.38,0,9.8.04,20.74,5.42,25.08,14.29,8.35,16.75-7.67,31.37-21.62,38.44-45.34,23.96-98.32,18.84-147.81,23.67-59.15,4.05-111.19,34.04-165.86,54.27-29.62,10.44-61.13,15.71-92.52,15.71-.39,0-.77,0-1.16,0-8.42,0-16.21-.18-24.75-.73-2.87-.09-6.27-.38-9.61-.38-5.4,0-10.65.76-13.31,4.38-3.86,6.11,1.92,16.19,1.62,24.4.35,9.16-3.79,20.6,9.52,22.01ZM904.69,219.72c-2.39,3.84-4.7,7.58-6.7,10.32l-.12.17c-5.61,7.56-14.83,16.68-22.16,23.54-2.78,2.36-7.98,7.72-11.51,7.72-1.37,0-2.49-.81-3.12-2.92-1.15-8.33,6.11-20.79,10.79-27.67,7-9.7,16.63-18.78,27.39-23.83,2.25-.86,6.04-2.9,8.9-2.9,1.01,0,1.91.26,2.58.91,1.64,3.96-3.72,10.39-6.05,14.67Z"/>
      <path d="M788.57,418.27c0,1.38.11,3.41.11,3.41h-.05s-.74-1.68-1.38-2.75l-6.55-10.99h-4.05v19.69h3.94v-10.16c0-1.38-.11-3.44-.11-3.44h.05s.77,1.68,1.4,2.73l6.72,10.88h3.85v-19.69h-3.94v10.33Z"/>
      <path d="M800.96,407.94l-6.86,19.69h4.05l1.29-4.19h7.11l1.32,4.19h4.16l-6.94-19.69h-4.13ZM800.39,420.39l1.76-5.67c.33-1.05.83-3.03.83-3.03h.05s.47,1.98.8,3.03l1.76,5.67h-5.21Z"/>
      <path d="M821.35,415.76c-2.92-.63-4.3-1.1-4.3-2.7,0-1.4,1.4-2.31,3.55-2.31,2.04,0,3.58.99,3.8,2.97h3.83c-.3-3.97-3.17-6.14-7.6-6.14s-7.55,2.01-7.55,5.9c0,4.1,3.22,5.04,6.75,5.84,3,.69,4.87,1.07,4.87,3,0,1.82-1.79,2.53-3.83,2.53-2.81,0-4.16-.94-4.43-3.31h-3.91c.14,4.16,3.17,6.53,8.51,6.53,4.43,0,7.66-2.23,7.66-6.22,0-4.24-3.3-5.21-7.35-6.09Z"/>
      <polygon points="842.84 415.66 835.1 415.66 835.1 407.94 831.11 407.94 831.11 427.64 835.1 427.64 835.1 418.96 842.84 418.96 842.84 427.64 846.83 427.64 846.83 407.94 842.84 407.94 842.84 415.66"/>
      <path d="M857.83,419.35c-.39,1.27-.85,3.14-.85,3.14h-.06s-.47-1.85-.85-3.14l-3.47-11.4h-4.19l6.64,19.69h3.64l6.64-19.69h-4.05l-3.44,11.4Z"/>
      <rect x="866.92" y="407.94" width="3.99" height="19.69"/>
      <polygon points="877.97 407.94 873.98 407.94 873.98 427.64 887.23 427.64 887.23 424.3 877.97 424.3 877.97 407.94"/>
      <polygon points="893.37 407.94 889.38 407.94 889.38 427.64 902.63 427.64 902.63 424.3 893.37 424.3 893.37 407.94"/>
      <polygon points="908.77 418.99 917.97 418.99 917.97 415.71 908.77 415.71 908.77 411.3 919.27 411.3 919.27 407.94 904.78 407.94 904.78 427.64 919.35 427.64 919.35 424.3 908.77 424.3 908.77 418.99"/>
      <path d="M921.86,427.64h2.01c0,1.71-.91,2.67-1.98,3.22v1.35c2.12-.38,3.99-1.98,3.99-4.79v-3.77h-4.02v3.99Z"/>
      <polygon points="932 411.3 937.92 411.3 937.92 427.64 941.91 427.64 941.91 411.3 947.84 411.3 947.84 407.94 932 407.94 932 411.3"/>
      <path d="M961.78,418.27c0,1.38.11,3.41.11,3.41h-.05s-.74-1.68-1.38-2.75l-6.56-10.99h-4.05v19.69h3.94v-10.16c0-1.38-.11-3.44-.11-3.44h.05s.77,1.68,1.4,2.73l6.72,10.88h3.86v-19.69h-3.94v10.33Z"/>
    </g>
  </g>
</svg>