<?xml version="1.0" encoding="UTF-8"?>
<svg fill="#342609" id="Layer_2" data-name="Layer 2" xmlns="http://www.w3.org/2000/svg" viewBox="0 0 726.52 519.54">
  <g id="Layer_1-2" data-name="Layer 1">
    <g>
      <path d="M178.47,518.97c-2.79-.26-5.62-.27-8.26-1.45-.53-.23-.99-.54-1.45-.84-.3-.19-.54-.5-.86-.64-.93-.39-1.51-1.14-2.22-1.81-1.41-1.33-2.06-3.02-2.78-4.7-.58-1.38-1.1-2.86-1.16-4.37-.05-1.37-.45-2.7-.53-4.07-.09-1.39,0-2.79-.07-4.17-.29-5.29.97-10.6,1.98-15.73.08-.4.17-.8.26-1.2.26-1.15.6-2.24,1.49-3.11.85-.82,1.56-1.76,2.44-2.56,1.83-1.65,3.96-2.56,6.38-3.03,1.65-.32,3.27-.65,4.97-.65.97,0,1.93.15,2.83.31,1.32.24,2.68.38,3.94,1,3.2,1.58,5.64,3.77,6.72,7.31.32,1.03.57,2.06.8,3.11.23,1.03.16,2.1-1.5,2.27-1.29.13-2.5.57-3.76.78-.87.14-1.2,0-1.49-.81-.14-.38-.31-.79-.31-1.18.03-1.72-1.09-2.85-2.08-3.99-1.55-1.77-3.57-2.48-5.92-2.14-.86.12-1.75.16-2.58.42-1.91.59-3.4,1.86-4.69,3.34-.43.49-.72,1.14-.81,1.81-.43,3.31-.76,6.65-1.12,9.96-.53,4.6-.89,9.19.72,13.67.14.38.21.79.3,1.19.51,2.26,2.15,3.41,4.18,3.99,1.85.53,3.86.68,5.72.38,2.35-.38,4.53-1.39,6.03-3.46.54-.75.72-1.58.8-2.43.1-1.07.71-1.79,1.46-2.41.81-.68,3.66-.41,4.3.38.59.72.63,1.64.59,2.48-.04.86.05,1.75-.25,2.59-.8,2.2-1.53,5.38-4.02,6.32-1.71.64-2.91,1.91-4.67,2.59-1.26.49-2.63.82-4.02.87-.46.02-.93,0-1.39,0h0Z"/>
      <path d="M224.37,470.2c3.15.01,6.59-.49,9.68.16,1.15.24,2.27.56,3.46.57.39,0,.8.17,1.17.33,2.91,1.21,5.09,3.21,6.49,6.05,1.04,2.12,2.11,4.21,2.81,6.49.68,2.2.94,4.45,1.26,6.71.29,2.04-.27,4.18-.36,6.23-.12,2.87-.33,5.66-1.11,8.43-.44,1.55-.84,3.11-1.13,4.69-.32,1.71-1.49,2.88-2.43,4.2-1.19,1.66-2.84,2.88-4.68,3.6-1.35.54-2.79.98-4.23,1.36-1.27.34-2.57.39-3.8.38-2.1-.02-4.22.34-6.32-.07-.25-.05-.52-.07-.75-.15-2.78-.99-5.54-2.04-7.95-3.8-1.73-1.26-3.19-2.73-3.75-4.91-.2-.78-.54-1.52-.87-2.26-.67-1.52-.86-3.17-1-4.76-.3-3.44-1.01-6.88-.58-10.37-.38-1.5.05-3.03-.1-4.53-.08-.78.08-1.51.33-2.26.47-1.4.77-2.86,1.19-4.28.43-1.45.96-2.88,1.72-4.24.98-1.76,2.44-2.96,3.89-4.25,1.95-1.73,4.33-3.33,7.06-3.32h0ZM228.62,513.1c1.57,0,3.12-.28,4.65-.62,1.68-.38,3.87-1.12,5.08-2.38,2.36-2.49,3.29-5.02,3.36-8.41.03-1.44.49-2.83.62-4.26.13-1.43-.06-2.86-.11-4.28-.06-1.51-.29-3.03-.56-4.54-.55-3.04-1.25-6.02-3.22-8.5-1.6-2.02-3.47-3.62-6.34-3.14-.34.06-.73,0-1.07-.1-.51-.14-.99-.05-1.5,0-1.33.12-2.59.64-3.89.75-2.43.22-4.05,1.78-5.77,3.18-.45.37-.77.97-.99,1.53-.58,1.52-.81,3.16-1.63,4.6-.12.22-.2.48-.22.73-.13,1.62-.22,3.24-.36,4.86-.18,2.19.03,4.39.17,6.56.14,2.22-.05,4.49.74,6.65.66,1.82,1.15,3.8,2.92,4.88,2.47,1.52,5.17,2.48,8.12,2.49h0Z"/>
      <path d="M275.46,502.75c.05,1.72.18,3.4.24,5.13.06,1.9.08,3.8.16,5.7.04,1.06-.11,2.09.02,3.17.14,1.23-1.11,2.29-2.47,2.36-1.03.06-2.06.07-3.09.05-1.3-.03-2-.69-2.03-2.01-.05-2-.02-4.01,0-6.02.01-1.53.32-3.07.2-4.6-.08-1.06.14-2.12.09-3.19-.05-.99-.22-1.95-.09-2.95.14-1,.05-2.02-.08-3.05-.15-1.18-.12-2.42-.07-3.61.12-2.51.24-5.03.13-7.52-.16-3.72.24-7.42.08-11.14-.03-.56,0-1.12-.12-1.68-.22-.95.28-1.65,1.22-1.89.95-.25,1.91-.32,2.89-.29,1.28.04,2.55.06,3.84-.15.83-.14,1.71.08,2.57.14,1.68.11,3.35-.37,5.03,0,2.74-.46,5.52.14,8.27-.3.82-.13,1.58.34,2.43.31,1.22-.05,2.44.08,3.66.15.77.04,1.15.35,1.18,1.08.04.87.06,1.76-.09,2.61-.3,1.71-1.54,2.72-3.45,2.53-1.7-.16-3.38-.1-5.07-.12-3.1-.04-6.27-.4-9.42-.38-1.95.02-3.88.22-5.79.67-.46.11-.6.21-.45.7.19.62.03,1.31-.02,1.93-.17,1.89-.29,3.81-.03,5.65.27,1.94,0,3.85.15,5.77.05.57,0,.76.64.74,2.04-.05,4.04.39,6.07.5.85.04,1.71.15,2.56.09,1.44-.09,2.83.26,4.26.32.88.03,1.17.48,1.33,1.38.25,1.43-.35,2.49-1.38,3.38-.31.27-.64.39-1.09.43-2,.17-3.98.28-5.97-.1-.5-.1-1.02-.05-1.54-.03-1.12.04-2.22.35-3.34.23-.56-.06-.88.24-1.04.72-.2.57-.41,1.17-.41,1.78,0,.52,0,1.03.02,1.54h0Z"/>
      <path d="M322.38,502.75c.05,1.72.18,3.4.24,5.13.06,1.9.08,3.8.16,5.7.04,1.06-.11,2.09.02,3.17.14,1.23-1.11,2.29-2.47,2.36-1.03.06-2.06.07-3.09.05-1.3-.03-2-.69-2.03-2.01-.05-2-.02-4.01,0-6.02.01-1.53.32-3.07.2-4.6-.08-1.06.14-2.12.09-3.19-.05-.99-.22-1.95-.09-2.95.14-1,.05-2.02-.08-3.05-.15-1.18-.12-2.42-.07-3.61.12-2.51.24-5.03.13-7.52-.16-3.72.24-7.42.07-11.14-.02-.56,0-1.12-.12-1.68-.22-.95.28-1.65,1.22-1.89.95-.25,1.91-.32,2.89-.29,1.28.04,2.55.06,3.84-.15.83-.14,1.71.08,2.57.14,1.68.11,3.35-.37,5.03,0,2.74-.46,5.52.14,8.27-.3.82-.13,1.58.34,2.43.31,1.22-.05,2.44.08,3.66.15.77.04,1.15.35,1.18,1.08.04.87.06,1.76-.09,2.61-.3,1.71-1.54,2.72-3.45,2.53-1.7-.16-3.38-.1-5.07-.12-3.1-.04-6.27-.4-9.42-.38-1.95.02-3.88.22-5.79.67-.46.11-.6.21-.45.7.19.62.03,1.31-.02,1.93-.17,1.89-.29,3.81-.03,5.65.27,1.94,0,3.85.15,5.77.05.57,0,.76.64.74,2.04-.05,4.04.39,6.07.5.85.04,1.71.15,2.56.09,1.44-.09,2.83.26,4.26.32.88.03,1.17.48,1.33,1.38.25,1.43-.35,2.49-1.38,3.38-.31.27-.64.39-1.09.43-2,.17-3.98.28-5.97-.1-.5-.1-1.02-.05-1.54-.03-1.12.04-2.22.35-3.34.23-.57-.06-.88.24-1.04.72-.2.57-.41,1.17-.41,1.78,0,.52,0,1.03.02,1.54h0Z"/>
      <path d="M369.13,505.27c0,2.15-.01,4.31,0,6.46,0,.78.23,1.06.85.92,2.55-.55,5.12-.12,7.67-.23,2-.08,3.97.23,5.97.25.92,0,1.79-.23,2.72-.26,1.08-.03,2.17.07,3.26.05,1.5-.02,2.14.71,2.3,2.24.03.3-.08.57-.04.88.22,1.46,0,1.8-1.38,2.23-.54.17-1.11.24-1.7.23-2.26-.04-4.54.14-6.78.07-1.36-.04-2.72.17-4.08.05-1.76-.15-3.45-.02-5.2-.02-2.13,0-4.27.22-6.41.19-.86-.01-1.7.28-2.58.02-1.07-.32-1.36-.69-1.36-1.86,0-.86-.01-1.73-.11-2.59-.21-1.83-.03-3.66-.15-5.49-.18-2.81.11-5.65.12-8.48.02-4.83.01-9.66-.06-14.49-.03-2.18-.14-4.41.26-6.59.26-1.42-.06-2.85.09-4.27,0-.05,0-.1,0-.15-.16-2.43.18-2.91,2.58-3.04,7.27-.38,14.59-.26,21.86-.05,1.27.04,2.54.12,3.79.28,1.13.14,1.01.21,1.11,1.35.1,1.22.1,2.45.13,3.67.02,1.16-.07,1.28-1.2,1.22-1.58-.08-3.12.33-4.72.24-3.22-.18-6.45-.2-9.67-.29-2.13-.06-4.25-.13-6.38-.2-.58-.02-.61.18-.73.77-.49,2.37.3,4.68.09,7.02-.16,1.81-.17,3.64-.24,5.46,0,.27-.01.4.39.43.61.05,1.22.14,1.83.13,2.1-.04,4.22.34,6.29.12,1.3-.14,2.62.09,3.93-.01,1.08-.09,2,.45,2.06,1.67.05,1.03.06,2.06-.01,3.08-.06.92-.46,1.29-1.35,1.38-1.77.17-3.55.09-5.32-.08-1.47-.14-2.92-.27-4.38,0-.8.14-1.61-.14-2.43.03-.94.2-1,.16-1.02,1.18-.04,2.16,0,4.32.03,6.47h0Z"/>
      <path d="M416.2,505.27c0,2.15-.01,4.31,0,6.46,0,.78.23,1.06.85.92,2.55-.55,5.12-.12,7.67-.23,2-.08,3.97.23,5.97.25.92,0,1.79-.23,2.72-.26,1.08-.03,2.17.07,3.26.05,1.5-.02,2.14.71,2.3,2.24.03.3-.08.57-.04.88.22,1.46,0,1.8-1.38,2.23-.54.17-1.11.24-1.7.23-2.26-.04-4.54.14-6.78.07-1.36-.04-2.72.17-4.08.05-1.76-.15-3.45-.02-5.2-.02-2.13,0-4.27.22-6.41.19-.86-.01-1.7.28-2.58.02-1.07-.32-1.36-.69-1.36-1.86,0-.86-.01-1.73-.11-2.59-.21-1.83-.03-3.66-.15-5.49-.18-2.81.11-5.65.12-8.48.02-4.83.01-9.66-.06-14.49-.03-2.18-.14-4.41.26-6.59.26-1.42-.06-2.85.09-4.27,0-.05,0-.1,0-.15-.16-2.43.18-2.91,2.58-3.04,7.27-.38,14.59-.26,21.86-.05,1.27.04,2.54.12,3.79.28,1.13.14,1.01.21,1.11,1.35.1,1.22.1,2.45.13,3.67.02,1.16-.07,1.28-1.2,1.22-1.58-.08-3.12.33-4.72.24-3.22-.18-6.45-.2-9.67-.29-2.13-.06-4.25-.13-6.38-.2-.58-.02-.61.18-.73.77-.49,2.37.3,4.68.09,7.02-.16,1.81-.17,3.64-.24,5.46,0,.27-.01.4.39.43.61.05,1.22.14,1.83.13,2.1-.04,4.22.34,6.29.12,1.3-.14,2.62.09,3.93-.01,1.08-.09,2,.45,2.06,1.67.05,1.03.06,2.06-.01,3.08-.06.92-.46,1.29-1.35,1.38-1.77.17-3.55.09-5.32-.08-1.47-.14-2.92-.27-4.38,0-.8.14-1.61-.14-2.43.03-.94.2-1,.16-1.02,1.18-.04,2.16,0,4.32.03,6.47h0Z"/>
      <path d="M494.57,518.97c-2.79-.26-5.62-.27-8.26-1.45-.53-.23-.98-.54-1.45-.84-.3-.19-.54-.5-.86-.64-.93-.39-1.51-1.14-2.22-1.81-1.42-1.33-2.07-3.02-2.78-4.7-.58-1.38-1.1-2.86-1.16-4.37-.05-1.37-.45-2.7-.53-4.07-.09-1.39,0-2.79-.07-4.17-.29-5.29.97-10.6,1.98-15.73.08-.4.18-.8.26-1.2.26-1.15.6-2.24,1.49-3.11.85-.82,1.56-1.76,2.44-2.56,1.83-1.65,3.96-2.56,6.38-3.03,1.65-.32,3.27-.65,4.98-.65.97,0,1.93.15,2.83.31,1.32.24,2.68.38,3.94,1,3.2,1.58,5.64,3.77,6.72,7.31.32,1.03.57,2.06.8,3.11.23,1.03.16,2.1-1.5,2.27-1.29.13-2.5.57-3.76.78-.87.14-1.2,0-1.49-.81-.14-.38-.32-.79-.31-1.18.03-1.72-1.09-2.85-2.08-3.99-1.55-1.77-3.57-2.48-5.92-2.14-.86.12-1.75.16-2.58.42-1.91.59-3.4,1.86-4.69,3.34-.43.49-.72,1.14-.81,1.81-.43,3.31-.76,6.65-1.12,9.96-.53,4.6-.89,9.19.72,13.67.14.38.21.79.3,1.19.51,2.26,2.15,3.41,4.18,3.99,1.85.53,3.86.68,5.73.38,2.35-.38,4.53-1.39,6.02-3.46.54-.75.73-1.58.81-2.43.1-1.07.71-1.79,1.46-2.41.81-.68,3.65-.41,4.3.38.59.72.63,1.64.59,2.48-.04.86.05,1.75-.25,2.59-.8,2.2-1.53,5.38-4.02,6.32-1.71.64-2.91,1.91-4.67,2.59-1.26.49-2.63.82-4.02.87-.46.02-.93,0-1.39,0h0Z"/>
      <path d="M540.47,470.2c3.15.01,6.59-.49,9.68.16,1.15.24,2.27.56,3.46.57.39,0,.8.17,1.17.33,2.91,1.21,5.09,3.21,6.49,6.05,1.04,2.12,2.11,4.21,2.81,6.49.68,2.2.94,4.45,1.26,6.71.29,2.04-.27,4.18-.36,6.23-.12,2.87-.33,5.66-1.11,8.43-.44,1.55-.84,3.11-1.13,4.69-.32,1.71-1.49,2.88-2.43,4.2-1.19,1.66-2.84,2.88-4.68,3.6-1.35.54-2.79.98-4.22,1.36-1.27.34-2.57.39-3.8.38-2.1-.02-4.22.34-6.32-.07-.25-.05-.52-.07-.75-.15-2.78-.99-5.54-2.04-7.95-3.8-1.73-1.26-3.19-2.73-3.75-4.91-.2-.78-.54-1.52-.87-2.26-.67-1.52-.86-3.17-1-4.76-.3-3.44-1.01-6.88-.57-10.37-.39-1.5.05-3.03-.1-4.53-.08-.78.08-1.51.33-2.26.47-1.4.77-2.86,1.19-4.28.43-1.45.96-2.88,1.72-4.24.98-1.76,2.44-2.96,3.89-4.25,1.95-1.73,4.33-3.33,7.06-3.32h0ZM544.73,513.1c1.57,0,3.12-.28,4.65-.62,1.68-.38,3.87-1.12,5.08-2.38,2.36-2.49,3.29-5.02,3.36-8.41.03-1.44.49-2.83.62-4.26.13-1.43-.06-2.86-.11-4.28-.06-1.51-.29-3.03-.56-4.54-.55-3.04-1.25-6.02-3.22-8.5-1.6-2.02-3.46-3.62-6.34-3.14-.34.06-.72,0-1.06-.1-.51-.14-.99-.05-1.5,0-1.33.12-2.59.64-3.89.75-2.43.22-4.05,1.78-5.77,3.18-.45.37-.77.97-.98,1.53-.59,1.52-.81,3.16-1.63,4.6-.12.22-.2.48-.22.73-.13,1.62-.22,3.24-.36,4.86-.18,2.19.03,4.39.17,6.56.14,2.22-.05,4.49.74,6.65.67,1.82,1.15,3.8,2.92,4.88,2.47,1.52,5.17,2.48,8.12,2.49h0Z"/>
      <path d="M79.55,237.02c.83,1.73,1.79,3.42,2.74,5.08,2.53,4.42,5.06,8.84,7.59,13.26,1.64,2.88,3.34,5.93,3.33,9.24-.05,12.6-17.68,11.09-24.51,5.63-11.43-6.63-16.74-29.82-30.65-30.1-10.18,2.17-8.26,19.61-11.86,26.53-2.23,5.46-8.39,8.91-14.41,7.38C-.08,271.05.01,256.78.08,246.91c.23-27.67-.47-55.58.3-83.37.97-20.25,21.29-16.37,36.2-16.7h.55c12.14.19,25.12-.89,36.48,4.09,11.34,5.07,17.36,16.21,19.69,27.7,2.12,10.46,2.67,22.4-3.35,31.8-4.47,6.96-13.75,9.37-12.74,19.02.28,2.66,1.19,5.16,2.35,7.58h0ZM32.19,178.93c-2.95,2.46-4.62,6.27-4.4,11.67v.28c1.63,4.48,7.13,8.21,17.44,8.45h.55c15.24,1.44,23.06-9.11,18.63-16.81-3.82-5.24-11.78-7.11-18.62-6.96-3.9-.27-7.42.16-10.29,1.37-1.23.57-2.34,1.24-3.31,1.99"/>
      <path d="M223.11,227.56c-3.26,17.88-14.48,34.59-30.86,43.16-20.36,10.66-47.19,7.26-64.78-7.37-31.78-26.43-27.05-79.5,3.05-105.35,12.99-11.15,31.58-16.64,48.18-11.93,14.87,4.22,26.54,15.87,34.19,29.02,3.76,6.47,6.71,13.43,8.64,20.64,2.8,10.39,3.5,21.27,1.58,31.82M163.05,240.56c.51.05,1.04.09,1.56.11,6.86.21,13.5-3.15,18.27-7.98,6.07-6.14,9.45-14.76,9.13-23.29-.32-8.53-4.34-16.88-10.86-22.55-3.91-3.4-8.79-5.88-14-6.39-7.02-.68-14.11,2.35-19.13,7.2-14.36,13.86-13.02,38.34,4.5,49.14,3.19,1.97,6.81,3.37,10.55,3.77h0Z"/>
      <path d="M238.79,210.97c-.02-10.16-.02-20.32-.02-30.49-.43-17.46-.01-33.6,19.85-32.85,12.29.04,16.51,10.59,16.02,21.54.09,14.31.01,28.61.04,42.92-.29,16.01-.59,28.62,17.28,29.62,9.25.91,16.91-.23,25.35,3.74,10.01,4.09,12.21,20.81,2.54,26.31-5.85,3.52-6.18,3.38-13.13,3.44-69.31-.05-67.99,6.21-67.92-63.7v-.53h0Z"/>
      <path d="M341.72,210.97c-.02-10.16-.02-20.32-.02-30.49-.43-17.46-.01-33.6,19.85-32.85,12.29.04,16.51,10.59,16.02,21.54.09,14.31.01,28.61.04,42.92-.29,16.01-.59,28.62,17.28,29.62,9.25.91,16.91-.23,25.35,3.74,10.01,4.09,12.21,20.81,2.54,26.31-5.85,3.52-6.18,3.38-13.13,3.44-69.31-.05-67.99,6.21-67.92-63.7v-.53h0Z"/>
      <path d="M480.73,164.54l.05.52c.75,25.29.11,51.17.32,76.61-.16,8.53.68,19.05-2.55,25.49-4.69,9.98-21.2,10.42-28.22,3.47-7.04-7.73-4.74-20.28-5.21-30.08.38-26.2-.95-51.63.46-77.71.67-14.67,18.17-19.42,28.69-12.25,4.46,3.2,5.97,8.59,6.47,13.94h0Z"/>
      <path d="M500.79,261.44c-1.76-7.36-.54-14.75-.06-22.17.49-7.71.69-15.44.8-23.16.21-15.44.04-30.9,1.07-46.32.4-6.05,1.14-12.57,4.61-17.67,6.22-9.59,19.37-6.05,25.39,2.08,13.02,17.6,20.9,38.69,33.52,56.59.49.69,1.21,1.68,2.14,1.7.97.02,1.57-1.03,1.88-1.94,2.79-8.22.57-17.54.55-26.02-.02-9.19.88-18.48,3.62-27.28.33-1.06.83-2.09,1.43-3.06.31-.62.6-1.26.97-1.83,2.2-3.86,5.69-5.72,9.17-5.59,2.84-.72,5.74-.56,8.14.89,3.77,2.28,6.23,6.69,7.35,11.32,1.76,7.36.54,14.75.06,22.18-.49,7.71-.69,15.43-.8,23.16-.21,15.44-.03,30.9-1.06,46.32-.4,6.05-1.15,12.57-4.61,17.67-6.22,9.59-19.37,6.05-25.39-2.08-1.84-2.77-3.94-5.21-5.54-8.16-4.1-7.69-8.45-15.25-13.01-22.67-3.54-5.78-6.82-11.77-10.46-17.48-1.28-2-4.04-6.44-7.03-5.02-1.59.76-1.86,4.93-2.08,6.31-.75,4.75-1.09,9.71-1.02,14.53.15,9.83.38,19.94-2.58,29.45-.33,1.07-.83,2.09-1.43,3.06-.31.62-.6,1.26-.97,1.83-2.2,3.86-5.69,5.71-9.17,5.59-2.84.72-5.74.56-8.14-.9-3.77-2.28-6.23-6.69-7.35-11.32h0Z"/>
      <path d="M700.63,201.77c1.08.07,2.17.14,3.25.23,5.56.44,11.45,1.27,15.72,4.86,4.42,3.71,6.25,9.72,6.75,15.48,1.92,21.81-13.41,43.48-34.18,50.4-20.77,6.92-45.11-.5-59.74-16.79-25.19-28.05-21-79.99,10.5-101.75,13.33-9.21,30.55-12.56,46.36-9.03,6.98,1.56,13.99,4.64,18.24,10.39,4.25,5.75,4.82,14.6-.2,19.7-4.13,4.19-10.68,4.84-16.53,4.2-5.85-.64-11.67-2.3-17.53-1.75-7.37.69-14.17,4.97-18.58,10.92-4.4,5.95-6.49,13.42-6.56,20.82-.1,10.96,4.58,22.32,13.69,28.42,9.1,6.1,22.69,5.57,30.04-2.55,1.46-1.61,2.7-3.64,2.52-5.81-.34-3.92-5.05-5.93-8.97-5.73-3.92.2-7.79,1.73-11.69,1.23-4.75-.6-8.9-4.5-9.8-9.21-.89-4.71,1.54-9.86,5.75-12.16,2.85-1.55,6.2-1.83,9.44-1.99,7.17-.36,14.35-.3,21.52.14h0Z"/>
      <path d="M226.79,351.71c-.04,12.37.09,24.85-.06,37.61.48,11.37-3.54,26.67-17.73,25.77-6.46-.26-12.01-4.54-13.67-10.52-3.44-9.86,2.08-30.56-10.64-34.83-2.89-.97-6.01-.97-9.07-.95-3.19.01-6.45.04-9.43,1.19-13.3,5.12-2.8,29.95-11.98,39.69-5.89,7.11-18.36,6.89-24.18-.23-5.05-5.73-5.64-14.31-5.74-21.72-.07-24.21-.07-48.1-.03-72.25-.03-8.19.49-18.48,7.06-23.93,6.1-5.4,17.08-5.77,22.89-.54,4.79,4.18,5.57,10.88,5.91,16.73.26,4.46.01,8.91.01,13.37,0,3.84-.48,8.41,2.51,11.41,2.41,2.41,6.15,2.95,9.61,3.37,5.06.6,10.57,1.12,14.89-1.48,7.54-4.53,6.52-14.53,6.61-21.89.09-8.32,1.71-20.19,10.5-24.09,6.46-2.87,14.85-.8,18.64,5.08,4.51,6.39,3.81,19.69,3.9,29.56,0,9.42,0,18.83,0,28.15v.54h0Z"/>
      <path d="M282.73,305.51l.05.52c.75,25.29.11,51.16.32,76.61-.16,8.53.68,19.05-2.55,25.49-4.69,9.98-21.2,10.42-28.22,3.47-7.04-7.73-4.74-20.28-5.21-30.08.38-26.2-.95-51.63.46-77.71.67-14.67,18.17-19.42,28.69-12.25,4.46,3.2,5.97,8.59,6.47,13.94h0Z"/>
      <path d="M302.9,351.94c-.02-10.16-.02-20.32-.02-30.49-.43-17.46-.01-33.6,19.85-32.85,12.29.04,16.51,10.59,16.02,21.54.09,14.31.01,28.61.04,42.92-.29,16.01-.59,28.62,17.28,29.62,9.25.91,16.91-.23,25.35,3.74,10.01,4.09,12.21,20.81,2.54,26.31-5.85,3.52-6.18,3.38-13.13,3.44-69.31-.04-67.99,6.21-67.92-63.7v-.53h0Z"/>
      <path d="M405.82,351.94c-.02-10.16-.02-20.32-.02-30.49-.43-17.46-.01-33.6,19.85-32.85,12.29.04,16.51,10.59,16.02,21.54.09,14.31.01,28.61.04,42.92-.29,16.01-.59,28.62,17.28,29.62,9.25.91,16.91-.23,25.35,3.74,10.01,4.09,12.21,20.81,2.54,26.31-5.85,3.52-6.18,3.38-13.13,3.44-69.31-.04-67.99,6.21-67.92-63.7v-.53h0Z"/>
      <path d="M548.77,416.29c-15.25.21-42.46-2.88-45.44-19.64-.76-9.46,9.68-14.56,18.47-13.69,4.89.48,9.76,1.22,14.61,2.01,4.44.73,9.04,1.97,13.54,1.94,5.54-.04,13.16-1.49,12.28-8.68-.43-3.51-3.86-5.74-6.94-7.47-3.7-2.08-7.9-2.98-11.8-4.72-3.83-1.71-7.68-3.4-11.4-5.34-7.12-3.73-13.87-8.51-18-15.57-15.41-25.17-.91-51.58,29.01-56.47,15.32-3.07,31.68-.66,44.86,7,9.97,4.93,18.78,18.69,4.5,24.18-4.42,1.7-9.24,1.39-13.84.76-5.04-.69-10.03-1.85-15.11-2.15-4.56-.27-9.35.26-13.06,3.16-1.97,1.54-3.11,3.24-2.85,5.83.16,1.59.93,3.02,1.99,4.19,2.59,2.88,6.49,4.49,10.04,5.83,3.77,1.42,7.67,2.47,11.47,3.82.79.28,1.58.57,2.34.92,8.7,3.11,16.68,7.94,21.82,14.64,10.54,13.15,8.74,32.68-2.28,45.1-10.49,12.58-27.68,14.48-43.62,14.37h-.59Z"/>
      <path d="M528.78,41.16c-3.84-5.12-10.57-5.53-18.97-5.53-35.83,0-43.23,3.88-43.56,10.14-.3,5.76,6.46,7.09,12.99,8.39,15.33,3.03,14.86,5.43,14.48,7.36-1.38,7-6.59,9.86-17.96,9.86-1.99,0-3.96-.08-5.62-.16-14.66-.71-23.87-6.65-31.8-20.48-1.59-2.78-3.08-5.64-4.67-8.68l-.03-.06c-5.36-10.29-10.89-20.92-20.75-29.18-10.59-8.86-24.19-12.82-44.1-12.82h-.05c-18.31,0-35.41,2.62-50.83,7.76-18.6,6.2-34.09,12.61-47.37,19.6-13.99,7.36-26.28,16.35-37.15,24.3-1.86,1.36-3.68,2.69-5.46,3.98-10.01,7.24-18.3,14.13-23.96,19.94-7.17,7.35-9.77,12.48-8.43,16.64.6,1.86,2.51,4.99,8.62,5.03h.39c1.84,0,5.29-.06,10.09-.15,9.45-.18,23.72-.45,39.69-.48h.66c7.81,0,16.16.27,24.28.53,8.12.26,16.52.53,24.42.53h.79c17.88-.04,33.25-.17,42.43-.25h.08c3.89-.03,6.54-.06,7.6-.06,20.82,0,25.89-2.42,28.1-4.78,1.2-1.28,1.77-2.84,1.65-4.51-.29-4.33-4.57-5.43-13.94-7.85-13.59-3.51-36.33-9.38-36.09-22.79.23-13.19,14.7-24.33,31.6-24.33,4.26,0,8.41.72,12.35,2.14,17.83,6.42,29.07,18.52,39.95,30.22,1.41,1.52,2.82,3.03,4.23,4.52,12.22,12.92,26.06,27.56,53.38,27.56,12.71,0,24.3-3.05,33.51-8.83,9.73-6.11,16.57-15.12,19.76-26.06,3.06-10.5,2.97-17.13-.3-21.5"/>
    </g>
  </g>
</svg>