<?xml version="1.0" encoding="UTF-8"?>
<svg fill="#342609" id="Layer_2" data-name="Layer 2" xmlns="http://www.w3.org/2000/svg" viewBox="0 0 727.19 478.58">
  <g id="Layer_1-2" data-name="Layer 1">
    <g>
      <path d="M119.45,46.3c-.22-9.02-5.72-17.14-14.45-19.54-5.85-1.79-13.68-1.52-18.87,1.51-4.52,2.55-5.91,6.04-6.92,11.08-.98,5.1-1.77,11.04-2.6,16.35-1.02,6.82-1.93,12.51-2.53,17.39-.39,3.27-.65,6.87.9,9.85,3.54,6.32,12.58,3.78,18.03,1.29,3.1-1.45,6.08-3.35,8.87-5.57,9.59-7.84,17.9-19.64,17.59-32.26v-.11h0ZM175.69,129.84c.48,23.53-15.25,50.01-36.21,54.71-11.55,2.9-22.05-1.64-29.54-10.8-7.47-8.95-12.43-20.34-16.82-32.03-2.23-6.01-4.07-11.73-5.98-17.38-1.5-4.51-3.62-9.87-6.38-12.53-2.39-2.58-6.25-3.45-8.88-.4-4.67,5.32-5.74,17.44-5.67,24.56,0,8.65,6.06,16.47,8.73,24.04,6.84,20.26-18.94,24.9-33.82,25.73-11.14.5-22.65.09-32.84-4.79-11.1-5.52-9.81-16.29-3.37-24.55,2.61-3.58,5.86-6.87,8.41-10.44,7.8-11.37,8.14-24.18,10.38-38.31,1.95-14,4.01-28.4,5.88-42.2.89-7.78,2.5-16.12-.1-23.84-1.46-4.38-4.15-8.28-6.11-12.42-4.05-7.64-2.46-16.69,4.3-22.07C36.56.07,49.21-.51,60.64.56c5.93.51,11.67,2.32,17.43,3.42,6.43,1.23,12.12.18,18.76-1.49,19.36-4.7,44.2-3.72,58.91,11.5,15.9,16.85,11.82,45.01-2.25,61.93-4.71,5.88-10.64,11.03-17.4,15.33-5.5,3.39-10.56,7.82-9.03,15.1,1.39,6.88,7.84,16.48,13.47,20.13,9.85,6.6,19.51-9.16,27.47-9.99,6.36-.17,7.48,8.18,7.7,13.24v.12h0Z"/>
      <path d="M255.7,103.85c-.34-10.85-1.8-27.08-12.63-31.86-18.22-5.81-26.34,26.61-27.59,45.75-.76,11.21-.65,24.53,4.22,34.35,4.79,9.67,15.19,11.25,22.05,3.73,3.88-4,7.17-10.3,9.59-18.27,2.93-9.48,4.59-22.58,4.37-33.53v-.16h0ZM169.46,132.39c-1.1-43.33,26.61-81.67,68.2-85.6,11.84-1.4,25.5-.47,36.41,4.45,23.51,10.22,29.15,36.23,26.63,59.94-3.92,47.11-39.25,77.4-83,74.47-30.3-1.49-48.31-21.74-48.24-53.13v-.13Z"/>
      <path d="M386.13,97.95c-.38-8.82-3.53-20.27-13.17-20.86-16.57,1.24-26.65,39.2-27.71,60.51-.3,7.29-.34,17.14,4.56,22.56,3.73,4,9.07,3.46,13.11.87,3.35-2.14,6.53-5.72,9.47-10.31,8.95-14.5,14.31-34.78,13.74-52.61v-.14h0ZM294.49,156.74c.14-10.18,6.87-18.88,9.53-28.58,5.25-23.15,9.06-57.54,10.99-73.98.66-5.59.65-11.09-5.14-13.7-3.27-1.67-7.58-2.68-10.18-5.23-3.61-3.59-2.76-9.51-.57-13.65,8.88-16.57,33.78-23.53,51.94-21.04,7.87,1.23,15.27,5.83,15.56,14.44.4,11.34-4.35,23.09-7.36,34.16-1.53,5.25-2.94,10.54-4.35,15.87-.69,2.93-3.96,13.65-1.98,14.23.63-.11,1.13-.78,1.57-1.29,1.85-2.23,4.89-7.7,7.29-10.94,5.31-7.31,12.21-13.7,20.56-17.26,14.12-6.27,32.47-2.93,41.33,10.07,5.28,7.15,8.01,17.37,8.76,26.72,4.36,48.54-27.55,95.13-77.97,98.92-19.99,1.91-59.91-1.75-59.98-28.65v-.1Z"/>
      <path d="M522.54,159.35c.07-2.42.17-8.92-1.95-9.2-2.01.08-4.17,3.67-5.69,5.65-8.88,13.41-20.96,24.3-33.82,27.97-5.46,1.5-12.25,3.21-13.09,9.87-.84,5.87,2.64,12.73,7.92,15.53,5.71,3.18,12.76,2.65,18.62.19,16.88-6.65,28.02-29.22,28-49.86v-.14h0ZM562.63,117.56c-.79,4.63-.14,9.19.8,13.8,1.04,5.09,1.9,10.4,2.33,15.6,3.88,43.43-25.41,79.45-71.05,86.78-14.3,2.25-29.06,1.75-42.96-2.78-18.57-6-29.42-21.56-21.34-40.31,3.15-6.89,5.88-12.9,4.07-20.62-.88-4.34-2.34-8.64-2.23-13.11.03-7.96,3.13-17.26,5.89-25.26,3.05-8.91,6.88-18.76,8.42-27.9,1.09-7.58-2.12-9.07-8.41-11.01-9.02-2.66-10.65-9.03-7.86-17.43,5.8-18.06,29.56-32.28,50.39-28.28,10.5,1.62,15.77,9.28,15.76,19.56-.31,11.96-4.27,22.45-7.92,35.07-3.18,10.5-6.47,21.14-8.03,31.95-1.12,7.02.43,15.94,8.35,17.3,8.68.83,15.63-5.89,21.08-12.4,4.07-4.99,6.44-11.14,6.47-17.63.11-5.35-.66-10.87-.65-16.3-.32-20.47,6.3-46.54,24.3-55.07,6.13-2.93,13.78-3.64,20.37-1.86,11.77,2.83,15.81,14.14,15.28,25.41-.3,8.6-2.65,17.25-5.87,25.31-2.54,6.41-6.12,12.39-7.21,19.05l-.02.11h.02Z"/>
      <path d="M566.05,167.55c.36-10.49,11.52-17.05,17.21-24.96,5.47-7.1,5.63-16.71,7.14-25.3.81-8.7,5.41-22.69-3.78-27.34-3.15-1.61-7.15-2.24-10.07-4.2-5.58-3.6-4.17-11.69-1.53-16.85,5.46-11.95,22.54-21.47,38.27-22.22,8.44-.68,18.69,1.49,20.97,10.69,1.07,3.96.64,8.19-.24,12.17-.91,3.92-1.97,8.17-1.89,10.18.02.45.06.95.33,1.25.98.67,2.38-1.04,4.04-2.84,12.63-17.28,26.23-29.56,45.65-31.54,11.03-1.18,24.65.57,32.41,9.31,16.73,19.32-1.86,56.77-4.9,77.6-1.56,11.38,12.94,7.79,16.53,16.17,1.98,4.32.83,10.77-1.51,15.32-7.34,14.71-26.38,21.84-42.49,20.4-7.9-.71-15.12-3.54-19.11-10.29-10.56-17.7,6.43-50.33,8.87-69.29,2.73-15.01-5.32-25.47-21.1-21.21-7.16,2.04-12.53,7.89-15.39,14.78-2.87,6.92-3.91,14.54-5.08,21.89-.78,5.47-1.77,11.09-.76,16.55,1.13,6.72,5.85,12.4,8.25,18.66,5.96,15.45-7.99,25.33-23.78,27.98-14.59,2.79-47.85,3.2-48.06-16.81v-.09h.01Z"/>
      <path d="M255.2,211.27c-.98,9.65-9.88,15.57-14.61,23.26-5.13,8.39-5.76,17.46-7.22,27.14-1.61,11.11-3.37,23.53-5,34.82-1.47,10.69-2.4,15.56-3.15,24.59-.86,8.21.56,15.54,4.53,22.79,2.71,5.44,5.91,11.31,4.63,17.49-3.6,18.03-42.32,18.23-56.47,15.41-11.24-1.97-23.17-8.19-18.32-21.32,2.27-6.13,7.42-11.04,11.33-16.17,6.95-8.89,8.41-20.6,10.08-31.74.55-4.52,1.94-12.55-4.49-11.02-13.31,4.2-26.29,5.79-39.68.8-8.74-3.26-10.17,3.16-11.18,10.39-.85,6.58-1.89,12.87-1.86,19.19-.41,11.62,7.62,18.98,9.43,29.29,2.4,21-31.51,22.34-46.32,21.81-12.67-.66-33.65-4.53-29.06-21.32,2.02-6.78,8.21-12.39,12.32-17.92,4.77-6.3,6.85-14.23,8.29-21.89,2.25-13.86,4.48-32.12,6.57-46.6.81-6.1,1.61-11.26,2.31-17.19.54-5.06,1.15-10.53.09-15.74-.8-4.13-2.83-7.86-4.87-11.48-15.28-24.57,11.5-32.24,31.42-33.02,11.46-.45,36.56.2,39.7,14.09,1.15,5.4-1.19,10.83-4.39,15.12-3.49,4.74-8.02,8.68-10.78,13.9-4.26,8.06-5.45,18.09-6.47,26.97-.14,3.56-.1,6.1,3.12,6.99,11.06,1.04,27.78.13,39.87.42,8.31.26,11.16-1.44,12.43-10.21,1.18-8.64,3.25-17.96.22-26.3-3.91-9.98-13.21-18.97-5.31-29.76,8.73-10.75,30.49-11.76,43.56-11.19,11.21.79,30.6,3.56,29.28,18.29v.09s0,0,0,0Z"/>
      <path d="M256.97,210.98c-.2-22.06,27.94-30.33,45.32-24.1,12.87,4.21,17.59,17.95,11.13,29.65-10.32,19.61-55.16,21.4-56.44-5.45v-.11h0ZM234.01,359.55c.88-14.08,17.83-18.84,21.4-31.73,1.93-6.37,2.46-13.45,3.51-20.1.82-6.58,2.11-12.24,1.8-18.14-.34-5.28-3.17-8.85-8.45-9.94-4.83-1.06-10.1-2.38-11.11-8-1.63-13.45,12.65-26.27,27.9-30.65,10.45-3.01,23.03-3.58,33.03.55,10.57,4.3,12.35,14.51,9.97,25.04-1.64,7.86-5.89,14.43-8.24,21.21-2.47,7.8-3.17,16.34-4.56,24.45-1.53,9.34-2.86,18.22,2.17,26.36,2.21,3.83,5.17,7.72,6.57,11.9,5.25,16.48-10.85,24.99-27.4,26.93-14.57,1.72-47.28,2.32-46.61-17.79v-.1h.01Z"/>
      <path d="M390.99,290.85c-.5-10.22-1.57-19.13-7.7-25.69-3.82-3.94-9.6-3.92-13.74-.47-14.62,12.13-18.95,45.88-15.11,66.12.86,4.7,1.96,9.5,4.42,13.53,6.19,9.79,15.1,4.81,19.75-2.66,8.69-13.45,12.63-33.53,12.39-50.68v-.15h-.01ZM306.88,324.27c-.95-35.84,16.45-78.4,47.22-84.48,9.33-2.06,20.35-.61,28.18,5.23,3.58,2.63,6.42,6.08,8.47,10.01,1.15,2.03,3.33,7.13,4.79,7.18,2.49.02,3.56-8.97,4.07-11.53.48-3.21.87-6.41,1.25-9.59.46-3.9.73-7.26-.29-9.58-1.06-2.54-3.68-3.54-6.12-4.46-5.84-2.01-11.63-4.59-10.86-11.9,3.02-17.54,27.03-22.37,42.45-22.47,33.93.3,30.16,20.72,23.21,46.35-2.4,8.75-4.48,17.23-6.25,26.22-4.07,21.68-7.92,41.84-8.85,57.96,0,8.37,6.54,9.57,12.63,12.88,7.78,4.25,3.36,14.82-.19,21.14-3.69,6.42-9.22,12.08-15.8,15.64-9.99,5.25-24.37,7.39-32.68.11-4.95-4.83-5.49-12.28-5.35-18.96.08-2.96.45-5.97.61-8.46.09-1.36.47-6.4-1.22-4.86-.87.67-2.23,2.73-3.87,5.48-1.14,1.91-2.42,4.16-3.6,6.18-12.2,20.84-29.85,29.63-49.91,24.08-19.33-5.66-28.01-29.74-27.9-52.02v-.14Z"/>
      <path d="M495.5,299.09c1.85,4,6.97,4.84,11.06,4.75,12.04.03,23.74-7.07,27.73-18.71,3.76-10.25.68-22.56-12-22.19-11.9.98-19.31,10.01-25.02,22.32-1.77,4.13-3.65,9.53-1.81,13.73l.04.09ZM562.95,330.51c2.62,16.12-12.27,33.07-28.84,40.66-8.07,3.86-18.56,6.28-28.06,6.78-32.68,2.48-57.51-16.91-59.18-50.72-3.49-51.97,39.04-96.77,92.11-87.67,27.27,4.1,38.21,25.86,28.54,50.77-7.74,19.72-31.72,29.75-53.65,28.53-1.2-.05-2.39-.14-3.58-.26-7.8-.73-17.72-4.94-16.37,6.2,3.35,22.51,30.38,20.3,46.28,11.92,2.87-1.5,5.48-3.29,7.97-5.26,4.56-3.75,12.01-9.8,14.78-1.05l.02.08h0Z"/>
      <path d="M561.41,359.6c.55-12.66,14.45-17.95,19.44-28.37,2.01-4.21,2.69-8.37,3.56-13.6.7-4.47,1.38-9.17,2-13.48.82-7.21,3.35-17.46-4.23-21.73-5.02-2.55-12.75-2.53-14.28-8.88-.87-3.31-.06-6.92,1.23-10.05,4.18-11.1,17.74-21.23,33.06-23.67,14.6-2.89,30.15.07,27.75,18.39-.52,4.4-2.85,11.53-3.02,14.82-.36,5.8,4.84-4.47,5.88-6.44,2.45-4.67,5.23-9.5,8.3-13.82,6.89-9.36,12.47-13.32,21.67-14,3.64-.14,7.37.55,10.53,2.48,15.09,9.81,8.51,42.06-1.16,53.76-5.8,8.17-18.78,13.53-24.57,2.79-2.48-4.14-3.74-12.2-7.64-14.43-5.39-2.43-9.23,7.06-10.64,11.84-2.14,7.37-3.23,15.52-4.32,22.95-.86,6.08-1.12,12.43,1.84,18.05,3.66,7.43,12.51,13.35,12.32,22.13-.87,14.23-23.38,18.8-36.65,19.75-13.78.88-41.51.37-41.09-18.38v-.1h.01Z"/>
      <path d="M27.23,459.56c-.11-8.19,4.91-16.32,13.05-18.31,6.37-1.64,14.12-.07,18.31,5.34.9,1.12,1.64,2.39,2.21,3.73.38.93.76,1.89.63,2.44-.35,1.11-2.52.67-3.83.76-.78,0-1.62.02-2.35-.19-.99-.26-1.44-1.16-1.96-1.97-.57-.88-1.27-1.7-2.12-2.37-1.54-1.23-3.69-1.86-5.7-1.89-6.6-.26-10.94,5.76-10.87,12.47-.08,6.71,4.26,12.74,10.87,12.47,2.01-.03,4.15-.66,5.7-1.89.86-.66,1.56-1.48,2.12-2.37.52-.81.97-1.71,1.96-1.97.74-.21,1.57-.18,2.35-.19,1.33.1,3.47-.34,3.83.76.13.56-.25,1.51-.63,2.44-.57,1.34-1.31,2.6-2.21,3.73-4.2,5.41-11.94,6.99-18.31,5.34-8.13-2-13.15-10.12-13.05-18.31v-.07Z"/>
      <path d="M97.86,459.56c.05-7.79-6.17-14.61-14.18-11.95-9.63,3.56-9.89,19.58-.61,23.74,8.14,3.25,14.83-3.59,14.79-11.71v-.07ZM69.02,459.56c-.04-14.15,13.78-23.26,26.42-16.89,6.37,3.33,9.98,10.63,9.64,17.76-1.49,24.54-35.46,23.96-36.06-.79v-.08Z"/>
      <path d="M133.16,463.42c.07-.08.06-.18.04-.29-.12-.44-.55-1.52-1.06-2.95-1.31-3.46-2.89-8.18-4.26-11.52-.15-.06-.2.27-.28.43-.79,2.17-4.39,11.99-5.07,13.9-.1.33-.11.5.32.54.4.04,1.2.02,2.25.02h5.59c.82-.02,2.43.05,2.48-.1h.02s0-.02,0-.02ZM124.27,441.43c1.74-.16,4.39-.02,6.12-.06.44.01,1.21.02,1.33.17,1.64,3.53,12.64,32.16,14.15,35.8.29.62-.76.42-1.11.47-1.13,0-3.36.01-4.67,0-.77,0-1.6-.1-1.93-.91-.63-1.46-1.54-4.21-2.14-5.74-.5-1.63-1.15-1.34-2.67-1.37h-11.68c-1.06,0-1.4-.01-1.76.78-.51,1.2-.93,2.49-1.4,3.74-.49,1.1-.74,2.78-1.6,3.3-.38.2-.98.21-1.83.21h-3.94c-.41-.04-1.53.12-1.4-.35,1.03-2.66,8.9-22.63,11.61-29.47,1.19-3.01,2.08-5.28,2.42-6.13.09-.23.19-.38.46-.43h.04Z"/>
      <path d="M150.4,459.56c-.11-8.19,4.91-16.32,13.05-18.31,6.37-1.64,14.12-.07,18.31,5.34.9,1.12,1.64,2.39,2.21,3.73.38.93.76,1.89.63,2.44-.35,1.11-2.52.67-3.83.76-.78,0-1.62.02-2.35-.19-.99-.26-1.44-1.16-1.96-1.97-.57-.88-1.27-1.7-2.12-2.37-1.54-1.23-3.69-1.86-5.7-1.89-6.6-.26-10.94,5.76-10.87,12.47-.08,6.71,4.26,12.74,10.87,12.47,2.01-.03,4.15-.66,5.7-1.89.86-.66,1.56-1.48,2.12-2.37.52-.81.97-1.71,1.96-1.97.74-.21,1.57-.18,2.35-.19,1.33.1,3.47-.34,3.83.76.13.56-.25,1.51-.63,2.44-.57,1.34-1.31,2.6-2.21,3.73-4.2,5.41-11.94,6.99-18.31,5.34-8.13-2-13.15-10.12-13.05-18.31v-.07Z"/>
      <path d="M193.98,441.43c1.14-.11,3.95-.05,5.26-.06.78.06,1.3-.12,1.6.4.2,2.32.02,11.04.08,13.63.02.4-.04.86.45.89.45.05,1.47.02,2.85.03h12.62c1.03,0,1.16.03,1.17-.87v-10.85c.01-1.17-.02-2.08.02-2.57.1-.72.51-.61,1.59-.66h4.42c.47.06,1.19-.1,1.2.39-.04,2.67.12,27.9-.06,35.88-.32.26-.85.15-1.26.19-1.22,0-3.56.01-4.7,0-.35-.02-.74,0-1-.21-.14-.13-.17-.35-.19-.55-.03-.62,0-1.77-.01-3.17v-10.34c0-.89-.14-.86-1.17-.86h-6.21c-2.93.05-6.83-.1-9.43.06-.34.1-.28.54-.29,1.63-.01,3.67.02,10.66-.01,12.69,0,.68-.45.75-1.13.76-.54.02-1.34.01-2.19.01h-2.22c-.75,0-1.22-.01-1.45-.08-.14-.05-.2-.12-.22-.23-.06-3.75-.01-27.03-.01-35.79.02-.16.08-.24.25-.28h.03v-.02Z"/>
      <path d="M236.05,441.43c1.59-.15,4.06-.02,5.68-.06.37,0,1.11.02,1.18.16.25,3.65,0,27.81.09,35.34-.03.6.12.85-.44.91-.3.04-.83.04-1.56.04h-3.97c-.55-.06-1.33.13-1.27-.53v-28.3c0-3.68-.01-6.45,0-7.25.02-.17.07-.25.25-.3h.03v-.02Z"/>
      <path d="M253.74,441.43c1.44-.15,3.58-.03,5.05-.06.44.01,1.11.02,1.27.15,2.37,2.59,16.44,22.66,18.58,24.68.03-.41,0-2.17.01-4.62.01-4.62-.01-16.5,0-19.6-.01-.31.13-.52.45-.55,1.39-.14,3.61-.03,5.11-.06.35,0,.7,0,1.01.07.19.05.26.13.29.26.05,4.01,0,31.92.02,35.62.1.64-.9.45-1.4.5h-3.99c-.53-.03-1.2.08-1.54-.37-3.45-4.64-14.19-19.15-18.12-24.43-.09-.12-.2-.23-.2-.01-.05,5.62.04,21.47-.04,24.42-.17.47-.56.32-1.23.39-1.23,0-3.35.02-4.61,0-.81-.02-.94-.1-.95-.43-.01-3.21,0-31.68,0-35.46,0-.24-.01-.42.28-.49h.03Z"/>
      <path d="M312.28,447.09c-14.05.07-14.36,24.85-.35,25.2,4.03.2,7.96-1.85,9.31-5.72.49-1.24.43-1.89-.71-1.9-1.98-.03-6.81,0-8.74-.02-.42-.02-.91.01-1.1-.42-.24-.81-.12-1.81-.15-2.82,0-.66,0-1.29.01-1.76.02-.65.08-.98.3-1.1,2.67-.28,14.36-.02,17.52-.1.84-.06.88.72.9,1.46.35,7.24-2.74,14.52-9.72,17.29-8.89,3.49-19.49.33-23.44-8.81-4.48-9.74-.55-23.1,10.04-26.75,8.07-2.8,18.63.17,21.76,8.75.96,2.21-.04,2.24-2.07,2.21-1.51-.11-3.41.34-4.59-.55-.44-.38-.76-.94-1.13-1.41-1.55-2.25-4.78-3.6-7.75-3.54h-.09Z"/>
      <path d="M350.12,459.56c-.11-8.19,4.92-16.32,13.05-18.31,6.37-1.64,14.12-.07,18.31,5.34.9,1.12,1.64,2.39,2.21,3.73.38.93.76,1.89.63,2.44-.35,1.11-2.52.67-3.83.76-.78,0-1.62.02-2.35-.19-.99-.26-1.44-1.16-1.96-1.97-.57-.88-1.27-1.7-2.12-2.37-1.54-1.23-3.69-1.86-5.7-1.89-6.6-.26-10.94,5.76-10.87,12.47-.08,6.71,4.26,12.74,10.87,12.47,2.01-.03,4.15-.66,5.7-1.89.86-.66,1.56-1.48,2.12-2.37.52-.81.97-1.71,1.96-1.97.74-.21,1.57-.18,2.35-.19,1.33.1,3.47-.34,3.83.76.13.56-.25,1.51-.63,2.44-.57,1.34-1.31,2.6-2.21,3.73-4.19,5.41-11.94,6.99-18.31,5.34-8.13-2-13.15-10.12-13.05-18.31v-.07Z"/>
      <path d="M420.75,459.56c.05-7.79-6.17-14.61-14.18-11.95-9.63,3.56-9.89,19.58-.61,23.74,8.14,3.25,14.83-3.59,14.79-11.71v-.07ZM391.91,459.56c-.04-14.15,13.78-23.26,26.42-16.89,6.37,3.33,9.98,10.63,9.64,17.76-1.49,24.54-35.46,23.96-36.06-.79v-.08Z"/>
      <path d="M437.04,441.44c1.56-.17,3.85-.02,5.49-.07.68.01,1.07.03,1.25.14.51,3.98.01,26.35.19,29.44.02.4.13.43.61.45,3.2.02,7.48,0,11.22,0,2.31,0,4.3-.01,5.2.01.79-.06.78.81.79,1.4.02.98.01,2.61,0,3.58-.04.51.11,1.39-.59,1.4-6.62,0-17.51.05-24.24-.02-.66-3.67-.01-31.53-.23-35.81,0-.26-.02-.47.29-.54h.03Z"/>
      <path d="M470.48,441.44c1.56-.17,3.85-.02,5.49-.07.68.01,1.07.03,1.25.14.51,3.98.01,26.35.19,29.44.02.4.13.43.61.45,3.2.02,7.48,0,11.22,0,2.31,0,4.3-.01,5.2.01.79-.06.78.81.79,1.4.02.98.01,2.61,0,3.58-.04.51.11,1.39-.59,1.4-6.62,0-17.51.05-24.24-.02-.66-3.67-.01-31.53-.23-35.81,0-.26-.02-.47.29-.54h.03Z"/>
      <path d="M503.69,441.43c2.56-.15,22.35-.05,26.19-.04.28.05.35.28.38.99.02,1.07.04,3.54-.02,4.5-.02.65-.23.87-.81.84-2.17,0-9.89,0-14.59,0-1.63.01-2.88-.02-3.45.02-.23.02-.41.11-.47.35-.2,1.65-.03,4.54-.08,6.46.03.62-.14,1.58.74,1.49,2.52.02,14.19,0,17.06,0,.9-.03.88.4.9,1.46.01.81,0,2.05,0,2.98-.07.87.2,1.83-.64,1.9-3.08.07-13.06-.07-17.65.05-.4.07-.42.44-.42,1.52v4.17c0,1.1-.01,2.03.02,2.55.02.35.07.55.18.65,3.28.38,15.25,0,18.71.14.63-.04.9.16.91.8.07,1.27.02,3.1.03,4.3-.03.49.09,1.3-.59,1.25-6.38,0-17.62,0-24.19,0-.99,0-1.67,0-1.98-.01-.19-.02-.26-.05-.3-.16,0-3.66-.15-33.3.06-36.22h.01Z"/>
      <path d="M538.16,459.56c-.11-8.19,4.92-16.32,13.05-18.31,6.37-1.64,14.12-.07,18.31,5.34.9,1.12,1.64,2.39,2.21,3.73.38.93.76,1.89.63,2.44-.35,1.11-2.52.67-3.83.76-.78,0-1.62.02-2.35-.19-.99-.26-1.44-1.16-1.96-1.97-.57-.88-1.27-1.7-2.12-2.37-1.54-1.23-3.69-1.86-5.7-1.89-6.6-.26-10.94,5.76-10.87,12.47-.08,6.71,4.26,12.74,10.87,12.47,2.01-.03,4.15-.66,5.7-1.89.86-.66,1.56-1.48,2.12-2.37.52-.81.97-1.71,1.96-1.97.74-.21,1.57-.18,2.35-.19,1.33.1,3.47-.34,3.83.76.13.56-.25,1.51-.63,2.44-.57,1.34-1.31,2.6-2.21,3.73-4.2,5.41-11.94,6.99-18.31,5.34-8.13-2-13.15-10.12-13.05-18.31v-.07Z"/>
      <path d="M589.8,447.81c-2.5-.29-7.64.11-10.6-.16-.88-.28-.57-1.51-.65-2.36,0-.97-.02-2.01.02-2.96.05-1.09.29-.94,1.12-.95,7.52.01,24.28-.03,28.51.02.55.11.41.56.47,1.36,0,.98.02,2.63-.01,3.61-.02,1.09-.35,1.4-1.37,1.37-2.21.02-6.94-.01-9.08.01-1.07.02-.93.17-.95,1.06v6.77c-.16,8.28.31,19.05-.17,22.1-.15.15-.87.15-1.27.16-1.03.01-2.81,0-3.98,0-1.1-.07-1.83.19-1.8-.71,0-3.59,0-21.51,0-28.82-.01-.19-.01-.39-.2-.47h-.02s0,0,0,0Z"/>
      <path d="M617.3,441.43c1.59-.15,4.06-.02,5.68-.06.37,0,1.11.02,1.18.16.25,3.65,0,27.81.09,35.34-.03.6.12.85-.44.91-.3.04-.83.04-1.56.04h-3.97c-.55-.06-1.33.13-1.27-.53v-28.3c0-3.68-.01-6.45,0-7.25.02-.17.07-.25.25-.3h.03v-.02Z"/>
      <path d="M631.8,441.44c1.66-.16,4.22-.03,5.93-.06,1.05.04,1.43-.06,1.7.78,1.44,3.79,8.32,24.11,9.24,25.89,1.29-2.94,7.7-22.41,9.58-26.47.19-.17.98-.18,1.48-.19,1.29,0,3.62,0,4.8,0,.53.03,1.42-.04,1.2.4-2.92,7.87-12.05,32.33-13.23,35.5-.18.67-1,.51-1.56.55-1.1.01-3.14,0-4.33,0-.57-.05-1.45.12-1.7-.4-1.52-4.04-10.3-27.56-13.28-35.56-.07-.18-.1-.37.15-.42h.03Z"/>
      <path d="M672.98,441.43c2.56-.15,22.35-.05,26.19-.04.28.05.35.28.38.99.02,1.07.04,3.54-.02,4.5-.02.65-.23.87-.81.84-2.17,0-9.89,0-14.59,0-1.63.01-2.88-.02-3.45.02-.23.02-.41.11-.47.35-.2,1.65-.03,4.54-.08,6.46.03.62-.14,1.58.74,1.49,2.52.02,14.19,0,17.06,0,.9-.03.88.4.9,1.46.01.81,0,2.05,0,2.98-.07.87.2,1.83-.64,1.9-3.08.07-13.06-.07-17.65.05-.4.07-.42.44-.42,1.52v4.17c0,1.1-.01,2.03.02,2.55.02.35.07.55.18.65,3.28.38,15.25,0,18.71.14.63-.04.9.16.91.8.07,1.27.02,3.1.03,4.3-.03.49.09,1.3-.59,1.25-6.38,0-17.62,0-24.19,0-.99,0-1.67,0-1.98-.01-.19-.02-.26-.05-.3-.16,0-3.66-.15-33.3.06-36.22h.01Z"/>
    </g>
  </g>
</svg>