<svg xmlns="http://www.w3.org/2000/svg" viewBox="0 0 1200 630" width="1200" height="630">
  <!-- Background -->
  <rect width="1200" height="630" fill="#F4F0E6"/>
  <!-- Clay Hider stacked logo, centered — original viewBox 128.88×124.04, scaled to ~280px tall -->
  <g transform="translate(454.6, 175) scale(2.257)" fill="#342609">
    <g>
      <g>
        <g>
          <path d="M1.2,22.34c0-3.79,9.42-11.09,14.22-11.09,5.7,0,9,3.73,9,10.51,0,2.03-3.84,4.59-6.9,4.59-1.14,0-1.8-.48-1.8-1.28,0-1.07.96-1.49.96-3.04,0-2.93-1.86-4.64-5.28-4.64-2.1,0-3,1.39-3,3.63v9.65c0,4.75,2.76,7.25,8.58,7.25,2.76,0,3.18-2.77,5.64-2.77.96,0,1.68.59,1.68,1.44,0,2.4-7.5,7.73-10.38,7.73-7.44,0-12.72-4.11-12.72-9.81v-12.16Z"/>
          <path d="M24.9,4.59c0-.85.6-1.55,1.5-1.55,1.5,0,2.34,1.44,3.66,1.44,2.34,0,3.54-4.48,6.9-4.48,1.44,0,2.34.85,2.34,2.4,0,4.11-3.78,6.99-3.78,14.61v16.8c0,3.2,3.78,3.73,3.78,5.81,0,1.81-4.92,4.69-7.26,4.69s-7.44-2.83-7.44-4.69c0-2.08,3.78-2.61,3.78-5.76V15.57c0-5.87-3.48-8.37-3.48-10.99Z"/>
          <path d="M40.8,34.72v-12.37c0-3.79,9.36-11.09,14.16-11.09,3.48,0,5.52,1.33,7.92,1.33,1.62,0,2.58-.8,4.2-.8,1.32,0,2.22.64,2.22,1.65,0,2.99-3.6,3.09-3.6,7.68v12.69c0,3.25,3.6,3.79,3.6,5.81,0,1.81-4.98,4.69-7.38,4.69-2.64,0-3.42-4.05-5.4-4.05s-2.94,4.05-5.52,4.05c-5.94,0-10.2-3.95-10.2-9.6ZM54.84,37.76c2.4,0,3.72-1.12,3.72-3.31v-11.41c0-4.37-2.22-5.49-7.62-5.49-2.04,0-2.94,1.49-2.94,3.73v10.61c0,3.84,2.34,5.87,6.84,5.87Z"/>
          <path d="M76.8,44.16c1.92-1.39,1.86-2.4,0-3.04-2.64-.85-5.34-1.97-5.34-4.11,0-2.88,4.62-5.39,4.62-11.73,0-3.04-1.38-5.55-3.84-6.77-1.56-.8-2.28-1.65-2.28-2.61,0-1.87,4.86-4.64,7.26-4.64,3.84,0,6.12,3.68,6.12,7.95,0,6.72-4.08,9.28-4.08,13.6,0,1.87,2.88,3.73,6.24,3.73,3,0,4.68-2.72,4.68-5.87v-8.96c0-3.2-3.36-3.73-3.36-5.81,0-1.71,4.56-4.64,7.08-4.64,2.34,0,7.2,2.83,7.2,4.64,0,2.08-3.78,2.67-3.78,5.76v8.69c0,4.91,4.32,9.39,4.32,14.83,0,3.63-8.46,10.51-12.78,10.51-8.82,0-17.04-1.65-17.04-5.39,0-1.81,2.16-4.11,4.98-6.13ZM90.96,50.02c2.46,0,3.18-.59,3.18-2.4,0-4-2.64-9.28-4.5-9.28-2.58,0-9.72,4.91-9.78,8.05,0,2.56,7.5,3.63,11.1,3.63Z"/>
        </g>
        <g>
          <path d="M0,86.26c0-2.08,3.78-2.61,3.78-5.76v-18.29c0-5.87-3.48-8.32-3.48-10.99,0-.85.6-1.49,1.5-1.55,1.56,0,2.28,1.44,3.66,1.44,2.28,0,3.54-4.48,6.84-4.48,1.5,0,2.4.91,2.4,2.35,0,3.57-3.66,7.52-3.66,12.64,0,.96.42,1.33,1.02,1.33,2.28,0,5.7-5.07,9.96-5.07,3.12,0,7.86,2.83,7.86,4.85s-2.46,2.99-2.46,5.92c0,9.07,2.04,12.59,2.04,18.83,0,3.25-5.28,8.8-8.46,8.8-1.32,0-2.16-.75-2.16-1.97,0-3.95,1.8-6.83,1.8-13.23v-12.21c0-2.61-2.34-4.48-5.34-4.48-2.58,0-4.38,3.79-4.38,7.36v8.69c0,3.25,3.78,3.73,3.78,5.81,0,1.81-4.92,4.69-7.26,4.69s-7.44-2.83-7.44-4.69Z"/>
          <path d="M40.08,47.65c2.58,0,6.78,1.97,6.78,3.47,0,1.65-5.46,4.59-8.52,4.59-2.58,0-6.54-1.92-6.54-3.52,0-1.71,5.1-4.53,8.28-4.53ZM35.7,80.5v-12.21c0-3.2-3.84-3.63-3.78-5.76.06-1.65,4.8-4.64,7.32-4.64s7.38,3.04,7.38,4.64c0,2.13-3.78,2.61-3.78,5.76v12.16c0,3.2,3.78,3.79,3.78,5.81,0,1.81-4.98,4.69-7.32,4.69s-7.38-2.88-7.38-4.69c0-2.03,3.78-2.67,3.78-5.76Z"/>
          <path d="M49.2,68.93c0-2.99,3.6-5.81,7.5-7.52,1.86-.96,2.52-1.44,2.52-2.08,0-.53-.6-1.23-1.68-2.08-2.34-1.71-4.14-2.4-5.94-2.4-.48,0-.96.05-1.44.16-1.5.32-2.52-.32-2.52-1.55,0-2.08,3.3-5.6,5.1-5.6,8.28,0,21.54,11.68,21.54,17.65v14.35c0,3.73-9.36,11.09-14.22,11.09-5.94,0-10.86-3.52-10.86-9.81v-12.21ZM64.02,84.55c2.22,0,3.06-1.39,3.06-3.63v-12.75c0-2.61-2.94-6.51-4.86-6.51-2.76,0-5.82,4.21-5.82,8.53v7.09c0,4.64,2.58,7.25,7.62,7.25Z"/>
          <path d="M77.7,68.98c0-3.79,9.42-11.09,14.22-11.09,6.12,0,9,4.37,9,12.37,0,2.83-3.9,4.64-15.06,6.4-.72.11-.96.43-.96.91,0,4.37,3.42,6.99,8.58,6.99,2.76,0,3.18-2.77,5.7-2.77.9,0,1.62.64,1.62,1.44,0,2.4-7.2,7.73-10.38,7.73-7.44,0-12.72-4.11-12.72-9.81v-12.16ZM86.16,74.05c1.26,0,3.48-.48,5.58-1.23,1.08-.37,1.44-1.01,1.44-2.67,0-3.47-1.62-6.13-5.22-6.13-2.16,0-3.06,1.39-3.06,3.63v4.75c0,1.28.42,1.65,1.26,1.65Z"/>
          <path d="M106.68,80.5v-12.21c0-3.2-3.78-3.68-3.78-5.76,0-1.81,5.04-4.64,7.38-4.64,2.94,0,5.34,3.63,6.72,3.63,1.5,0,3.06-3.63,6.06-3.63,3.48,0,5.82,4.85,5.82,12.16,0,2.35-3.9,4.75-7.56,4.75-1.08,0-1.74-.43-1.74-1.23,0-1.28,1.08-1.6,1.08-3.31,0-3.79-1.44-6.45-3.48-6.45-1.68,0-3.36,2.13-3.36,4.48v12.43c0,2.56,2.58,3.63,4.98,3.41h.18c1.02,0,1.68.48,1.68,1.33,0,2.13-6.78,5.49-9.12,5.49-2.64,0-8.64-2.83-8.64-4.69,0-2.03,3.78-2.67,3.78-5.76Z"/>
        </g>
      </g>
      <g>
        <path d="M110.72,124.04H39.53c-3.43,0-6.22-2.79-6.22-6.22v-14.44c0-3.43,2.79-6.22,6.22-6.22h71.2c3.43,0,6.22,2.79,6.22,6.22v14.44c0,3.43-2.79,6.22-6.22,6.22ZM39.53,98.28c-2.81,0-5.09,2.28-5.09,5.09v14.44c0,2.81,2.28,5.09,5.09,5.09h71.2c2.81,0,5.09-2.28,5.09-5.09v-14.44c0-2.81-2.28-5.09-5.09-5.09H39.53Z"/>
        <g>
          <path d="M49.3,114.33h-.21c-.14.27-.32.5-.53.7-.22.2-.45.36-.7.49-.25.13-.52.22-.8.29-.28.06-.55.1-.81.1-.58,0-1.13-.1-1.63-.3s-.94-.48-1.32-.86c-.38-.37-.68-.84-.89-1.39-.22-.55-.32-1.19-.32-1.9v-.28c0-.7.11-1.33.33-1.88.22-.55.52-1.02.89-1.4.37-.38.81-.67,1.31-.87.5-.2,1.03-.3,1.59-.3.6,0,1.15.13,1.67.39.52.26.92.67,1.2,1.22h.21v-4.93h1.36v12.25h-1.36v-1.33ZM46.4,114.61c.41,0,.79-.08,1.14-.23.35-.15.66-.37.92-.65.26-.28.47-.61.62-1.01s.23-.83.23-1.3v-.21c0-.47-.08-.9-.23-1.29s-.36-.73-.62-1.01c-.26-.28-.57-.5-.93-.66-.36-.16-.73-.24-1.13-.24s-.79.08-1.15.23c-.36.15-.67.37-.93.65-.26.28-.47.61-.61,1-.15.38-.22.81-.22,1.28v.28c0,.49.07.93.22,1.31.15.39.35.71.61.99.26.27.57.48.92.63.35.15.73.22,1.15.22Z"/>
          <path d="M55.16,111.74c.04.86.3,1.56.81,2.08.5.52,1.2.79,2.1.79.41,0,.76-.05,1.07-.14.3-.09.56-.22.78-.38.22-.16.39-.35.52-.57s.24-.45.32-.69l1.29.35c-.25.8-.7,1.46-1.36,1.97-.66.51-1.55.76-2.67.76-.62,0-1.19-.11-1.71-.32-.52-.22-.97-.52-1.34-.92-.37-.4-.67-.87-.87-1.42-.21-.55-.32-1.15-.32-1.82v-.42c0-.61.11-1.17.32-1.7.22-.52.52-.98.9-1.36.38-.38.84-.68,1.36-.89.52-.22,1.08-.32,1.69-.32.71,0,1.33.13,1.85.39.52.26.94.59,1.28.97s.58.8.73,1.26.24.87.24,1.26v1.12h-7ZM58.07,108.03c-.38,0-.74.06-1.08.18-.33.12-.62.29-.87.52s-.45.48-.61.78c-.16.3-.26.62-.31.97h5.6c-.02-.37-.11-.71-.27-1.01-.16-.3-.36-.56-.61-.77-.25-.21-.54-.37-.86-.49-.32-.12-.65-.18-.99-.18Z"/>
          <path d="M67.55,109.22c0,.42.18.74.53.96.36.22,1.01.37,1.95.44,1.01.08,1.79.32,2.32.73.53.4.8.99.8,1.76v.11c0,.42-.08.8-.25,1.13-.17.33-.4.62-.7.85-.3.23-.66.41-1.08.53-.43.12-.89.18-1.39.18-.68,0-1.26-.09-1.74-.27-.48-.18-.89-.42-1.21-.72-.32-.3-.56-.64-.73-1.01-.16-.38-.26-.76-.28-1.15l1.29-.32c.06.67.31,1.2.77,1.6s1.06.6,1.82.6c.64,0,1.16-.12,1.55-.38.39-.25.59-.6.59-1.06,0-.49-.19-.84-.58-1.05-.38-.21-1.01-.34-1.87-.4-1-.07-1.77-.3-2.31-.7-.54-.4-.8-.97-.8-1.73v-.11c0-.41.09-.77.26-1.08.18-.31.41-.57.71-.78.3-.21.63-.37,1.01-.47.37-.11.76-.16,1.17-.16.57,0,1.07.08,1.5.24.43.16.79.36,1.08.61.29.25.52.54.67.87.16.33.26.65.31.98l-1.29.31c-.06-.56-.28-1-.67-1.31-.39-.31-.9-.47-1.53-.47-.24,0-.48.03-.71.08-.23.05-.43.13-.6.24-.17.1-.31.24-.42.39-.11.16-.16.34-.16.55Z"/>
          <path d="M77.54,114.4h3.04v-6.16h-2.73v-1.26h4.09v7.42h2.83v1.26h-7.24v-1.26ZM80.02,104.39c0-.34.12-.63.36-.87s.53-.36.87-.36.63.12.87.36c.24.24.36.53.36.87s-.12.63-.36.87-.53.36-.87.36-.63-.12-.87-.36c-.24-.24-.36-.53-.36-.87Z"/>
          <path d="M95.51,114.33h-.21c-.28.52-.66.92-1.15,1.18-.48.26-1.01.39-1.58.39s-1.13-.1-1.64-.3c-.51-.2-.97-.48-1.36-.86s-.7-.84-.93-1.39c-.23-.55-.34-1.19-.34-1.9v-.28c0-.7.12-1.33.35-1.88.23-.55.54-1.02.93-1.4.38-.38.83-.67,1.35-.87.51-.2,1.05-.3,1.61-.3.63,0,1.18.14,1.65.41.47.27.84.67,1.11,1.2h.21v-1.36h1.36v10.81c0,.4-.13.72-.38.98-.25.26-.57.38-.97.38h-5.65v-1.26h5.16c.31,0,.47-.18.47-.52v-3.04ZM92.6,114.61c.41,0,.79-.08,1.14-.23s.66-.37.92-.65c.26-.28.47-.61.62-1.01s.23-.83.23-1.3v-.21c0-.47-.08-.9-.23-1.29s-.36-.73-.62-1.01c-.26-.28-.57-.5-.93-.66-.36-.16-.73-.24-1.13-.24s-.79.08-1.15.23-.67.37-.93.65c-.26.28-.47.61-.61,1s-.22.81-.22,1.28v.28c0,.49.07.93.22,1.31.15.39.35.71.61.99.26.27.57.48.92.63.35.15.73.22,1.15.22Z"/>
          <path d="M101.86,115.66h-1.36v-8.68h1.36v1.47h.21c.54-1.14,1.47-1.71,2.8-1.71,1,0,1.8.31,2.4.94.6.62.89,1.56.89,2.81v5.18h-1.36v-4.9c0-.91-.2-1.59-.61-2.05-.41-.45-.96-.68-1.66-.68-.83,0-1.48.28-1.95.85-.47.57-.71,1.32-.71,2.27v4.51Z"/>
        </g>
      </g>
    </g>
  </g>
</svg>
