<?xml version="1.0" encoding="UTF-8"?>
<svg id="Layer_2" data-name="Layer 2" xmlns="http://www.w3.org/2000/svg" viewBox="0 0 1029.24 134.19">
  <g id="Layer_1-2" data-name="Layer 1">
    <g>
      <path d="M253.9.12c12.73,1.27,22.08,7.99,27.79,20.41,2.8-5.42,4.56-9.34,6.68-14.66h3.43s-8.49,36.65-8.49,36.65c-1.43,0-3.62.08-3.51-.51l.63-3.23c.65-3.36-.75-9.55-1.56-13.24-2.66-12.09-11.85-21.07-24-21.87-9.62-.64-18.49,1.24-26.17,7.14-4.12,3.16-8.88,7.29-11.92,11.77-12.11,17.86-19.14,38.18-22.19,59.44-1.74,12.17-.54,24,5.49,34.41,5.88,10.14,16.07,14.62,27.8,13.43,10.57-1.08,19.06-6.86,26.22-14.7,5.98-7.06,10.28-14.65,14.65-23.18l3.19.81-12.54,40.13c-1.74-.07-3.6-.02-3.59-.67l.02-2.53c.02-3.05-.22-6.14-1.33-9.23-16.1,14.98-40.38,18.52-58.23,4.76-16.18-12.47-21.94-33.22-18.48-53.04,3.66-20.95,14.62-39.08,29.61-53.94C217.88,7.89,230.42,1.48,245.2,0l8.69.12Z"/>
      <path d="M961.62,112.65c-5.54,11.6-10.26,21.09-22.62,21.33-12.93.24-7.45-16.74-4.83-30.23-9,14.36-21.72,35.9-38.14,28.98-4.4-1.85-7.76-7.92-6.63-12.32l4.49-17.59,13.9-40-.04-4.66c0-1.24-4.36-1.11-5.39-.32-4.65,3.52-8.06,9.49-10.55,15.15l-4.08-.07c5.07-11.42,15.06-25.24,25.89-21.04,4.76,1.84,6,7.57,4.41,12.29l-15.04,44.66c-2.45,7.26-5.24,16.37-1.31,19.15,10.03,7.07,28.9-21.92,33.74-35.56l14.17-39.98,10.8.03-18.96,61.84c-1.16,3.8-2.02,9.47-.85,12.59,3.07,2.4,8.54.66,10.27-2.19l7.31-12.05h3.45Z"/>
      <path d="M403.93,103.91l8.3-23.19,5.34-18.51c.38-1.3-1.05-4.48-2.09-5.3-11.45-9.08-33.52,29.39-39.14,46.78l-9.33,28.9-11.09.15,13.43-42.94,8-26.77c.36-1.2-.2-3.49-.85-4.26s-3.76-.66-4.68-.03c-9.39,6.46-9.74,16.43-14.43,12.72,6.43-10.82,16.74-24.26,26.38-19.32,6.5,3.34.35,20.64-2.22,31.11,4.6-7.94,9.12-14.91,14.95-22.12,7.86-9.72,21.16-14.01,28.08-5.34,3.05,3.82,3.76,8.94,1.96,14.39l-17.08,51.69c-.58,1.77-.53,4.35.14,5.53,3.06,5.43,13.43-3.34,18.41-13.22l4.43-.07c-6.38,10.16-13.86,21.12-25.84,19.63-12.78-1.59-7.25-17.04-2.67-29.83Z"/>
      <path d="M772.14,112.19c-6.27,13.56-21.99,28.22-29.41,19.24-4.11-4.98-2.42-11.45-1.52-18.28-7.92,10.08-21.31,25.8-33.89,19.48-7.43-3.74-10.84-12.45-10.09-20.87,2.11-23.54,15.52-44.4,35.53-56.83,5.82-3.61,12.86-5.39,19.16-2.05,1.82.96,3.7,5.03,4.84,7.36l2.66-7.89,10.66.08-20.44,67.05c-.54,1.77-.32,4.86.28,6.19s4.78,1.7,6.1.91c5.65-3.37,9.24-8.7,12.55-14.36l3.56-.02ZM742.26,103.94c5.68-12.69,10.19-25.68,11.89-39.51.37-3.03-2.63-7.02-4.71-8.19-6.17-3.49-14.35,2.08-20,9.33-9.34,11.98-15.85,25.83-19.93,40.56-2.4,8.65-1.7,20.18,3.49,22.51,9.51,4.28,23.54-11.9,29.27-24.69Z"/>
      <path d="M308.91,133.42c-11.31,1.74-20.35-6.45-21.73-17.15-2.22-17.23,1.95-35,12.67-48.73,6.44-8.25,15.09-15.38,25.87-15.98,10.81-.6,18.14,9.02,19.42,19.36,3.17,25.56-11.62,58.73-36.22,62.51ZM316.84,126.3c11.41-13.49,15.81-33.55,19.2-51.04.93-6.01,1.5-13.4-3.55-17.82s-13.35-1.97-17.7,3c-10.55,12.05-16.98,34.71-18.33,51.45-1.68,6.33-.46,14,5.66,17.37,4.84,2.66,10.04.23,14.72-2.96Z"/>
      <path d="M815.68,107.4l.98-1.75c1.44-2.57,6.41.88-7.78,18.63-6.44,8.05-16.18,12.57-22.09,7.72s-4.24-13.5-1.62-22.11l15.96-52.51-12.79-.22c-.64-1.31,1.18-3.94,2.49-3.93l11.53.11,8.75-28.76h10.87s-8.86,28.72-8.86,28.72l13.94.07-.26,2.95c-.05.61-1.91,1.01-2.52,1.01h-12.42s-17.5,57.83-17.5,57.83c-1.06,3.49-2.01,8.97-.39,11.75s6.63.91,8.47-.89c5.57-5.43,9.45-11.84,13.24-18.62Z"/>
      <path d="M539.02,120.27l7.3-11.16c.67-1.02,3.52-1.25,3.98-.84-3.67,7.51-7.36,13.85-13.25,19.12-6.94,6.21-17.26,8.83-25.77,4.55-7.3-3.67-9.53-12.18-8.9-20.15,3.08-39.2,38.27-68.99,51.55-58.59,4.8,3.76,4.89,14.46.37,20.87-4.5,6.37-10.08,12.2-17.07,15.77l-21.18,10.81c-3.68,10.33-4.19,25.4,2.73,27.54,8.16,2.52,15.85-1.19,20.25-7.91ZM550.58,63.18c.28-2.19-1.19-5.83-2.67-6.91-10.37-7.56-27.46,23.89-30.64,40.16,14.04-6.24,31.48-19.05,33.31-33.25Z"/>
      <path d="M862.58,120.3l6.39-9.68c.55-.83,1.05-2.65,1.85-2.59l3.23.25c-3.88,7.48-7.48,13.72-13.39,19.03-7.08,6.37-17.84,9.08-26.37,4.31-6.87-3.84-8.87-12.1-8.27-19.86,2.95-37.91,36.75-68.2,50.69-58.89,6.17,4.12,5.6,13.85,1.87,19.88-4.87,7.86-11.91,14.32-20.21,18.5l-18.72,9.42c-3.61,10.67-4.46,25.68,3.52,27.76,7.97,2.08,15.29-1.9,19.4-8.13ZM874.25,62.25c.13-2.03-1.37-5.04-2.69-5.97-4.79-3.35-10.93,1.61-15.85,7.57-6.49,9.72-11.66,19.51-14.6,32.18,13.21-5.16,32.19-19.1,33.15-33.79Z"/>
      <path d="M677.79,52.34c.75-1.09,4.44-1.39,5.37-.68,5.49,4.19,4.68,13.77,3.28,22.58-3.07,19.23-9.81,40.75-24.7,52.92-6.91,5.65-15.91,8.79-24.51,5.57-7.55-2.83-10.9-11.87-9.53-19.21,3.8-20.4,14.62-32.82,25.43-50.45-13.76,6.94-14.01-8.39-21.58.2l-1.77,2.01c-.39.44-2.38-.45-2.67-.73l4.67-8.92c1.43-2.74,4.94-4.79,8.08-4.47,5.82.59,7.32,9.68,11.93,9.3s3.28-11.26,9.79-8.74c-.3,2.85-1.8,6.53-3.4,9.43-6.48,11.71-12.21,23.33-16.7,35.93-3.88,10.88-5.53,26.26,2.7,30.75,13.74,7.49,33.49-21,36.9-46.03,1.93-14.19-8.04-22.58-3.29-29.46Z"/>
      <path d="M599.69,70.16c-10.17,20.34-17.45,40.29-24.16,62.27l-10.94.35,14.58-48.06c2.82-9.29,7.45-24.58,3.22-27.15-4.58-2.79-12.91,9.53-16.33,18.37l-3.78.03c4.76-12.55,17.29-30.63,26.12-23.37,3.16,2.6,4.28,8.98,3.63,12.96l-3.53,21.8c5.93-12.03,13.83-33.97,24.68-36.03,4.32-.82,7.23,1.42,8.11,4.58,1.03,3.69-.66,7.49-5.13,8.38l-7.36-4.9c-3.71,1.91-6.76,6.08-9.11,10.78Z"/>
      <path d="M1017.19,59.7c-3.04-2.44-12.56,14.5-15.67,23.01l-18.26,50.04-10.71-.11,14.2-46.91c2.78-9.19,7.38-23.77,4.11-27.94-3.61-4.6-13.17,8.46-17.08,17.99l-3.55.12c5.07-13.34,18.2-30.97,26.44-23.11,3.81,3.64,3.84,10.98,2.95,15.87l-3.42,18.7c6-11.4,14.2-33.96,24.67-36.09,1.89-.38,5.21.37,6.29,1.35s1.92,3.49,2.08,5.9c.1,1.55-1.86,4.54-3.37,5.32s-4.51-.8-6.12-2.09l-2.56-2.05Z"/>
      <path d="M456.98,134.04c-9.43.11-18.39-3.41-19.56-13.31-.17-1.42,1.18-4.5,2.38-5.26,1.37-.87,5.14-.81,6.3.31,3.88,3.73-3.17,10.42,3.97,13.62,7.09,3.18,15.93,1.13,21.11-4.93,3.91-4.57,4.17-11.28,1.51-16.75l-11.74-24.1c-2.35-4.83-3.69-11.63-1.76-16.83,4.09-11.03,16.41-17.47,27.5-14.86,5.21,1.23,9.63,4.05,11.29,8.9.6,1.75-.85,4.93-2.28,5.42-1.93.66-5.17-1.39-5.48-3.61-.92-6.42-6.02-8.82-12.02-7.65-4.68.92-10.23,3.78-10.65,9.27-1.1,14.69,13.34,25.85,15.84,41.45,1.31,8.17-.7,14.9-5.75,20.51-4.96,5.5-12.08,7.69-20.66,7.79Z"/>
      <path d="M43.04,94.07l-29.85-.18c3.14-3.7,8.44-.69,10.02-4.66.89-2.4,1.53-7.1,1.53-10.03v-40.79c-6.01.09-11.76-.37-16.19.61-5.51,1.21-4.37,7.99-7.84,12.09-1.23-4.76-.76-10.49.55-14.67l55.74.08-.39,14.53c-4-3.72-2.47-10.6-7.32-11.86-5.02-1.3-10.89-.67-16.41-.71l.12,49.57c.01,4.59,10.08,2.87,10.02,6.03Z"/>
      <path d="M91.55,68.22c-.1-4.87-3.2-8.24-7.77-8-5.05.26-10.71,4.51-10.78,9.85l-.2,16.24c-.01,1.21.81,3.87,1.78,4.43l5.22,3.01c-7.56.31-12.24.31-19.87,0l6.96-3.98.04-45.43c0-1.37-.53-3.57-1.46-3.96l-5.1-2.13,12.42-3.01.32,28.79c6.95-7.36,15.99-8.81,22.59-2.39,1.28,2.61,2.21,8.28,2.2,11.33l-.04,17.05,5.9,2.56-1.62,1.66-17.19-.54c4.06-2.57,7.03-3.7,6.95-7.58l-.36-17.91Z"/>
      <path d="M129.97,92.88c4.05-.85,13.27-10.51,10.82-6.45l-1.04,1.72c-3.78,6.26-11.54,8.38-18.4,6.13s-11.45-7.8-12.06-15.78c-.46-6.02,1.31-12.49,6.01-16.81s11.93-5.19,17.89-2.62c4.57,1.97,7.41,7.18,7.45,11.44h-24.58c-.28,6.85.25,13.02,3.83,18.61,1.93,3.02,6.69,4.48,10.07,3.77ZM133.52,69.09c.38-4.7-2.33-9.03-6.89-9.53-5.49-.6-9.71,4.18-9.79,9.69l16.68-.16Z"/>
    </g>
  </g>
</svg>