<svg width="161" height="18" viewBox="0 0 161 18" fill="none" xmlns="http://www.w3.org/2000/svg">
<path d="M16.6373 16.831H10.6424V0H16.4796C21.7441 0 26.9209 3.02475 26.9209 8.47588C26.9209 13.927 21.8726 16.831 16.6373 16.831ZM16.573 2.81614H14.0489V13.9599H16.6957C20.6047 13.9599 23.3801 11.8849 23.3801 8.47588C23.3801 5.06686 20.4469 2.81614 16.5672 2.81614H16.573Z" fill="black"/>
<path d="M41.4835 16.8311L39.6955 12.11H33.6656L31.8776 16.8311H28.3602L35.2666 0.0714425H38.188L45.1003 16.8311H41.4835ZM36.6806 4.08431L34.5771 9.6617H38.784L36.6806 4.08431Z" fill="black"/>
<path d="M49.3802 16.8311V0.0714425H52.7749V16.8311H49.3802Z" fill="black"/>
<path d="M59.6497 16.8311V0.0714425H63.0387V14.0588H72.1478V16.8311H59.6497Z" fill="black"/>
<path d="M83.1404 0.0714425H86.9091L81.0369 10.1942V16.8311H77.648V10.1613L71.77 0.0714425H75.5387L79.3367 7.12552L83.1404 0.0714425Z" fill="black"/>
<path d="M104.455 12.3405L109.357 0.378759H112.904L105.816 16.831H103.625L101.376 11.5884L99.126 16.831H96.9349L89.8416 0.378759H93.3883L98.2905 12.3405L99.8915 8.48684L96.3799 0.378759H99.6169L101.376 4.86922L103.134 0.378759H106.371L102.86 8.48684L104.461 12.3405H104.455Z" fill="black"/>
<path d="M118.038 16.8311V0.0714425H121.432V16.8311H118.038Z" fill="black"/>
<path d="M139.81 16.831L136.252 10.1667H132.22V14.6132L132.244 16.8255H128.861L128.884 14.6132V2.21229L128.861 0H136.678C139.512 0 143.445 0.680706 143.445 5.01197C143.445 7.81164 141.592 9.2005 139.489 9.78788L143.748 16.7816V16.831H139.81ZM132.22 7.76772H135.931C137.835 7.76772 140.015 7.46031 140.015 5.08333C140.015 2.56362 137.835 2.39894 135.884 2.39894H132.226V7.76772H132.22Z" fill="black"/>
<path d="M149.037 16.8311V0.0714425H159.84V2.87661H152.432V6.97731H157.959V9.74953H152.432V14.0259H160.249V16.8311H149.037Z" fill="black"/>
<path d="M1.08679 14.4151H6.01825V15.793H5.22945L1.08679 15.7875V17.4233H0V12.7792H1.08679V14.4151Z" fill="black"/>
<path d="M6.01825 7.64123H5.22945L3.50577 7.63574V9.88097H6.02409V11.2479H5.23529L0.800485 11.2424H0V9.87548H0.788799L2.41314 9.88097V7.63574H0V6.26884H0.788799L5.2236 6.27433H6.0124V7.64123H6.01825Z" fill="black"/>
<path d="M3.51746 0.592633V2.86531H4.93146V0.0601463H6.01825V4.22672H5.22945L0.794642 4.22123H0V0.104063H1.08679V2.86531H2.43651V0.592633H3.5233H3.51746Z" fill="black"/>
</svg>
