<svg width="86" height="62" viewBox="0 0 86 62" fill="none" xmlns="http://www.w3.org/2000/svg">
<path d="M21.1251 61.9332C20.7948 61.9021 20.4598 61.901 20.1473 61.7601C20.0846 61.7327 20.0313 61.6957 19.9757 61.6599C19.9402 61.6372 19.9118 61.6002 19.8739 61.5835C19.7638 61.537 19.6951 61.4475 19.6111 61.3675C19.4442 61.2088 19.3672 61.0071 19.282 60.8066C19.2134 60.642 19.1518 60.4653 19.1447 60.2851C19.1388 60.1217 19.0914 59.9629 19.082 59.7994C19.0713 59.6336 19.082 59.4677 19.0737 59.3018C19.0394 58.6705 19.1885 58.0368 19.3081 57.4246C19.3175 57.3769 19.3294 57.3292 19.3388 57.2814C19.3696 57.1442 19.4099 57.0141 19.5152 56.9091C19.6158 56.8113 19.6999 56.6991 19.804 56.6036C20.0207 56.4067 20.2728 56.2981 20.5593 56.242C20.7546 56.2038 20.9463 56.1657 21.1488 56.1645C21.2636 56.1645 21.3772 56.1824 21.4826 56.2015C21.6388 56.2301 21.7998 56.2468 21.9489 56.3208C22.3277 56.5105 22.6166 56.7707 22.7444 57.1931C22.7823 57.3161 22.8119 57.439 22.8391 57.5643C22.8663 57.6872 22.8581 57.8149 22.6616 57.8352C22.5089 57.8507 22.3656 57.9032 22.2165 57.9282C22.1135 57.945 22.0744 57.9283 22.0401 57.8316C22.0235 57.7862 22.0034 57.7373 22.0034 57.6908C22.007 57.4855 21.8744 57.3507 21.7572 57.2146C21.5737 57.0022 21.3346 56.9187 21.0564 56.9592C20.9546 56.9736 20.8493 56.9795 20.751 57.0094C20.5237 57.0798 20.3486 57.2313 20.1959 57.4079C20.145 57.4664 20.1106 57.544 20.1 57.6239C20.0491 58.0189 20.01 58.4175 19.9674 58.8125C19.9047 59.3615 19.862 59.9092 20.0526 60.4439C20.0692 60.4892 20.0775 60.5381 20.0881 60.5859C20.1485 60.8556 20.3426 60.9928 20.5829 61.062C20.8019 61.1253 21.0398 61.1432 21.2612 61.1074C21.5394 61.062 21.7974 60.9415 21.9738 60.6945C22.0377 60.605 22.059 60.5059 22.0685 60.4045C22.0803 60.2768 22.1525 60.1909 22.2413 60.1169C22.3372 60.0357 22.6746 60.068 22.7503 60.1622C22.8202 60.2481 22.8249 60.3579 22.8202 60.4582C22.8154 60.5608 22.8261 60.667 22.7906 60.7673C22.6959 61.0298 22.6095 61.4093 22.3147 61.5215C22.1123 61.5978 21.9691 61.7494 21.7619 61.8305C21.6128 61.889 21.4506 61.9284 21.2861 61.9344C21.2316 61.9368 21.176 61.9344 21.1215 61.9344L21.1251 61.9332Z" fill="#F0E7D6"/>
<path d="M26.5584 56.1131C26.9301 56.1143 27.3385 56.0547 27.7042 56.1322C27.8404 56.1609 27.9729 56.1991 28.1138 56.2003C28.16 56.2003 28.2085 56.2205 28.2523 56.2396C28.5967 56.384 28.8548 56.6227 29.0205 56.9616C29.1436 57.2146 29.2703 57.464 29.3531 57.7361C29.4336 57.9987 29.4644 58.2672 29.5023 58.5369C29.5366 58.7803 29.4703 59.0357 29.4597 59.2803C29.4455 59.6228 29.4206 59.9558 29.3283 60.2863C29.2762 60.4713 29.2289 60.6575 29.1945 60.846C29.1567 61.0501 29.0182 61.1897 28.9069 61.3472C28.766 61.5453 28.5707 61.6897 28.3529 61.7768C28.1931 61.8413 28.0226 61.8938 27.8522 61.9391C27.7019 61.9797 27.548 61.9857 27.4024 61.9845C27.1538 61.9821 26.9028 62.0251 26.6543 61.9761C26.6247 61.9702 26.5927 61.9678 26.5655 61.9582C26.2364 61.8401 25.9097 61.7148 25.6244 61.5048C25.4196 61.3544 25.2468 61.179 25.1805 60.9188C25.1568 60.8257 25.1166 60.7374 25.0775 60.6491C24.9982 60.4677 24.9757 60.2708 24.9592 60.0811C24.9237 59.6706 24.8396 59.26 24.8917 58.8436C24.8467 58.6646 24.8976 58.482 24.8799 58.303C24.8704 58.2099 24.8893 58.1228 24.9189 58.0333C24.9746 57.8662 25.0101 57.692 25.0598 57.5225C25.1107 57.3495 25.1734 57.1788 25.2634 57.0165C25.3794 56.8065 25.5522 56.6633 25.7239 56.5093C25.9547 56.3029 26.2364 56.1108 26.5596 56.1131H26.5584ZM27.0615 61.2327C27.2473 61.2327 27.4308 61.1993 27.6119 61.1587C27.8108 61.1133 28.07 61.025 28.2132 60.8747C28.4926 60.5775 28.6027 60.2768 28.611 59.871C28.6145 59.6992 28.669 59.5333 28.6843 59.3627C28.6997 59.192 28.6772 59.0214 28.6713 58.8519C28.6642 58.6717 28.637 58.4903 28.605 58.3101C28.5399 57.9473 28.4571 57.5917 28.2239 57.2958C28.0345 57.0547 27.8143 56.8638 27.4734 56.9211C27.4331 56.9282 27.3882 56.921 27.3479 56.9091C27.2875 56.8924 27.2307 56.9031 27.1704 56.9091C27.0129 56.9234 26.8638 56.9855 26.7099 56.9986C26.4222 57.0237 26.2305 57.211 26.0269 57.3781C25.9736 57.4223 25.9357 57.4939 25.9109 57.5607C25.841 57.7421 25.815 57.9378 25.7179 58.1096C25.7037 58.1359 25.6943 58.1669 25.6919 58.1968C25.6765 58.3901 25.6658 58.5834 25.6493 58.7767C25.628 59.0381 25.6528 59.3006 25.6694 59.5596C25.686 59.8245 25.6635 60.0954 25.757 60.3532C25.8363 60.5716 25.8931 60.8066 26.1026 60.9355C26.395 61.1169 26.7146 61.2315 27.0638 61.2327H27.0615Z" fill="#F0E7D6"/>
<path d="M32.606 59.9975C32.6119 60.2028 32.6273 60.4033 32.6344 60.6097C32.6415 60.8365 32.6451 61.0632 32.6534 61.29C32.6581 61.4153 32.6404 61.5394 32.6557 61.6682C32.6723 61.815 32.5244 61.9415 32.3634 61.9499C32.2414 61.957 32.1195 61.9594 31.9976 61.9558C31.8437 61.9511 31.7608 61.8735 31.7573 61.716C31.7514 61.4773 31.7549 61.2374 31.7573 60.9988C31.7585 60.8162 31.7952 60.6324 31.781 60.4498C31.7703 60.3233 31.7975 60.1968 31.7916 60.0703C31.7857 59.9522 31.7656 59.8376 31.7822 59.7183C31.7987 59.599 31.7881 59.4772 31.7727 59.3543C31.7549 59.2135 31.7585 59.0655 31.7656 58.9235C31.7798 58.624 31.794 58.3233 31.781 58.0261C31.7608 57.5822 31.8094 57.1394 31.7904 56.6967C31.7869 56.6299 31.7904 56.563 31.7762 56.4962C31.7502 56.3828 31.8094 56.2993 31.9207 56.2707C32.0331 56.242 32.1467 56.2325 32.2627 56.2361C32.4143 56.2408 32.5646 56.2432 32.7173 56.2182C32.8144 56.2014 32.9197 56.2277 33.0215 56.2349C33.2204 56.248 33.4181 56.1907 33.6169 56.2349C33.9413 56.18 34.2703 56.2516 34.5959 56.1991C34.6929 56.1836 34.7829 56.2396 34.8835 56.2361C35.0279 56.2301 35.1723 56.2456 35.3168 56.254C35.4079 56.2587 35.4529 56.2957 35.4564 56.3828C35.4612 56.4867 35.4635 56.5929 35.4458 56.6943C35.4103 56.8984 35.2635 57.0189 35.0374 56.9962C34.8362 56.9771 34.6373 56.9843 34.4372 56.9819C34.0703 56.9771 33.6951 56.9342 33.3222 56.9366C33.0914 56.9389 32.8629 56.9628 32.6368 57.0165C32.5824 57.0296 32.5658 57.0416 32.5835 57.1001C32.606 57.174 32.5871 57.2564 32.5812 57.3304C32.561 57.5559 32.5468 57.785 32.5776 58.0046C32.6096 58.2361 32.5776 58.4641 32.5954 58.6932C32.6013 58.7612 32.5954 58.7839 32.6711 58.7815C32.9126 58.7755 33.1494 58.828 33.3897 58.8412C33.4903 58.8459 33.5921 58.8591 33.6927 58.8519C33.8631 58.8412 34.0277 58.8829 34.197 58.8901C34.3011 58.8937 34.3354 58.9474 34.3544 59.0548C34.384 59.2254 34.313 59.3519 34.191 59.4569C34.1543 59.4892 34.1153 59.5035 34.062 59.5083C33.8253 59.5285 33.5909 59.5429 33.3553 59.4963C33.2961 59.4844 33.2334 59.4904 33.173 59.4927C33.0405 59.4975 32.9102 59.5345 32.7777 59.5202C32.7114 59.513 32.6735 59.5488 32.6546 59.6049C32.6309 59.6729 32.606 59.7445 32.606 59.8173C32.606 59.8794 32.606 59.9403 32.6084 60.0011L32.606 59.9975Z" fill="#F0E7D6"/>
<path d="M38.1601 59.9975C38.166 60.2028 38.1814 60.4033 38.1885 60.6097C38.1956 60.8365 38.1991 61.0632 38.2074 61.29C38.2121 61.4153 38.1944 61.5394 38.2098 61.6682C38.2264 61.815 38.0784 61.9415 37.9174 61.9499C37.7955 61.957 37.6736 61.9594 37.5516 61.9558C37.3977 61.9511 37.3149 61.8735 37.3113 61.716C37.3054 61.4773 37.309 61.2374 37.3113 60.9988C37.3125 60.8162 37.3492 60.6324 37.335 60.4498C37.3244 60.3233 37.3516 60.1968 37.3457 60.0703C37.3397 59.9522 37.3196 59.8376 37.3362 59.7183C37.3528 59.599 37.3421 59.4772 37.3267 59.3543C37.309 59.2135 37.3125 59.0655 37.3196 58.9235C37.3338 58.624 37.348 58.3233 37.335 58.0261C37.3149 57.5822 37.3634 57.1394 37.3433 56.6967C37.3397 56.6299 37.3433 56.563 37.3291 56.4962C37.303 56.3828 37.3622 56.2993 37.4735 56.2707C37.586 56.242 37.6996 56.2325 37.8156 56.2361C37.9671 56.2408 38.1174 56.2432 38.2701 56.2182C38.3672 56.2014 38.4726 56.2277 38.5744 56.2349C38.7732 56.248 38.9709 56.1907 39.1698 56.2349C39.4941 56.18 39.8232 56.2516 40.1487 56.1991C40.2458 56.1836 40.3358 56.2396 40.4364 56.2361C40.5808 56.2301 40.7252 56.2456 40.8696 56.254C40.9608 56.2587 41.0057 56.2957 41.0093 56.3828C41.014 56.4867 41.0164 56.5929 40.9986 56.6943C40.9631 56.8984 40.8163 57.0189 40.5903 56.9962C40.389 56.9771 40.1902 56.9843 39.9901 56.9819C39.6231 56.9771 39.2479 56.9342 38.875 56.9366C38.6442 56.9389 38.4158 56.9628 38.1897 57.0165C38.1352 57.0296 38.1186 57.0416 38.1364 57.1001C38.1589 57.174 38.1399 57.2564 38.134 57.3304C38.1139 57.5559 38.0997 57.785 38.1305 58.0046C38.1624 58.2361 38.1305 58.4641 38.1482 58.6932C38.1541 58.7612 38.1482 58.7839 38.224 58.7815C38.4655 58.7755 38.7022 58.828 38.9425 58.8412C39.0431 58.8459 39.1449 58.8591 39.2455 58.8519C39.416 58.8412 39.5805 58.8829 39.7498 58.8901C39.854 58.8937 39.8883 58.9474 39.9072 59.0548C39.9368 59.2254 39.8658 59.3519 39.7439 59.4569C39.7072 59.4892 39.6681 59.5035 39.6149 59.5083C39.3781 59.5285 39.1437 59.5429 38.9082 59.4963C38.849 59.4844 38.7863 59.4904 38.7259 59.4927C38.5933 59.4975 38.4631 59.5345 38.3305 59.5202C38.2642 59.513 38.2264 59.5488 38.2074 59.6049C38.1837 59.6729 38.1589 59.7445 38.1589 59.8173C38.1589 59.8794 38.1589 59.9403 38.1613 60.0011L38.1601 59.9975Z" fill="#F0E7D6"/>
<path d="M43.694 60.2983C43.694 60.5548 43.6928 60.8114 43.694 61.0692C43.694 61.1623 43.7212 61.1957 43.7946 61.179C44.0953 61.1133 44.3995 61.1646 44.7025 61.1515C44.9393 61.142 45.1724 61.179 45.4092 61.1814C45.5181 61.1814 45.6211 61.1539 45.7312 61.1503C45.8602 61.1467 45.988 61.1587 46.1171 61.1563C46.2946 61.1539 46.3704 61.241 46.3893 61.4236C46.3929 61.4594 46.3787 61.4916 46.3846 61.5286C46.4106 61.7029 46.3846 61.7434 46.2212 61.7947C46.1573 61.815 46.0898 61.8234 46.02 61.8222C45.7525 61.8174 45.4838 61.8389 45.2174 61.8305C45.0564 61.8258 44.8955 61.8508 44.7345 61.8365C44.5261 61.8186 44.3261 61.8341 44.1189 61.8341C43.8668 61.8341 43.6135 61.8604 43.3602 61.8568C43.2584 61.8544 43.1589 61.8902 43.0548 61.8592C42.9293 61.821 42.8938 61.7768 42.8938 61.6372C42.8938 61.5346 42.8926 61.4308 42.8808 61.3281C42.8559 61.1098 42.8772 60.8914 42.863 60.673C42.8417 60.3376 42.876 59.9987 42.8772 59.661C42.8796 59.0846 42.8784 58.5082 42.8701 57.9318C42.8666 57.6717 42.8535 57.4056 42.9009 57.1454C42.9317 56.9759 42.8938 56.8053 42.9115 56.6358C42.9115 56.6299 42.9115 56.6239 42.9115 56.6179C42.8926 56.3279 42.9328 56.2707 43.2169 56.2552C44.0775 56.2098 44.944 56.2241 45.8046 56.2492C45.9549 56.254 46.1052 56.2635 46.2532 56.2826C46.387 56.2993 46.3727 56.3077 46.3846 56.4437C46.3976 56.5905 46.3964 56.7361 46.4 56.8817C46.4023 57.0201 46.3929 57.0344 46.2579 57.0273C46.0709 57.0177 45.8886 57.0666 45.6992 57.0559C45.3181 57.0332 44.9369 57.032 44.5545 57.0213C44.3024 57.0141 44.0515 57.0058 43.7993 56.9974C43.7307 56.995 43.7271 57.0189 43.7129 57.0893C43.6549 57.3721 43.7484 57.6478 43.7236 57.9271C43.7046 58.1431 43.7034 58.3614 43.6952 58.5786C43.694 58.6108 43.694 58.6264 43.7413 58.6299C43.8135 58.6359 43.8857 58.6467 43.9579 58.6455C44.2065 58.6407 44.4575 58.686 44.7025 58.6598C44.8564 58.6431 45.0126 58.6705 45.1677 58.6586C45.2967 58.6478 45.4045 58.7123 45.4116 58.8567C45.4175 58.9796 45.4187 59.1025 45.4104 59.2242C45.4033 59.334 45.3559 59.3782 45.2506 59.3889C45.0411 59.4092 44.8304 59.3997 44.6208 59.3794C44.4468 59.3627 44.2752 59.3484 44.1024 59.3794C44.0077 59.3961 43.9118 59.3627 43.8147 59.383C43.7034 59.4068 43.6963 59.4021 43.694 59.5238C43.6892 59.7815 43.6928 60.0393 43.6975 60.2959L43.694 60.2983Z" fill="#F0E7D6"/>
<path d="M49.2658 60.2983C49.2658 60.5548 49.2646 60.8114 49.2658 61.0692C49.2658 61.1623 49.293 61.1957 49.3664 61.179C49.6671 61.1133 49.9713 61.1646 50.2743 61.1515C50.5111 61.142 50.7442 61.179 50.981 61.1814C51.0899 61.1814 51.1929 61.1539 51.303 61.1503C51.432 61.1467 51.5598 61.1587 51.6889 61.1563C51.8664 61.1539 51.9422 61.241 51.9611 61.4236C51.9647 61.4594 51.9505 61.4916 51.9564 61.5286C51.9824 61.7029 51.9564 61.7434 51.793 61.7947C51.7291 61.815 51.6616 61.8234 51.5918 61.8222C51.3243 61.8174 51.0556 61.8389 50.7892 61.8305C50.6282 61.8258 50.4673 61.8508 50.3063 61.8365C50.0979 61.8186 49.8979 61.8341 49.6907 61.8341C49.4386 61.8341 49.1853 61.8604 48.932 61.8568C48.8302 61.8544 48.7307 61.8902 48.6266 61.8592C48.5011 61.821 48.4656 61.7768 48.4656 61.6372C48.4656 61.5346 48.4644 61.4308 48.4526 61.3281C48.4277 61.1098 48.449 60.8914 48.4348 60.673C48.4135 60.3376 48.4478 59.9987 48.449 59.661C48.4514 59.0846 48.4502 58.5082 48.4419 57.9318C48.4383 57.6717 48.4253 57.4056 48.4727 57.1454C48.5035 56.9759 48.4656 56.8053 48.4833 56.6358C48.4833 56.6299 48.4833 56.6239 48.4833 56.6179C48.4644 56.3279 48.5046 56.2707 48.7887 56.2552C49.6493 56.2098 50.5158 56.2241 51.3764 56.2492C51.5267 56.254 51.677 56.2635 51.825 56.2826C51.9588 56.2993 51.9445 56.3077 51.9564 56.4437C51.9694 56.5905 51.9682 56.7361 51.9718 56.8817C51.9741 57.0201 51.9647 57.0344 51.8297 57.0273C51.6427 57.0177 51.4604 57.0666 51.271 57.0559C50.8898 57.0332 50.5087 57.032 50.1263 57.0213C49.8742 57.0141 49.6233 57.0058 49.3711 56.9974C49.3025 56.995 49.2989 57.0189 49.2847 57.0893C49.2267 57.3721 49.3202 57.6478 49.2954 57.9271C49.2764 58.1431 49.2752 58.3614 49.267 58.5786C49.2658 58.6108 49.2658 58.6264 49.3131 58.6299C49.3853 58.6359 49.4575 58.6467 49.5297 58.6455C49.7783 58.6407 50.0293 58.686 50.2743 58.6598C50.4282 58.6431 50.5844 58.6705 50.7395 58.6586C50.8685 58.6478 50.9763 58.7123 50.9834 58.8567C50.9893 58.9796 50.9905 59.1025 50.9822 59.2242C50.9751 59.334 50.9277 59.3782 50.8224 59.3889C50.6129 59.4092 50.4022 59.3997 50.1926 59.3794C50.0186 59.3627 49.847 59.3484 49.6742 59.3794C49.5795 59.3961 49.4836 59.3627 49.3865 59.383C49.2752 59.4068 49.2681 59.4021 49.2658 59.5238C49.261 59.7815 49.2646 60.0393 49.2693 60.2959L49.2658 60.2983Z" fill="#F0E7D6"/>
<path d="M58.5426 61.9332C58.2124 61.9021 57.8774 61.901 57.5649 61.7601C57.5021 61.7327 57.4489 61.6957 57.3932 61.6599C57.3577 61.6372 57.3293 61.6002 57.2914 61.5835C57.1813 61.537 57.1127 61.4475 57.0286 61.3675C56.8617 61.2088 56.7848 61.0071 56.6996 60.8066C56.6309 60.642 56.5694 60.4653 56.5623 60.2851C56.5563 60.1217 56.509 59.9629 56.4995 59.7994C56.4889 59.6336 56.4995 59.4677 56.4912 59.3018C56.4569 58.6705 56.6061 58.0368 56.7256 57.4246C56.7351 57.3769 56.7469 57.3292 56.7564 57.2814C56.7872 57.1442 56.8274 57.0141 56.9328 56.9091C57.0334 56.8113 57.1174 56.6991 57.2216 56.6036C57.4382 56.4067 57.6903 56.2981 57.9768 56.242C58.1721 56.2038 58.3639 56.1657 58.5663 56.1645C58.6811 56.1645 58.7948 56.1824 58.9001 56.2015C59.0564 56.2301 59.2174 56.2468 59.3665 56.3208C59.7453 56.5105 60.0341 56.7707 60.162 57.1931C60.1998 57.3161 60.2294 57.439 60.2567 57.5643C60.2839 57.6872 60.2756 57.8149 60.0791 57.8352C59.9264 57.8507 59.7832 57.9032 59.634 57.9282C59.531 57.945 59.492 57.9283 59.4576 57.8316C59.4411 57.7862 59.4209 57.7373 59.4209 57.6908C59.4245 57.4855 59.2919 57.3507 59.1747 57.2146C58.9913 57.0022 58.7521 56.9187 58.474 56.9592C58.3722 56.9736 58.2668 56.9795 58.1686 57.0094C57.9413 57.0798 57.7661 57.2313 57.6134 57.4079C57.5625 57.4664 57.5282 57.544 57.5175 57.6239C57.4666 58.0189 57.4276 58.4175 57.3849 58.8125C57.3222 59.3615 57.2796 59.9092 57.4702 60.4439C57.4867 60.4892 57.495 60.5381 57.5057 60.5859C57.5661 60.8556 57.7602 60.9928 58.0005 61.062C58.2195 61.1253 58.4574 61.1432 58.6788 61.1074C58.9569 61.062 59.215 60.9415 59.3914 60.6945C59.4553 60.605 59.4766 60.5059 59.4861 60.4045C59.4979 60.2768 59.5701 60.1909 59.6589 60.1169C59.7548 60.0357 60.0921 60.068 60.1679 60.1622C60.2377 60.2481 60.2425 60.3579 60.2377 60.4582C60.233 60.5608 60.2436 60.667 60.2081 60.7673C60.1134 61.0298 60.027 61.4093 59.7323 61.5215C59.5299 61.5978 59.3866 61.7494 59.1795 61.8305C59.0303 61.889 58.8682 61.9284 58.7036 61.9344C58.6492 61.9368 58.5935 61.9344 58.5391 61.9344L58.5426 61.9332Z" fill="#F0E7D6"/>
<path d="M63.9759 56.1131C64.3488 56.1143 64.756 56.0547 65.1218 56.1322C65.2579 56.1609 65.3905 56.1991 65.5313 56.2003C65.5775 56.2003 65.626 56.2205 65.6698 56.2396C66.0143 56.384 66.2724 56.6227 66.4381 56.9616C66.5612 57.2146 66.6878 57.464 66.7707 57.7361C66.8512 57.9987 66.882 58.2672 66.9199 58.5369C66.9542 58.7803 66.8879 59.0357 66.8772 59.2803C66.863 59.6228 66.8382 59.9558 66.7458 60.2863C66.6938 60.4713 66.6464 60.6575 66.6121 60.846C66.5742 61.0501 66.4357 61.1897 66.3244 61.3472C66.1836 61.5453 65.9883 61.6897 65.7705 61.7768C65.6107 61.8413 65.4402 61.8938 65.2697 61.9391C65.1194 61.9797 64.9655 61.9857 64.8199 61.9845C64.5713 61.9821 64.3204 62.0251 64.0718 61.9761C64.0422 61.9702 64.0103 61.9678 63.983 61.9582C63.654 61.8401 63.3272 61.7148 63.042 61.5048C62.8372 61.3544 62.6644 61.179 62.5981 60.9188C62.5744 60.8257 62.5341 60.7374 62.4951 60.6491C62.4158 60.4677 62.3933 60.2708 62.3767 60.0811C62.3412 59.6706 62.2572 59.26 62.3092 58.8436C62.2643 58.6646 62.3152 58.482 62.2974 58.303C62.2879 58.2099 62.3069 58.1228 62.3365 58.0333C62.3921 57.8662 62.4276 57.692 62.4773 57.5225C62.5282 57.3495 62.591 57.1788 62.6809 57.0165C62.7969 56.8065 62.9698 56.6633 63.1414 56.5093C63.3722 56.3029 63.6539 56.1108 63.9771 56.1131H63.9759ZM64.4802 61.2327C64.666 61.2327 64.8495 61.1993 65.0306 61.1587C65.2295 61.1133 65.4887 61.025 65.632 60.8747C65.9113 60.5775 66.0214 60.2768 66.0297 59.871C66.0332 59.6992 66.0877 59.5333 66.1031 59.3627C66.1185 59.192 66.096 59.0214 66.0901 58.8519C66.083 58.6717 66.0557 58.4903 66.0238 58.3101C65.9587 57.9473 65.8758 57.5917 65.6426 57.2958C65.4532 57.0547 65.233 56.8638 64.8921 56.9211C64.8519 56.9282 64.8069 56.921 64.7667 56.9091C64.7063 56.8924 64.6495 56.9031 64.5891 56.9091C64.4317 56.9234 64.2825 56.9855 64.1286 56.9986C63.841 57.0237 63.6492 57.211 63.4456 57.3781C63.3923 57.4223 63.3545 57.4939 63.3296 57.5607C63.2598 57.7421 63.2337 57.9378 63.1367 58.1096C63.1225 58.1359 63.113 58.1669 63.1106 58.1968C63.0952 58.3901 63.0846 58.5834 63.068 58.7767C63.0467 59.0381 63.0716 59.3006 63.0881 59.5596C63.1047 59.8245 63.0822 60.0954 63.1757 60.3532C63.255 60.5716 63.3119 60.8066 63.5214 60.9355C63.8138 61.1169 64.1334 61.2315 64.4826 61.2327H64.4802Z" fill="#F0E7D6"/>
<path d="M9.41567 28.2863C9.51392 28.4927 9.62756 28.6944 9.74001 28.8925C10.0395 29.42 10.339 29.9475 10.6385 30.4749C10.8326 30.8186 11.0338 31.1826 11.0326 31.5776C11.0267 33.0812 8.93981 32.901 8.13133 32.2495C6.77833 31.4583 6.14977 28.692 4.50321 28.6574C3.29818 28.9164 3.52545 30.9976 3.09931 31.8234C2.83534 32.475 2.10617 32.8867 1.39238 32.7041C-0.0103352 32.3473 0.000318345 30.6444 0.00860442 29.4665C0.0358301 26.1645 -0.0470307 22.8338 0.0441162 19.5175C0.158938 17.1009 2.56427 17.5639 4.3292 17.5245H4.39431C5.83135 17.5472 7.36782 17.4183 8.71254 18.0126C10.0549 18.6177 10.7687 19.9471 11.0433 21.3182C11.2942 22.5665 11.3593 23.9914 10.6456 25.1131C10.1164 25.9437 9.01794 26.2313 9.13749 27.3829C9.17064 27.7004 9.27836 27.9987 9.41448 28.2875L9.41567 28.2863ZM3.80955 21.354C3.46035 21.6476 3.26266 22.1035 3.28871 22.7467V22.7801C3.48165 23.3147 4.1327 23.7599 5.35312 23.7885H5.41823C7.22223 23.9604 8.1479 22.7014 7.62351 21.7825C7.17133 21.1571 6.22908 20.934 5.41941 20.9519C4.95776 20.9197 4.54109 20.971 4.20136 21.1154C4.05576 21.1834 3.92437 21.2634 3.80955 21.354Z" fill="#F0E7D6"/>
<path d="M26.4092 27.1574C26.0233 29.2911 24.6952 31.2852 22.7563 32.3079C20.3462 33.5801 17.1703 33.1743 15.0881 31.4284C11.3262 28.2744 11.8861 21.9412 15.4491 18.8563C16.9868 17.5257 19.1873 16.8706 21.1523 17.4327C22.9125 17.9363 24.2939 19.3265 25.1995 20.8958C25.6445 21.6679 25.9926 22.4985 26.2222 23.3589C26.5536 24.5988 26.6365 25.8972 26.4092 27.1562V27.1574ZM19.2998 28.7087C19.3601 28.7147 19.4229 28.7195 19.4844 28.7219C20.2965 28.7469 21.0825 28.346 21.6471 27.7696C22.3656 27.0356 22.7657 26.0082 22.7278 24.9902C22.69 23.9723 22.2153 22.9758 21.4423 22.2992C20.9795 21.8934 20.4018 21.5975 19.7851 21.5366C18.9541 21.4555 18.1149 21.8171 17.5206 22.3959C15.8208 24.0499 15.9794 26.9712 18.0533 28.26C18.4309 28.4951 18.8594 28.6622 19.3021 28.7099L19.2998 28.7087Z" fill="#F0E7D6"/>
<path d="M28.2653 25.1776C28.2629 23.9651 28.2629 22.7527 28.2629 21.539C28.212 19.4554 28.2618 17.5293 30.6126 17.6188C32.0674 17.6248 32.5658 18.8826 32.509 20.1893C32.5196 21.897 32.5101 23.6035 32.5137 25.3112C32.4794 27.2218 32.4439 28.7266 34.5592 28.846C35.6541 28.9546 36.5609 28.8185 37.5599 29.2923C38.7448 29.7804 39.0052 31.7757 37.8606 32.432C37.1681 32.8521 37.129 32.8354 36.3064 32.8426C28.102 32.8366 28.2582 33.5836 28.2665 25.2408V25.1776H28.2653Z" fill="#F0E7D6"/>
<path d="M40.4494 25.1776C40.447 23.9651 40.447 22.7527 40.447 21.539C40.3961 19.4554 40.4458 17.5293 42.7967 17.6188C44.2515 17.6248 44.7499 18.8826 44.693 20.1893C44.7037 21.897 44.6942 23.6035 44.6978 25.3112C44.6634 27.2218 44.6279 28.7266 46.7433 28.846C47.8382 28.9546 48.7449 28.8185 49.744 29.2923C50.9289 29.7804 51.1893 31.7757 50.0447 32.432C49.3522 32.8521 49.3131 32.8354 48.4904 32.8426C40.286 32.8366 40.4423 33.5836 40.4506 25.2408V25.1776H40.4494Z" fill="#F0E7D6"/>
<path d="M56.9044 19.6368L56.9103 19.6988C56.9991 22.7169 56.9233 25.8041 56.9482 28.8412C56.9292 29.8591 57.0286 31.1146 56.6463 31.8831C56.0911 33.0741 54.1368 33.1266 53.3058 32.2972C52.4725 31.3747 52.7447 29.877 52.6891 28.7076C52.7341 25.5809 52.5767 22.5462 52.7436 19.4339C52.8229 17.6833 54.8944 17.1164 56.1397 17.9721C56.6676 18.3527 56.8463 18.9972 56.9055 19.6356L56.9044 19.6368Z" fill="#F0E7D6"/>
<path d="M59.2789 31.2005C59.0706 30.3222 59.215 29.4403 59.2718 28.5536C59.3298 27.6335 59.3535 26.7111 59.3665 25.7898C59.3914 23.9472 59.3712 22.1023 59.4932 20.2621C59.5405 19.5401 59.6281 18.7621 60.0389 18.1534C60.7751 17.009 62.3317 17.4315 63.0443 18.4017C64.5855 20.5008 65.5183 23.0188 67.0122 25.1549C67.0702 25.2372 67.1554 25.3554 67.2655 25.3578C67.3803 25.3602 67.4513 25.2349 67.488 25.1263C67.8195 24.1453 67.5555 23.0319 67.5531 22.0211C67.5508 20.9244 67.6573 19.8158 67.9817 18.7656C68.0207 18.6391 68.0799 18.5162 68.1521 18.4005C68.1888 18.3265 68.2231 18.2501 68.2669 18.1821C68.5273 17.7214 68.9405 17.4995 69.3524 17.515C69.6886 17.4291 70.0319 17.4482 70.316 17.6212C70.7622 17.8933 71.0534 18.4196 71.186 18.9721C71.3943 19.8504 71.2499 20.7323 71.1931 21.619C71.1351 22.5391 71.1114 23.4615 71.0984 24.3828C71.0735 26.2254 71.0948 28.0703 70.9729 29.9105C70.9256 30.6324 70.8368 31.4105 70.4272 32.0191C69.6909 33.1636 68.1344 32.7411 67.4218 31.7709C67.2039 31.4404 66.9554 31.1492 66.766 30.7971C66.2806 29.8794 65.7657 28.9772 65.2259 28.0918C64.8069 27.402 64.4186 26.6872 63.9878 26.0058C63.8362 25.7671 63.5095 25.2373 63.1556 25.4067C62.9674 25.4974 62.9354 25.995 62.9106 26.1597C62.8218 26.7266 62.7815 27.3185 62.7898 27.8937C62.8076 29.0668 62.8348 30.2732 62.4844 31.4081C62.4454 31.5358 62.3862 31.6575 62.314 31.7733C62.2773 31.8473 62.243 31.9237 62.1992 31.9917C61.9387 32.4523 61.5256 32.6731 61.1137 32.6588C60.7775 32.7447 60.4342 32.7256 60.1501 32.5514C59.7039 32.2793 59.4127 31.753 59.2813 31.2005H59.2789Z" fill="#F0E7D6"/>
<path d="M82.9345 24.0797C83.0623 24.088 83.1913 24.0964 83.3192 24.1071C83.9773 24.1596 84.6745 24.2587 85.18 24.6871C85.7032 25.1298 85.9198 25.8471 85.979 26.5344C86.2063 29.1372 84.3928 31.7232 81.933 32.549C79.4744 33.3748 76.5932 32.4893 74.8615 30.5465C71.8797 27.1991 72.3756 21.0008 76.1044 18.4041C77.6823 17.305 79.7206 16.9052 81.5921 17.3264C82.4184 17.5126 83.247 17.8802 83.7512 18.5663C84.2543 19.2525 84.3218 20.3087 83.7276 20.9173C83.2387 21.4173 82.4633 21.4949 81.7709 21.4185C81.0784 21.3421 80.3895 21.144 79.6958 21.2096C78.8234 21.292 78.0185 21.8028 77.4964 22.5116C76.9756 23.2217 76.7282 24.1131 76.7199 24.9962C76.7081 26.3041 77.2621 27.6598 78.3404 28.3865C79.4176 29.1145 81.0263 29.0512 81.8963 28.0822C82.0692 27.8901 82.2159 27.6478 82.1946 27.3889C82.1544 26.9211 81.5969 26.6812 81.1317 26.7051C80.6664 26.729 80.2095 26.9115 79.7479 26.8519C79.1856 26.7803 78.6944 26.3149 78.5878 25.7528C78.4825 25.1907 78.7701 24.5761 79.2685 24.3017C79.6058 24.1155 80.0024 24.0833 80.3859 24.0642C81.2346 24.0212 82.0846 24.0284 82.9333 24.0809L82.9345 24.0797Z" fill="#F0E7D6"/>
<path d="M26.8448 41.973C26.8401 43.4492 26.8555 44.9385 26.8377 46.4612C26.8946 47.8181 26.4175 49.6439 24.739 49.5365C23.9755 49.5055 23.3173 48.9947 23.1208 48.2811C22.7136 47.1044 23.3671 44.6342 21.8614 44.1246C21.5181 44.0089 21.1499 44.0089 20.7877 44.0112C20.4101 44.0136 20.0242 44.016 19.6715 44.1533C18.0971 44.7643 19.34 47.7274 18.2534 48.8897C17.5561 49.7382 16.08 49.7119 15.3911 48.8623C14.7933 48.1785 14.7235 47.1546 14.7117 46.2703C14.7034 43.38 14.7034 40.5302 14.7081 37.6482C14.7046 36.6709 14.7661 35.4429 15.5438 34.7925C16.2659 34.1481 17.5656 34.1027 18.2534 34.7281C18.8204 35.2269 18.9127 36.0264 18.9529 36.7246C18.9837 37.2556 18.9541 37.7879 18.9541 38.3201C18.9541 38.7783 18.8973 39.3237 19.2512 39.6817C19.5365 39.9693 19.9792 40.0338 20.3888 40.0839C20.9878 40.1555 21.64 40.2175 22.1514 39.9073C23.0439 39.3667 22.9232 38.1733 22.9338 37.295C22.9445 36.3021 23.1362 34.8856 24.1767 34.4202C24.9414 34.0777 25.9346 34.3247 26.3832 35.0264C26.917 35.789 26.8342 37.3761 26.8448 38.554C26.8448 39.6781 26.8448 40.8011 26.8448 41.9133V41.9777V41.973Z" fill="#F0E7D6"/>
<path d="M33.4666 36.4596L33.4725 36.5217C33.5613 39.5397 33.4855 42.6269 33.5104 45.6641C33.4915 46.682 33.5909 47.9374 33.2085 48.7059C32.6534 49.8969 30.699 49.9494 29.8681 49.12C29.0347 48.1976 29.307 46.6999 29.2514 45.5304C29.2963 42.4038 29.1389 39.3691 29.3058 36.2568C29.3851 34.5061 31.4566 33.9393 32.7019 34.7949C33.2298 35.1756 33.4086 35.82 33.4678 36.4584L33.4666 36.4596Z" fill="#F0E7D6"/>
<path d="M35.8542 42.0004C35.8518 40.788 35.8518 39.5755 35.8518 38.3619C35.8009 36.2782 35.8506 34.3522 38.2015 34.4417C39.6563 34.4476 40.1546 35.7054 40.0978 37.0122C40.1085 38.7199 40.099 40.4264 40.1026 42.1341C40.0682 44.0447 40.0327 45.5495 42.148 45.6688C43.243 45.7774 44.1497 45.6414 45.1488 46.1151C46.3337 46.6032 46.5941 48.5985 45.4494 49.2549C44.757 49.6749 44.7179 49.6582 43.8952 49.6654C35.6908 49.6594 35.8471 50.4065 35.8554 42.0637V42.0004H35.8542Z" fill="#F0E7D6"/>
<path d="M48.0371 42.0004C48.0347 40.788 48.0347 39.5755 48.0347 38.3619C47.9838 36.2782 48.0335 34.3522 50.3844 34.4417C51.8392 34.4476 52.3375 35.7054 52.2807 37.0122C52.2914 38.7199 52.2819 40.4264 52.2855 42.1341C52.2511 44.0447 52.2156 45.5495 54.3309 45.6688C55.4259 45.7774 56.3326 45.6414 57.3317 46.1151C58.5166 46.6032 58.777 48.5985 57.6323 49.2549C56.9399 49.6749 56.9008 49.6582 56.0781 49.6654C47.8737 49.6594 48.03 50.4065 48.0382 42.0637V42.0004H48.0371Z" fill="#F0E7D6"/>
<path d="M64.9584 49.6797C63.1532 49.7048 59.9323 49.336 59.5796 47.336C59.4896 46.2082 60.7254 45.5984 61.7659 45.7022C62.3448 45.7595 62.9212 45.8478 63.4953 45.9421C64.0209 46.0292 64.5642 46.1772 65.0981 46.1736C65.7539 46.1688 66.6559 45.9958 66.5517 45.1378C66.5008 44.7189 66.0948 44.4528 65.7302 44.2463C65.2922 43.9981 64.7951 43.8907 64.3334 43.6831C63.88 43.479 63.4243 43.2773 62.984 43.0458C62.1412 42.6007 61.3421 42.0303 60.8533 41.1877C59.0291 38.1852 60.7455 35.0324 64.2861 34.4488C66.0995 34.0825 68.0361 34.3701 69.5963 35.2842C70.7764 35.8725 71.8193 37.5146 70.1289 38.1697C69.6057 38.3726 69.0352 38.3356 68.4907 38.2604C67.8941 38.1781 67.3034 38.0397 66.702 38.0039C66.1623 37.9716 65.5953 38.0349 65.1561 38.381C64.9229 38.5647 64.7868 38.7676 64.8187 39.0767C64.8377 39.2664 64.9288 39.4371 65.0543 39.5779C65.3609 39.9216 65.8225 40.1137 66.2428 40.2736C66.689 40.4431 67.1507 40.5684 67.6005 40.7295C67.694 40.7629 67.7863 40.7975 67.8775 40.8393C68.9073 41.2104 69.8519 41.7868 70.4604 42.5864C71.708 44.1556 71.4949 46.4863 70.1905 47.9672C68.9488 49.4685 66.9139 49.6952 65.0271 49.6821H64.9572L64.9584 49.6797Z" fill="#F0E7D6"/>
<path d="M62.5922 4.91308C62.1376 4.30207 61.341 4.25315 60.3466 4.25315C56.1053 4.25315 55.2294 4.71617 55.1903 5.46322C55.1548 6.15059 55.955 6.30931 56.7292 6.46326C58.5438 6.82484 58.4882 7.11125 58.4432 7.34157C58.2798 8.17693 57.6631 8.51823 56.3172 8.51823C56.0817 8.51823 55.8485 8.50868 55.652 8.49913C53.9166 8.41441 52.8264 7.70555 51.8877 6.05513C51.6995 5.72337 51.5231 5.38207 51.3349 5.01929L51.3314 5.01213C50.6969 3.78416 50.0411 2.51561 48.8751 1.52989C47.6216 0.472572 46.0117 0 43.6549 0H43.649C41.4816 0 39.4574 0.312661 37.6321 0.92605C35.4304 1.66594 33.5968 2.43088 32.0248 3.26504C30.3688 4.14336 28.9128 5.21619 27.6273 6.16492C27.4071 6.32721 27.1917 6.48593 26.981 6.63987C25.7961 7.50387 24.8147 8.3261 24.1448 9.01944C23.296 9.89537 22.9883 10.5088 23.1457 11.0052C23.2167 11.2272 23.4428 11.6007 24.1661 11.6055H24.2122C24.43 11.6055 24.8372 11.5983 25.4066 11.5876C26.5252 11.5661 28.2144 11.5339 30.1048 11.5303H30.1829C31.1074 11.5303 32.0958 11.5625 33.057 11.5935C34.0182 11.6246 35.0114 11.6568 35.9465 11.6568H36.04C38.1565 11.652 39.9759 11.6365 41.0626 11.6269H41.072C41.5325 11.6234 41.8462 11.6198 41.9717 11.6198C44.4362 11.6198 45.0363 11.331 45.2979 11.0494C45.44 10.8966 45.5074 10.7104 45.4932 10.5111C45.4589 9.99442 44.9523 9.86315 43.8431 9.57436C42.2344 9.15548 39.5427 8.45498 39.5711 6.85468C39.5983 5.28063 41.3111 3.95123 43.3116 3.95123C43.8147 3.95123 44.3071 4.03715 44.7735 4.20661C46.8841 4.97275 48.2158 6.41672 49.5025 7.81295C49.6694 7.99434 49.8363 8.17454 50.0032 8.35235C51.4497 9.89418 53.088 11.6413 56.322 11.6413C57.8265 11.6413 59.1984 11.2761 60.2886 10.5875C61.4404 9.85837 62.2501 8.78315 62.6277 7.47761C62.9899 6.22458 62.9792 5.43338 62.591 4.91188L62.5922 4.91308Z" fill="#F0E7D6"/>
</svg>
