<svg width="100" height="30" viewBox="0 0 100 30" fill="none" xmlns="http://www.w3.org/2000/svg">
<path d="M99.2467 12.6429C98.1038 11.0696 96.1013 10.9447 93.6032 10.9447C82.9443 10.9447 80.7422 12.1367 80.6435 14.0595C80.5533 15.8277 82.5643 16.2385 84.5096 16.6351C89.0707 17.5653 88.9295 18.3026 88.817 18.8964C88.4064 21.047 86.858 21.9246 83.4717 21.9246C82.8784 21.9246 82.2937 21.8994 81.7992 21.8742C77.4365 21.655 74.6964 19.8331 72.3384 15.5845C71.8651 14.7321 71.4204 13.8513 70.9503 12.919L70.9408 12.8992C69.3468 9.73962 67.6987 6.47263 64.7666 3.93748C61.6158 1.21389 57.5694 0 51.6456 0H51.6308C46.1825 0.00219114 41.095 0.803053 36.5073 2.38287C30.9741 4.28806 26.3641 6.2568 22.4143 8.40302C18.2522 10.6643 14.5941 13.4262 11.3616 15.8671C10.8077 16.2857 10.2665 16.6943 9.73798 17.0887C6.75913 19.3127 4.29391 21.4305 2.60975 23.2129C0.477752 25.4687 -0.29694 27.0453 0.0999572 28.3238C0.277181 28.8957 0.845996 29.8554 2.66387 29.8674H2.7806C3.32926 29.8674 4.35333 29.8477 5.78174 29.8203C8.59186 29.7656 12.8399 29.6834 17.5889 29.6735H17.7852C20.1082 29.6735 22.5926 29.7568 25.01 29.8368C27.4254 29.9178 29.9235 30.0011 32.2741 30.0011H32.5097C37.8296 29.988 42.4024 29.9485 45.135 29.9244H45.1594C46.3162 29.9146 47.1068 29.9069 47.4209 29.9069C53.6163 29.9069 55.1233 29.1641 55.7801 28.4377C56.1357 28.0444 56.3065 27.5656 56.2726 27.0529C56.1845 25.7229 54.9131 25.3844 52.1253 24.6405C48.082 23.5624 41.3157 21.7591 41.3868 17.642C41.4558 13.5916 45.7612 10.1702 50.7871 10.1702C52.0531 10.1702 53.2895 10.3915 54.4621 10.8264C59.7682 12.7974 63.1132 16.5146 66.3478 20.1092C66.768 20.5759 67.1862 21.0404 67.6053 21.4984C71.24 25.4654 75.3597 29.9628 83.4865 29.9628C87.2687 29.9628 90.7166 29.0239 93.4567 27.249C96.3528 25.3723 98.385 22.6049 99.3348 19.2459C100.246 16.0205 100.218 13.9839 99.2436 12.6429H99.2467Z" fill="#F0E7D6"/>
</svg>
