<svg width="79" height="87" viewBox="0 0 79 87" fill="none" xmlns="http://www.w3.org/2000/svg">
<path d="M56.0698 37.8593C55.7489 35.5695 53.6456 35.8376 51.8827 36.3463L51.4837 46.7853C51.3438 46.9822 49.724 47.1748 49.3337 47.1988C47.0678 47.34 44.5568 47.212 42.2106 47.2349C41.4939 47.2415 40.8607 47.7272 40.1994 47.131C39.7017 44.5524 40.3967 41.7572 40.2145 39.0178C40.1864 38.6021 39.9619 36.7139 39.8524 36.5246C39.8372 36.4983 39.8145 36.4743 39.7895 36.4502C39.4361 34.0204 38.5362 31.6563 37.2254 29.6105C36.9218 29.1368 35.8864 28.5504 36.228 27.9552C37.6385 26.987 39.2756 24.0463 39.2854 22.3211C39.2995 19.8114 36.1878 15.8303 33.6996 15.5262C30.2974 15.1094 26.2468 15.6203 22.7774 15.2833C21.4287 15.8872 18.8624 14.7538 18.626 16.5928C18.2791 19.2929 18.8494 22.2532 18.8841 24.9303C18.9459 29.6269 18.3691 35.7128 18.87 40.1884C18.9133 40.579 18.9784 40.9422 19.2223 41.2627C20.1244 41.5111 22.4706 42.2244 22.8002 41.0396L22.6668 30.2975C24.8385 30.2505 27.0253 30.3609 29.1991 30.3084C31.0867 30.2625 32.2132 29.3577 33.8243 31.1213C34.6537 32.0304 35.1795 33.7929 35.4126 35.005C35.5883 35.9185 35.7813 39.6228 36.0642 40.6753L36.1521 61.9176C36.5359 63.0893 39.8091 63.0806 40.1007 62.0358L39.9673 51.0563C43.8325 50.7358 47.7031 50.4798 51.5889 50.5793L51.9824 61.9592C52.4118 62.9088 55.4258 62.411 55.7402 61.7776L56.1035 52.1186C55.08 47.6321 56.6846 42.2375 56.072 37.8582L56.0698 37.8593ZM33.3472 26.1392C31.2905 27.5942 25.2591 26.684 22.6679 26.964V18.8651H31.323C31.5692 18.8651 33.2551 19.5117 33.5641 19.7108C36.023 21.2916 35.6035 24.5441 33.3472 26.1392Z" fill="#F0E7D6"/>
<path d="M39.5358 0.283348C37.2471 0.388373 34.8835 0.609363 32.4886 0.873019C30.1662 1.12792 27.8178 1.46816 25.4771 1.79636C23.1189 2.12675 20.7738 2.4845 18.4775 2.8127C16.0684 3.15622 13.7038 3.3783 11.4541 3.6332C7.47831 4.07956 4.68433 4.54123 2.88348 5.94922C1.0913 7.34846 0.196841 9.75309 0.275987 14.2867C0.260808 16.6869 0.307429 19.1167 0.304176 21.5257C0.33345 23.9479 0.444038 26.3831 0.43428 28.8195C0.423438 31.2548 0.407175 33.6867 0.513426 36.1089C0.619678 38.531 0.850612 40.9575 1.23442 43.3534C1.61714 45.7394 2.11153 48.1069 2.92685 50.4251C3.73457 52.9938 4.80685 55.4028 6.12957 57.6532C7.45229 59.9036 9.02437 62.0632 10.7482 64.0663C12.4721 66.0694 14.3077 67.9489 16.2636 69.7234C18.2173 71.4946 20.3466 73.0645 22.4088 74.6749C24.6823 76.457 26.8562 78.4241 29.1026 80.2904C31.3545 82.1612 33.6541 83.9576 36.0426 85.5789C38.0678 86.9092 39.9836 86.9978 41.7931 86.2856C43.543 85.5964 45.165 84.1851 46.7316 82.822C49.286 80.7412 51.8089 78.6002 54.3568 76.5041C56.5111 74.8685 58.5743 73.3916 60.3871 71.8403C62.4493 70.0757 64.2208 68.2629 65.8764 66.5453C67.7488 64.6034 69.438 62.7228 70.8399 60.7514C72.3599 58.6126 73.6013 56.4093 74.6345 54.1195C75.6656 51.832 76.4462 49.4273 77.0599 46.8674C77.6258 44.5065 78.0812 42.01 78.3479 39.3176C78.5843 36.9283 78.684 34.3847 78.7231 31.6628C78.7577 29.2593 78.6049 26.7146 78.5138 24.0026C78.5138 21.6822 78.5788 19.3257 78.5788 16.9954C78.4618 13.5953 79.2326 9.26407 77.1379 6.48529C75.6016 4.59484 72.8825 4.32681 70.6013 4.00079C68.0947 3.71744 65.4709 3.55772 62.8233 3.177C60.2776 2.81051 57.7113 2.24053 55.1103 1.87185C52.5213 1.50426 49.9246 1.13777 47.3551 0.850045C44.715 0.554663 42.0935 0.42557 39.5532 0.305229C39.5369 0.305229 39.5434 0.28116 39.5337 0.282254L39.5358 0.283348ZM39.4415 83.5309C36.4155 83.427 34.0097 80.9195 31.7112 79.1275C29.5179 77.4198 27.4633 75.8378 25.5735 74.3073C23.3932 72.5416 21.4016 70.8842 19.5975 69.2836C17.4865 67.4107 15.6922 65.553 14.0496 63.7906C12.1479 61.7503 10.4729 59.8029 9.12412 57.7342C7.6778 55.5166 6.63589 53.1798 5.73058 50.7008C4.88057 48.3716 4.21271 45.8992 3.75734 43.1379C3.36378 40.7562 2.96263 38.1908 2.8065 35.3518C2.67423 32.9384 2.64279 30.3314 2.64713 27.5034C2.65038 25.0648 2.67423 22.4534 2.75771 19.6528C2.98323 15.9911 2.07575 11.5877 4.36883 8.58579C5.46495 7.27844 7.47722 6.83975 9.20652 6.59031C12.3832 6.12645 16.012 5.65712 19.3568 5.21842C21.9447 4.96461 24.5381 4.60906 27.1272 4.22397C29.7141 3.83888 32.2869 3.32032 34.8781 3.07964C37.4694 2.83895 40.0975 2.81379 42.7082 2.9954C45.5542 3.30828 48.4425 3.63102 51.3362 4.01392C54.2039 4.39354 57.0651 4.92195 59.9263 5.31907C62.8222 5.72057 65.7116 6.03237 68.5457 6.40105C72.0899 6.72597 74.0512 7.57492 75.0726 9.18421C76.0917 10.7891 76.0917 13.1533 76.0538 16.4058C76.0809 19.2436 76.237 21.9229 76.2565 24.4675C76.2782 27.3141 76.1914 29.989 76.1221 32.5271C76.0451 35.366 75.9106 38.03 75.6071 40.5659C75.2764 43.3326 74.8037 45.9473 74.0567 48.4624C73.2988 51.0115 72.2406 53.4336 70.8941 55.8415C69.6592 58.0503 68.1706 60.2351 66.3112 62.4198C64.7044 64.3059 62.9241 66.2893 60.7644 68.2202C58.9169 69.8733 56.8103 71.511 54.5043 73.2374C52.6796 74.4999 49.9864 76.8542 47.3269 79.063C44.4407 81.4599 41.5579 83.5397 39.4599 83.4609C39.4448 83.4609 39.448 83.5342 39.4404 83.5342L39.4415 83.5309Z" fill="#F0E7D6"/>
<path d="M39.5748 87C38.3334 87 37.1028 86.6029 35.8961 85.8097C33.7451 84.3503 31.5333 82.6644 28.9312 80.5027C28.0845 79.7992 27.2345 79.0695 26.4126 78.365C25.0574 77.202 23.6566 75.9997 22.2428 74.8915C21.8037 74.5491 21.3614 74.2077 20.9168 73.8653C19.2992 72.6181 17.6274 71.3283 16.0824 69.928C14.12 68.1491 12.2563 66.2379 10.5432 64.2468C8.7554 62.1693 7.19091 59.9977 5.89529 57.7932C4.55848 55.5177 3.47211 53.0671 2.66764 50.5082C1.95532 48.4832 1.42949 46.2864 0.966536 43.3972C0.591403 41.0593 0.355049 38.6787 0.242292 36.1209C0.140378 33.8115 0.15122 31.455 0.160977 29.1772V28.8184C0.168567 27.3612 0.13062 25.8799 0.0948414 24.4467C0.0699049 23.4895 0.0449684 22.5005 0.0330422 21.529C0.0341264 20.4558 0.0254528 19.3629 0.0178635 18.3061C0.00702149 16.9856 -0.00273628 15.6192 0.00485309 14.2845C-0.0721249 9.8975 0.763791 7.25656 2.71643 5.73042C4.64522 4.22288 7.66904 3.7809 11.4225 3.3597C12.0459 3.28859 12.6791 3.22076 13.3188 3.15184C14.9809 2.97242 16.7004 2.78754 18.4373 2.54029C19.4456 2.39697 20.4626 2.2471 21.486 2.09612C22.7784 1.90576 24.1141 1.70994 25.4369 1.52395L26.2858 1.40471C28.3132 1.11917 30.4101 0.824883 32.4559 0.600611C35.3291 0.284442 37.5072 0.102837 39.5195 0.00984608L39.7374 0L39.7493 0.0426664C41.9763 0.147691 44.7139 0.28116 47.3821 0.579825C50.0243 0.875207 52.7445 1.26139 55.1449 1.60163C56.472 1.7898 57.8055 2.03376 59.0947 2.26898C60.3317 2.49434 61.6111 2.72846 62.8579 2.90788C64.4907 3.14309 66.13 3.29406 67.714 3.44175C68.6757 3.53146 69.671 3.62336 70.6273 3.73167C70.7769 3.75245 70.92 3.77324 71.0653 3.79293C73.302 4.10472 75.8357 4.45918 77.3439 6.31462C79.0114 8.52561 78.9355 11.5593 78.8617 14.4923C78.84 15.3708 78.8194 16.2001 78.8465 16.9889C78.8465 18.1781 78.8303 19.3815 78.814 20.5466C78.7988 21.6844 78.7826 22.8604 78.7815 24.0058C78.8064 24.741 78.8357 25.4806 78.865 26.195C78.9431 28.1106 79.0157 29.9201 78.9908 31.6694C78.9452 34.7665 78.826 37.2062 78.6135 39.3471C78.3652 41.8546 77.9423 44.3369 77.32 46.9341C76.6706 49.645 75.8715 52.0333 74.8784 54.2355C73.7964 56.6347 72.5463 58.8194 71.0566 60.9144C69.825 62.6473 68.3331 64.389 66.0671 66.74C64.3302 68.5419 62.602 70.3043 60.5583 72.0536C59.2074 73.21 57.7286 74.316 56.163 75.4877C55.622 75.8925 55.0712 76.305 54.515 76.7272C53.4211 77.6276 52.3043 78.5586 51.2245 79.459C49.8096 80.6383 48.347 81.8582 46.8974 83.0397C45.3189 84.4138 43.6795 85.8393 41.8874 86.546C41.1133 86.8512 40.3391 87.0033 39.5694 87.0033L39.5748 87ZM39.4534 0.561227C37.479 0.654218 35.3345 0.834729 32.5177 1.14433C30.4795 1.36861 28.387 1.66289 26.3638 1.94734L25.5138 2.06658C24.1922 2.25147 22.8576 2.44839 21.5663 2.63766C20.5417 2.78863 19.5236 2.93851 18.5143 3.08182C16.7687 3.33126 15.0448 3.51615 13.3773 3.69556C12.7387 3.76449 12.1067 3.83231 11.4832 3.90233C7.81541 4.31368 4.86531 4.74144 3.04819 6.16255C1.24409 7.57273 0.473226 10.0769 0.546951 14.2812C0.538278 15.6181 0.54912 16.9823 0.559962 18.3017C0.568635 19.3596 0.577309 20.4536 0.575141 21.5257C0.587067 22.4895 0.612003 23.4774 0.63694 24.4325C0.673802 25.8689 0.711749 27.3557 0.705244 28.8206V29.1794C0.693318 31.4506 0.68356 33.7994 0.784391 36.0968C0.896063 38.6327 1.13025 40.9925 1.50213 43.3096C1.95966 46.165 2.47791 48.3322 3.18155 50.3343C3.97627 52.8625 5.04528 55.2748 6.3615 57.5143C7.64085 59.6902 9.18475 61.8356 10.952 63.888C12.6509 65.8615 14.4984 67.7564 16.4445 69.521C17.9732 70.9071 19.6375 72.1904 21.2464 73.431C21.691 73.7734 22.1344 74.1158 22.5746 74.4594C23.9981 75.5742 25.4032 76.7809 26.7639 77.9482C27.5836 78.6516 28.4314 79.3791 29.276 80.0804C31.864 82.2301 34.0627 83.9061 36.1953 85.3535C38.0168 86.5504 39.8166 86.7724 41.6955 86.0318C43.402 85.359 45.0044 83.9652 46.5548 82.6163C48.0098 81.4304 49.4713 80.2117 50.8851 79.0334C51.965 78.133 53.0828 77.201 54.1865 76.2929C54.7525 75.863 55.3032 75.4505 55.8453 75.0447C57.4033 73.8784 58.8746 72.7768 60.2125 71.6324C62.2377 69.8995 63.9562 68.1469 65.6833 66.3549C67.9287 64.0258 69.4054 62.3016 70.6208 60.5928C72.0888 58.5273 73.3215 56.3721 74.3894 54.0069C75.3684 51.8363 76.1556 49.4809 76.7974 46.8039C77.4143 44.2319 77.8328 41.7747 78.0789 39.2913C78.2893 37.1657 78.4085 34.7414 78.453 31.6595C78.4779 29.9244 78.4053 28.1226 78.3283 26.2146C78.299 25.4992 78.2698 24.7585 78.2437 24.0124C78.2437 22.8528 78.26 21.6756 78.2763 20.5356C78.2925 19.3727 78.3088 18.1715 78.3088 16.9954C78.2806 16.199 78.3023 15.3621 78.324 14.4759C78.3955 11.637 78.4693 8.70175 76.9232 6.65158C75.556 4.96899 73.1328 4.63094 70.9959 4.33228C70.8506 4.31149 70.7064 4.2918 70.5644 4.27211C69.6211 4.16599 68.6725 4.07737 67.6696 3.98438C66.078 3.83669 64.4332 3.68462 62.7863 3.44722C61.5287 3.26671 60.245 3.03259 59.0025 2.80504C57.7177 2.57092 56.3896 2.32805 55.0734 2.14098C52.6773 1.80074 49.9614 1.41455 47.3268 1.12027C44.6022 0.816131 41.7974 0.683756 39.5423 0.577637C39.5108 0.575449 39.4815 0.568885 39.4544 0.559039L39.4534 0.561227ZM39.8014 0.214426L39.8035 0.222084C39.8035 0.222084 39.8025 0.217708 39.8014 0.214426ZM39.4403 83.8044C39.4403 83.8044 39.436 83.8044 39.4338 83.8044H39.4317C36.8502 83.7158 34.6829 81.9227 32.7714 80.3397C32.3475 79.9896 31.9485 79.6581 31.5441 79.343C31.1527 79.0389 30.7657 78.738 30.384 78.4405C28.6222 77.0708 26.9569 75.7776 25.4032 74.5195C22.9389 72.5241 21.0372 70.9246 19.4185 69.4882C17.2306 67.5452 15.3766 65.6121 13.8522 63.9777C12.2378 62.2458 10.386 60.1672 8.89743 57.884C7.60507 55.9017 6.51871 53.6491 5.47679 50.7948C4.58016 48.3388 3.93073 45.8488 3.49055 43.1816C3.09265 40.7737 2.69149 38.1864 2.53645 35.3649C2.389 32.6748 2.37382 29.7494 2.37599 27.5012C2.38033 24.531 2.41502 22.0333 2.48658 19.6429C2.54513 18.6901 2.52778 17.7131 2.50826 16.6793C2.45514 13.7462 2.39984 10.7125 4.15299 8.41731L4.16058 8.40746C5.31091 7.03557 7.33619 6.58156 9.16632 6.319C12.0676 5.89562 15.3061 5.47114 18.4395 5.06198L19.3209 4.94711C22.1496 4.66923 24.9566 4.26992 27.0859 3.95375C27.9305 3.82794 28.7892 3.68572 29.6186 3.54787C31.3295 3.26343 33.0989 2.97024 34.8509 2.80723C37.4324 2.56764 40.0811 2.5392 42.7244 2.72299C45.6474 3.04463 48.4988 3.36298 51.3687 3.74261C52.9017 3.945 54.4554 4.19443 55.9581 4.43511C57.27 4.64516 58.6274 4.86287 59.9599 5.04776C61.6588 5.28297 63.3794 5.49083 65.0426 5.69213C66.2048 5.83216 67.4072 5.97767 68.577 6.12973C72.2026 6.46122 74.2149 7.33096 75.298 9.03652C76.3356 10.671 76.3637 12.9027 76.3215 16.409C76.3356 17.828 76.3811 19.2174 76.4266 20.5619C76.4722 21.9174 76.5145 23.1974 76.5242 24.4642C76.5437 26.9958 76.4776 29.3731 76.4136 31.6716L76.3898 32.5326C76.2987 35.878 76.1393 38.3647 75.8726 40.5965C75.5051 43.6707 75.0096 46.1945 74.3124 48.539C73.5698 51.0355 72.5279 53.4675 71.126 55.9739C69.8065 58.3326 68.2973 60.4987 66.5127 62.5959C65.0252 64.3431 63.2005 66.4009 60.941 68.4237C58.9418 70.2135 56.6455 71.9716 54.6625 73.4562C53.2866 74.409 51.4185 75.98 49.4421 77.6429C48.8056 78.179 48.1475 78.7326 47.4959 79.273C42.8751 83.1108 40.891 83.73 39.6181 83.7355C39.5607 83.7891 39.488 83.8055 39.436 83.8055L39.4403 83.8044ZM39.4512 83.7311C39.4512 83.7311 39.4566 83.7311 39.4588 83.7311C39.4566 83.7311 39.4534 83.7311 39.4512 83.7311ZM4.58016 8.75645C2.94736 10.8985 3.00049 13.8327 3.05145 16.6694C3.06988 17.6693 3.08831 18.7032 3.02868 19.6692C2.95821 22.0454 2.92351 24.5375 2.91917 27.5023C2.91592 29.7428 2.9311 32.6584 3.07855 35.3354C3.23251 38.1284 3.63041 40.6982 4.02614 43.0919C4.4609 45.7241 5.10166 48.1824 5.98637 50.6056C7.0131 53.4194 8.0832 55.6369 9.35171 57.5832C10.8175 59.8325 12.6498 61.8881 14.2479 63.6024C15.7637 65.2281 17.6057 67.1503 19.7773 69.0779C21.3895 70.5089 23.2858 72.1029 25.7437 74.094C27.293 75.3488 28.9562 76.6408 30.7158 78.0083C31.0985 78.3059 31.4856 78.6057 31.877 78.9109C32.2868 79.2303 32.6901 79.564 33.1162 79.9174C35.0071 81.4829 36.9608 83.0999 39.2864 83.2497C39.3688 83.1808 39.4674 83.1852 39.475 83.1852C41.548 83.2672 44.522 81.0365 47.1566 78.8496C47.8071 78.3092 48.4641 77.7567 49.1005 77.2217C51.0879 75.5501 52.9646 73.9714 54.3535 73.0098C56.318 71.5384 58.6024 69.789 60.5865 68.0135C62.8221 66.0125 64.6316 63.9722 66.1072 62.2393C67.8691 60.1694 69.3587 58.0328 70.6598 55.7048C72.041 53.2345 73.0678 50.8397 73.7985 48.3815C74.4859 46.0687 74.976 43.5744 75.3392 40.5309C75.6037 38.3177 75.762 35.8463 75.852 32.5183L75.8759 31.6562C75.9398 29.3621 76.006 26.9892 75.9864 24.4686C75.9767 23.2083 75.9344 21.9316 75.8889 20.5794C75.8433 19.2316 75.7978 17.8378 75.7837 16.4069C75.8238 12.9968 75.8 10.8329 74.8459 9.3308C73.8636 7.78388 71.9727 6.98853 68.5228 6.67346C67.3443 6.5203 66.1441 6.37589 64.9829 6.23585C63.3165 6.03456 61.5948 5.82669 59.8905 5.59039C58.5526 5.40441 57.193 5.1867 55.8778 4.97555C54.3784 4.73487 52.828 4.48653 51.3025 4.28523C48.4381 3.90671 45.5899 3.58726 42.681 3.26781C40.0778 3.08729 37.4573 3.11574 34.9051 3.35204C33.1715 3.51286 31.4119 3.80496 29.7108 4.08722C28.8781 4.22506 28.0183 4.36838 27.1683 4.49419C25.0325 4.81145 22.2179 5.21186 19.3849 5.48974L18.5121 5.60352C15.3809 6.01268 12.1435 6.43606 9.24655 6.85944C7.51834 7.10778 5.61449 7.52788 4.58125 8.75536L4.58016 8.75645Z" fill="#F0E7D6"/>
</svg>
