<svg width="79" height="79" viewBox="0 0 79 79" fill="none" xmlns="http://www.w3.org/2000/svg">
<path d="M5.44808 37.8745C5.41426 38.0722 5.43211 38.2737 5.45841 38.4715C5.48847 38.6928 5.44808 38.9065 5.45278 39.1288C5.45653 39.3934 5.4462 39.6571 5.48847 39.9198C5.49974 39.9885 5.49786 40.0648 5.48096 40.1326C5.41051 40.4236 5.4725 40.7136 5.47062 41.0037C5.47062 41.0978 5.51759 41.1167 5.60213 41.1289C5.83695 41.1637 6.08212 41.1562 6.31788 41.1402C6.734 41.111 7.15105 41.1487 7.56811 41.1214C7.86211 41.1016 8.15424 41.1421 8.44825 41.1364C8.72722 41.1308 8.98178 41.0658 9.26169 41.0969C9.47585 41.1214 9.59233 41.256 9.58294 41.4679C9.5726 41.6798 9.55382 41.8917 9.5294 42.1026C9.49934 42.3615 9.44768 42.4067 9.21566 42.4821C9.09355 42.5216 8.97332 42.5207 8.85215 42.515C8.15988 42.4821 7.46572 42.5028 6.77345 42.4764C6.30755 42.4595 5.84071 42.4463 5.37387 42.4359C4.93991 42.4265 4.48716 42.3663 4.05602 42.386C3.45204 42.4124 2.82552 42.4689 2.2159 42.4199C1.79979 42.387 1.37897 42.3964 0.960041 42.3889C0.858595 42.387 0.759967 42.3907 0.657582 42.419C0.346669 42.5066 -0.0140273 42.274 0.0808433 41.9001C-0.00651285 41.5705 0.0874185 41.2306 0.0188486 40.8963C-0.0375102 40.6194 0.049846 40.3511 0.0564211 40.0723C0.0601784 39.8962 0.0958723 39.7126 0.0864792 39.5384C0.062057 39.0807 0.0977509 38.624 0.135323 38.1711C0.168199 37.7784 0.160685 37.3886 0.177593 36.9978C0.184168 36.8405 0.229255 36.6644 0.311914 36.5326C0.680125 35.9506 1.1 35.4176 1.76315 35.137C2.11446 34.9882 2.47609 34.9082 2.85276 34.9364C3.01902 34.9487 3.18152 35.0231 3.34402 35.0767C3.43983 35.1088 3.53094 35.1558 3.62393 35.1963C3.98181 35.3498 4.26736 35.6078 4.56137 35.8536C4.60082 35.8866 4.63369 35.9261 4.66939 35.9629C4.89576 36.1955 4.89952 36.1992 5.09678 35.929C5.16065 35.8423 5.23298 35.7698 5.32973 35.7378C5.65285 35.6276 5.90459 35.3922 6.21174 35.2519C6.61189 35.0683 7.04679 34.9929 7.477 34.9176C7.91002 34.8423 8.3468 34.7848 8.7864 34.7745C9.04189 34.7688 9.59421 34.6756 9.6036 35.0523C9.61205 35.3677 9.60924 35.6851 9.56133 35.9986C9.53973 36.1418 9.46834 36.1851 9.31523 36.2209C9.06631 36.2783 8.81458 36.2378 8.56378 36.2604C8.16927 36.2962 7.77382 36.3141 7.38212 36.3734C7.00264 36.4309 6.62692 36.5222 6.27186 36.6578C5.92337 36.7915 5.67164 37.0769 5.47156 37.3886C5.38045 37.5298 5.44338 37.7087 5.4462 37.8716L5.44808 37.8745ZM4.29742 37.8387C4.28145 37.4658 4.21382 37.1192 3.90573 36.8546C3.7282 36.7021 3.55161 36.5618 3.35435 36.4328C3.16461 36.3094 3.00117 36.2915 2.79734 36.316C2.63202 36.3358 2.47985 36.3913 2.32674 36.4431C1.73779 36.6428 1.45412 37.1108 1.39025 37.6852C1.35267 38.0232 1.32731 38.3651 1.32262 38.705C1.3151 39.2418 1.28504 39.7606 1.25686 40.2936C1.24653 40.4933 1.27283 40.6938 1.28316 40.8954C1.28786 40.9905 1.32919 41.0272 1.43345 41.0432C1.71431 41.0865 1.99235 41.0291 2.27038 41.0272C2.60008 41.0244 2.93166 41.0451 3.26136 41.0404C3.50464 41.0376 3.76201 41.0394 4.00905 41.0865C4.06729 41.0978 4.13304 41.0941 4.19128 41.0799C4.28803 41.0573 4.3472 41.0131 4.32748 40.885C4.304 40.7353 4.32654 40.578 4.31527 40.4255C4.28615 40.0384 4.3782 39.6533 4.33499 39.2663C4.28239 38.7917 4.30306 38.3152 4.29742 37.8387Z" fill="#F0E7D6"/>
<path d="M1.9745 26.8211C2.19336 26.2335 2.33613 25.5545 2.67053 25.0225C2.79452 24.8247 2.93166 24.6373 3.01526 24.4151C3.04344 24.3426 3.10261 24.2776 3.15615 24.2192C3.5826 23.7578 4.10486 23.4885 4.73138 23.4235C5.19822 23.3745 5.66224 23.3209 6.13566 23.3463C6.59216 23.3708 7.02988 23.4762 7.47418 23.5732C7.87432 23.6608 8.23596 23.9122 8.61168 24.0695C9.13864 24.2908 9.64399 24.5206 10.109 24.8586C10.3682 25.047 10.6321 25.2296 10.9064 25.3944C11.2033 25.5724 11.3413 25.8709 11.5217 26.1384C11.7499 26.4755 11.8626 26.8682 11.872 27.2618C11.8786 27.5518 11.8636 27.8503 11.8354 28.146C11.811 28.4078 11.7311 28.6526 11.6438 28.8833C11.4954 29.2751 11.4165 29.696 11.1957 30.0604C11.1694 30.1047 11.1478 30.1518 11.1159 30.1904C10.7392 30.6415 10.3551 31.0859 9.86097 31.4146C9.50685 31.65 9.13206 31.8233 8.68683 31.7771C8.52809 31.7602 8.36559 31.7733 8.20496 31.7837C7.87526 31.8035 7.5559 31.7253 7.2478 31.6415C6.58465 31.4607 5.89519 31.3562 5.27524 31.0341C4.96809 31.0021 4.71447 30.8157 4.42235 30.7403C4.27206 30.7017 4.14619 30.6217 4.02408 30.5228C3.79489 30.3382 3.54315 30.1819 3.30832 30.0058C3.06692 29.825 2.83679 29.6282 2.63484 29.3918C2.37465 29.0867 2.25066 28.7317 2.10976 28.3711C1.92096 27.8871 1.7857 27.3324 1.97638 26.8211H1.9745ZM10.2696 28.985C10.3795 28.6922 10.4321 28.3824 10.4743 28.0735C10.5204 27.7326 10.5326 27.2721 10.3785 26.9595C10.077 26.3474 9.67029 25.9971 9.04001 25.7513C8.77231 25.6468 8.54593 25.4651 8.28856 25.3417C8.03119 25.2183 7.75127 25.1553 7.48169 25.0677C7.19708 24.9745 6.8965 24.9123 6.59592 24.8586C5.99006 24.7513 5.38702 24.6769 4.78962 24.8737C4.30306 25.0347 3.87661 25.272 3.76765 25.8427C3.7545 25.9105 3.71598 25.9773 3.67559 26.0348C3.6136 26.1214 3.59857 26.2156 3.57133 26.3154C3.50088 26.5725 3.51309 26.8427 3.44358 27.0951C3.31678 27.5631 3.49619 27.9756 3.64084 28.3937C3.67841 28.5029 3.76953 28.6046 3.85876 28.6837C4.1011 28.8975 4.39229 29.0538 4.60458 29.3052C4.63651 29.3429 4.68066 29.3758 4.72575 29.3966C5.01881 29.5331 5.31376 29.6621 5.60682 29.7987C6.00321 29.9842 6.42684 30.0953 6.84296 30.2196C7.26659 30.3458 7.67613 30.5388 8.13451 30.5407C8.52057 30.5426 8.92166 30.5878 9.24572 30.3316C9.69847 29.9738 10.0629 29.5369 10.2696 28.985Z" fill="#F0E7D6"/>
<path d="M14.3838 20.8075C14.7369 20.3216 15.1455 19.8809 15.5232 19.4148C15.726 19.1653 15.9646 18.9496 16.129 18.6624C16.2013 18.5362 16.3516 18.4411 16.4615 18.3253C16.5526 18.2292 16.6362 18.1285 16.7189 18.0258C16.8598 17.8507 16.949 17.8469 17.1237 17.99C17.2581 18.1002 17.3924 18.2123 17.538 18.3046C17.8123 18.4797 17.8527 18.6878 17.6545 18.9487C17.599 19.0221 17.5258 19.0758 17.4647 19.1417C17.1557 19.4769 16.9255 19.879 16.5865 20.1879C16.5188 20.2491 16.4559 20.3197 16.408 20.397C16.1365 20.8348 15.7852 21.2096 15.4734 21.6155C15.3794 21.7379 15.2235 21.8038 15.1549 21.9451C14.9549 22.3641 14.5735 22.6429 14.3312 23.0355C14.1499 23.3303 13.8878 23.3293 13.6802 23.1419C13.4764 22.9583 13.2369 22.8171 13.0434 22.6174C12.9682 22.5402 12.8508 22.5063 12.7672 22.4347C12.445 22.1617 12.0956 21.9272 11.7753 21.6503C11.5574 21.462 11.2972 21.3094 11.0614 21.1324C10.7834 20.9234 10.5185 20.6945 10.232 20.4996C9.61769 20.0824 9.05128 19.6003 8.45858 19.1558C7.9382 18.765 7.40279 18.3865 6.91998 17.9448C6.84765 17.8789 6.75748 17.8328 6.67858 17.7744C6.57056 17.6953 6.54144 17.5757 6.61189 17.4759C6.70864 17.3384 6.7556 17.1755 6.87677 17.0484C7.07027 16.8459 7.29759 16.6755 7.45445 16.4353C7.52678 16.3242 7.64889 16.3336 7.78039 16.4325C8.06407 16.6453 8.34868 16.8591 8.6239 17.0832C8.79767 17.2245 9.0015 17.3243 9.16682 17.4693C9.40165 17.6755 9.68532 17.8243 9.87976 18.072C9.9596 18.1737 10.0629 18.2236 10.1634 18.2923C10.3879 18.4468 10.6068 18.6125 10.8078 18.7961C11.0464 19.0146 11.2756 19.2415 11.5527 19.4148C11.6222 19.4581 11.6945 19.5024 11.7481 19.5617C11.9181 19.7491 12.1454 19.8659 12.3285 20.0354C12.6169 20.3019 12.9833 20.4648 13.2538 20.7623C13.4191 20.9431 13.6652 21.043 13.8465 21.2228C13.9085 21.284 14.0099 21.3283 14.0898 21.2002C14.1771 21.0618 14.2861 20.9375 14.3847 20.8066L14.3838 20.8075Z" fill="#F0E7D6"/>
<path d="M20.2742 14.7865C20.7429 14.4117 21.2539 14.0953 21.7405 13.7459C22.0016 13.5585 22.289 13.4144 22.5229 13.1809C22.6253 13.0783 22.7953 13.0265 22.9325 12.9445C23.0461 12.8758 23.1523 12.8005 23.2593 12.7242C23.4416 12.5924 23.528 12.6121 23.6595 12.7976C23.76 12.9398 23.8596 13.083 23.976 13.211C24.194 13.4521 24.178 13.664 23.9178 13.8627C23.8445 13.9182 23.76 13.9512 23.683 13.9983C23.296 14.2393 22.9681 14.567 22.5595 14.7742C22.4778 14.8156 22.3989 14.8665 22.3322 14.9287C21.9556 15.279 21.5169 15.5473 21.1092 15.8562C20.9862 15.9494 20.8181 15.9711 20.7157 16.0897C20.4123 16.441 19.9708 16.6077 19.6336 16.9222C19.3809 17.1585 19.1282 17.087 18.9779 16.8525C18.8295 16.6208 18.637 16.4212 18.5027 16.1773C18.451 16.0831 18.3458 16.0191 18.2838 15.9278C18.0452 15.5793 17.77 15.2601 17.5342 14.9079C17.3736 14.6687 17.1632 14.4522 16.9828 14.2196C16.7706 13.9437 16.5752 13.6536 16.3497 13.39C15.8669 12.8249 15.4489 12.21 14.9943 11.6234C14.5961 11.1083 14.1799 10.6007 13.8305 10.047C13.7788 9.96414 13.7037 9.89634 13.6426 9.81912C13.56 9.71365 13.5637 9.59123 13.6567 9.51402C13.7864 9.40761 13.8737 9.26259 14.0249 9.17219C14.2654 9.02905 14.5294 8.92453 14.7445 8.73431C14.844 8.64579 14.9586 8.68722 15.0601 8.81717C15.278 9.09779 15.495 9.37936 15.7016 9.66845C15.8322 9.85019 16.0022 10.0018 16.1234 10.1845C16.2953 10.4453 16.5292 10.6647 16.6522 10.9548C16.7029 11.0734 16.7893 11.1497 16.8673 11.242C17.043 11.4501 17.2111 11.6686 17.3558 11.8993C17.5276 12.1733 17.6892 12.453 17.9099 12.6931C17.9654 12.7534 18.0236 12.8155 18.0593 12.8871C18.1739 13.1131 18.3618 13.2854 18.4942 13.4982C18.7018 13.8316 19.0118 14.0859 19.194 14.4446C19.3058 14.6631 19.5171 14.8251 19.6439 15.0454C19.6871 15.1208 19.7735 15.1904 19.8844 15.0887C20.0046 14.9786 20.1427 14.8872 20.2733 14.7883L20.2742 14.7865Z" fill="#F0E7D6"/>
<path d="M25.7598 11.7552C25.3531 10.8832 24.951 10.0046 24.5387 9.13546C24.4278 8.90193 24.3255 8.6618 24.2165 8.42732C23.9788 7.91317 23.7374 7.39995 23.4857 6.89239C23.2885 6.49406 23.1325 6.0769 22.9287 5.68328C22.7145 5.26894 22.5614 4.8273 22.3426 4.41484C22.3097 4.35269 22.2853 4.28207 22.2759 4.21238C22.2552 4.05889 22.3463 3.89504 22.4957 3.87055C22.7042 3.83665 22.8799 3.73684 23.0668 3.65491C23.326 3.54191 23.3721 3.59088 23.5402 3.84889C23.7591 4.18696 23.915 4.55233 24.0718 4.91581C24.2512 5.33298 24.4748 5.72754 24.626 6.15977C24.7237 6.44039 24.9163 6.68616 25.014 6.97243C25.1624 7.40466 25.4479 7.76721 25.6273 8.1806C25.7767 8.5262 25.926 8.87179 26.0848 9.21268C26.4596 10.0197 26.8362 10.8267 27.2101 11.6337C27.2533 11.726 27.3059 11.8145 27.3068 11.9219C27.3068 12.0104 27.2918 12.0923 27.2026 12.1253C27.0542 12.179 26.949 12.2957 26.8175 12.372C26.7555 12.4078 26.6925 12.4445 26.6268 12.4709C26.3262 12.5905 26.143 12.5302 25.9956 12.2439C25.911 12.081 25.7983 11.9322 25.7607 11.7533H25.7589L25.7598 11.7552Z" fill="#F0E7D6"/>
<path d="M34.8138 4.35834C34.7687 4.14364 34.7265 3.92894 34.6823 3.71423C34.6316 3.47222 34.5771 3.23116 34.5339 2.98726C34.4466 2.49759 34.3019 2.02016 34.2409 1.52484C34.2164 1.32615 34.1901 1.11615 34.0671 0.940058C34.0455 0.908983 34.0455 0.861899 34.0351 0.822349C33.9393 0.442853 34.0229 0.299719 34.4034 0.260168C34.5668 0.243218 34.7265 0.212143 34.8862 0.181068C35.0881 0.141517 35.2384 0.212143 35.2779 0.406128C35.3887 0.941 35.554 1.46175 35.6432 2.00321C35.7005 2.35351 35.8039 2.69534 35.8508 3.04753C35.8969 3.39124 35.9636 3.73872 36.0021 4.08055C36.0415 4.42708 36.0659 4.7755 36.143 5.11733C36.2453 5.57404 36.2961 6.04677 36.436 6.49124C36.5657 6.90181 36.6521 7.3218 36.7328 7.73707C36.8174 8.17401 36.9752 8.59117 37.0391 9.03094C37.0616 9.18349 36.9292 9.39819 36.7469 9.43868C36.2867 9.54133 35.8255 9.63832 35.3605 9.71554C35.1698 9.74755 35.043 9.60065 34.9378 9.45846C34.7011 9.13923 34.4823 8.80682 34.2324 8.49889C33.9957 8.20697 33.7778 7.89998 33.5166 7.62407C33.3241 7.42161 33.1719 7.17301 32.9934 6.95172C32.7699 6.67581 32.5473 6.40084 32.2993 6.14564C32.1575 5.99968 32.04 5.83018 31.901 5.6814C31.6793 5.44598 31.4614 5.20208 31.2614 4.95254C31.0087 4.63802 30.6762 4.38094 30.5071 3.99862C30.4911 3.96378 30.4601 3.92894 30.4169 3.94495C30.4066 3.94871 30.4122 4.00239 30.415 4.03252C30.4545 4.37529 30.4864 4.719 30.508 5.0646C30.5277 5.37347 30.6508 5.67763 30.6555 5.98462C30.6592 6.24452 30.7635 6.4837 30.8227 6.73325C30.8753 6.95548 30.8706 7.18525 30.9279 7.40749C30.9983 7.67869 31.0725 7.94895 31.1374 8.2211C31.3008 8.91134 31.4285 9.61007 31.5281 10.3088C31.5525 10.4792 31.422 10.6742 31.2538 10.6808C30.9796 10.693 30.7156 10.7928 30.4357 10.7561C30.2319 10.7297 30.1652 10.6911 30.1116 10.4971C30.0928 10.4284 30.0647 10.3549 30.0703 10.2871C30.0919 10.0385 29.9933 9.8097 29.9482 9.57617C29.8946 9.29837 29.8308 9.02246 29.8007 8.7409C29.7641 8.40661 29.6457 8.09303 29.5772 7.76627C29.5311 7.54874 29.4729 7.33498 29.4062 7.12216C29.3461 6.93288 29.3771 6.71724 29.3292 6.51666C29.2634 6.24263 29.1977 5.96861 29.1272 5.69552C29.1141 5.64655 29.099 5.60229 29.1028 5.54768C29.1207 5.29813 29.054 5.05706 28.9854 4.82447C28.9328 4.64649 28.8962 4.46381 28.9046 4.29148C28.9168 4.0184 28.8436 3.76509 28.7834 3.51177C28.7158 3.22551 28.6811 2.93547 28.6519 2.64637C28.6332 2.46275 28.6238 2.27818 28.5561 2.1115C28.512 2.00227 28.5383 1.89398 28.5082 1.78662C28.481 1.68869 28.5439 1.58793 28.6397 1.52955C28.7609 1.4561 28.8783 1.37794 29.0258 1.3544C29.2174 1.32426 29.4034 1.27812 29.5706 1.16512C29.6946 1.08131 29.8092 1.12557 29.9313 1.20467C30.1849 1.36946 30.3427 1.62654 30.5569 1.82618C30.942 2.1859 31.1984 2.64826 31.5413 3.04094C31.7216 3.24716 31.9179 3.44115 32.0786 3.6615C32.2749 3.93176 32.5257 4.15588 32.7107 4.4365C32.861 4.66439 33.0404 4.87626 33.2339 5.06931C33.4528 5.28778 33.6303 5.53732 33.8116 5.7831C34.1319 6.21815 34.4954 6.61177 34.8768 6.99127C34.92 7.03364 34.9707 7.07225 35.0242 7.1005C35.1276 7.15324 35.26 7.19184 35.3427 7.11933C35.4544 7.0214 35.3098 6.77751 35.2854 6.66639C35.1698 6.12963 35.1135 5.58723 34.9726 5.05424C34.9115 4.82353 34.8599 4.59093 34.812 4.35646L34.8138 4.35834Z" fill="#F0E7D6"/>
<path d="M45.4656 5.36782C45.7897 5.41302 46.1138 5.45633 46.4388 5.49494C46.4895 5.50059 46.5412 5.5053 46.59 5.51943C46.7703 5.5731 46.8943 5.6701 46.8953 5.88291C46.8953 6.03452 46.93 6.18896 46.8774 6.33586C46.8211 6.49406 46.8464 6.66262 46.8483 6.81517C46.8511 7.08261 46.8023 7.38206 46.7581 7.64667C46.6407 8.34634 46.5402 9.05165 46.4097 9.75038C46.3524 10.0564 46.3016 10.0922 45.9804 10.0668C45.8085 10.0536 45.6347 10.0545 45.4619 10.0583C45.2477 10.063 45.1989 10.0555 45.1538 9.85773C45.1256 9.73249 45.0786 9.77863 45.0167 9.79464C44.7518 9.86244 44.5094 9.9905 44.238 10.0451C43.9937 10.095 43.7533 10.0856 43.5119 10.095C43.1794 10.1063 42.8497 10.0451 42.5218 9.98862C41.7929 9.86149 41.1739 9.5385 40.7043 8.95654C40.6216 8.85484 40.5371 8.73996 40.5023 8.61754C40.3952 8.24464 40.1595 7.92635 40.0693 7.54874C39.9801 7.17395 39.8861 6.8067 39.8983 6.40837C39.9087 6.07313 39.9012 5.71906 39.9265 5.38948C39.9631 4.91111 40.09 4.42143 40.2074 3.95719C40.3069 3.56357 40.3962 3.16806 40.5183 2.77915C40.5934 2.53808 40.6545 2.29136 40.7343 2.04841C40.8264 1.77062 40.9654 1.51919 41.1457 1.30825C41.5929 0.786565 42.0982 0.332677 42.7886 0.145284C43.5635 -0.0647097 44.3253 -0.0562346 45.0852 0.230977C45.3257 0.321377 45.5445 0.421195 45.7512 0.580338C45.9409 0.726298 46.1476 0.851541 46.342 0.997501C46.7826 1.32709 46.8793 1.82335 47.0146 2.29042C47.0831 2.52678 47.1743 2.76973 47.1724 3.03246C47.1714 3.1869 47.163 3.33945 47.1357 3.48823C47.1047 3.66056 46.9817 3.75096 46.806 3.74814C46.5477 3.74343 46.3073 3.6502 46.0696 3.56263C45.9212 3.50801 45.8836 3.36205 45.8573 3.21421C45.8123 2.96278 45.7437 2.71418 45.6188 2.49194C45.4168 2.13128 45.1369 1.84124 44.7715 1.64067C44.7001 1.60206 44.6297 1.55968 44.562 1.51448C44.2427 1.29884 43.8951 1.29507 43.5372 1.37605C43.3879 1.40995 43.2451 1.47305 43.0948 1.49659C42.86 1.53426 42.6928 1.6821 42.5124 1.81299C42.1611 2.06913 42.0146 2.44862 41.9075 2.84413C41.6257 3.88939 41.4811 4.93371 41.3355 6.00345C41.296 6.28972 41.266 6.5967 41.3242 6.87356C41.4031 7.2474 41.4764 7.64196 41.6943 7.96684C41.885 8.25217 42.1752 8.4471 42.5002 8.54126C42.7867 8.62413 43.0676 8.74561 43.3775 8.7409C43.912 8.73337 44.438 8.66933 44.872 8.33221C45.0702 8.17872 45.2881 7.99133 45.2487 7.67869C45.3896 7.27754 45.3013 6.85002 45.3914 6.44321C45.4112 6.35375 45.3567 6.36505 45.3107 6.36882C44.9753 6.40178 44.6484 6.3481 44.3328 6.24734C44.0351 6.15223 43.8867 5.7539 44.02 5.46952C44.114 5.27083 44.2643 5.20585 44.5291 5.23975C44.8419 5.28024 45.1538 5.32544 45.4656 5.36782Z" fill="#F0E7D6"/>
<path d="M58.2647 4.54479C58.3624 4.64367 58.523 4.67192 58.6357 4.78021C58.7701 4.91016 58.817 5.00998 58.7231 5.15217C58.4751 5.52602 58.3192 5.95448 58.0534 6.31514C57.6467 6.86791 57.285 7.44798 56.9102 8.02146C56.8398 8.12975 56.728 8.26065 56.7459 8.3614C56.7862 8.59211 57.2165 8.74278 57.3883 8.83413C58.0881 9.20232 58.74 9.61383 59.4041 10.0395C59.6446 10.2325 59.9254 10.3493 60.179 10.516C60.3331 10.6167 60.3763 10.5678 60.49 10.4284C60.6271 10.2617 60.7041 10.0611 60.8178 9.88033C60.9258 9.708 61.0648 9.56204 61.1616 9.38218C61.263 9.19385 61.3645 9.01869 61.4988 8.85013C61.759 8.52337 61.9055 8.13352 62.1676 7.80582C62.2183 7.74272 62.2568 7.67304 62.2991 7.60712C62.4325 7.39713 62.6025 7.33592 62.8025 7.4508C62.9613 7.54215 63.1059 7.65044 63.2797 7.72201C63.4375 7.78698 63.5249 7.95837 63.6 8.11845C63.6554 8.23522 63.6019 8.33504 63.5681 8.44239C63.5315 8.5601 63.5099 8.6844 63.4281 8.77857C63.1802 9.06484 63.0336 9.41797 62.8138 9.72118C62.2192 10.5404 61.6876 11.403 61.139 12.2524C60.9652 12.5217 60.8187 12.8099 60.66 13.0896C60.4768 13.4135 60.2908 13.7431 60.041 14.0256C60.0147 14.0557 59.9743 14.0821 59.9621 14.1169C59.8616 14.4371 59.5957 14.6461 59.4314 14.923C59.2604 15.2102 59.0923 15.4993 58.8912 15.7677C58.7147 16.004 58.6855 16.0106 58.4075 15.9212C58.1482 15.8374 57.9388 15.6697 57.7143 15.5304C57.5443 15.4249 57.5208 15.2846 57.6269 15.1104C57.7847 14.8514 57.92 14.5802 58.0684 14.3166C58.2657 13.9653 58.4911 13.6273 58.7325 13.3043C58.7964 13.2195 58.8217 13.1272 58.8734 13.0434C59.1054 12.662 59.3769 12.3042 59.5497 11.887C59.5685 11.8409 59.5986 11.7938 59.6361 11.7609C59.6878 11.7157 59.6878 11.6818 59.6333 11.646C59.4483 11.5226 59.2613 11.4011 59.0772 11.2759C58.8189 11.1007 58.5118 11.0132 58.2788 10.7872C58.1595 10.6713 57.9961 10.5941 57.8411 10.5226C57.4607 10.3483 57.1338 10.08 56.7571 9.90387C56.5251 9.79558 56.3156 9.65433 56.0987 9.52437C55.9916 9.46034 55.907 9.48765 55.8563 9.6063C55.7427 9.87374 55.5642 10.0922 55.381 10.3144C55.2073 10.5244 55.0588 10.7646 54.9424 11.0113C54.7771 11.3635 54.5497 11.677 54.3609 12.0142C54.2332 12.2421 54.0867 12.4568 53.9824 12.6988C53.8584 12.985 53.5907 13.0717 53.3277 12.9069C53.1154 12.7741 52.9182 12.6159 52.7256 12.4539C52.6401 12.3814 52.5969 12.2722 52.6523 12.1498C52.6984 12.0471 52.719 11.9285 52.7829 11.84C52.9473 11.6092 53.0581 11.3465 53.2244 11.1139C53.4385 10.8135 53.5982 10.4736 53.8002 10.1628C53.9091 9.99521 54.0397 9.84078 54.1261 9.65809C54.2501 9.39442 54.4661 9.1882 54.5789 8.91605C54.6211 8.81529 54.7057 8.73242 54.7667 8.63732C54.979 8.3115 55.2063 7.99321 55.3923 7.65138C55.4693 7.51107 55.5548 7.37076 55.6422 7.24552C55.8807 6.90463 56.0573 6.52419 56.3335 6.20779C56.4434 6.08161 56.4941 5.90457 56.5834 5.75861C56.8417 5.34051 57.1065 4.92617 57.3686 4.50995C57.5602 4.20579 57.6908 4.17566 57.9923 4.36776C58.0787 4.42332 58.1642 4.47793 58.2638 4.54197V4.54385L58.2647 4.54479Z" fill="#F0E7D6"/>
<path d="M61.4575 17.7414C62.1554 17.0794 62.8598 16.4193 63.5521 15.7536C63.7381 15.5746 63.9335 15.4014 64.1213 15.2234C64.5328 14.8345 64.9432 14.4437 65.3434 14.0444C65.6581 13.7308 66.0037 13.4512 66.3118 13.1329C66.6368 12.7986 67.0069 12.5133 67.3272 12.1752C67.3761 12.1243 67.4352 12.0791 67.4982 12.0471C67.6363 11.9784 67.8213 12.0142 67.8908 12.1488C67.9885 12.3362 68.1388 12.4728 68.275 12.6244C68.4638 12.8353 68.4319 12.8946 68.2412 13.1357C67.9904 13.4512 67.6936 13.7139 67.3986 13.9785C67.0605 14.2808 66.7571 14.6179 66.3964 14.8985C66.1615 15.0803 65.9896 15.3402 65.7501 15.5238C65.3875 15.8016 65.1349 16.1877 64.7995 16.489C64.5196 16.7404 64.2397 16.9909 63.9673 17.2499C63.321 17.861 62.6767 18.4731 62.0304 19.0843C61.9572 19.154 61.8895 19.2321 61.7881 19.267C61.7045 19.2952 61.6218 19.3065 61.5636 19.2321C61.4659 19.1087 61.3222 19.0447 61.2085 18.944C61.155 18.8959 61.1005 18.8479 61.0545 18.7933C60.846 18.5447 60.845 18.3516 61.0695 18.1209C61.1963 17.99 61.3025 17.8347 61.4593 17.7433V17.7414H61.4575Z" fill="#F0E7D6"/>
<path d="M66.0986 23.0657C66.4208 23.5732 66.68 24.1156 66.975 24.6383C67.1328 24.9179 67.2455 25.2202 67.4521 25.4782C67.5423 25.5912 67.5761 25.7664 67.6438 25.9114C67.7001 26.0319 67.7631 26.1459 67.8279 26.2608C67.9387 26.4566 67.9105 26.5405 67.7133 26.6516C67.562 26.7363 67.4089 26.8211 67.2699 26.9228C67.0069 27.1149 66.7993 27.0763 66.6293 26.7956C66.5814 26.7165 66.5589 26.629 66.5194 26.548C66.3212 26.1365 66.0319 25.7758 65.8685 25.3455C65.8356 25.2598 65.7933 25.175 65.7398 25.1025C65.4326 24.6891 65.2128 24.2239 64.9498 23.7851C64.87 23.6523 64.8672 23.4828 64.7601 23.3679C64.4435 23.028 64.3252 22.5704 64.049 22.2003C63.8414 21.9225 63.9391 21.6786 64.188 21.5543C64.4332 21.4309 64.6521 21.2595 64.9075 21.1522C65.0071 21.1108 65.0813 21.0128 65.1781 20.961C65.5491 20.7604 65.8948 20.5194 66.2686 20.3216C66.5232 20.187 66.7599 19.9996 67.0097 19.8451C67.3056 19.6625 67.6146 19.4986 67.9002 19.3027C68.5126 18.8818 69.1664 18.5296 69.7957 18.1398C70.349 17.797 70.8966 17.4363 71.4827 17.1463C71.5701 17.103 71.6462 17.0361 71.7288 16.9824C71.8416 16.9109 71.9637 16.9278 72.0304 17.0286C72.1224 17.1689 72.2567 17.2715 72.33 17.4326C72.4465 17.6878 72.5226 17.9618 72.6888 18.1963C72.7658 18.3046 72.7123 18.4147 72.5723 18.5014C72.2708 18.6878 71.9684 18.8752 71.6603 19.0504C71.4658 19.1605 71.2977 19.315 71.1033 19.4157C70.8262 19.5598 70.5838 19.7698 70.2832 19.8611C70.1602 19.8988 70.0747 19.977 69.9751 20.0457C69.7497 20.1983 69.5158 20.3423 69.2716 20.4629C68.9813 20.6051 68.6864 20.7369 68.4253 20.9318C68.3605 20.9808 68.2919 21.0317 68.2177 21.0608C67.981 21.1512 67.7903 21.3207 67.5658 21.43C67.2126 21.6014 66.928 21.8839 66.5523 22.027C66.324 22.1146 66.1409 22.3086 65.9089 22.4112C65.829 22.446 65.7511 22.5242 65.8403 22.6466C65.937 22.7785 66.0131 22.9254 66.0986 23.0657Z" fill="#F0E7D6"/>
<path d="M69.5215 30.7563C69.6962 31.3317 69.8023 31.924 69.947 32.5069C70.024 32.8196 70.0522 33.1407 70.1827 33.4448C70.24 33.5785 70.225 33.7556 70.2513 33.9138C70.2729 34.0447 70.303 34.1718 70.3358 34.2999C70.3903 34.5183 70.3405 34.5918 70.1207 34.6455C69.9526 34.6869 69.7826 34.7264 69.621 34.7877C69.3167 34.9025 69.1269 34.8093 69.0377 34.4939C69.0133 34.4053 69.0142 34.314 68.9983 34.2255C68.9165 33.7763 68.7343 33.3507 68.692 32.8921C68.6836 32.8007 68.6657 32.7075 68.6329 32.6227C68.4469 32.1425 68.3595 31.6349 68.2233 31.1415C68.182 30.9927 68.2233 30.8279 68.1519 30.6885C67.9378 30.2761 67.9453 29.8034 67.7781 29.373C67.6522 29.05 67.811 28.841 68.0843 28.7873C68.3529 28.7346 68.6094 28.6282 68.8855 28.5924C68.9926 28.5792 69.0903 28.5048 69.1974 28.4803C69.6079 28.3861 70.0061 28.2468 70.4194 28.1573C70.7003 28.0961 70.9783 27.9793 71.2611 27.8965C71.5945 27.7995 71.9364 27.7251 72.2643 27.6121C72.9659 27.3701 73.6901 27.2072 74.4012 27C75.0249 26.8183 75.6495 26.6177 76.292 26.4953C76.3878 26.4774 76.4789 26.4322 76.5729 26.4039C76.7006 26.3653 76.8133 26.4143 76.8509 26.5292C76.9026 26.6892 77.004 26.8248 77.0322 26.9981C77.0764 27.275 77.0763 27.5593 77.174 27.8296C77.2191 27.9549 77.1383 28.0471 76.9805 28.0933C76.6396 28.1922 76.2986 28.292 75.9548 28.3777C75.7378 28.4323 75.5349 28.5349 75.3208 28.5801C75.0155 28.6442 74.7262 28.7816 74.4115 28.7892C74.2828 28.792 74.1804 28.8447 74.0658 28.8843C73.8085 28.9709 73.5445 29.0472 73.2768 29.098C72.9593 29.1574 72.64 29.2045 72.3366 29.3222C72.2605 29.3514 72.1816 29.3834 72.1017 29.3909C71.85 29.4145 71.6208 29.5265 71.3747 29.5717C70.9887 29.6423 70.6392 29.8382 70.2391 29.8759C69.9958 29.8994 69.7676 30.0369 69.5158 30.0736C69.4294 30.0859 69.3336 30.1405 69.3871 30.2817C69.4454 30.4343 69.4782 30.5972 69.5233 30.7545L69.5215 30.7563Z" fill="#F0E7D6"/>
<path d="M69.2199 39.7663C69.2707 39.1975 69.3702 38.7003 69.5694 38.2276C69.6361 38.0685 69.6708 37.8999 69.7497 37.7436C70.04 37.1654 70.5538 36.7962 71.0009 36.3659C71.0817 36.2877 71.1746 36.2736 71.3043 36.3188C71.5898 36.4186 71.7598 36.655 71.9834 36.8273C72.0745 36.8979 72.0717 37.1249 71.9947 37.2257C71.958 37.2737 71.9092 37.3132 71.8632 37.3537C71.4978 37.6701 71.1887 38.0374 70.9257 38.4404C70.7999 38.6335 70.6824 38.8359 70.6298 39.0704C70.5603 39.3802 70.6317 39.8077 70.7444 40.1015C70.9661 40.6788 71.246 41.1769 71.8106 41.451C72.0153 41.5508 72.2445 41.5084 72.4596 41.4321C72.7611 41.3257 72.9161 41.0941 73.0232 40.8078C73.1369 40.5046 73.2562 40.2013 73.3952 39.9085C73.4769 39.7352 73.4919 39.5497 73.5163 39.3736C73.5614 39.0412 73.6732 38.7239 73.7888 38.4103C73.9137 38.0694 73.9747 37.7728 74.2443 37.5119C74.5656 37.2021 74.9056 36.9187 75.3114 36.7266C75.7463 36.5194 76.2141 36.493 76.6875 36.5448C76.8678 36.5646 77.036 36.6418 77.2041 36.7049C77.4549 36.8 77.6869 36.9347 77.9029 37.0929C78.1481 37.2718 78.2862 37.4262 78.4487 37.6748C78.6272 37.946 78.7737 38.2323 78.8564 38.5553C78.9738 39.012 79.0189 39.4706 78.9944 39.9386C78.9756 40.2908 78.9277 40.4509 78.6112 41.0084C78.3482 41.4717 78.0119 41.8813 77.5751 42.1958C77.3347 42.3691 77.2774 42.3568 77.0435 42.1817C76.8678 42.0508 76.7457 41.8747 76.6086 41.7109C76.5052 41.5875 76.5175 41.4801 76.6161 41.3502C76.7025 41.2363 76.7833 41.111 76.8904 41.0197C77.2389 40.7221 77.3901 40.304 77.5836 39.9123C77.8081 39.4602 77.6954 39.0346 77.4577 38.6278C77.3337 38.415 77.1233 38.2182 76.9063 38.1005C76.6086 37.9394 76.0215 37.866 75.7613 38.1137C75.5293 38.3349 75.3133 38.576 75.1489 38.8538C74.9977 39.1099 74.9713 39.4103 74.8568 39.6806C74.7149 40.0168 74.7271 40.3916 74.5656 40.7259C74.388 41.0922 74.2547 41.4886 74.0226 41.8173C73.7512 42.2015 73.4497 42.58 73.0044 42.8041C72.8044 42.9049 72.5921 42.919 72.3845 42.9492C71.9223 43.0151 71.4903 42.8861 71.0544 42.7335C70.5434 42.5546 70.2335 42.1544 69.8991 41.7777C69.6473 41.4943 69.4895 41.1562 69.3843 40.7927C69.3815 40.7833 69.3749 40.7739 69.373 40.7635C69.3186 40.4113 69.2641 40.0601 69.219 39.7654L69.2199 39.7663Z" fill="#F0E7D6"/>
<path d="M5.08081 58.8013C4.86101 58.2891 4.59236 57.7928 4.5454 57.2184C4.53601 57.1044 4.5454 56.9942 4.55291 56.8841C4.55761 56.8134 4.58955 56.7419 4.58203 56.6731C4.56137 56.4726 4.63651 56.2993 4.68536 56.111C4.78211 55.7362 5.01412 55.4612 5.23955 55.1759C5.4246 54.9423 5.63406 54.7097 5.89237 54.5544C6.12626 54.4141 6.3207 54.2172 6.55177 54.0713C6.7866 53.9234 7.03834 53.8057 7.27316 53.6598C8.16739 53.1042 9.21379 52.8151 10.2057 52.4996C10.2827 52.4751 10.3616 52.4544 10.4396 52.4309C10.6641 52.3659 10.8876 52.3207 11.1253 52.3942C11.3488 52.4638 11.5818 52.4987 11.8054 52.5768C12.2675 52.7388 12.6301 53.0251 12.9438 53.4018C13.1589 53.6598 13.3684 53.9121 13.5318 54.2097C13.6239 54.3783 13.6896 54.561 13.7469 54.7333C13.8305 54.9866 13.9376 55.238 13.9489 55.5186C13.978 56.2296 13.8286 56.8652 13.3167 57.3935C13.1674 57.547 13.0114 57.6901 12.8517 57.8314C12.693 57.9708 12.5014 58.0593 12.3126 57.7853C12.166 57.5715 11.9754 57.4029 11.8185 57.2024C11.7095 57.063 11.7039 56.9924 11.8185 56.8652C11.872 56.805 11.9265 56.7343 11.9951 56.6986C12.2976 56.5394 12.3877 56.2362 12.492 55.9537C12.6536 55.5121 12.5831 55.0921 12.2994 54.7135C12.1952 54.5741 12.1031 54.4225 11.9801 54.3029C11.6945 54.0242 11.331 53.8867 10.9506 53.8029C10.8247 53.7747 10.6829 53.786 10.557 53.8349C9.93893 54.0769 9.32556 54.3378 8.71313 54.593C7.86117 54.9414 7.02613 55.3171 6.39772 56.0281C6.34418 56.0884 6.28031 56.1411 6.21925 56.1948C5.87359 56.4989 5.83038 56.8973 5.92243 57.3069C6.00697 57.6817 6.17323 58.0461 6.40336 58.3437C6.69361 58.7185 7.07779 59.0028 7.58126 59.0659C7.76349 59.0885 7.92599 59.0415 8.08285 58.9737C8.27917 58.8889 8.46233 58.9275 8.64268 58.9981C8.839 59.0754 9.06349 59.598 8.98741 59.7863C8.9179 59.9586 8.76198 60.0528 8.61075 60.1263C8.4567 60.2007 8.3111 60.3033 8.13451 60.3306C7.67425 60.4012 7.05055 60.5773 6.64946 60.2327C6.3733 59.9954 6.03891 59.9059 5.75242 59.6639C5.54671 59.4897 5.3579 59.2825 5.21701 59.0433C5.17004 58.9642 5.12871 58.8814 5.08456 58.8004L5.08081 58.8013Z" fill="#F0E7D6"/>
<path d="M18.1204 60.26C18.5684 60.6969 19.1311 61.1018 19.4824 61.6226C19.6139 61.8156 19.7294 62.0171 19.8975 62.1829C19.953 62.2375 19.9877 62.3175 20.0196 62.391C20.2695 62.9673 20.3052 63.5558 20.1126 64.1566C19.9689 64.6049 19.8318 65.0531 19.6186 65.4759C19.4119 65.8856 19.1395 66.2443 18.8737 66.6125C18.6332 66.9449 18.2575 67.1756 17.9625 67.4572C17.5493 67.8518 17.135 68.2228 16.64 68.5138C16.3638 68.6757 16.0905 68.8443 15.8294 69.0298C15.5476 69.2304 15.2188 69.2379 14.9023 69.2954C14.5031 69.3697 14.0992 69.3142 13.7356 69.1654C13.4679 69.0552 13.2012 68.9206 12.9429 68.7756C12.7137 68.6475 12.522 68.4761 12.3473 68.3038C12.0496 68.01 11.6964 67.768 11.4522 67.4195C11.423 67.3772 11.3874 67.3386 11.3658 67.2934C11.1056 66.766 10.8538 66.2349 10.7524 65.6482C10.6791 65.2283 10.6725 64.8149 10.8933 64.425C10.9722 64.2856 11.0257 64.1312 11.0811 63.9805C11.1957 63.6698 11.3958 63.408 11.5959 63.1594C12.028 62.6236 12.4009 62.0332 12.9447 61.5925C13.0969 61.3241 13.3702 61.1659 13.5562 60.9276C13.652 60.8052 13.7751 60.7223 13.915 60.6489C14.1762 60.5133 14.4204 60.3447 14.675 60.1997C14.937 60.0509 15.2094 59.9182 15.5062 59.8287C15.8895 59.7119 16.2633 59.7421 16.6494 59.7571C17.1679 59.7788 17.7287 59.8777 18.1185 60.2581L18.1204 60.26ZM12.8076 67.0024C13.0312 67.2208 13.2932 67.3941 13.5581 67.557C13.8512 67.7359 14.2664 67.9328 14.6139 67.9177C15.294 67.8876 15.7777 67.654 16.2549 67.1756C16.4578 66.9722 16.7151 66.8376 16.9321 66.6511C17.1491 66.4647 17.3182 66.233 17.507 66.0211C17.7061 65.797 17.8846 65.5465 18.0537 65.2923C18.3956 64.78 18.7065 64.2565 18.7666 63.6284C18.8154 63.117 18.7704 62.6302 18.2922 62.3006C18.2359 62.262 18.1899 62.1989 18.1542 62.1386C18.1006 62.0473 18.0198 61.9945 17.94 61.9305C17.7334 61.7629 17.4816 61.664 17.2797 61.5002C16.903 61.1951 16.454 61.1941 16.0144 61.1583C15.8998 61.1489 15.7702 61.1913 15.6622 61.2421C15.3691 61.3787 15.1099 61.583 14.7942 61.6772C14.7463 61.6913 14.6994 61.7186 14.6618 61.7516C14.4195 61.9654 14.1828 62.1848 13.9404 62.3985C13.6116 62.6886 13.3392 63.0313 13.0593 63.3637C12.7738 63.7009 12.4328 64.0003 12.2468 64.4194C12.09 64.7734 11.8871 65.1228 11.9904 65.5239C12.135 66.0833 12.3877 66.5946 12.8085 67.0052L12.8076 67.0024Z" fill="#F0E7D6"/>
<path d="M22.0467 71.351C21.9011 71.6599 21.7733 71.9716 21.6268 72.2833C21.4662 72.6261 21.2999 72.966 21.1412 73.3107C21.0538 73.5018 20.9336 73.6732 20.8594 73.8757C20.7739 74.1073 20.4564 74.1827 20.2094 74.0725C20.0225 73.9896 19.8374 73.9002 19.658 73.8013C19.4307 73.6779 19.3668 73.4981 19.4795 73.2607C19.6514 72.9001 19.8384 72.547 20.0215 72.192C20.1624 71.9208 20.355 71.6759 20.4715 71.3925C20.5522 71.1957 20.6875 71.028 20.7749 70.835C20.8566 70.6542 20.9111 70.4687 21.0257 70.302C21.1402 70.1363 21.2173 69.9479 21.2868 69.7521C21.3666 69.5279 21.484 69.3114 21.6005 69.1042C21.8466 68.6691 22.0965 68.2332 22.3012 67.7802C22.6075 67.1041 23.0123 66.4826 23.3176 65.8083C23.3636 65.7066 23.42 65.6096 23.4472 65.4985C23.4942 65.3102 23.6445 65.2301 23.8342 65.2725C24.0249 65.3149 24.2015 65.3874 24.3734 65.4816C24.596 65.604 24.8205 65.7236 25.0685 65.8017C25.2272 65.8517 25.3653 65.9703 25.5118 66.0579C25.7983 66.2293 26.1393 66.2952 26.4032 66.5118C26.9311 66.6775 27.3698 67.0353 27.8958 67.2058C28.0536 67.2566 28.1456 67.4092 28.2997 67.4798C28.5195 67.5815 28.7252 67.7143 28.9356 67.8367C29.0671 67.9139 29.1075 68.0024 29.0474 68.1352C28.9751 68.2925 28.8999 68.4535 28.7966 68.5919C28.5899 68.8697 28.28 68.9356 27.9578 68.7294C27.6722 68.5467 27.367 68.4064 27.0711 68.2501C26.5263 67.9629 25.9956 67.6126 25.4357 67.332C25.0882 67.1587 24.7275 67.0212 24.3499 66.927C24.2588 66.9044 24.2259 66.9101 24.2071 67.0118C24.1836 67.1389 24.0944 67.2482 24.0296 67.3517C23.8286 67.6728 23.6351 68.0034 23.5148 68.3527C23.3871 68.7219 23.1663 69.0364 23.0208 69.3923C22.9775 69.4978 22.9531 69.527 23.0677 69.5816C23.4341 69.7568 23.7487 70.0167 24.0981 70.2182C24.2447 70.303 24.3875 70.3981 24.5434 70.4668C24.8064 70.5807 25.0224 70.7691 25.2695 70.9075C25.4226 70.9932 25.4338 71.0987 25.3812 71.2729C25.2958 71.5497 25.0957 71.6834 24.8327 71.7475C24.7528 71.7663 24.6843 71.7588 24.6007 71.7249C24.2315 71.5751 23.869 71.416 23.5515 71.1674C23.4716 71.1053 23.3739 71.0666 23.2809 71.0233C23.079 70.9301 22.8573 70.8849 22.6676 70.7625C22.5727 70.7013 22.4891 70.7267 22.4177 70.7954C22.3313 70.8793 22.2402 70.9659 22.1848 71.0742C22.1378 71.1665 22.0927 71.2578 22.0495 71.3501L22.0467 71.351Z" fill="#F0E7D6"/>
<path d="M31.1139 74.8569C31.0566 75.194 31.0162 75.5283 30.9589 75.8682C30.896 76.2421 30.8264 76.6141 30.7663 76.9879C30.7325 77.1951 30.663 77.3928 30.6452 77.6075C30.6245 77.8533 30.3389 78.0115 30.0712 77.972C29.8693 77.9428 29.6664 77.9051 29.4673 77.859C29.2155 77.8006 29.1056 77.6442 29.1507 77.3862C29.2202 76.9926 29.3057 76.6028 29.3874 76.211C29.4504 75.9116 29.5706 75.6244 29.6072 75.3202C29.6326 75.1093 29.7181 74.9115 29.7509 74.7015C29.781 74.5057 29.7838 74.3117 29.8505 74.1205C29.9172 73.9303 29.9407 73.7278 29.9548 73.5207C29.9717 73.2834 30.0271 73.0432 30.0844 72.8125C30.2056 72.3266 30.3295 71.8398 30.4056 71.3482C30.5193 70.6146 30.7438 69.9065 30.8584 69.1748C30.8753 69.0637 30.9044 68.9564 30.9007 68.8415C30.895 68.6475 31.019 68.5298 31.2125 68.5194C31.4079 68.5091 31.5967 68.5317 31.7874 68.5769C32.0353 68.6352 32.2824 68.6899 32.5426 68.6993C32.7088 68.7049 32.8732 68.7821 33.0385 68.8273C33.3607 68.9159 33.7064 68.8876 34.0182 69.0251C34.5705 69.043 35.089 69.2699 35.6414 69.2925C35.8067 69.2991 35.9363 69.4215 36.1035 69.4479C36.3421 69.4865 36.576 69.56 36.8108 69.6212C36.9583 69.6598 37.0212 69.7351 36.9987 69.8783C36.9714 70.0496 36.9423 70.2248 36.8794 70.3849C36.7545 70.7079 36.4727 70.8548 36.1082 70.7427C35.7841 70.6438 35.4526 70.5902 35.1257 70.5186C34.5236 70.3877 33.9196 70.1928 33.3044 70.0741C32.923 70.0007 32.5388 69.9649 32.1499 69.9762C32.056 69.979 32.0259 69.9931 32.0353 70.0958C32.0466 70.2248 31.9903 70.3538 31.9555 70.4715C31.8475 70.834 31.7498 71.206 31.7263 71.5742C31.7019 71.965 31.5732 72.3266 31.5281 72.708C31.515 72.821 31.4981 72.8558 31.6239 72.8775C32.0231 72.9481 32.396 73.1139 32.7868 73.2137C32.9502 73.256 33.1137 73.3097 33.2827 73.3333C33.5664 73.3719 33.8247 73.4962 34.1 73.563C34.27 73.6045 34.3094 73.7033 34.3047 73.8851C34.2963 74.1751 34.1394 74.3569 33.9036 74.4896C33.8322 74.5292 33.7637 74.5405 33.6735 74.5301C33.2771 74.4849 32.8864 74.4294 32.5135 74.2749C32.4205 74.2363 32.3153 74.225 32.2138 74.209C31.995 74.1732 31.7686 74.1892 31.5535 74.1224C31.4455 74.0894 31.3722 74.1356 31.3224 74.2203C31.2623 74.3239 31.1965 74.4322 31.1721 74.5518C31.1514 74.6525 31.1327 74.7533 31.1158 74.8541L31.1139 74.8569Z" fill="#F0E7D6"/>
<path d="M40.7794 76.3108C40.8085 76.7384 40.8358 77.1668 40.8686 77.5943C40.8799 77.7497 40.9288 77.8015 41.0499 77.7667C41.5468 77.6217 42.0625 77.6725 42.5688 77.6169C42.9643 77.5736 43.3597 77.6094 43.7552 77.5849C43.9364 77.5736 44.1083 77.5152 44.2915 77.4974C44.5066 77.4757 44.7226 77.4804 44.9387 77.4625C45.2365 77.438 45.3736 77.5746 45.4253 77.8768C45.4356 77.9371 45.4159 77.9908 45.43 78.0529C45.4938 78.3402 45.4553 78.4108 45.1867 78.5153C45.0815 78.5558 44.9697 78.5784 44.8532 78.584C44.4033 78.6066 43.9562 78.6735 43.5091 78.6914C43.2385 78.7027 42.9718 78.762 42.7003 78.7583C42.349 78.7535 42.0165 78.8006 41.668 78.8251C41.2444 78.8543 40.8236 78.9278 40.398 78.9494C40.228 78.9579 40.0646 79.0295 39.8861 78.988C39.671 78.9381 39.6071 78.8694 39.5902 78.6368C39.578 78.4654 39.5639 78.2921 39.5329 78.1236C39.4672 77.7629 39.4766 77.3966 39.4277 77.0331C39.3535 76.4766 39.3733 75.9078 39.3366 75.3456C39.2737 74.3851 39.207 73.4246 39.1272 72.465C39.0905 72.0328 39.0389 71.5912 39.0886 71.1514C39.1215 70.8661 39.0379 70.5855 39.0492 70.3001C39.0492 70.2898 39.0464 70.2794 39.0454 70.2691C38.9806 69.7869 39.0407 69.688 39.516 69.6297C40.9522 69.4545 42.4054 69.3773 43.851 69.3208C44.1027 69.3114 44.3554 69.3095 44.6071 69.3236C44.8325 69.3368 44.81 69.3509 44.8457 69.5769C44.8833 69.8189 44.8992 70.0619 44.9208 70.3039C44.9406 70.5346 44.9255 70.5591 44.6992 70.5638C44.3845 70.5704 44.0839 70.6721 43.7664 70.6759C43.1258 70.6834 42.4852 70.7248 41.8455 70.7502C41.4228 70.7672 41.0001 70.7832 40.5775 70.7973C40.4619 70.8011 40.4591 70.8406 40.4422 70.9602C40.3764 71.4377 40.5662 71.8868 40.5559 72.3558C40.5483 72.7183 40.5718 73.0818 40.5822 73.4444C40.584 73.4981 40.585 73.5244 40.6648 73.5254C40.786 73.5254 40.9081 73.5376 41.0293 73.5272C41.4444 73.4915 41.8709 73.5376 42.2776 73.4651C42.5331 73.4199 42.7989 73.4481 43.0563 73.4086C43.2705 73.3766 43.4593 73.4717 43.4874 73.7118C43.5109 73.9152 43.5269 74.1205 43.5278 74.3249C43.5278 74.5075 43.4546 74.5876 43.2789 74.6168C42.9295 74.6752 42.5763 74.6836 42.2231 74.6733C41.9301 74.6648 41.6408 74.6601 41.3543 74.7335C41.1983 74.7731 41.033 74.7269 40.8724 74.7731C40.6883 74.8258 40.6761 74.8192 40.6864 75.0226C40.708 75.452 40.7428 75.8805 40.7803 76.309L40.7794 76.3108Z" fill="#F0E7D6"/>
<path d="M50.522 74.6356C50.6647 75.0405 50.8056 75.4454 50.9512 75.8485C51.0038 75.9954 51.0649 76.0321 51.172 75.9652C51.6125 75.6922 52.1226 75.6018 52.595 75.4125C52.9642 75.2637 53.3549 75.1931 53.7297 75.0631C53.9016 75.0038 54.051 74.9011 54.2229 74.8343C54.4239 74.7561 54.6343 74.7025 54.8372 74.6271C55.1171 74.5235 55.2862 74.6186 55.4158 74.8955C55.4421 74.9501 55.4374 75.0076 55.4674 75.0641C55.6055 75.324 55.5877 75.4021 55.3566 75.5754C55.2664 75.6432 55.165 75.694 55.0541 75.7308C54.6268 75.873 54.2135 76.0585 53.788 76.195C53.5306 76.2779 53.2892 76.4069 53.0271 76.4766C52.6871 76.566 52.3799 76.7016 52.0502 76.8175C51.6501 76.9597 51.264 77.1433 50.8601 77.2789C50.6986 77.3335 50.5595 77.4456 50.3773 77.454C50.1566 77.4644 50.0767 77.4145 49.9978 77.1951C49.9405 77.0331 49.8804 76.8702 49.8053 76.7158C49.6456 76.3862 49.5563 76.0302 49.4117 75.694C49.191 75.178 49.0585 74.6243 48.8735 74.0932C48.556 73.1845 48.2347 72.2776 47.9013 71.3746C47.751 70.9678 47.5819 70.5563 47.5133 70.1193C47.4683 69.8359 47.3133 69.5873 47.2475 69.3104C47.2447 69.3001 47.24 69.2916 47.2362 69.2822C47.0456 68.8349 47.0766 68.7238 47.519 68.5401C48.8566 67.9855 50.2355 67.5203 51.6134 67.0787C51.853 67.0014 52.0972 66.9327 52.3424 66.8781C52.5631 66.83 52.5452 66.8498 52.6392 67.0579C52.7406 67.2811 52.8205 67.5109 52.9059 67.7388C52.9867 67.9554 52.9792 67.9836 52.7613 68.0486C52.4598 68.139 52.1977 68.3179 51.8924 68.4064C51.2772 68.5853 50.6713 68.7972 50.0608 68.995C49.6578 69.1249 49.2548 69.2539 48.8509 69.3811C48.7401 69.4159 48.7476 69.4545 48.7645 69.575C48.8293 70.0525 49.1308 70.4338 49.2473 70.8887C49.3365 71.2399 49.4568 71.5836 49.5629 71.9311C49.5789 71.9819 49.5873 72.0074 49.6644 71.9867C49.7818 71.9546 49.902 71.933 50.0166 71.8906C50.4074 71.7447 50.8301 71.675 51.203 71.4951C51.4369 71.3821 51.7008 71.3378 51.9384 71.2314C52.1357 71.1429 52.3442 71.1834 52.4353 71.4075C52.5124 71.5968 52.5828 71.7908 52.6382 71.9876C52.688 72.1637 52.6382 72.2597 52.4767 72.336C52.1554 72.4867 51.8173 72.5893 51.4754 72.6741C51.1908 72.7447 50.9108 72.8182 50.6535 72.9651C50.5135 73.0451 50.3416 73.0451 50.1998 73.1327C50.0363 73.2325 50.0222 73.2297 50.0871 73.4227C50.2233 73.8305 50.3707 74.2344 50.522 74.6375V74.6356Z" fill="#F0E7D6"/>
<path d="M66.3907 68.3791C65.9474 68.7172 65.5322 69.0976 64.9874 69.2812C64.8784 69.318 64.7704 69.3349 64.6614 69.3547C64.5919 69.3669 64.5149 69.3537 64.4501 69.3773C64.2613 69.4451 64.0753 69.414 63.8818 69.4121C63.4958 69.4084 63.1736 69.2483 62.8429 69.0985C62.5724 68.9752 62.2963 68.8273 62.0849 68.6136C61.8923 68.4205 61.6556 68.2784 61.4584 68.0891C61.2583 67.896 61.0845 67.6794 60.8863 67.4864C60.133 66.75 59.6014 65.8017 59.0566 64.9128C59.0143 64.8441 58.9748 64.7725 58.9335 64.7019C58.8161 64.4994 58.7184 64.2922 58.7325 64.0436C58.7456 63.8091 58.7231 63.5737 58.7447 63.3383C58.7898 62.8496 58.9795 62.4287 59.2688 62.0322C59.467 61.761 59.6605 61.4955 59.9095 61.2657C60.0504 61.1348 60.211 61.0274 60.365 60.9295C60.5905 60.7873 60.8074 60.6225 61.077 60.5444C61.758 60.3447 62.4099 60.3363 63.0439 60.7073C63.229 60.8156 63.4046 60.9323 63.5793 61.0547C63.7522 61.1753 63.8846 61.341 63.6648 61.5896C63.4929 61.7836 63.3755 62.0096 63.2196 62.2111C63.1116 62.3505 63.0439 62.3731 62.8927 62.2931C62.8213 62.2554 62.7405 62.2196 62.6889 62.1612C62.4616 61.9051 62.1469 61.891 61.8482 61.858C61.3823 61.8072 60.9925 61.9767 60.6938 62.3448C60.5839 62.4795 60.4599 62.6057 60.3725 62.7545C60.1715 63.0991 60.1255 63.4862 60.1368 63.877C60.1405 64.0069 60.1847 64.1416 60.2626 64.2527C60.6459 64.796 61.046 65.33 61.4405 65.8639C61.9825 66.6088 62.548 67.3301 63.3868 67.7708C63.4582 67.8084 63.5239 67.8584 63.5916 67.9045C63.9692 68.1672 64.3646 68.1136 64.7394 67.9252C65.0823 67.7529 65.3941 67.5034 65.6271 67.2077C65.9201 66.8348 66.1024 66.3931 66.0422 65.8874C66.0206 65.7047 65.9351 65.5578 65.8318 65.4222C65.7022 65.2518 65.6956 65.0635 65.721 64.8714C65.7482 64.6623 66.2 64.3177 66.401 64.3459C66.5842 64.3723 66.7138 64.5013 66.8209 64.6303C66.9299 64.7621 67.0642 64.8789 67.1337 65.0446C67.3131 65.475 67.6344 66.04 67.3977 66.5136C67.2342 66.8395 67.2286 67.1869 67.0633 67.5231C66.944 67.7651 66.789 67.9987 66.5917 68.1936C66.526 68.2586 66.4565 68.3188 66.3888 68.381L66.3907 68.3791Z" fill="#F0E7D6"/>
<path d="M64.6661 55.3416C64.9818 54.8001 65.2372 54.1551 65.6571 53.688C65.8121 53.5138 65.9793 53.3528 66.0995 53.1484C66.139 53.0816 66.2085 53.0279 66.2724 52.9799C66.7702 52.5976 67.3319 52.4215 67.9594 52.4638C68.4281 52.4959 68.8949 52.5213 69.3561 52.6268C69.8023 52.7294 70.2156 52.9074 70.6364 53.0778C71.0159 53.2323 71.3296 53.5411 71.6734 53.7605C72.1553 54.0685 72.6146 54.3811 73.0148 54.7926C73.2383 55.0224 73.4675 55.2474 73.7098 55.4565C73.9719 55.6825 74.0583 56.0008 74.1908 56.2946C74.3589 56.6656 74.4031 57.0715 74.3458 57.4613C74.3035 57.7476 74.2377 58.0404 74.1598 58.3258C74.0912 58.5791 73.971 58.8079 73.846 59.0198C73.6328 59.3804 73.4844 59.7825 73.2054 60.1037C73.1716 60.1423 73.1425 60.1856 73.104 60.2185C72.6559 60.599 72.2023 60.9709 71.6593 61.2111C71.2705 61.3834 70.8722 61.4898 70.441 61.3683C70.287 61.325 70.1245 61.3099 69.9648 61.2921C69.637 61.2553 69.3345 61.1235 69.0452 60.9888C68.4225 60.6969 67.7612 60.4775 67.2042 60.0537C66.9073 59.9699 66.6885 59.7421 66.4133 59.6187C66.2714 59.5547 66.1615 59.4548 66.0573 59.3362C65.8628 59.1149 65.6411 58.9181 65.4392 58.7043C65.2316 58.4849 65.0381 58.2514 64.8803 57.9839C64.6755 57.6393 64.6135 57.2683 64.5356 56.8888C64.4313 56.3793 64.3919 55.8096 64.6671 55.3388L64.6661 55.3416ZM72.4728 58.888C72.6306 58.6177 72.7358 58.322 72.8288 58.0244C72.9312 57.6967 73.0223 57.2447 72.9236 56.9104C72.7301 56.256 72.3882 55.8416 71.8096 55.4923C71.5635 55.3435 71.371 55.126 71.138 54.9602C70.9051 54.7945 70.6402 54.6853 70.3894 54.5525C70.1245 54.4122 69.8389 54.2992 69.5515 54.1956C68.9729 53.9865 68.3915 53.8104 67.7687 53.9027C67.2615 53.9781 66.8012 54.14 66.5974 54.6834C66.573 54.7474 66.5241 54.8077 66.4743 54.8566C66.3992 54.931 66.3672 55.0224 66.324 55.1147C66.2113 55.3567 66.1766 55.6251 66.0667 55.8614C65.8619 56.3012 65.9699 56.7381 66.0404 57.1741C66.0591 57.288 66.1315 57.4039 66.2057 57.4971C66.4086 57.7495 66.6688 57.9519 66.835 58.2363C66.8604 58.2796 66.898 58.3192 66.9393 58.3474C67.2051 58.532 67.4747 58.709 67.7396 58.8936C68.0993 59.1431 68.4976 59.3258 68.8865 59.5189C69.2819 59.7157 69.6539 59.9756 70.1048 60.0556C70.4852 60.1225 70.8731 60.2364 71.2357 60.0396C71.7429 59.7647 72.176 59.3965 72.4728 58.888Z" fill="#F0E7D6"/>
<path d="M59.1233 38.6561C58.6668 38.0468 57.8683 37.9978 56.8717 37.9978C52.6185 37.9978 51.7403 38.4592 51.7008 39.205C51.6651 39.8906 52.4673 40.0488 53.2432 40.2032C55.0635 40.5639 55.0072 40.8492 54.9621 41.079C54.7977 41.9124 54.1806 42.2523 52.8299 42.2523C52.5931 42.2523 52.3593 42.2429 52.162 42.2325C50.4215 42.1478 49.3281 41.4415 48.3869 39.7955C48.1981 39.465 48.0206 39.1241 47.8327 38.7625L47.829 38.7549C47.193 37.5308 46.5355 36.2651 45.3651 35.283C44.1083 34.2283 42.4937 33.7575 40.1294 33.7575H40.1238C37.9502 33.7575 35.9194 34.0692 34.0896 34.6803C31.8822 35.4186 30.0421 36.1813 28.4669 37.0128C26.8062 37.8886 25.3465 38.9593 24.0568 39.9047C23.8361 40.0667 23.62 40.2249 23.4087 40.3784C22.2205 41.24 21.237 42.0602 20.5644 42.7514C19.7134 43.6253 19.4053 44.2364 19.5631 44.7317C19.6336 44.953 19.8609 45.325 20.5861 45.3297H20.633C20.8519 45.3297 21.2605 45.3222 21.8306 45.3109C22.9522 45.2892 24.6467 45.2581 26.5413 45.2544H26.6202C27.5473 45.2544 28.5383 45.2864 29.503 45.3175C30.4667 45.3485 31.4633 45.3806 32.4017 45.3806H32.4956C34.6185 45.3758 36.4426 45.3598 37.5331 45.3504H37.5435C38.0047 45.3467 38.3203 45.3438 38.4462 45.3438C40.9175 45.3438 41.5196 45.0566 41.7817 44.7751C41.9235 44.6225 41.9911 44.437 41.978 44.2383C41.9432 43.7232 41.435 43.5914 40.3229 43.3042C38.7101 42.887 36.0105 42.1873 36.0387 40.5921C36.0659 39.0224 37.7839 37.6974 39.7894 37.6974C40.2947 37.6974 40.7879 37.7831 41.2556 37.9517C43.3729 38.7154 44.7076 40.1552 45.9982 41.5479C46.1654 41.7287 46.3326 41.9086 46.4998 42.0866C47.9501 43.6234 49.5939 45.3664 52.8364 45.3664C54.3459 45.3664 55.7211 45.0029 56.8144 44.3146C57.9698 43.5876 58.7813 42.515 59.1599 41.2136C59.5234 39.964 59.5121 39.1759 59.1233 38.6561Z" fill="#F0E7D6"/>
</svg>
