<svg width="91" height="34" viewBox="0 0 91 34" fill="none" xmlns="http://www.w3.org/2000/svg">
<path d="M16.4767 33.9076C16.039 33.8648 15.5939 33.8631 15.1796 33.6732C15.0971 33.6356 15.0246 33.586 14.9512 33.5381C14.9046 33.5073 14.8662 33.4568 14.817 33.4354C14.6712 33.3721 14.5795 33.2515 14.4678 33.1437C14.2452 32.9299 14.1435 32.6578 14.0318 32.3867C13.9401 32.1642 13.8593 31.9247 13.8501 31.6818C13.8418 31.4611 13.7792 31.2464 13.7659 31.0257C13.7526 30.8015 13.7667 30.5766 13.7551 30.3533C13.7101 29.5013 13.9076 28.645 14.066 27.8169C14.0785 27.7528 14.0935 27.6886 14.1077 27.6245C14.1477 27.4397 14.201 27.2626 14.3419 27.1223C14.4744 26.9906 14.587 26.8383 14.7253 26.71C15.0121 26.444 15.348 26.2977 15.7273 26.2207C15.9874 26.1685 16.2416 26.1172 16.5092 26.1163C16.6609 26.1163 16.8117 26.1403 16.9526 26.1668C17.1593 26.2062 17.3736 26.2275 17.572 26.3285C18.0738 26.5843 18.4572 26.9367 18.6281 27.5064C18.6781 27.6724 18.7173 27.8392 18.7539 28.0068C18.7898 28.1737 18.779 28.3447 18.518 28.3721C18.3147 28.3935 18.1254 28.4636 17.927 28.497C17.7895 28.5201 17.7387 28.497 17.6937 28.3661C17.672 28.3045 17.6445 28.2387 17.6453 28.1762C17.6503 27.8991 17.4744 27.7177 17.3185 27.5338C17.0751 27.2472 16.7576 27.1343 16.3883 27.1891C16.2524 27.2087 16.1132 27.2156 15.9832 27.2566C15.6823 27.3516 15.4489 27.556 15.2463 27.7947C15.1788 27.8734 15.1329 27.9786 15.1188 28.0873C15.0513 28.621 14.9996 29.1583 14.9437 29.6929C14.8612 30.4337 14.8045 31.1737 15.0571 31.8965C15.0788 31.9581 15.0904 32.024 15.1046 32.089C15.1838 32.4525 15.4422 32.6382 15.7615 32.7314C16.0524 32.8169 16.3675 32.84 16.6609 32.7921C17.0301 32.7314 17.3719 32.5689 17.607 32.2352C17.692 32.1146 17.7212 31.9803 17.7337 31.8426C17.7495 31.6698 17.8462 31.5543 17.9629 31.4534C18.0904 31.3439 18.5372 31.3875 18.6389 31.5141C18.7314 31.6305 18.7381 31.7784 18.7314 31.9136C18.7248 32.0522 18.7398 32.195 18.6914 32.3319C18.5656 32.6861 18.4505 33.1993 18.0604 33.3507C17.7912 33.4542 17.6028 33.6578 17.3269 33.7673C17.1285 33.846 16.9134 33.8991 16.695 33.9068C16.6225 33.9093 16.55 33.9076 16.4767 33.9076Z" fill="#00559F"/>
<path d="M23.6861 26.047C24.1804 26.0488 24.7214 25.9675 25.2066 26.0736C25.3866 26.1121 25.5633 26.1642 25.7492 26.166C25.8109 26.166 25.8742 26.1942 25.9326 26.219C26.3902 26.414 26.732 26.7365 26.952 27.1942C27.1154 27.5355 27.283 27.8734 27.393 28.2404C27.4997 28.5945 27.5414 28.9572 27.5914 29.3216C27.6364 29.6501 27.5497 29.9957 27.5355 30.3259C27.5164 30.7887 27.4838 31.2378 27.3621 31.6852C27.2938 31.935 27.2304 32.1873 27.1838 32.4423C27.1337 32.7177 26.9504 32.9068 26.802 33.1189C26.6153 33.3867 26.356 33.5826 26.0676 33.6997C25.8551 33.7861 25.63 33.858 25.4041 33.9196C25.2041 33.9743 25.0007 33.982 24.8064 33.9803C24.4764 33.9769 24.1429 34.0351 23.8137 33.9692C23.7737 33.9615 23.7328 33.9581 23.6953 33.9444C23.2585 33.7836 22.8251 33.6159 22.4466 33.3319C22.1757 33.1283 21.9457 32.8922 21.8573 32.5406C21.8265 32.4149 21.7714 32.2951 21.7206 32.1762C21.6156 31.9307 21.5864 31.6655 21.5639 31.408C21.5164 30.8529 21.4055 30.2994 21.4739 29.7374C21.4138 29.4953 21.4822 29.2498 21.458 29.0068C21.4455 28.882 21.4705 28.7639 21.5097 28.6433C21.5839 28.4175 21.6306 28.1822 21.6964 27.9538C21.7639 27.7194 21.8465 27.4893 21.9665 27.2695C22.1207 26.9863 22.3499 26.7921 22.5775 26.5843C22.8842 26.3054 23.2568 26.0462 23.687 26.0488L23.6861 26.047ZM24.3547 32.9624C24.6014 32.9632 24.8448 32.9179 25.0849 32.8623C25.3491 32.8015 25.6934 32.6826 25.8817 32.4782C26.2518 32.0778 26.3994 31.6698 26.4094 31.1223C26.4135 30.8897 26.4861 30.6664 26.5069 30.4354C26.5277 30.2044 26.4977 29.9743 26.4894 29.7451C26.4802 29.5021 26.4444 29.2558 26.4019 29.0128C26.3152 28.5218 26.206 28.0428 25.8967 27.6424C25.645 27.3174 25.3524 27.059 24.9006 27.136C24.8473 27.1454 24.7864 27.1352 24.7331 27.1198C24.6522 27.0967 24.578 27.1121 24.4972 27.1198C24.288 27.1386 24.0912 27.2233 23.8862 27.2412C23.5053 27.2755 23.2493 27.5278 22.9801 27.7545C22.9093 27.8144 22.8592 27.911 22.8251 28.0017C22.7334 28.2464 22.6975 28.5107 22.5692 28.7434C22.55 28.7784 22.5375 28.8212 22.535 28.8614C22.5141 29.1223 22.5 29.3832 22.4791 29.6441C22.4508 29.9974 22.4841 30.3507 22.5058 30.7023C22.5283 31.0599 22.4975 31.4251 22.6217 31.7742C22.7259 32.0684 22.8026 32.3867 23.0801 32.5612C23.4686 32.8058 23.8912 32.9606 24.3563 32.9632L24.3547 32.9624Z" fill="#00559F"/>
<path d="M31.7117 31.2943C31.72 31.5706 31.74 31.8417 31.7492 32.1206C31.7583 32.4269 31.7625 32.7331 31.7742 33.0394C31.7809 33.2096 31.7575 33.3764 31.7767 33.55C31.7992 33.7485 31.6025 33.9187 31.3891 33.9316C31.2282 33.941 31.0657 33.9435 30.9039 33.9393C30.6997 33.9333 30.5905 33.8272 30.5855 33.6151C30.578 33.2926 30.583 32.9692 30.5855 32.6459C30.5872 32.3986 30.6364 32.1514 30.6164 31.9042C30.603 31.7331 30.6389 31.562 30.6305 31.3909C30.623 31.2301 30.5955 31.077 30.6172 30.9145C30.6389 30.7528 30.6255 30.5885 30.6047 30.4226C30.5805 30.2318 30.5864 30.0325 30.5947 29.84C30.613 29.4354 30.633 29.0299 30.6155 28.6279C30.5897 28.0282 30.653 27.4311 30.6272 26.8323C30.623 26.7417 30.628 26.6518 30.608 26.5612C30.5739 26.408 30.6514 26.2951 30.7998 26.2558C30.949 26.2164 31.099 26.2036 31.254 26.2087C31.4549 26.2156 31.655 26.219 31.8575 26.1848C31.9867 26.1625 32.1268 26.1976 32.261 26.207C32.5244 26.225 32.7878 26.1471 33.0504 26.207C33.4813 26.1326 33.9181 26.2293 34.3491 26.1591C34.4783 26.1377 34.5975 26.2139 34.7317 26.2087C34.9226 26.201 35.1151 26.2216 35.3068 26.2327C35.4269 26.2395 35.4877 26.2891 35.4919 26.4063C35.4977 26.5466 35.5019 26.6903 35.4785 26.8272C35.4319 27.1035 35.2368 27.2652 34.9367 27.2352C34.67 27.2087 34.4057 27.219 34.1407 27.2156C33.6539 27.2087 33.1554 27.1506 32.6611 27.1548C32.3543 27.1574 32.0509 27.1908 31.7517 27.2618C31.68 27.2789 31.6583 27.2951 31.6817 27.3755C31.7108 27.4756 31.6867 27.5868 31.6783 27.6861C31.6517 27.9914 31.6333 28.3011 31.6733 28.5971C31.7158 28.9102 31.6725 29.2181 31.6967 29.5278C31.7042 29.6193 31.6967 29.6493 31.7967 29.6467C32.1168 29.6382 32.4319 29.71 32.7503 29.7271C32.8837 29.734 33.0187 29.7511 33.1529 29.7425C33.3788 29.728 33.598 29.7844 33.8214 29.7938C33.9598 29.799 34.0056 29.8708 34.0306 30.0163C34.0698 30.2472 33.9765 30.4166 33.8139 30.5603C33.7647 30.6031 33.7131 30.6228 33.6422 30.6296C33.3288 30.657 33.0162 30.6758 32.7036 30.6133C32.6253 30.5979 32.5427 30.6056 32.461 30.6091C32.286 30.6159 32.1126 30.6647 31.9359 30.6459C31.8475 30.6364 31.7975 30.6852 31.7717 30.7613C31.7408 30.8529 31.7075 30.9495 31.7067 31.0479C31.7067 31.1317 31.7067 31.2139 31.71 31.2968L31.7117 31.2943Z" fill="#00559F"/>
<path d="M39.082 31.2943C39.0904 31.5706 39.1104 31.8417 39.1195 32.1206C39.1287 32.4269 39.1329 32.7331 39.1445 33.0394C39.1512 33.2096 39.1279 33.3764 39.147 33.55C39.1695 33.7485 38.9728 33.9187 38.7594 33.9316C38.5986 33.941 38.436 33.9435 38.2743 33.9393C38.0701 33.9333 37.9609 33.8272 37.9559 33.6151C37.9484 33.2926 37.9534 32.9692 37.9559 32.6459C37.9576 32.3986 38.0067 32.1514 37.9867 31.9042C37.9734 31.7331 38.0092 31.562 38.0009 31.3909C37.9934 31.2301 37.9659 31.077 37.9876 30.9145C38.0092 30.7528 37.9959 30.5885 37.9751 30.4226C37.9509 30.2318 37.9567 30.0325 37.9651 29.84C37.9834 29.4354 38.0034 29.0299 37.9859 28.6279C37.96 28.0282 38.0234 27.4311 37.9976 26.8323C37.9934 26.7417 37.9984 26.6518 37.9784 26.5612C37.9442 26.408 38.0217 26.2951 38.1701 26.2558C38.3193 26.2164 38.4694 26.2036 38.6244 26.2087C38.8253 26.2156 39.0253 26.219 39.2279 26.1848C39.3571 26.1625 39.4971 26.1976 39.6313 26.207C39.8947 26.225 40.1582 26.1471 40.4207 26.207C40.8517 26.1326 41.2885 26.2293 41.7194 26.1591C41.8486 26.1377 41.9678 26.2139 42.102 26.2087C42.2929 26.201 42.4855 26.2216 42.6772 26.2327C42.7972 26.2395 42.8581 26.2891 42.8622 26.4063C42.8681 26.5466 42.8722 26.6903 42.8489 26.8272C42.8022 27.1035 42.6072 27.2652 42.3071 27.2352C42.0403 27.2087 41.7761 27.219 41.511 27.2156C41.0242 27.2087 40.5258 27.1506 40.0315 27.1548C39.7247 27.1574 39.4213 27.1908 39.122 27.2618C39.0503 27.2789 39.0287 27.2951 39.052 27.3755C39.0812 27.4756 39.057 27.5868 39.0487 27.6861C39.022 27.9914 39.0037 28.3011 39.0437 28.5971C39.0862 28.9102 39.0428 29.2181 39.067 29.5278C39.0745 29.6193 39.067 29.6493 39.167 29.6467C39.4871 29.6382 39.8022 29.71 40.1206 29.7271C40.254 29.734 40.389 29.7511 40.5233 29.7425C40.7491 29.728 40.9684 29.7844 41.1918 29.7938C41.3301 29.799 41.376 29.8708 41.401 30.0163C41.4402 30.2472 41.3468 30.4166 41.1843 30.5603C41.1351 30.6031 41.0834 30.6228 41.0126 30.6296C40.6991 30.657 40.3865 30.6758 40.074 30.6133C39.9956 30.5979 39.9131 30.6056 39.8314 30.6091C39.6563 30.6159 39.483 30.6647 39.3063 30.6459C39.2179 30.6364 39.1679 30.6852 39.142 30.7613C39.1112 30.8529 39.0779 30.9495 39.077 31.0479C39.077 31.1317 39.077 31.2139 39.0804 31.2968L39.082 31.2943Z" fill="#00559F"/>
<path d="M46.4257 31.7006C46.4257 32.0479 46.424 32.3944 46.4257 32.7417C46.4257 32.8683 46.4624 32.9127 46.5591 32.8905C46.9584 32.8015 47.3626 32.8708 47.7644 32.8537C48.0787 32.84 48.3888 32.8914 48.7013 32.8939C48.8447 32.8948 48.9831 32.8571 49.1281 32.8529C49.299 32.8477 49.469 32.8631 49.6399 32.8606C49.8758 32.8571 49.9767 32.9752 50.0009 33.2216C50.0059 33.2703 49.9875 33.3131 49.995 33.3644C50.03 33.5997 49.995 33.6553 49.7783 33.7246C49.6933 33.7519 49.6041 33.763 49.5116 33.7613C49.1565 33.7545 48.7997 33.7836 48.4463 33.7733C48.2329 33.7673 48.0195 33.8007 47.8053 33.7819C47.5285 33.7579 47.2634 33.7784 46.9884 33.7784C46.6533 33.7784 46.3174 33.8144 45.9806 33.8084C45.8456 33.8058 45.713 33.8546 45.5755 33.811C45.4079 33.7588 45.3613 33.6997 45.3613 33.5107C45.3613 33.3713 45.3596 33.2318 45.3438 33.0932C45.3112 32.799 45.3387 32.5039 45.3196 32.2079C45.2912 31.7554 45.3371 31.2968 45.3387 30.8417C45.3412 30.0633 45.3404 29.2849 45.3287 28.5056C45.3237 28.1548 45.3062 27.7956 45.3696 27.4431C45.4113 27.2147 45.3596 26.9837 45.3838 26.7545C45.3838 26.7459 45.3838 26.7382 45.3829 26.7297C45.3579 26.337 45.4104 26.2601 45.7889 26.2404C46.9309 26.1788 48.0803 26.1976 49.2223 26.2327C49.4215 26.2387 49.6208 26.2515 49.8183 26.2772C49.995 26.3003 49.9767 26.3105 49.9925 26.4944C50.0092 26.692 50.0084 26.8888 50.0125 27.0855C50.0159 27.2729 50.0025 27.2917 49.8233 27.2831C49.5749 27.2703 49.3323 27.3362 49.0823 27.3216C48.5771 27.2917 48.0703 27.29 47.5635 27.2755C47.2293 27.266 46.895 27.2549 46.5616 27.2429C46.4699 27.2395 46.4657 27.2712 46.4466 27.367C46.369 27.7485 46.4941 28.1215 46.4607 28.4987C46.4349 28.7913 46.434 29.0855 46.4224 29.379C46.4207 29.4226 46.4207 29.444 46.4832 29.4491C46.5791 29.4568 46.6741 29.4722 46.7708 29.4705C47.1009 29.4645 47.4335 29.5261 47.7586 29.4902C47.9628 29.4679 48.1704 29.5047 48.3754 29.4885C48.5455 29.4739 48.6897 29.5612 48.6988 29.7571C48.7063 29.9222 48.708 30.089 48.6972 30.2541C48.688 30.4012 48.6255 30.4619 48.4854 30.4756C48.207 30.5039 47.9278 30.4902 47.6502 30.4628C47.4202 30.4397 47.1926 30.42 46.9617 30.4628C46.8367 30.4859 46.7083 30.4397 46.5799 30.4679C46.4324 30.4996 46.4224 30.4944 46.4199 30.6587C46.414 31.0068 46.4182 31.3542 46.4249 31.7023L46.4257 31.7006Z" fill="#00559F"/>
<path d="M53.8194 31.7006C53.8194 32.0479 53.8177 32.3944 53.8194 32.7417C53.8194 32.8683 53.8561 32.9127 53.9528 32.8905C54.3521 32.8015 54.7563 32.8708 55.1581 32.8537C55.4724 32.84 55.7824 32.8914 56.095 32.8939C56.2384 32.8948 56.3768 32.8571 56.5218 32.8529C56.6927 32.8477 56.8627 32.8631 57.0336 32.8606C57.2695 32.8571 57.3704 32.9752 57.3946 33.2216C57.3996 33.2703 57.3812 33.3131 57.3887 33.3644C57.4237 33.5997 57.3887 33.6553 57.172 33.7246C57.087 33.7519 56.9978 33.763 56.9053 33.7613C56.5502 33.7545 56.1934 33.7836 55.84 33.7733C55.6266 33.7673 55.4132 33.8007 55.199 33.7819C54.9222 33.7579 54.6571 33.7784 54.3821 33.7784C54.047 33.7784 53.711 33.8144 53.3743 33.8084C53.2393 33.8058 53.1067 33.8546 52.9692 33.811C52.8016 33.7588 52.7549 33.6997 52.7549 33.5107C52.7549 33.3713 52.7533 33.2318 52.7374 33.0932C52.7049 32.799 52.7324 32.5039 52.7133 32.2079C52.6849 31.7554 52.7308 31.2968 52.7324 30.8417C52.7349 30.0633 52.7341 29.2849 52.7224 28.5056C52.7174 28.1548 52.6999 27.7956 52.7633 27.4431C52.805 27.2147 52.7533 26.9837 52.7775 26.7545C52.7775 26.7459 52.7775 26.7382 52.7766 26.7297C52.7516 26.337 52.8041 26.2601 53.1826 26.2404C54.3245 26.1788 55.474 26.1976 56.616 26.2327C56.8152 26.2387 57.0145 26.2515 57.212 26.2772C57.3887 26.3003 57.3704 26.3105 57.3862 26.4944C57.4029 26.692 57.4021 26.8888 57.4062 27.0855C57.4096 27.2729 57.3962 27.2917 57.217 27.2831C56.9686 27.2703 56.726 27.3362 56.476 27.3216C55.9708 27.2917 55.464 27.29 54.9572 27.2755C54.623 27.266 54.2887 27.2549 53.9553 27.2429C53.8636 27.2395 53.8594 27.2712 53.8402 27.367C53.7627 27.7485 53.8878 28.1215 53.8544 28.4987C53.8286 28.7913 53.8277 29.0855 53.8161 29.379C53.8144 29.4226 53.8144 29.444 53.8769 29.4491C53.9728 29.4568 54.0678 29.4722 54.1645 29.4705C54.4946 29.4645 54.8272 29.5261 55.1523 29.4902C55.3565 29.4679 55.5641 29.5047 55.7691 29.4885C55.9392 29.4739 56.0834 29.5612 56.0925 29.7571C56.1 29.9222 56.1017 30.089 56.0909 30.2541C56.0817 30.4012 56.0192 30.4619 55.8791 30.4756C55.6007 30.5039 55.3215 30.4902 55.0439 30.4628C54.8139 30.4397 54.5863 30.42 54.3554 30.4628C54.2304 30.4859 54.102 30.4397 53.9736 30.4679C53.8261 30.4996 53.8161 30.4944 53.8136 30.6587C53.8077 31.0068 53.8119 31.3542 53.8186 31.7023L53.8194 31.7006Z" fill="#00559F"/>
<path d="M66.1303 33.9076C65.6927 33.8648 65.2475 33.8631 64.8333 33.6732C64.7507 33.6356 64.6782 33.586 64.6049 33.5381C64.5582 33.5073 64.5199 33.4568 64.4707 33.4354C64.3248 33.3721 64.2331 33.2515 64.1214 33.1437C63.8988 32.9299 63.7971 32.6578 63.6855 32.3867C63.5938 32.1642 63.5129 31.9247 63.5037 31.6818C63.4954 31.4611 63.4329 31.2464 63.4195 31.0257C63.4062 30.8015 63.4204 30.5766 63.4087 30.3533C63.3637 29.5013 63.5613 28.645 63.7196 27.8169C63.7321 27.7528 63.7471 27.6886 63.7613 27.6245C63.8013 27.4397 63.8547 27.2626 63.9955 27.1223C64.1281 26.9906 64.2406 26.8383 64.379 26.71C64.6657 26.444 65.0016 26.2977 65.3809 26.2207C65.641 26.1685 65.8952 26.1172 66.1628 26.1163C66.3145 26.1163 66.4654 26.1403 66.6063 26.1668C66.813 26.2062 67.0272 26.2275 67.2256 26.3285C67.7274 26.5843 68.1108 26.9367 68.2817 27.5064C68.3317 27.6724 68.3709 27.8392 68.4076 28.0068C68.4434 28.1737 68.4326 28.3447 68.1717 28.3721C67.9683 28.3935 67.7791 28.4636 67.5807 28.497C67.4432 28.5201 67.3923 28.497 67.3473 28.3661C67.3256 28.3045 67.2981 28.2387 67.2989 28.1762C67.3039 27.8991 67.1281 27.7177 66.9722 27.5338C66.7288 27.2472 66.4112 27.1343 66.0419 27.1891C65.9061 27.2087 65.7669 27.2156 65.6368 27.2566C65.3359 27.3516 65.1025 27.556 64.8999 27.7947C64.8324 27.8734 64.7866 27.9786 64.7724 28.0873C64.7049 28.621 64.6532 29.1583 64.5974 29.6929C64.5148 30.4337 64.4582 31.1737 64.7107 31.8965C64.7324 31.9581 64.7441 32.024 64.7582 32.089C64.8374 32.4525 65.0958 32.6382 65.4151 32.7314C65.706 32.8169 66.0211 32.84 66.3145 32.7921C66.6838 32.7314 67.0255 32.5689 67.2606 32.2352C67.3456 32.1146 67.3748 31.9803 67.3873 31.8426C67.4031 31.6698 67.4998 31.5543 67.6165 31.4534C67.7441 31.3439 68.1909 31.3875 68.2925 31.5141C68.3851 31.6305 68.3917 31.7784 68.3851 31.9136C68.3784 32.0522 68.3934 32.195 68.3451 32.3319C68.2192 32.6861 68.1042 33.1993 67.7141 33.3507C67.4448 33.4542 67.2564 33.6578 66.9805 33.7673C66.7821 33.846 66.5671 33.8991 66.3487 33.9068C66.2762 33.9093 66.2036 33.9076 66.1303 33.9076Z" fill="#00559F"/>
<path d="M73.3398 26.047C73.8341 26.0488 74.3751 25.9675 74.8602 26.0736C75.0402 26.1121 75.217 26.1642 75.4028 26.166C75.4645 26.166 75.5279 26.1942 75.5862 26.219C76.0438 26.414 76.3856 26.7365 76.6057 27.1942C76.769 27.5355 76.9366 27.8734 77.0466 28.2404C77.1533 28.5945 77.195 28.9572 77.245 29.3216C77.29 29.6501 77.2033 29.9957 77.1892 30.3259C77.17 30.7887 77.1375 31.2378 77.0158 31.6852C76.9474 31.935 76.8841 32.1873 76.8374 32.4423C76.7874 32.7177 76.604 32.9068 76.4556 33.1189C76.2689 33.3867 76.0097 33.5826 75.7213 33.6997C75.5087 33.7861 75.2836 33.858 75.0577 33.9196C74.8577 33.9743 74.6543 33.982 74.4601 33.9803C74.13 33.9769 73.7966 34.0351 73.4673 33.9692C73.4273 33.9615 73.3864 33.9581 73.3489 33.9444C72.9122 33.7836 72.4787 33.6159 72.1003 33.3319C71.8294 33.1283 71.5993 32.8922 71.5109 32.5406C71.4801 32.4149 71.4251 32.2951 71.3742 32.1762C71.2692 31.9307 71.24 31.6655 71.2175 31.408C71.17 30.8529 71.0591 30.2994 71.1275 29.7374C71.0675 29.4953 71.1358 29.2498 71.1117 29.0068C71.0992 28.882 71.1242 28.7639 71.1633 28.6433C71.2375 28.4175 71.2842 28.1822 71.3501 27.9538C71.4176 27.7194 71.5001 27.4893 71.6201 27.2695C71.7743 26.9863 72.0036 26.7921 72.2311 26.5843C72.5379 26.3054 72.9105 26.0462 73.3406 26.0488L73.3398 26.047ZM74.0075 32.9624C74.2542 32.9632 74.4976 32.9179 74.7377 32.8623C75.0019 32.8015 75.3462 32.6826 75.5345 32.4782C75.9046 32.0778 76.0522 31.6698 76.0622 31.1223C76.0664 30.8897 76.1389 30.6664 76.1597 30.4354C76.1806 30.2044 76.1505 29.9743 76.1422 29.7451C76.133 29.5021 76.0972 29.2558 76.0547 29.0128C75.968 28.5218 75.8588 28.0428 75.5495 27.6424C75.2978 27.3174 75.0052 27.059 74.5534 27.136C74.5001 27.1454 74.4392 27.1352 74.3859 27.1198C74.305 27.0967 74.2308 27.1121 74.15 27.1198C73.9408 27.1386 73.7441 27.2233 73.539 27.2412C73.1581 27.2755 72.9022 27.5278 72.6329 27.7545C72.5621 27.8144 72.512 27.911 72.4779 28.0017C72.3862 28.2464 72.3503 28.5107 72.222 28.7434C72.2028 28.7784 72.1903 28.8212 72.1878 28.8614C72.167 29.1223 72.1528 29.3832 72.1319 29.6441C72.1036 29.9974 72.1369 30.3507 72.1586 30.7023C72.1811 31.0599 72.1503 31.4251 72.2745 31.7742C72.3787 32.0684 72.4554 32.3867 72.7329 32.5612C73.1214 32.8058 73.544 32.9606 74.0091 32.9632L74.0075 32.9624Z" fill="#00559F"/>
<path d="M3.69046 18.5637C3.53375 18.5398 3.37538 18.5586 3.22033 18.5834C3.04612 18.6116 2.87774 18.5834 2.70186 18.5911C2.49347 18.5997 2.28591 18.5962 2.07919 18.6347C2.02501 18.645 1.96499 18.645 1.91081 18.633C1.68075 18.5817 1.45318 18.6373 1.22395 18.6407C1.14977 18.6416 1.13643 18.6809 1.12726 18.7494C1.10392 18.941 1.11476 19.1386 1.13143 19.3302C1.16144 19.6664 1.13976 20.006 1.16894 20.343C1.18978 20.5808 1.16394 20.8186 1.17311 21.0573C1.18227 21.2831 1.23896 21.4885 1.21895 21.716C1.20395 21.8905 1.09975 21.9872 0.932206 21.9829C0.76466 21.9786 0.597948 21.9675 0.431235 21.9512C0.226179 21.9316 0.189502 21.8914 0.126151 21.704C0.0928088 21.6056 0.0911416 21.509 0.0936423 21.4106C0.106979 20.8494 0.0778046 20.2866 0.0853067 19.7246C0.0903081 19.3464 0.0919752 18.9675 0.0911416 18.5894C0.0911416 18.2378 0.129486 17.87 0.106146 17.521C0.0744704 17.0317 0.0186217 16.5252 0.0452957 16.0308C0.0636341 15.6929 0.0477964 15.3524 0.0461293 15.012C0.0461293 14.9299 0.0411279 14.8503 0.0169546 14.7673C-0.0572325 14.5167 0.118649 14.2207 0.415397 14.29C0.673802 14.213 0.943042 14.2823 1.20561 14.2207C1.42234 14.1694 1.63573 14.2352 1.85496 14.2352C1.99333 14.2352 2.1392 14.2601 2.27591 14.2498C2.63601 14.2207 2.99694 14.2421 3.3537 14.2643C3.66379 14.2831 3.97054 14.2703 4.27896 14.2772C4.40316 14.2797 4.54236 14.3122 4.64823 14.3772C5.11419 14.6647 5.54097 14.9949 5.77437 15.5269C5.89774 15.8084 5.96776 16.1009 5.95192 16.4063C5.94525 16.5415 5.89024 16.6749 5.85022 16.8067C5.82688 16.8854 5.79104 16.9598 5.76103 17.0359C5.646 17.3285 5.44845 17.5654 5.26006 17.8084C5.23505 17.8409 5.20421 17.8691 5.17587 17.8982C4.99666 18.0864 4.99416 18.089 5.21088 18.2447C5.2809 18.2943 5.33842 18.3516 5.36592 18.4294C5.45845 18.6895 5.6485 18.8888 5.7652 19.1352C5.91691 19.4559 5.98443 19.8067 6.05195 20.1548C6.11947 20.5038 6.17281 20.8571 6.18865 21.213C6.19782 21.42 6.28118 21.8657 5.98443 21.8811C5.73603 21.8939 5.48596 21.8973 5.23839 21.8648C5.12503 21.8503 5.09002 21.7938 5.05834 21.6698C5.00833 21.4688 5.03583 21.2643 5.01333 21.0616C4.97748 20.7425 4.95664 20.4226 4.90246 20.1061C4.84995 19.7998 4.77159 19.497 4.65823 19.2121C4.54653 18.9324 4.3173 18.734 4.06723 18.5774C3.95387 18.5064 3.81383 18.5603 3.6863 18.5654L3.69046 18.5637ZM3.69713 17.6305C3.99055 17.6099 4.26229 17.5492 4.46568 17.2943C4.58238 17.148 4.68991 17.0017 4.78743 16.8392C4.88079 16.6835 4.89163 16.55 4.86912 16.3858C4.85078 16.2524 4.8041 16.13 4.75992 16.0068C4.59154 15.5338 4.21811 15.3122 3.76382 15.2712C3.49624 15.2472 3.227 15.2335 2.9586 15.2361C2.53515 15.2395 2.1267 15.225 1.70575 15.213C1.54821 15.2087 1.39067 15.2335 1.23229 15.2455C1.15727 15.2515 1.12976 15.2849 1.11892 15.3704C1.09058 15.5988 1.1406 15.8229 1.14727 16.0488C1.1556 16.3157 1.1456 16.5851 1.15477 16.852C1.16144 17.0496 1.16477 17.2575 1.13226 17.4594C1.12476 17.5073 1.12893 17.5603 1.1406 17.6065C1.1606 17.6843 1.19645 17.7314 1.29647 17.7134C1.41401 17.692 1.53821 17.7066 1.65824 17.6946C1.96249 17.6638 2.26757 17.7305 2.57182 17.6886C2.94443 17.6364 3.32036 17.645 3.6963 17.6313L3.69713 17.6305Z" fill="#00559F"/>
<path d="M11.1869 14.0898C11.6812 14.0915 12.2221 14.0103 12.7073 14.1163C12.8873 14.1548 13.064 14.207 13.2499 14.2087C13.3116 14.2087 13.375 14.237 13.4333 14.2618C13.8909 14.4568 14.2327 14.7793 14.4528 15.237C14.6161 15.5783 14.7837 15.9162 14.8937 16.2831C15.0004 16.6373 15.0421 17 15.0921 17.3644C15.1371 17.6929 15.0504 18.0385 15.0363 18.3687C15.0171 18.8315 14.9846 19.2806 14.8629 19.728C14.7945 19.9778 14.7312 20.2301 14.6845 20.485C14.6345 20.7605 14.4511 20.9495 14.3027 21.1617C14.116 21.4294 13.8568 21.6253 13.5684 21.7425C13.3558 21.8289 13.1307 21.9008 12.9048 21.9624C12.7048 22.0171 12.5014 22.0248 12.3072 22.0231C11.9771 22.0197 11.6437 22.0778 11.3144 22.012C11.2744 22.0043 11.2335 22.0009 11.196 21.9872C10.7592 21.8263 10.3258 21.6587 9.94736 21.3747C9.67645 21.1711 9.44639 20.935 9.35803 20.5834C9.32719 20.4577 9.27217 20.3379 9.22132 20.219C9.1163 19.9735 9.08712 19.7083 9.06461 19.4508C9.0171 18.8956 8.90624 18.3422 8.97459 17.7802C8.91457 17.5381 8.98293 17.2926 8.95875 17.0496C8.94625 16.9247 8.97125 16.8067 9.01043 16.6861C9.08462 16.4602 9.1313 16.225 9.19715 15.9966C9.26467 15.7622 9.34719 15.5321 9.46723 15.3122C9.62143 15.0291 9.85066 14.8349 10.0782 14.627C10.385 14.3482 10.7576 14.089 11.1877 14.0915L11.1869 14.0898ZM11.8545 21.0051C12.1013 21.006 12.3447 20.9607 12.5847 20.905C12.849 20.8443 13.1932 20.7254 13.3816 20.521C13.7517 20.1206 13.8993 19.7126 13.9093 19.1651C13.9134 18.9324 13.986 18.7092 14.0068 18.4782C14.0276 18.2472 13.9976 18.0171 13.9893 17.7879C13.9801 17.5449 13.9443 17.2985 13.9018 17.0556C13.8151 16.5646 13.7059 16.0855 13.3966 15.6852C13.1449 15.3601 12.8523 15.1018 12.4005 15.1788C12.3472 15.1882 12.2863 15.1779 12.233 15.1625C12.1521 15.1394 12.0779 15.1548 11.9971 15.1625C11.7879 15.1814 11.5911 15.266 11.3861 15.284C11.0051 15.3182 10.7492 15.5706 10.48 15.7973C10.4092 15.8571 10.3591 15.9538 10.325 16.0445C10.2333 16.2891 10.1974 16.5535 10.0691 16.7861C10.0499 16.8212 10.0374 16.864 10.0349 16.9042C10.014 17.1651 9.99987 17.426 9.97903 17.6869C9.95069 18.0402 9.98403 18.3935 10.0057 18.7451C10.0282 19.1027 9.99737 19.4679 10.1216 19.8169C10.2258 20.1112 10.3025 20.4294 10.58 20.6039C10.9685 20.8486 11.3911 21.0034 11.8562 21.006L11.8545 21.0051Z" fill="#00559F"/>
<path d="M19.9084 20.8007C20.3819 20.7896 20.8545 20.8375 21.3272 20.852C21.5806 20.8597 21.8298 20.9085 22.089 20.8734C22.2024 20.858 22.3341 20.9085 22.4591 20.9222C22.5633 20.9341 22.6659 20.9376 22.77 20.941C22.9476 20.9461 22.9926 21.0009 22.9859 21.1848C22.9809 21.3251 22.9751 21.4662 22.9868 21.6065C23.0084 21.8691 22.8976 21.9974 22.6392 21.9974C22.5667 21.9974 22.4975 21.9769 22.4266 21.9692C22.0682 21.9341 21.7064 21.9837 21.3497 21.9162C21.2788 21.9025 21.2046 21.8965 21.1329 21.9033C20.7287 21.9435 20.3252 21.9008 19.9218 21.8991C19.8001 21.8991 19.6842 21.8298 19.5625 21.8554C19.2041 21.9324 18.8473 21.8229 18.4847 21.8589C18.213 21.8862 18.0879 21.7169 18.1063 21.4919C18.1238 21.2703 18.0979 21.047 18.1296 20.8238C18.1421 20.7374 18.1071 20.645 18.1113 20.556C18.1279 20.2147 18.1071 19.8743 18.1271 19.5321C18.1404 19.2994 18.1113 19.0565 18.1096 18.8178C18.1079 18.5364 18.1238 18.2532 18.1088 17.9726C18.0754 17.3721 18.1063 16.7707 18.1013 16.1702C18.0971 15.6433 18.0779 15.1121 18.1229 14.5843C18.1296 14.5056 18.1154 14.4243 18.1138 14.3447C18.1121 14.2361 18.173 14.1591 18.2688 14.1557C18.4013 14.1506 18.5255 14.1009 18.6639 14.1172C18.8831 14.1429 19.099 14.2062 19.3249 14.189C19.4291 14.1814 19.4816 14.2643 19.4833 14.3978C19.4858 14.6852 19.4883 14.9735 19.48 15.2601C19.475 15.4414 19.51 15.6219 19.4983 15.799C19.4816 16.0513 19.5242 16.3071 19.4625 16.5543C19.4375 16.6561 19.455 16.7468 19.4608 16.8452C19.4716 17.0659 19.4733 17.2883 19.4541 17.5081C19.4316 17.769 19.3991 18.0282 19.4233 18.2917C19.4291 18.3576 19.4366 18.426 19.425 18.4902C19.3891 18.692 19.425 18.8956 19.4066 19.0967C19.3783 19.4132 19.4516 19.7288 19.3941 20.0496C19.3599 20.2447 19.4158 20.4525 19.39 20.657C19.3808 20.7271 19.4016 20.8144 19.52 20.8033C19.6484 20.7913 19.7792 20.8007 19.9084 20.8007Z" fill="#00559F"/>
<path d="M27.2788 20.8007C27.7522 20.7896 28.2249 20.8375 28.6975 20.852C28.9509 20.8597 29.2001 20.9085 29.4594 20.8734C29.5728 20.858 29.7045 20.9085 29.8295 20.9222C29.9337 20.9341 30.0362 20.9376 30.1404 20.941C30.318 20.9461 30.363 21.0009 30.3563 21.1848C30.3513 21.3251 30.3455 21.4662 30.3571 21.6065C30.3788 21.8691 30.2679 21.9974 30.0095 21.9974C29.937 21.9974 29.8678 21.9769 29.797 21.9692C29.4385 21.9341 29.0768 21.9837 28.72 21.9162C28.6492 21.9025 28.575 21.8965 28.5033 21.9033C28.099 21.9435 27.6956 21.9008 27.2921 21.8991C27.1704 21.8991 27.0546 21.8298 26.9329 21.8554C26.5744 21.9324 26.2177 21.8229 25.8551 21.8589C25.5833 21.8862 25.4583 21.7169 25.4766 21.4919C25.4941 21.2703 25.4683 21.047 25.5 20.8238C25.5125 20.7374 25.4775 20.645 25.4816 20.556C25.4983 20.2147 25.4775 19.8743 25.4975 19.5321C25.5108 19.2994 25.4816 19.0565 25.48 18.8178C25.4783 18.5364 25.4941 18.2532 25.4791 17.9726C25.4458 17.3721 25.4766 16.7707 25.4716 16.1702C25.4675 15.6433 25.4483 15.1121 25.4933 14.5843C25.5 14.5056 25.4858 14.4243 25.4841 14.3447C25.4825 14.2361 25.5433 14.1591 25.6392 14.1557C25.7717 14.1506 25.8959 14.1009 26.0343 14.1172C26.2535 14.1429 26.4694 14.2062 26.6953 14.189C26.7995 14.1814 26.852 14.2643 26.8537 14.3978C26.8562 14.6852 26.8587 14.9735 26.8503 15.2601C26.8453 15.4414 26.8803 15.6219 26.8687 15.799C26.852 16.0513 26.8945 16.3071 26.8328 16.5543C26.8078 16.6561 26.8253 16.7468 26.8312 16.8452C26.842 17.0659 26.8437 17.2883 26.8245 17.5081C26.802 17.769 26.7695 18.0282 26.7937 18.2917C26.7995 18.3576 26.807 18.426 26.7953 18.4902C26.7595 18.692 26.7953 18.8956 26.777 19.0967C26.7486 19.4132 26.822 19.7288 26.7645 20.0496C26.7303 20.2447 26.7862 20.4525 26.7603 20.657C26.7511 20.7271 26.772 20.8144 26.8903 20.8033C27.0187 20.7913 27.1496 20.8007 27.2788 20.8007Z" fill="#00559F"/>
<path d="M32.8245 21.0958C32.8245 20.3174 32.8295 19.5355 32.8245 18.7579C32.8228 18.5492 32.8295 18.3379 32.8303 18.1283C32.8311 17.6698 32.8303 17.2113 32.8195 16.7528C32.8111 16.3926 32.8386 16.0342 32.8236 15.6758C32.8086 15.2985 32.847 14.9222 32.827 14.5458C32.8245 14.4885 32.8303 14.4286 32.847 14.3738C32.8828 14.2541 33.0037 14.1651 33.1179 14.1993C33.2779 14.2464 33.438 14.2335 33.5989 14.2378C33.8223 14.2438 33.8389 14.296 33.8731 14.5423C33.9173 14.8648 33.9064 15.1865 33.8973 15.5064C33.8864 15.8734 33.9148 16.2395 33.8789 16.6082C33.8556 16.8469 33.9106 17.0932 33.8856 17.337C33.8473 17.7049 33.9314 18.0684 33.9214 18.4328C33.9131 18.7374 33.9048 19.0419 33.9048 19.3464C33.9048 20.0667 33.9048 20.787 33.9031 21.5073C33.9031 21.5894 33.9114 21.6724 33.8756 21.7519C33.8464 21.8169 33.8081 21.8717 33.7331 21.8648C33.6089 21.8537 33.4947 21.9025 33.3755 21.9136C33.3188 21.9187 33.2621 21.9239 33.2054 21.9204C32.9503 21.905 32.8395 21.7981 32.8286 21.5381C32.8228 21.3901 32.7911 21.2421 32.8245 21.0984V21.0958Z" fill="#00559F"/>
<path d="M41.7528 17.5107C41.7511 17.3336 41.7511 17.1565 41.7494 16.9786C41.7478 16.7784 41.7419 16.5783 41.7453 16.379C41.7528 15.9769 41.7128 15.5757 41.7419 15.1728C41.7536 15.012 41.7644 14.8409 41.6969 14.6818C41.6844 14.6536 41.6919 14.6159 41.6902 14.5834C41.6736 14.2678 41.7611 14.1668 42.062 14.195C42.1912 14.207 42.3196 14.2079 42.448 14.2087C42.6105 14.2087 42.7164 14.2883 42.7172 14.4482C42.7214 14.8896 42.7697 15.3293 42.7564 15.7733C42.7472 16.0607 42.7755 16.3482 42.758 16.6347C42.7414 16.9145 42.7397 17.201 42.7172 17.4782C42.6947 17.7588 42.6605 18.0402 42.668 18.3225C42.678 18.7006 42.6447 19.0838 42.6855 19.4585C42.7239 19.805 42.7264 20.1514 42.7255 20.4936C42.7255 20.8537 42.783 21.2096 42.7655 21.568C42.7597 21.6929 42.6238 21.8426 42.4763 21.846C42.1045 21.8554 41.7319 21.8597 41.3593 21.8477C41.2068 21.8435 41.1309 21.7066 41.0709 21.5774C40.9367 21.2866 40.8167 20.9889 40.6708 20.7057C40.5316 20.4371 40.4099 20.1591 40.2499 19.8999C40.1315 19.7083 40.0515 19.4885 39.9473 19.284C39.8164 19.0299 39.6855 18.7767 39.533 18.5355C39.4455 18.3978 39.3804 18.2447 39.2954 18.1052C39.1596 17.8837 39.0278 17.6553 38.9111 17.4269C38.7636 17.1369 38.5444 16.8811 38.4719 16.5509C38.4652 16.521 38.446 16.4885 38.4102 16.4936C38.4018 16.4944 38.3977 16.5381 38.396 16.5629C38.3743 16.8409 38.3468 17.1189 38.3102 17.3961C38.2785 17.6441 38.3277 17.905 38.2843 18.1488C38.2476 18.3559 38.2918 18.562 38.2993 18.769C38.306 18.9538 38.2676 19.1352 38.2785 19.3208C38.2918 19.5475 38.3077 19.7733 38.3168 19.9991C38.3377 20.5723 38.331 21.1471 38.301 21.7169C38.2935 21.8554 38.1626 21.9897 38.0309 21.9692C37.8158 21.9358 37.5966 21.9735 37.3849 21.9008C37.2307 21.8477 37.1848 21.8067 37.1732 21.645C37.169 21.5877 37.159 21.5252 37.1732 21.4713C37.2282 21.278 37.1865 21.0804 37.1873 20.8879C37.1873 20.6595 37.1807 20.4303 37.2007 20.2019C37.2232 19.9307 37.1798 19.663 37.1757 19.3935C37.1732 19.2139 37.1607 19.0351 37.1415 18.8554C37.124 18.6955 37.1807 18.5295 37.174 18.3627C37.1648 18.1352 37.1557 17.9076 37.1432 17.6792C37.1407 17.6382 37.1357 17.6005 37.1465 17.5586C37.1982 17.3636 37.184 17.1617 37.1665 16.9658C37.1532 16.8161 37.1523 16.6655 37.1848 16.5295C37.2365 16.3148 37.2173 16.1018 37.2098 15.8922C37.2015 15.6544 37.219 15.4183 37.2399 15.1848C37.2532 15.0368 37.274 14.8879 37.2474 14.7451C37.2299 14.651 37.2665 14.5697 37.2599 14.4799C37.254 14.3978 37.3182 14.3285 37.4016 14.2968C37.5066 14.2575 37.61 14.2139 37.7275 14.2181C37.8809 14.2241 38.0317 14.2173 38.1785 14.154C38.2868 14.1069 38.3693 14.16 38.4519 14.2421C38.6227 14.4132 38.7061 14.6407 38.842 14.8332C39.0854 15.1788 39.2137 15.586 39.4196 15.9512C39.528 16.1429 39.6505 16.3276 39.7414 16.5278C39.8522 16.7733 40.0123 16.9897 40.1131 17.2421C40.1948 17.4465 40.3015 17.6433 40.4224 17.8263C40.5591 18.0342 40.6583 18.2601 40.7608 18.4833C40.9425 18.8785 41.1643 19.2481 41.4018 19.6091C41.4285 19.6501 41.4619 19.6886 41.4994 19.7186C41.571 19.7767 41.6677 19.8281 41.7436 19.7836C41.8453 19.7237 41.7703 19.5073 41.7686 19.4157C41.7611 18.9718 41.7994 18.5329 41.7728 18.0873C41.7611 17.8948 41.7569 17.7015 41.7544 17.5081L41.7528 17.5107Z" fill="#00559F"/>
<path d="M50.0775 18.1386C50.3359 18.1437 50.5944 18.148 50.8528 18.148C50.8936 18.148 50.9344 18.1463 50.9736 18.1531C51.1195 18.1796 51.227 18.2455 51.2462 18.4166C51.2604 18.5381 51.302 18.6595 51.2737 18.7819C51.2445 18.9136 51.2795 19.047 51.2954 19.1702C51.3229 19.3849 51.312 19.6296 51.3012 19.8469C51.2737 20.42 51.2604 20.9957 51.222 21.5697C51.2054 21.8204 51.1687 21.8546 50.9144 21.864C50.7786 21.8691 50.6427 21.8871 50.5068 21.9068C50.3393 21.9316 50.3001 21.9299 50.2468 21.775C50.2126 21.6766 50.1801 21.7186 50.1326 21.7374C49.9317 21.8169 49.7525 21.9427 49.5449 22.0128C49.3582 22.0761 49.1681 22.0915 48.9797 22.1215C48.7197 22.1625 48.4554 22.1446 48.1937 22.13C47.6102 22.0975 47.0951 21.8965 46.6724 21.4739C46.5983 21.4003 46.5216 21.3157 46.4824 21.2207C46.364 20.9316 46.1498 20.698 46.0431 20.4038C45.9381 20.1112 45.8305 19.8255 45.803 19.5038C45.7805 19.2335 45.7414 18.9495 45.7305 18.6835C45.7147 18.296 45.7689 17.8905 45.818 17.5064C45.8597 17.1814 45.8931 16.8546 45.9531 16.5304C45.9898 16.3293 46.0148 16.1257 46.0548 15.923C46.1006 15.6912 46.1865 15.4765 46.3098 15.29C46.6124 14.8289 46.9667 14.4157 47.491 14.1993C48.0795 13.9564 48.678 13.8914 49.3007 14.0496C49.4974 14.0992 49.6791 14.1583 49.8558 14.2669C50.0184 14.3661 50.1926 14.4474 50.3585 14.5458C50.7344 14.769 50.8561 15.1583 51.0053 15.5201C51.0812 15.7032 51.1753 15.8896 51.1978 16.1018C51.2112 16.2258 51.2187 16.349 51.2112 16.4713C51.2029 16.6125 51.1145 16.6972 50.9761 16.7109C50.7727 16.7314 50.576 16.6801 50.381 16.6322C50.2593 16.6031 50.2167 16.4885 50.1826 16.3721C50.1242 16.1745 50.0475 15.9812 49.9283 15.8144C49.7366 15.5441 49.4899 15.3379 49.1848 15.2113C49.1256 15.1865 49.0656 15.16 49.0089 15.13C48.738 14.9872 48.4654 15.0171 48.192 15.1163C48.0778 15.1583 47.972 15.2216 47.8561 15.2549C47.6752 15.3071 47.5577 15.4423 47.4285 15.5646C47.1767 15.8033 47.0967 16.1223 47.0492 16.45C46.925 17.3157 46.9083 18.1694 46.8925 19.0419C46.8883 19.2763 46.8925 19.5252 46.9642 19.7425C47.0609 20.0351 47.1551 20.3447 47.356 20.586C47.5318 20.7964 47.7777 20.9256 48.0411 20.9701C48.2737 21.0094 48.5054 21.0804 48.748 21.047C49.1665 20.9897 49.5732 20.8879 49.8833 20.5766C50.025 20.4337 50.1784 20.2626 50.1184 20.0163C50.1917 19.6809 50.0825 19.3456 50.1167 19.0103C50.1242 18.9367 50.0825 18.9504 50.0467 18.9581C49.7866 19.0163 49.5249 19.0043 49.2682 18.9538C49.0256 18.9059 48.8722 18.6005 48.9514 18.3584C49.0064 18.1899 49.1189 18.1232 49.3298 18.1257C49.5791 18.1283 49.8275 18.1343 50.0767 18.1394L50.0775 18.1386Z" fill="#00559F"/>
<path d="M58.529 14.1052C58.6366 14.13 58.7549 14.0787 58.8758 14.1035C59.02 14.1326 59.0942 14.1814 59.0917 14.3191C59.085 14.6826 59.1634 15.0419 59.1392 15.4038C59.1025 15.9581 59.1084 16.5115 59.1017 17.0659C59.1009 17.1702 59.0817 17.3088 59.1367 17.3695C59.2617 17.509 59.6118 17.4243 59.7652 17.4115C60.3879 17.3567 60.9964 17.3533 61.6182 17.3533C61.86 17.3798 62.0967 17.337 62.3359 17.3396C62.481 17.3413 62.4893 17.2891 62.506 17.1446C62.5268 16.9709 62.4926 16.8007 62.4918 16.6279C62.491 16.4628 62.521 16.3028 62.5093 16.1377C62.4968 15.9649 62.4901 15.8015 62.5085 15.6279C62.5426 15.2917 62.4751 14.9615 62.511 14.6236C62.5176 14.5586 62.5143 14.4936 62.5143 14.4311C62.5143 14.2293 62.601 14.1138 62.7835 14.1052C62.9277 14.0984 63.0703 14.1086 63.2162 14.0813C63.3487 14.0565 63.4796 14.136 63.5979 14.2121C63.6846 14.2677 63.6905 14.3584 63.7138 14.4465C63.7396 14.5423 63.778 14.6364 63.763 14.7374C63.7196 15.0411 63.7713 15.3456 63.7538 15.6476C63.7055 16.4654 63.7171 17.2849 63.7121 18.1035C63.7105 18.3636 63.7355 18.6236 63.7488 18.8828C63.7638 19.1831 63.7796 19.4893 63.7338 19.7913C63.7288 19.8238 63.713 19.8589 63.7205 19.8879C63.7896 20.1497 63.7013 20.4089 63.7088 20.6689C63.7171 20.9393 63.7271 21.2096 63.708 21.4808C63.6905 21.7186 63.6738 21.7365 63.4512 21.7964C63.2428 21.8529 63.0328 21.8298 62.8236 21.8323C62.666 21.834 62.591 21.7494 62.5868 21.5843C62.5818 21.3388 62.5576 21.095 62.5443 20.8503C62.5268 20.5244 62.5335 20.1959 62.5576 19.87C62.5643 19.7844 62.5426 19.71 62.541 19.6305C62.5335 19.2695 62.5626 18.9068 62.501 18.5475C62.4943 18.5073 62.4943 18.4628 62.5051 18.4243C62.5201 18.3704 62.5051 18.3482 62.4543 18.3473C62.2784 18.3439 62.1025 18.343 61.9266 18.3379C61.6807 18.3311 61.4382 18.4055 61.1873 18.3524C61.0589 18.3251 60.9164 18.3439 60.7838 18.3636C60.4571 18.4106 60.1253 18.3704 59.7994 18.4149C59.5985 18.4423 59.4001 18.4371 59.2001 18.4431C59.1017 18.4457 59.0567 18.5021 59.0734 18.6039C59.1109 18.8366 59.085 19.0624 59.0575 19.2943C59.0308 19.5133 59.0333 19.7417 59.0608 19.9606C59.1 20.2729 59.0817 20.586 59.0992 20.8973C59.1109 21.1078 59.1042 21.3191 59.1375 21.5295C59.1767 21.7793 59.035 21.9547 58.7899 21.9572C58.5924 21.9589 58.3932 21.9376 58.1973 21.911C58.1098 21.8991 58.0347 21.8426 58.0197 21.7348C58.0064 21.645 57.9705 21.5552 57.9755 21.4662C57.9872 21.237 57.9497 21.0103 57.9614 20.7784C57.9764 20.4799 57.9389 20.1788 57.9414 19.8794C57.943 19.7177 57.9647 19.556 57.9439 19.3935C57.9147 19.1591 57.9714 18.9247 57.9305 18.6903C57.9155 18.6031 57.9372 18.5098 57.938 18.4183C57.9405 18.1035 57.9572 17.787 57.9364 17.4731C57.928 17.3439 57.9255 17.2113 57.9305 17.0873C57.9447 16.7511 57.9014 16.414 57.9505 16.0778C57.9705 15.9444 57.9289 15.8015 57.9264 15.663C57.9205 15.2652 57.9214 14.8674 57.9197 14.4696C57.918 14.1788 57.9931 14.1009 58.2748 14.1009H58.5299V14.1027L58.529 14.1052Z" fill="#00559F"/>
<path d="M67.008 21.0958C67.008 20.3174 67.013 19.5355 67.008 18.7579C67.0064 18.5492 67.013 18.3379 67.0139 18.1283C67.0147 17.6698 67.0139 17.2113 67.003 16.7528C66.9947 16.3926 67.0222 16.0342 67.0072 15.6758C66.9922 15.2985 67.0305 14.9222 67.0105 14.5458C67.008 14.4885 67.0139 14.4286 67.0305 14.3738C67.0664 14.2541 67.1873 14.1651 67.3015 14.1993C67.4615 14.2464 67.6215 14.2335 67.7824 14.2378C68.0058 14.2438 68.0225 14.296 68.0567 14.5423C68.1008 14.8648 68.09 15.1865 68.0808 15.5064C68.07 15.8734 68.0983 16.2395 68.0625 16.6082C68.0392 16.8469 68.0942 17.0932 68.0692 17.337C68.0308 17.7049 68.115 18.0684 68.105 18.4328C68.0967 18.7374 68.0883 19.0419 68.0883 19.3464C68.0883 20.0667 68.0883 20.787 68.0867 21.5073C68.0867 21.5894 68.095 21.6724 68.0592 21.7519C68.03 21.8169 67.9916 21.8717 67.9166 21.8648C67.7924 21.8537 67.6782 21.9025 67.559 21.9136C67.5023 21.9187 67.4457 21.9239 67.389 21.9204C67.1339 21.905 67.023 21.7981 67.0122 21.5381C67.0064 21.3901 66.9747 21.2421 67.008 21.0984V21.0958Z" fill="#00559F"/>
<path d="M73.1706 20.8007C73.644 20.7896 74.1167 20.8375 74.5893 20.852C74.8427 20.8597 75.0919 20.9085 75.3512 20.8734C75.4645 20.858 75.5962 20.9085 75.7213 20.9222C75.8255 20.9341 75.928 20.9376 76.0322 20.941C76.2097 20.9461 76.2547 21.0009 76.2481 21.1848C76.2431 21.3251 76.2372 21.4662 76.2489 21.6065C76.2706 21.8691 76.1597 21.9974 75.9013 21.9974C75.8288 21.9974 75.7596 21.9769 75.6888 21.9692C75.3303 21.9341 74.9686 21.9837 74.6118 21.9162C74.5409 21.9025 74.4668 21.8965 74.3951 21.9033C73.9908 21.9435 73.5873 21.9008 73.1839 21.8991C73.0622 21.8991 72.9463 21.8298 72.8246 21.8554C72.4662 21.9324 72.1094 21.8229 71.7468 21.8589C71.4751 21.8862 71.3501 21.7169 71.3684 21.4919C71.3859 21.2703 71.3601 21.047 71.3917 20.8238C71.4042 20.7374 71.3692 20.645 71.3734 20.556C71.3901 20.2147 71.3692 19.8743 71.3892 19.5321C71.4026 19.2994 71.3734 19.0565 71.3717 18.8178C71.3701 18.5364 71.3859 18.2532 71.3709 17.9726C71.3376 17.3721 71.3684 16.7707 71.3634 16.1702C71.3592 15.6433 71.3401 15.1121 71.3851 14.5843C71.3917 14.5056 71.3776 14.4243 71.3759 14.3447C71.3742 14.2361 71.4351 14.1591 71.5309 14.1557C71.6635 14.1506 71.7877 14.1009 71.9261 14.1172C72.1453 14.1429 72.3612 14.2062 72.5871 14.189C72.6913 14.1814 72.7438 14.2643 72.7454 14.3978C72.7479 14.6852 72.7504 14.9735 72.7421 15.2601C72.7371 15.4414 72.7721 15.6219 72.7604 15.799C72.7438 16.0513 72.7863 16.3071 72.7246 16.5543C72.6996 16.6561 72.7171 16.7468 72.7229 16.8452C72.7338 17.0659 72.7354 17.2883 72.7163 17.5081C72.6938 17.769 72.6613 18.0282 72.6854 18.2917C72.6913 18.3576 72.6988 18.426 72.6871 18.4902C72.6513 18.692 72.6871 18.8956 72.6688 19.0967C72.6404 19.4132 72.7138 19.7288 72.6562 20.0496C72.6221 20.2447 72.6779 20.4525 72.6521 20.657C72.6429 20.7271 72.6638 20.8144 72.7821 20.8033C72.9105 20.7913 73.0414 20.8007 73.1706 20.8007Z" fill="#00559F"/>
<path d="M80.5409 20.8007C81.0144 20.7896 81.487 20.8375 81.9596 20.852C82.2131 20.8597 82.4623 20.9085 82.7215 20.8734C82.8349 20.858 82.9666 20.9085 83.0916 20.9222C83.1958 20.9341 83.2984 20.9376 83.4025 20.941C83.5801 20.9461 83.6251 21.0009 83.6184 21.1848C83.6134 21.3251 83.6076 21.4662 83.6193 21.6065C83.6409 21.8691 83.5301 21.9974 83.2717 21.9974C83.1992 21.9974 83.13 21.9769 83.0591 21.9692C82.7007 21.9341 82.3389 21.9837 81.9822 21.9162C81.9113 21.9025 81.8371 21.8965 81.7654 21.9033C81.3611 21.9435 80.9577 21.9008 80.5543 21.8991C80.4326 21.8991 80.3167 21.8298 80.195 21.8554C79.8366 21.9324 79.4798 21.8229 79.1172 21.8589C78.8455 21.8862 78.7204 21.7169 78.7388 21.4919C78.7563 21.2703 78.7304 21.047 78.7621 20.8238C78.7746 20.7374 78.7396 20.645 78.7438 20.556C78.7604 20.2147 78.7396 19.8743 78.7596 19.5321C78.7729 19.2994 78.7438 19.0565 78.7421 18.8178C78.7404 18.5364 78.7563 18.2532 78.7413 17.9726C78.7079 17.3721 78.7388 16.7707 78.7338 16.1702C78.7296 15.6433 78.7104 15.1121 78.7554 14.5843C78.7621 14.5056 78.7479 14.4243 78.7463 14.3447C78.7446 14.2361 78.8054 14.1591 78.9013 14.1557C79.0338 14.1506 79.158 14.1009 79.2964 14.1172C79.5156 14.1429 79.7315 14.2062 79.9574 14.189C80.0616 14.1814 80.1141 14.2643 80.1158 14.3978C80.1183 14.6852 80.1208 14.9735 80.1125 15.2601C80.1075 15.4414 80.1425 15.6219 80.1308 15.799C80.1141 16.0513 80.1567 16.3071 80.095 16.5543C80.07 16.6561 80.0875 16.7468 80.0933 16.8452C80.1041 17.0659 80.1058 17.2883 80.0866 17.5081C80.0641 17.769 80.0316 18.0282 80.0558 18.2917C80.0616 18.3576 80.0691 18.426 80.0575 18.4902C80.0216 18.692 80.0575 18.8956 80.0391 19.0967C80.0108 19.4132 80.0841 19.7288 80.0266 20.0496C79.9924 20.2447 80.0483 20.4525 80.0224 20.657C80.0133 20.7271 80.0341 20.8144 80.1525 20.8033C80.2809 20.7913 80.4117 20.8007 80.5409 20.8007Z" fill="#00559F"/>
<path d="M88.5173 22.0547C88.068 22.0205 87.6754 21.947 87.3003 21.7913C87.1744 21.7391 87.041 21.7134 86.916 21.651C86.4567 21.4234 86.16 21.012 85.8149 20.6553C85.7524 20.5902 85.7399 20.5158 85.7732 20.4098C85.8482 20.1771 86.0324 20.0359 86.165 19.8529C86.2192 19.7784 86.3984 19.7776 86.4784 19.8383C86.5167 19.8674 86.5492 19.9068 86.5809 19.9435C86.8352 20.2352 87.1286 20.4816 87.4495 20.6895C87.6037 20.7896 87.7646 20.882 87.9496 20.9213C88.1947 20.9735 88.5306 20.9102 88.7607 20.8144C89.2125 20.627 89.6009 20.3935 89.811 19.9324C89.8868 19.7656 89.851 19.58 89.7876 19.4072C89.7001 19.1642 89.5151 19.0419 89.2883 18.9589C89.0474 18.8708 88.8074 18.7776 88.5756 18.6689C88.4381 18.6048 88.2914 18.5954 88.1522 18.5783C87.8896 18.5458 87.6379 18.4594 87.3895 18.3704C87.1186 18.2729 86.8843 18.2284 86.6759 18.0128C86.4284 17.7571 86.2 17.485 86.0433 17.1583C85.8749 16.8084 85.8474 16.4294 85.8824 16.0453C85.8957 15.8991 85.9549 15.7622 86.0024 15.6245C86.0741 15.42 86.1766 15.2301 86.2992 15.053C86.4367 14.852 86.5567 14.7382 86.751 14.6031C86.9627 14.4551 87.1861 14.3328 87.4395 14.2609C87.7979 14.1591 88.1589 14.1172 88.5273 14.1309C88.8049 14.1411 88.9316 14.1779 89.375 14.4277C89.7435 14.6347 90.0702 14.9025 90.3236 15.2515C90.4637 15.444 90.4537 15.491 90.3195 15.6826C90.2186 15.8263 90.081 15.9281 89.9543 16.0411C89.8585 16.1266 89.7735 16.118 89.6701 16.0402C89.5792 15.9718 89.4792 15.9085 89.4059 15.8229C89.1666 15.5449 88.8357 15.4277 88.5248 15.2754C88.1655 15.0992 87.8321 15.1968 87.5145 15.3944C87.3486 15.4979 87.1961 15.6707 87.1061 15.8477C86.9827 16.0915 86.9327 16.568 87.1311 16.7759C87.3086 16.9615 87.5012 17.1334 87.7221 17.2626C87.9263 17.3815 88.163 17.3995 88.3772 17.4885C88.644 17.5988 88.9391 17.5843 89.2041 17.7109C89.4951 17.8494 89.8093 17.953 90.071 18.136C90.3778 18.3516 90.6795 18.5902 90.8613 18.9487C90.9438 19.1095 90.9571 19.2814 90.983 19.4491C91.0405 19.8229 90.9446 20.1754 90.8296 20.5304C90.6954 20.947 90.3836 21.2027 90.091 21.479C89.871 21.6869 89.6068 21.8195 89.3217 21.9093C89.3142 21.9119 89.3067 21.917 89.2992 21.9187C89.0224 21.9675 88.7465 22.0163 88.5148 22.0565L88.5173 22.0547Z" fill="#00559F"/>
<path d="M57.6146 3.09068C57.3337 2.70573 56.8411 2.67579 56.2267 2.67579C53.6052 2.67579 53.0634 2.96749 53.04 3.43713C53.0175 3.86912 53.5127 3.97006 53.9911 4.06672C55.1131 4.29427 55.0781 4.47476 55.0506 4.61933C54.9497 5.14542 54.5688 5.35928 53.7361 5.35928C53.5902 5.35928 53.446 5.35329 53.3243 5.34731C52.2515 5.29341 51.5771 4.84859 50.9978 3.81009C50.8811 3.60137 50.7719 3.38666 50.656 3.15825L50.6535 3.15312C50.2618 2.38067 49.8567 1.58169 49.1348 0.962361C48.3596 0.296835 47.3643 0 45.9081 0H45.9047C44.5652 0 43.3132 0.196749 42.1854 0.582549C40.8242 1.0479 39.6905 1.52951 38.7194 2.05389C37.6958 2.6065 36.7964 3.28229 36.0012 3.87853C35.8653 3.98033 35.7319 4.08041 35.6019 4.17707C34.8692 4.72027 34.2632 5.23867 33.8489 5.67408C33.3246 6.22583 33.1346 6.61078 33.2321 6.92387C33.2754 7.0633 33.4155 7.29855 33.8623 7.30111H33.8906C34.0256 7.30111 34.2774 7.29598 34.6291 7.28914C35.3202 7.27545 36.3646 7.25577 37.5333 7.25321H37.5816C38.1526 7.25321 38.7636 7.27374 39.3588 7.29341C39.9531 7.31309 40.5674 7.33362 41.1451 7.33362H41.2034C42.5121 7.3302 43.6366 7.32079 44.3085 7.3148H44.3143C44.5985 7.31223 44.7928 7.31052 44.8703 7.31052C46.394 7.31052 46.7641 7.12917 46.9258 6.95124C47.0134 6.85543 47.0551 6.73824 47.0467 6.61249C47.025 6.28743 46.7125 6.20445 46.0264 6.0231C45.032 5.75962 43.3682 5.31908 43.3857 4.31223C43.4024 3.32164 44.4618 2.48589 45.6972 2.48589C46.0089 2.48589 46.3123 2.53978 46.6008 2.64671C47.9053 3.12831 48.728 4.03764 49.5241 4.91617C49.6274 5.02994 49.73 5.14371 49.8333 5.25577C50.7269 6.22583 51.7405 7.32506 53.7394 7.32506C54.6696 7.32506 55.5174 7.09581 56.1917 6.66125C56.9036 6.20274 57.4037 5.52609 57.6371 4.70488C57.8614 3.91617 57.8547 3.41831 57.6146 3.09068Z" fill="#00559F"/>
</svg>
